<?xml version="1.0" standalone="no"?>
<!DOCTYPE svg PUBLIC "-//W3C//DTD SVG 1.1//EN" "http://www.w3.org/Graphics/SVG/1.1/DTD/svg11.dtd" >
<svg xmlns="http://www.w3.org/2000/svg" xmlns:xlink="http://www.w3.org/1999/xlink" version="1.1">
<metadata>
Created by FontForge 20170731 at Mon Dec 19 19:18:52 2016
 By Aleksey,,,
Copyright \(c\) 2016 by Zetafonts. All rights reserved.
</metadata>
<defs>
<font id="CocogoosePro-ThinItalic" horiz-adv-x="430" >
  <font-face 
    font-family="Cocogoose Pro Thin"
    font-weight="100"
    font-style="italic"
    font-stretch="normal"
    units-per-em="1920"
    panose-1="0 0 5 0 0 0 0 0 0 0"
    ascent="1536"
    descent="-384"
    x-height="1226"
    cap-height="1427"
    bbox="-381.762 -507 2753 1955"
    underline-thickness="96"
    underline-position="-288"
    slope="-12"
    unicode-range="U+000D-FB04"
  />
<missing-glyph horiz-adv-x="602" 
d="M551 56q-117 0 -206.5 50.5t-138.5 138t-49 195.5q0 48 11 101q28 135 118.5 247t216 176.5t255.5 64.5q117 0 206.5 -51.5t137.5 -140t48 -195.5q0 -54 -11 -101q-23 -114 -90 -210t-162.5 -162.5t-201.5 -95.5q-64 -17 -134 -17zM750 989q-126 0 -241.5 -61.5
t-195.5 -164.5t-105 -222q-10 -44 -10 -92q0 -99 45 -180.5t127 -129t189 -47.5q122 0 237 60t196.5 163t108.5 226q11 52 11 96q0 83 -32 151t-88.5 115t-128.5 69q-53 17 -113 17zM589.5 918q74.5 27 150.5 27t138.5 -27.5t105.5 -76.5h-537q68 50 142.5 77zM1003 404.5
q-37 -65.5 -92 -120.5h-536l636 528q53 -89 53 -188q0 -41 -9 -83q-15 -71 -52 -136.5zM243 455q0 41 9 86q30 141 145 256h534l-636 -526q-52 80 -52 184zM718.5 165q-74.5 -27 -149.5 -27t-137.5 27t-109.5 75h539q-68 -48 -142.5 -75z" />
    <glyph glyph-name="ff" unicode="ff" horiz-adv-x="1343" 
d="M1047 -60q-18 -86 -70.5 -158.5t-138.5 -116.5t-200 -44q-16 0 -24 7t-8 17q0 13 9.5 22.5t29.5 9.5q87 0 160 33.5t122.5 94t66.5 140.5l234 1105h-663l-235 -1110q-18 -86 -70.5 -158.5t-138.5 -116.5t-200 -44q-16 0 -24 7t-8 17q0 13 9.5 22.5t29.5 9.5
q87 0 160 33.5t122.5 94t66.5 140.5l234 1105h-217q-31 0 -25 28v1q3 13 11.5 17t25.5 4h217l23 111q31 149 86.5 241t144 136t220.5 44q15 0 21 -5.5t6 -12v-8.5l-1 -2q0 -6 -9 -14.5t-31 -8.5q-112 0 -186.5 -38.5t-121 -119t-75.5 -212.5l-23 -111h663l23 111
q31 149 86.5 241t144 136t220.5 44q15 0 21 -5.5t6 -12v-8.5l-1 -2q0 -6 -9 -14.5t-31 -8.5q-112 0 -186.5 -38.5t-121 -119t-75.5 -212.5l-23 -111h269q16 0 22 -4t3 -17v-1q-6 -28 -37 -28h-269z" />
    <glyph glyph-name="fi" unicode="fi" horiz-adv-x="1219" 
d="M565 1050l-235 -1110q-18 -86 -70.5 -158.5t-138.5 -116.5t-200 -44q-16 0 -24 7t-8 17q0 13 10 22.5t29 9.5q87 0 160 33.5t122.5 94t66.5 140.5l234 1105h-197q-26 0 -26 21q0 5 1 7v1q3 13 11.5 17t25.5 4h197l23 111q31 149 86.5 241t144 136t220.5 44q27 0 27 -21
v-5l-1 -2q0 -6 -9 -14.5t-31 -8.5q-111 0 -186 -38.5t-122.5 -119.5t-74.5 -212l-23 -111h557q22 0 22 -19l-1 -12l-223 -1037q-7 -32 -33 -32h-1q-23 0 -23 22q0 7 1 10l219 1018h-530zM1224 1563h49q15 0 15 -14l-1 -8l-9 -44q-5 -22 -24 -22h-48q-17 0 -17 13q0 7 1 9
l9 46q5 20 25 20z" />
    <glyph glyph-name="ffi" unicode="ffi" horiz-adv-x="1998" 
d="M1037 -60q-18 -86 -70.5 -158.5t-138.5 -116.5t-200 -44q-16 0 -24 7t-8 17q0 13 10 22.5t29 9.5q87 0 160 33.5t122.5 94t66.5 140.5l234 1105h-653l-235 -1110q-18 -86 -70.5 -158.5t-138.5 -116.5t-200 -44q-16 0 -24 7t-8 17q0 13 10 22.5t29 9.5q87 0 160 33.5
t122.5 94t66.5 140.5l234 1105h-217q-26 0 -26 21q0 5 1 7v1q3 13 11.5 17t25.5 4h217l23 111q31 149 86.5 241t144 136t220.5 44q27 0 27 -21v-5l-1 -2q0 -6 -9 -14.5t-31 -8.5q-111 0 -186 -38.5t-122.5 -119.5t-74.5 -212l-23 -111h653l23 111q31 149 86.5 241t144 136
t220.5 44q27 0 27 -21v-5l-1 -2q0 -6 -9 -14.5t-31 -8.5q-111 0 -186 -38.5t-122.5 -119.5t-74.5 -212l-23 -111h581q22 -1 22 -17v-5l-223 -1046q-7 -32 -33 -32h-1q-23 0 -23 22q0 7 1 10l217 1018h-553zM1944 1575h49q15 0 15 -14l-1 -8l-9 -44q-5 -22 -24 -22h-48
q-17 0 -17 13q0 7 1 9l9 46q5 20 25 20z" />
    <glyph glyph-name="f_f_j" unicode="ffj" horiz-adv-x="1942" 
d="M1040 -60q-18 -86 -70.5 -158.5t-138.5 -116.5t-200 -44q-16 0 -24 7t-8 17q0 13 10 22.5t29 9.5q87 0 160 33.5t122.5 94t66.5 140.5l234 1105h-656l-235 -1110q-18 -86 -70.5 -158.5t-138.5 -116.5t-200 -44q-16 0 -24 7t-8 17q0 13 10 22.5t29 9.5q87 0 160 33.5
t122.5 94t66.5 140.5l234 1105h-217q-26 0 -26 21q0 5 1 7v1q3 13 11.5 17t25.5 4h217l23 111q31 149 86.5 241t144 136t220.5 44q27 0 27 -21v-5l-1 -2q0 -6 -9 -14.5t-31 -8.5q-111 0 -186 -38.5t-122.5 -119.5t-74.5 -212l-23 -111h656l23 111q31 149 86.5 241t144 136
t220.5 44q27 0 27 -21v-5l-1 -2q0 -6 -9 -14.5t-31 -8.5q-111 0 -186 -38.5t-122.5 -119.5t-74.5 -212l-23 -111h599q11 0 17.5 -5.5t4.5 -16.5l-234 -1096q-20 -91 -78 -179t-152.5 -145.5t-215.5 -57.5q-15 0 -21 5.5t-6.5 12t0.5 9.5l1 2q0 6 9.5 15.5t32.5 9.5
q101 0 180.5 49t128.5 124.5t66 155.5l227 1067h-571zM1935 1563h49q18 0 14 -22l-9 -44q-5 -22 -24 -22h-48q-17 0 -17 13q0 6 1 9l9 46q5 20 25 20z" />
    <glyph glyph-name="f_j" unicode="fj" horiz-adv-x="1219" 
d="M565 1050l-235 -1110q-18 -86 -70.5 -158.5t-138.5 -116.5t-200 -44q-16 0 -24 7t-8 17q0 13 10 22.5t29 9.5q87 0 160 33.5t122.5 94t66.5 140.5l234 1105h-197q-26 0 -26 21q0 5 1 7v1q3 13 11.5 17t25.5 4h197l23 111q31 149 86.5 241t144 136t220.5 44q27 0 27 -21
v-5l-1 -2q0 -6 -9 -14.5t-31 -8.5q-111 0 -186 -38.5t-122.5 -119.5t-74.5 -212l-23 -111h557q22 0 22 -20q0 -7 -1 -11l-231 -1087q-20 -91 -78 -179t-152.5 -145.5t-215.5 -57.5q-15 0 -21 5.5t-6.5 12t0.5 9.5l1 2q0 6 9.5 15.5t32.5 9.5q102 0 181 49t128 124.5
t66 155.5l226 1067h-530zM1204 1563h49q18 0 14 -22l-9 -44q-5 -22 -24 -22h-48q-17 0 -17 13q0 6 1 9l9 46q5 20 25 20z" />
    <glyph glyph-name=".notdef" horiz-adv-x="602" 
d="M551 56q-117 0 -206.5 50.5t-138.5 138t-49 195.5q0 48 11 101q28 135 118.5 247t216 176.5t255.5 64.5q117 0 206.5 -51.5t137.5 -140t48 -195.5q0 -54 -11 -101q-23 -114 -90 -210t-162.5 -162.5t-201.5 -95.5q-64 -17 -134 -17zM750 989q-126 0 -241.5 -61.5
t-195.5 -164.5t-105 -222q-10 -44 -10 -92q0 -99 45 -180.5t127 -129t189 -47.5q122 0 237 60t196.5 163t108.5 226q11 52 11 96q0 83 -32 151t-88.5 115t-128.5 69q-53 17 -113 17zM589.5 918q74.5 27 150.5 27t138.5 -27.5t105.5 -76.5h-537q68 50 142.5 77zM1003 404.5
q-37 -65.5 -92 -120.5h-536l636 528q53 -89 53 -188q0 -41 -9 -83q-15 -71 -52 -136.5zM243 455q0 41 9 86q30 141 145 256h534l-636 -526q-52 80 -52 184zM718.5 165q-74.5 -27 -149.5 -27t-137.5 27t-109.5 75h539q-68 -48 -142.5 -75z" />
    <glyph glyph-name=".null" horiz-adv-x="0" 
 />
    <glyph glyph-name=".null" horiz-adv-x="0" 
 />
    <glyph glyph-name="nonmarkingreturn" unicode="&#xd;" horiz-adv-x="601" 
 />
    <glyph glyph-name="space" unicode=" " horiz-adv-x="601" 
 />
    <glyph glyph-name="exclam" unicode="!" 
d="M518.5 1558.5q9.5 9.5 21.5 9.5h1q20 0 20 -21q0 -7 -1 -11l-247 -1163q-7 -33 -31 -33h-3q-10 0 -16 6t-6 17l1 8l248 1165q3 13 12.5 22.5zM188 70q3 3 10 3h49q8 0 10 -3t0 -11l-10 -47q-3 -13 -16 -13h-49q-13 0 -10 13l10 47q3 8 6 11z" />
    <glyph glyph-name="quotedbl" unicode="&#x22;" horiz-adv-x="582" 
d="M486 1425q22 0 22 -21q0 -6 -1 -10l-61 -284q-3 -15 -12 -22.5t-21 -7.5q-22 0 -22 20q0 6 1 10l61 284q7 31 33 31zM669 1425q22 0 22 -21q0 -6 -1 -10l-61 -284q-3 -15 -12 -22.5t-21 -7.5q-22 0 -22 20q0 6 1 10l61 284q7 31 33 31z" />
    <glyph glyph-name="numbersign" unicode="#" horiz-adv-x="993" 
d="M366 454l-152 -424q-10 -30 -32 -30h-2q-23 0 -23 18q0 6 1 9q3 9 3 10l150 417h-147q-27 0 -27 19q0 5 1 8v1q6 27 38 27h155l156 434h-149q-27 0 -27 19q0 5 1 8v1q6 27 38 27h157l143 399q11 30 33 30h1q11 0 16.5 -5.5t5.5 -13.5q0 -3 -2 -11l-1 -7l-141 -392h353
l143 399q11 30 33 30h1q11 0 16.5 -5.5t5.5 -13.5q0 -3 -2 -11l-1 -7l-141 -392h169q12 0 19 -7.5t4 -20.5l-1 -1q-2 -10 -12 -18t-22 -8h-177l-156 -434h171q12 0 19 -7.5t4 -20.5v-1q-2 -10 -12.5 -18t-22.5 -8h-179l-152 -424q-10 -30 -32 -30h-2q-23 0 -23 18q0 6 1 9
q3 9 3 10l150 417h-353zM739 509l156 434h-353l-156 -434h353z" />
    <glyph glyph-name="dollar" unicode="$" horiz-adv-x="1235" 
d="M119 213q-2 6 0 13q2 12 12 19l2 2q7 4 16 4q13 0 26 -19q58 -97 156.5 -146.5t257.5 -49.5q133 0 246 38.5t193 118.5t108 198q7 28 7 55q0 85 -63 136.5t-143 76t-203 49.5q-143 28 -233.5 66.5t-135 94t-44.5 132.5q0 31 8 69q24 112 96 193t184.5 126.5t254.5 52.5
l23 121q6 27 32 27h1q22 0 22 -18q0 -6 -1 -9l-24 -120q129 0 222 -44t170 -135q6 -9 6 -19t-9 -19q-5 -5 -14 -5q-16 0 -31 18q-51 52 -96 83t-108.5 48t-155.5 17q-109 0 -218 -31t-191.5 -102t-104.5 -184q-6 -31 -6 -58q0 -75 47.5 -122.5t124.5 -74.5t203 -55l32 -7
q129 -29 212 -57.5t142.5 -86.5t59.5 -152q0 -32 -7 -66q-29 -132 -114 -222.5t-208.5 -137t-270.5 -50.5l-26 -133q-6 -27 -33 -27h-1q-21 0 -21 18q0 6 1 9l27 134q-149 4 -251.5 54.5t-171.5 162.5q-5 8 -7 14z" />
    <glyph glyph-name="percent" unicode="%" horiz-adv-x="1855" 
d="M420 1299.5q74 93.5 177.5 148.5t211.5 55q96 0 171.5 -42t118 -116t42.5 -166q0 -39 -9 -83q-24 -109 -99 -201.5t-181 -147t-216 -54.5q-94 0 -167.5 41.5t-114.5 114t-41 162.5q0 42 9 85q24 110 98 203.5zM369 1019q0 -77 33 -139t94 -97.5t142 -35.5q95 0 189 47.5
t161.5 127.5t87.5 174q8 42 8 76q0 78 -34 140.5t-97 98.5t-146 36q-94 0 -186 -47.5t-158 -128.5t-86 -175q-8 -36 -8 -77zM1538 1421.5q5 3.5 13 3.5q12 0 20 -6t8 -16q0 -9 -7 -20l-1035 -1373q-6 -9 -18 -9q-11 0 -19.5 8.5t-8.5 19.5q0 9 5 15l1030 1366q7 8 12 11.5z
M1167 558.5q74 93.5 177.5 148.5t211.5 55q96 0 171.5 -42t118 -116t42.5 -166q0 -39 -9 -83q-24 -109 -99 -201.5t-181 -147t-216 -54.5q-94 0 -167.5 41.5t-114.5 114t-41 162.5q0 42 9 85q24 110 98 203.5zM1116 278q0 -77 33 -139t94 -97.5t142 -35.5q95 0 189 47.5
t161.5 127.5t87.5 174q8 42 8 76q0 78 -34 140.5t-97 98.5t-146 36q-94 0 -186 -47.5t-158 -128.5t-86 -175q-8 -36 -8 -77z" />
    <glyph glyph-name="ampersand" unicode="&#x26;" horiz-adv-x="1615" 
d="M762 445q-11 0 -19 8q-7 9 -7 17q0 11 10 21q26 26 77.5 42.5t98.5 16.5q36 0 83 -13t125 -40q27 -10 31 -11q71 -24 129.5 -37.5t107.5 -13.5q111 0 186.5 67.5t119.5 149.5q4 9 11.5 14t15.5 5q7 0 13 -3q6 -2 10.5 -8t4.5 -13q0 -5 -5 -13q-145 -251 -367 -251
q-48 0 -85.5 8.5t-132.5 38.5l-1 -5q-26 -121 -111 -223t-205.5 -162t-249.5 -60q-107 0 -198 48t-144.5 132t-53.5 185q0 40 9 80q34 158 130.5 268t251.5 139q-123 67 -123 209q0 35 8 78q22 100 85 171t151.5 106.5t185.5 35.5q91 0 160 -31t106.5 -90t37.5 -140
q0 -37 -9 -81q-2 -11 -12 -18t-20 -7h-3q-9 0 -15.5 7t-4.5 18q8 35 8 75q0 98 -62.5 156t-186.5 58q-85 0 -162.5 -31t-132 -90t-71.5 -139q-8 -37 -8 -67q0 -87 64 -144t210 -76q12 -2 17 -9.5t2 -15.5l-5 -12q-6 -17 -28 -17q-26 0 -58 7q-38 6 -56 6q-89 0 -172 -40
t-145 -122.5t-87 -203.5q-7 -34 -7 -70q0 -89 45 -162t123 -115t172 -42q112 0 222 53t188.5 142.5t100.5 193.5l4 19q-50 15 -85 28q-42 14 -64 19t-52 5q-78 0 -136 -43q-9 -8 -20 -8z" />
    <glyph glyph-name="quotesingle" unicode="'" horiz-adv-x="339" 
d="M469 1425q22 0 22 -21q0 -6 -1 -10l-61 -284q-3 -15 -12 -22.5t-21 -7.5q-22 0 -22 20q0 6 1 10l61 284q7 31 33 31z" />
    <glyph glyph-name="parenleft" unicode="(" horiz-adv-x="544" 
d="M499.5 1236.5q131.5 238.5 285.5 422.5q11 11 23 11q10 0 18 -7.5t8 -17.5q0 -9 -5 -15q-150 -179 -280 -412.5t-186 -498.5q-36 -166 -36 -341q0 -168 30.5 -314.5t77.5 -259.5q4 -14 -5 -25t-21 -11q-16 0 -22 13q-115 278 -115 589q0 172 37 348q59 280 190.5 518.5z
" />
    <glyph glyph-name="parenright" unicode=")" horiz-adv-x="553" 
d="M320.5 198.5q-131.5 -238.5 -285.5 -422.5q-11 -11 -23 -11q-10 0 -18 7.5t-8 17.5q0 9 5 15q151 182 281 414t185 497q36 166 36 341q0 168 -30.5 314.5t-77.5 259.5q-4 14 5 25t21 11q16 0 22 -13q115 -278 115 -589q0 -172 -37 -348q-59 -280 -190.5 -518.5z" />
    <glyph glyph-name="asterisk" unicode="*" horiz-adv-x="922" 
d="M282 648h261l-75 209q-3 6 -3 12q0 11 8.5 19.5t18.5 8.5q17 0 23 -15l71 -193l163 199q10 16 28 16q7 0 14 -4v-1q11 -6 7 -22q-1 -6 -7 -16l-169 -212l255 -1q13 0 19.5 -7t4.5 -21h-1q-2 -11 -11.5 -18.5t-22.5 -7.5l-244 -3l80 -230q3 -7 3 -15q0 -11 -7 -18t-21 -7
q-18 0 -22 15l-86 244l-194 -246q-13 -18 -28 -18q-11 0 -18.5 8.5t-5.5 17.5t10 20l181 230h-244q-31 2 -26 29q7 27 38 27z" />
    <glyph glyph-name="plus" unicode="+" horiz-adv-x="864" 
d="M444 296q0 7 1 11l59 281h-279q-31 0 -26 27v1q6 27 38 27h279l60 280q2 12 11 20.5t23 8.5h1q10 0 16 -8.5t4 -20.5l-60 -280h282q12 0 19 -7.5t4 -20.5v-1q-2 -10 -12.5 -18t-22.5 -8h-282l-59 -281q-7 -32 -34 -32h-1q-21 0 -21 21z" />
    <glyph glyph-name="comma" unicode="," horiz-adv-x="438" 
d="M185 106h73q19 0 15 -22l-16 -79q-6 -31 -22 -59t-33.5 -45t-27.5 -17q-6 0 -7 4l-14 14q-2 2 -2 7q1 9 20 28q22 24 25 37q1 4 1 10q0 4 -2.5 5.5t-8.5 1.5h-25q-11 0 -15 3.5t-4 10.5t1 11l14 68q6 22 28 22z" />
    <glyph glyph-name="hyphen" unicode="-" horiz-adv-x="983" 
d="M300 553h621q12 0 18 -7t3 -21v-1q-2 -10 -12 -18t-21 -8h-621q-26 0 -26 19q0 5 1 8v1q6 27 37 27z" />
    <glyph glyph-name="period" unicode="." horiz-adv-x="415" 
d="M168 108.5q7 6.5 18 6.5h72q18 0 18 -15q0 -7 -1 -10l-15 -67q-3 -11 -7.5 -17t-14.5 -6h-80q-18 0 -14 21l15 71q2 10 9 16.5z" />
    <glyph glyph-name="slash" unicode="/" horiz-adv-x="720" 
d="M182 0h-2q-11 0 -20.5 6t-7.5 19q0 6 4 13l661 1369q8 19 22 19h3q10 0 19 -7.5t8 -19.5q0 -5 -4 -12l-660 -1369q-8 -18 -23 -18z" />
    <glyph glyph-name="zero" unicode="0" horiz-adv-x="1688" 
d="M433 1073q132 166 318 263.5t382 97.5q170 0 303.5 -75t208 -206t74.5 -293q0 -75 -16 -149q-42 -196 -174.5 -361.5t-319.5 -262t-382 -96.5q-170 0 -303 74t-207 203.5t-74 290.5q0 72 17 152q41 196 173 362zM302 572q0 -148 66 -267.5t186 -187.5t275 -68
q179 0 354 91.5t300.5 244t162.5 326.5q15 74 15 142q0 148 -66.5 267.5t-187.5 188t-276 68.5q-179 0 -353.5 -91.5t-299 -245t-161.5 -329.5q-15 -72 -15 -139z" />
    <glyph glyph-name="one" unicode="1" horiz-adv-x="451" 
d="M547 1397l-290 -1366q-7 -31 -34 -31h-1q-10 0 -15.5 6t-5.5 16q0 6 1 9l281 1321l-165 -64q-7 -4 -19 -4q-19 0 -20 18v3q0 2 -0.5 4t0.5 5q3 14 15.5 19.5t13.5 5.5l186 74q21 9 31 9h4q23 0 18 -25z" />
    <glyph glyph-name="two" unicode="2" horiz-adv-x="1158" 
d="M408.5 1131.5q-7.5 7.5 -7.5 18.5q0 7 5 15q89 130 214.5 198t266.5 68q115 0 203 -43t136 -120t48 -177q0 -46 -10 -92q-19 -94 -75.5 -183.5t-184.5 -183.5l-782 -577h873q13 0 21 -6t6 -17v-3q-8 -29 -38 -29h-941q-24 0 -24 26q0 9 4.5 18.5t11.5 14.5l829 609
q89 64 139.5 121t72 105.5t34.5 106.5q9 42 9 81q0 83 -37.5 150.5t-109.5 106t-172 38.5q-134 0 -243.5 -57t-201.5 -177q-9 -12 -15 -15.5t-13 -3.5q-11 0 -18.5 7.5z" />
    <glyph glyph-name="three" unicode="3" horiz-adv-x="1060" 
d="M436 1148q-6 7 -6 18q0 7 2 10q62 123 168.5 185.5t242.5 62.5q81 0 148.5 -32.5t107 -92.5t39.5 -141q0 -32 -8 -72q-23 -100 -87 -169t-157 -91q102 -29 156 -111.5t54 -198.5q0 -48 -11 -105q-27 -127 -109.5 -225.5t-200 -153.5t-246.5 -55q-63 0 -144 24.5t-150 95
t-80 197.5l-1 8q0 14 9 24t25 10h2q6 0 12 -4.5t7 -14.5q15 -175 123 -231t210 -56q105 0 210 50.5t180.5 137.5t97.5 191q12 57 12 108q0 131 -80.5 207.5t-250.5 76.5q-20 0 -28 5.5t-6 18.5v2q2 10 12.5 17.5t24.5 7.5q141 0 235 53t124 179q9 38 9 70q0 66 -32 115.5
t-87.5 76t-122.5 26.5q-118 0 -210 -56t-144 -151q-12 -24 -34 -24q-10 0 -16 7z" />
    <glyph glyph-name="four" unicode="4" horiz-adv-x="1104" 
d="M126 280.5q-6 6.5 -6 16.5q0 16 12 30l964 1074q2 2 8.5 9t14.5 11.5t17 4.5h5q15 0 15 -16q0 -6 -1 -9l-227 -1071h120q26 0 26 -17q0 -5 -1 -8v-2q-6 -29 -37 -29h-120l-51 -241q-3 -15 -12 -24t-22 -9h-2q-20 0 -20 18q0 5 2 15l51 241h-719q-11 0 -17 6.5zM1081 1305
l-875 -975h668z" />
    <glyph glyph-name="five" unicode="5" horiz-adv-x="1127" 
d="M191 328q18 0 25 -25q40 -154 132 -211t210 -57q129 0 243 66.5t189.5 167t96.5 196.5q9 42 9 86q0 92 -39 173t-113.5 131t-177.5 50q-91 0 -176 -27t-160 -80q-38 -27 -75 -73q-14 -18 -23 -25.5t-20 -7.5h-3q-19 0 -19 20q0 6 1 10l191 681q6 25 33 25h697
q31 0 26 -26l-1 -2q-6 -26 -36 -26h-672l-162 -563q80 73 181.5 109t215.5 36q118 0 205.5 -53t134 -142.5t46.5 -195.5q0 -47 -11 -100q-28 -133 -116.5 -244t-215 -176t-262.5 -65q-153 0 -253 81.5t-133 216.5q-3 3 -3 11q0 6 1 10q6 16 17 23l3 2q7 4 14 4z" />
    <glyph glyph-name="six" unicode="6" horiz-adv-x="1150" 
d="M967 1427q12 0 19 -8t7 -19q0 -9 -6 -15l-433 -477q58 25 112 37t114 12q116 0 206.5 -51t140.5 -140t50 -199q0 -47 -11 -100q-28 -132 -118 -244t-217 -178t-259 -66q-115 0 -205 50.5t-139.5 139t-49.5 197.5q0 46 11 101q32 151 135 266l622 685q9 9 21 9zM231 374
q0 -98 43 -176t121.5 -122.5t180.5 -44.5q118 0 233.5 59t198.5 159t108 218q10 46 10 94q0 98 -43 176.5t-121 123t-180 44.5q-118 0 -234 -59t-199.5 -160t-107.5 -219q-10 -46 -10 -93z" />
    <glyph glyph-name="seven" unicode="7" horiz-adv-x="1056" 
d="M1318 1415q6 -8 4 -21q-4 -13 -12 -24l-1101 -1355q-5 -7 -13 -11t-14 -4h-2q-12 0 -18.5 8.5t-3.5 20.5q2 11 8 17l1077 1322h-847q-26 0 -26 20q0 17 10 26t28 9h890q14 0 20 -8z" />
    <glyph glyph-name="eight" unicode="8" horiz-adv-x="1058" 
d="M506.5 1270.5q60.5 75.5 146 120t174.5 44.5q77 0 137.5 -34t94 -93.5t33.5 -133.5q0 -35 -7 -67q-22 -98 -91 -178.5t-164 -120.5q98 -35 155 -119.5t57 -193.5q0 -45 -10 -88q-25 -115 -102.5 -212.5t-187 -154.5t-224.5 -57q-100 0 -178.5 43.5t-122 120t-43.5 171.5
q0 39 10 89q20 91 73 172.5t130.5 141t167.5 87.5q-63 31 -99 92t-36 138q0 31 8 69q18 88 78.5 163.5zM473 1047q0 -61 26.5 -110t75.5 -77t113 -28q73 0 148 37t129 100.5t70 137.5q6 30 6 58q0 61 -27 111.5t-76 79.5t-113 29q-74 0 -148.5 -38.5t-128 -102.5t-69.5 -137
q-6 -31 -6 -60zM226 323q0 -82 37 -147.5t103.5 -103t152.5 -37.5q101 0 199.5 50t168.5 135.5t93 186.5q9 42 9 81q0 83 -36 149t-102.5 103.5t-153.5 37.5q-101 0 -199.5 -50t-169.5 -135.5t-92 -185.5q-10 -48 -10 -84z" />
    <glyph glyph-name="nine" unicode="9" horiz-adv-x="1064" 
d="M440 -3q-12 0 -19 8t-7 19q0 9 6 15l433 477q-58 -25 -112 -37t-114 -12q-116 0 -206.5 51t-140.5 140t-50 199q0 47 11 100q28 132 118 244t217 178t259 66q115 0 205 -50.5t139.5 -139t49.5 -197.5q0 -46 -11 -101q-32 -151 -135 -266l-622 -685q-9 -9 -21 -9z
M1176 1050q0 98 -43 176t-121.5 122.5t-180.5 44.5q-118 0 -233.5 -59t-198.5 -159t-108 -218q-10 -46 -10 -94q0 -98 43 -176.5t121 -123t180 -44.5q118 0 234 59t199.5 160t107.5 219q10 46 10 93z" />
    <glyph glyph-name="colon" unicode=":" horiz-adv-x="415" 
d="M404 1219.5q7 6.5 18 6.5h72q18 0 18 -15q0 -7 -1 -10l-14 -67q-6 -23 -23 -23h-80q-18 0 -14 21l15 71q2 10 9 16.5zM168 108.5q7 6.5 18 6.5h72q18 0 18 -15q0 -7 -1 -10l-15 -67q-3 -11 -7.5 -17t-14.5 -6h-80q-18 0 -14 21l15 71q2 10 9 16.5z" />
    <glyph glyph-name="semicolon" unicode=";" horiz-adv-x="419" 
d="M404 1219.5q7 6.5 18 6.5h72q18 0 18 -15q0 -7 -1 -10l-15 -67q-3 -11 -7.5 -17t-14.5 -6h-80q-18 0 -14 21l15 71q2 10 9 16.5zM185 106h73q19 0 15 -22l-16 -79q-6 -31 -22 -59t-33.5 -45t-27.5 -17q-6 0 -7 4l-14 14q-2 2 -2 7q1 9 20 28q22 24 25 37q1 4 1 10
q0 4 -2.5 5.5t-8.5 1.5h-25q-11 0 -15 3.5t-4 10.5t1 11l14 68q6 22 28 22z" />
    <glyph glyph-name="less" unicode="&#x3c;" horiz-adv-x="766" 
d="M220 535q0 8 9 14l606 495q12 9 25 9q10 0 16.5 -6.5t6.5 -16.5q0 -15 -14 -26l-581 -474l374 -468q6 -9 6 -17q0 -11 -8 -19t-19 -8q-12 0 -21 12l-396 495q-4 4 -4 10z" />
    <glyph glyph-name="equal" unicode="=" horiz-adv-x="966" 
d="M280 626.5q-5 7.5 -3 19.5v1q2 13 11 20.5t23 7.5h618q14 0 20.5 -7.5t3.5 -19.5v-2q-3 -12 -12.5 -19.5t-23.5 -7.5h-618q-14 0 -19 7.5zM225 368.5q-5 7.5 -3 19.5v1q7 28 34 28h618q14 0 20.5 -7.5t3.5 -19.5v-2q-2 -12 -12 -19.5t-24 -7.5h-618q-14 0 -19 7.5z" />
    <glyph glyph-name="greater" unicode="&#x3e;" horiz-adv-x="768" 
d="M770 536q0 -8 -9 -14l-606 -495q-12 -9 -25 -9q-10 0 -16.5 6.5t-6.5 16.5q0 15 14 26l581 474l-374 468q-6 9 -6 17q0 11 8 19t19 8q12 0 21 -12l396 -495q4 -4 4 -10z" />
    <glyph glyph-name="question" unicode="?" horiz-adv-x="1091" 
d="M602.5 296.5q-10.5 -7.5 -19.5 -7.5h-3q-8 0 -14.5 7.5t-3.5 20.5l45 201q16 69 65.5 122.5t88.5 78t113 65.5q131 71 210.5 149t104.5 195q7 29 7 62q0 79 -44 141t-117 97t-159 35q-112 0 -221 -50t-187.5 -139.5t-101.5 -200.5q-2 -10 -11.5 -17.5t-19.5 -7.5
q-12 0 -19 8.5t-4 20.5q27 125 110.5 225.5t202 157.5t245.5 57q118 0 204 -45t131 -119t45 -161q0 -35 -7 -66q-27 -123 -105.5 -210t-218.5 -163q-73 -38 -124 -72t-90 -81t-51 -106l-38 -177q-3 -13 -13.5 -20.5zM504 87.5q4 4.5 12 4.5h57q7 0 9.5 -1.5t2.5 -6.5t-1 -9
l-11 -54q-3 -15 -18 -15h-57q-17 0 -12 15l11 54q3 8 7 12.5z" />
    <glyph glyph-name="at" unicode="@" horiz-adv-x="1849" 
d="M1352 219q0 -55 34 -86t93 -31q93 0 171 82t126 276q23 97 23 190q0 169 -69.5 315t-204.5 234t-321 88q-224 0 -422 -112.5t-335 -303t-187 -417.5q-20 -95 -20 -179q0 -183 83.5 -328.5t235 -227.5t347.5 -82q124 0 231.5 32.5t208.5 95.5q7 7 19 7q11 0 19 -7.5
t8 -18.5q0 -15 -16 -25q-95 -61 -220 -99t-251 -38q-210 0 -374 88.5t-255.5 245t-91.5 353.5q0 86 20 183q52 245 197.5 447.5t356 321t448.5 118.5q206 0 353 -91t222.5 -245.5t75.5 -344.5q0 -103 -22 -204q-30 -147 -114.5 -277.5t-253.5 -130.5q-47 0 -87 18.5
t-63.5 52t-23.5 74.5q0 15 3 30l9 42q-69 -104 -174 -164t-224 -60q-97 0 -173 40.5t-118 113.5t-42 167q0 47 10 93q25 118 102 220t184.5 162.5t218.5 60.5q117 0 196 -67.5t102 -179.5l48 225q2 11 11 18t19 7h1q11 0 17.5 -7t4.5 -18l-132 -618q-4 -19 -4 -39zM1342 562
q0 82 -29.5 145.5t-87 99.5t-138.5 36q-98 0 -194 -52.5t-165 -141.5t-92 -194q-10 -44 -10 -89q0 -81 34.5 -142.5t98.5 -95.5t148 -34q99 0 187.5 46t150.5 128t85 187q12 56 12 107z" />
    <glyph glyph-name="A" unicode="A" horiz-adv-x="1377" 
d="M975 1426h5q5 0 11 -5t9 -16l283 -1365q1 -3 1 -9q0 -13 -6.5 -22t-19.5 -9q-8 0 -16 5t-11 16l-79 385h-781l-241 -387q-8 -12 -14.5 -15.5t-15.5 -3.5q-11 0 -17 7t-6 17q0 8 5 16l864 1365q12 19 29 21zM1141 461l-177 873l-559 -873h736z" />
    <glyph glyph-name="B" unicode="B" horiz-adv-x="1284" 
d="M486 1427h574q87 0 155 -36t106 -100.5t38 -146.5q0 -41 -8 -76q-23 -105 -94.5 -187t-173.5 -130q58 -21 103.5 -66.5t70.5 -107t25 -130.5q0 -35 -8 -75q-21 -97 -87.5 -183t-159 -137.5t-188.5 -51.5h-656q-23 0 -23 19q0 6 1 9l292 1372q6 27 33 27zM372 766h547
q81 0 162.5 41.5t140.5 112.5t77 155q7 31 7 63q0 68 -33 121.5t-92 83t-133 29.5h-547zM221 55h622q95 0 176.5 53t134 127.5t65.5 134.5q8 40 8 73q0 79 -36 140.5t-93 94.5t-118 33h-619z" />
    <glyph glyph-name="C" unicode="C" horiz-adv-x="1402" 
d="M1307 206q10 0 18 -8q5 -6 5 -14t-5.5 -16.5t-12.5 -13.5q-112 -81 -236.5 -125.5t-252.5 -44.5q-174 0 -310 75t-212 206.5t-76 296.5q0 75 16 151q43 200 177.5 367t324 264t390.5 97q128 0 233.5 -43t185.5 -123q10 -12 10 -23t-8 -18q-8 -8 -16 -8q-10 0 -25 12
q-159 148 -391 148q-178 0 -352.5 -93.5t-301 -248.5t-167.5 -331q-16 -71 -16 -142q0 -149 70.5 -270t196 -190t283.5 -69q219 0 450 156q12 8 22 8z" />
    <glyph glyph-name="D" unicode="D" horiz-adv-x="1482" 
d="M487 1427h431q179 0 317 -74t213.5 -204t75.5 -291q0 -73 -16 -146q-42 -193 -174.5 -356.5t-322.5 -259.5t-396 -96h-434q-20 0 -20 19l1 9l292 1372q6 27 33 27zM1467 854q0 149 -70 267.5t-198 186t-295 67.5h-400l-281 -1319h400q189 0 365.5 92.5t300.5 244
t162 319.5q16 71 16 142z" />
    <glyph glyph-name="E" unicode="E" horiz-adv-x="1213" 
d="M486 1427h925q15 0 23.5 -6.5t5.5 -20.5t-12 -19t-25 -5h-901l-130 -611h738q34 0 29 -25v-1q-5 -25 -40 -25h-738l-141 -662h921q15 0 22.5 -6.5t4.5 -17.5q-7 -28 -37 -28h-948q-23 0 -23 19q0 6 1 9l292 1372q6 27 33 27z" />
    <glyph glyph-name="F" unicode="F" horiz-adv-x="1181" 
d="M487 1427h932q23 0 23 -18q0 -6 -1 -9q-3 -14 -10 -18.5t-22 -4.5h-905l-142 -663h734q29 0 23 -25q-7 -27 -33 -27h-736l-134 -634q-3 -15 -10 -21.5t-21 -6.5h-1q-23 0 -23 19q0 6 1 9l292 1372q6 27 33 27z" />
    <glyph glyph-name="G" unicode="G" horiz-adv-x="1425" 
d="M1066.5 78.5q115.5 39.5 220.5 106.5l89 419q3 15 12 23.5t23 8.5q21 0 21 -21q0 -7 -1 -11l-90 -424q-5 -21 -20 -32q-109 -76 -239 -120t-256 -44q-173 0 -308.5 74.5t-211.5 205.5t-76 294q0 72 17 154q42 200 176.5 367.5t324 265t388.5 97.5q128 0 234 -43t186 -123
q9 -9 9 -22q0 -11 -8 -19t-19 -8q-13 0 -23 10q-79 72 -172 110.5t-209 38.5q-182 0 -359.5 -90t-304.5 -245t-166 -339q-15 -73 -15 -143q0 -151 69 -272t194 -189.5t286 -68.5q113 0 228.5 39.5z" />
    <glyph glyph-name="H" unicode="H" horiz-adv-x="1465" 
d="M353 683l-139 -651q-7 -32 -32 -32h-1q-22 0 -22 22q0 6 1 10l290 1363q7 32 34 32h1q20 0 20 -20q0 -8 -1 -12l-140 -658h1033l140 658q7 32 34 32h1q20 0 20 -20q0 -8 -1 -12l-290 -1363q-7 -32 -32 -32h-1q-22 0 -22 22q0 6 1 10l139 651h-1033z" />
    <glyph glyph-name="I" unicode="I" 
d="M462 1418q9 9 22 9h1q20 0 20 -20q0 -8 -1 -12l-289 -1362q-9 -33 -33 -33h-1q-22 0 -22 21q0 4 2 12l289 1362q3 14 12 23z" />
    <glyph glyph-name="J" unicode="J" 
d="M499.5 1419q8.5 9 22.5 9h2q19 0 19 -24q0 -6 -1 -9l-311 -1463q-21 -95 -79 -168.5t-140 -114t-172 -40.5q-69 0 -122 21t-86 62q-17 17 -13 33q2 10 12 17l2 2q7 5 14 5q12 0 21 -11q22 -31 65.5 -52.5t115.5 -21.5q79 0 149 39t118 103t64 137l308 1452q3 15 11.5 24z
" />
    <glyph glyph-name="K" unicode="K" horiz-adv-x="1356" 
d="M1254 42q5 -10 5 -16q0 -11 -7.5 -18.5t-17.5 -7.5q-16 0 -27 19l-492 781l-414 -359l-87 -409q-7 -32 -32 -32h-1q-22 0 -22 22q0 6 1 10l290 1362q7 32 34 32h1q20 0 20 -20q0 -8 -1 -12l-185 -867l1020 882q21 18 35 18h2q11 0 17 -8.5t4 -19.5q-2 -9 -11 -18
l-631 -546z" />
    <glyph glyph-name="L" unicode="L" horiz-adv-x="1112" 
d="M487 1427h1q20 0 20 -20q0 -8 -1 -12l-288 -1346h823q32 0 32 -19q0 -30 -40 -30h-850q-23 0 -23 19q0 6 1 9l291 1367q7 32 34 32z" />
    <glyph glyph-name="M" unicode="M" horiz-adv-x="1699" 
d="M167 28q-7 -28 -34 -28h-1q-24 3 -19 27l2 6l407 1370q6 24 28 24q7 0 13 -4t8 -12l308 -1186l806 1185q12 17 30 17q28 0 25 -24l-175 -1373q-2 -14 -10.5 -22t-19.5 -8t-18 6.5t-5 19.5l165 1276l-787 -1153q-9 -13 -25 -13h-3q-17 0 -20 13l-297 1149z" />
    <glyph glyph-name="N" unicode="N" horiz-adv-x="1465" 
d="M214 33q-7 -33 -33 -33h-1q-22 0 -22 21q0 4 2 12l290 1367q3 10 11 18t21 9h5q13 0 26 -19l775 -1308l278 1300q6 27 32 27q12 0 18 -6.5t3 -20.5l-290 -1367q-5 -19 -9.5 -26t-19.5 -7q-8 0 -13 3t-12 15l-782 1328z" />
    <glyph glyph-name="O" unicode="O" horiz-adv-x="1657" 
d="M410.5 1079q134.5 168 324.5 266t389 98q174 0 307 -74.5t206 -205.5t73 -296q0 -78 -16 -155q-41 -199 -173.5 -366t-320 -264t-386.5 -97q-173 0 -308.5 74t-211.5 205t-76 294q0 72 17 154q41 199 175.5 367zM277 560q0 -149 67.5 -266.5t192 -184t290.5 -66.5
q177 0 347 90.5t293 244.5t166 334q21 87 21 166q0 148 -68.5 261.5t-191.5 177.5t-282 67q-175 4 -350 -88t-302 -248.5t-166 -335.5q-17 -74 -17 -152z" />
    <glyph glyph-name="P" unicode="P" horiz-adv-x="1187" 
d="M482 1427h466q105 0 186.5 -46t127 -126.5t45.5 -180.5q0 -46 -10 -92q-26 -120 -107.5 -221t-195.5 -160t-235 -59h-438l-109 -510q-7 -32 -32 -32h-1q-22 0 -22 22q0 6 1 10l291 1368q6 27 33 27zM332 591h425q111 0 214.5 54.5t175.5 145t93 191.5q10 46 10 92
q0 89 -39 158t-111.5 107.5t-170.5 38.5h-430z" />
    <glyph glyph-name="Q" unicode="Q" horiz-adv-x="1657" 
d="M410.5 1079q134.5 168 324.5 266t389 98q174 0 307 -74.5t206 -205.5t73 -296q0 -78 -16 -155q-41 -195 -168 -359t-307 -262.5t-375 -104.5l-43 -199q-7 -33 -33 -33h-1q-22 0 -22 23q0 6 1 10l43 199q-167 5 -297 80.5t-201.5 204.5t-71.5 289q0 76 16 152
q41 199 175.5 367zM278 569q0 -150 68 -270t191 -188t281 -68q179 0 353 88.5t298.5 242t164.5 338.5q16 76 16 150q0 153 -68.5 271.5t-191 184.5t-278.5 66q-176 0 -350.5 -91.5t-301.5 -246t-166 -334.5q-16 -71 -16 -143z" />
    <glyph glyph-name="R" unicode="R" horiz-adv-x="1279" 
d="M909 546q-39 -6 -73 -6h-516l-109 -512q-3 -15 -10 -21.5t-21 -6.5h-1q-23 0 -23 19q0 6 1 9l292 1372q6 27 33 27h543q105 0 186.5 -46t126.5 -126.5t45 -179.5q0 -47 -10 -93q-18 -88 -68 -167.5t-122 -140t-155 -95.5l110 -545q2 -12 -5 -23t-21 -11q-8 0 -15.5 5
t-9.5 16l-108 542q-31 -11 -70 -17zM329 591h483q120 0 227.5 52t181 141.5t96.5 197.5q10 43 10 86q0 89 -40.5 159.5t-115 110.5t-172.5 40h-501z" />
    <glyph glyph-name="S" unicode="S" horiz-adv-x="1256" 
d="M140 213q-2 6 0 13q2 12 12 19l2 2q7 4 16 4q13 0 26 -19q58 -97 156.5 -146.5t257.5 -49.5q133 0 246 38.5t193 118.5t108 198q7 28 7 55q0 85 -63 136.5t-143 76t-203 49.5q-143 28 -233.5 66.5t-135 94t-44.5 132.5q0 31 8 69q25 118 104.5 202t202 127.5t277.5 43.5
q132 0 226 -43.5t170 -135.5q6 -9 6 -19t-9 -19q-5 -5 -14 -5q-16 0 -31 18q-51 52 -96 83t-108.5 48t-155.5 17q-110 0 -218.5 -31t-191 -102t-104.5 -184q-6 -31 -6 -58q0 -75 47.5 -122.5t124.5 -74.5t203 -55l32 -7q129 -29 212 -57.5t142.5 -86.5t59.5 -152
q0 -32 -7 -66q-30 -136 -119 -228t-217.5 -137t-281.5 -45q-160 0 -269.5 50.5t-181.5 167.5q-5 8 -7 14z" />
    <glyph glyph-name="T" unicode="T" horiz-adv-x="1202" 
d="M400 1427h1020q25 0 25 -19q0 -6 -1 -9q-3 -14 -10 -18.5t-22 -4.5h-479l-290 -1348q-6 -28 -31 -28h-1q-24 0 -24 19q0 6 1 9l290 1348h-482q-13 0 -21.5 5.5t-8.5 15.5q0 30 34 30z" />
    <glyph glyph-name="U" unicode="U" horiz-adv-x="1442" 
d="M297 446q0 -118 54 -212t151.5 -147.5t222.5 -53.5q142 0 280.5 77.5t236.5 202.5t126 259l175 824q3 15 12 23.5t23 8.5h1q20 0 20 -20q0 -8 -1 -12l-177 -833q-33 -157 -140.5 -292t-258 -214.5t-308.5 -79.5q-138 0 -245.5 59.5t-167 164.5t-59.5 236q0 62 13 123
l178 838q5 30 34 30h1q21 0 21 -20q0 -6 -1 -10l-178 -838q-13 -56 -13 -114z" />
    <glyph glyph-name="V" unicode="V" horiz-adv-x="1336" 
d="M658 5q-9 -5 -17 -5q-18 0 -22 20l-283 1376q-1 3 -1 8q0 23 30 23q16 0 21 -21l271 -1315l832 1317q12 19 27 19h2q11 0 17.5 -8t6.5 -18q0 -7 -5 -15l-864 -1366q-6 -10 -15 -15z" />
    <glyph glyph-name="W" unicode="W" horiz-adv-x="1985" 
d="M668 20q-7 -11 -15.5 -15.5t-14.5 -4.5h-3q-17 0 -21 20l-283 1368q-1 3 -1 10q0 12 7 20.5t20 8.5q19 0 23 -19l272 -1318l828 1318q11 19 27 19q12 0 19.5 -7t7.5 -17q0 -7 -5 -15l-340 -541l155 -753l830 1314q11 19 28 19q13 0 19.5 -6t6.5 -16q0 -9 -5 -17
l-865 -1368q-6 -10 -14.5 -15t-13.5 -5q-21 0 -25 23l-156 759z" />
    <glyph glyph-name="X" unicode="X" horiz-adv-x="1118" 
d="M1051 43q4 -7 4 -17q0 -11 -6.5 -18.5t-18.5 -7.5q-18 0 -23 13l-307 658l-586 -657q-12 -14 -24 -14q-11 0 -18 8t-7 19t6 17l604 678l-308 665q-3 8 -3 13q0 11 7.5 18.5t19.5 8.5h1q13 0 21 -14l300 -649l577 648q13 15 31 15q10 0 16 -7t6 -17q0 -9 -8 -19l-598 -670
z" />
    <glyph glyph-name="Y" unicode="Y" horiz-adv-x="1126" 
d="M593 34q-7 -34 -34 -34h-1q-21 0 -21 23q0 7 1 11l133 626l-311 725q-3 8 -3 15q0 11 7 19t19 8q18 0 26 -18l300 -699l598 701q10 11 15 13.5t10 2.5q12 0 18 -7t6 -17q0 -11 -6 -19l-626 -734z" />
    <glyph glyph-name="Z" unicode="Z" horiz-adv-x="1254" 
d="M1449.5 1422.5q6.5 -6.5 6.5 -16.5q0 -14 -10 -24l-1306 -1328h975q30 0 25 -26v-1q-6 -27 -36 -27h-1035q-12 0 -18.5 7t-6.5 17q0 9 8 19l1309 1331l-957 -1q-33 0 -28 26v1q3 14 13.5 20.5t25.5 6.5l1017 2q11 0 17.5 -6.5z" />
    <glyph glyph-name="bracketleft" unicode="[" horiz-adv-x="492" 
d="M479 1578.5q8 5.5 18 6.5h248q10 0 17 -5.5t7 -15.5q0 -14 -9 -21t-24 -7h-218l-357 -1678h218q11 0 17 -3t6 -13q0 -12 -9.5 -21t-23.5 -9h-246q-10 0 -16.5 7.5t-4.5 19.5l367 1723q2 11 10 16.5z" />
    <glyph glyph-name="backslash" unicode="\" horiz-adv-x="695" 
d="M323 1397q0 13 7 21t21 8q9 0 14.5 -3t8.5 -16l250 -1369l1 -8q0 -12 -6 -21t-18 -9q-23 0 -26 18l-251 1369q-1 3 -1 10z" />
    <glyph glyph-name="bracketright" unicode="]" horiz-adv-x="492" 
d="M229 -181.5q-8 -5.5 -18 -6.5h-248q-10 0 -17 5.5t-7 15.5q0 14 9 21t24 7h218l357 1678h-218q-11 0 -17 3t-6 13q0 12 9.5 21t23.5 9h246q10 0 16.5 -7.5t4.5 -19.5l-367 -1723q-2 -11 -10 -16.5z" />
    <glyph glyph-name="asciicircum" unicode="^" horiz-adv-x="937" 
d="M702 1434q11 0 20 -10l193 -244q9 -12 9 -23q0 -13 -11 -21l-2 -1q-7 -5 -13 -5q-18 0 -34 20l-168 220l-275 -227q-19 -17 -34 -17q-9 0 -16 8l-1 1q-6 8 -6 15q0 16 18 30l295 243q13 11 25 11z" />
    <glyph glyph-name="underscore" unicode="_" horiz-adv-x="1254" 
d="M119 -9h992q12 0 19 -7.5t4 -20.5l-1 -1q-2 -10 -12 -18t-22 -8h-992q-27 0 -27 19q0 5 1 8v1q6 27 38 27z" />
    <glyph glyph-name="grave" unicode="`" horiz-adv-x="501" 
d="M385 1506q0 11 6 18.5t18 7.5q11 0 17 -8t11 -22l74 -221q3 -7 3 -16q0 -20 -21 -23q-13 -1 -19 5.5t-12 22.5l-75 224q-2 8 -2 12z" />
    <glyph glyph-name="a" unicode="a" horiz-adv-x="1503" 
d="M1351 0h-1q-22 0 -22 21l2 12l67 318q-75 -111 -181.5 -196.5t-230.5 -133.5t-248 -48q-141 0 -258 66.5t-184.5 182t-67.5 256.5q0 58 14 125q35 169 155 315.5t284.5 233t325.5 86.5q123 0 227 -48.5t174.5 -135.5t96.5 -198l72 338q3 15 11.5 24t22.5 9h1q21 0 21 -21
q0 -8 -1 -12l-246 -1161q-8 -33 -34 -33zM1463 717q0 131 -61.5 237.5t-169 167.5t-239.5 61q-139 0 -289 -79t-262.5 -212.5t-145.5 -288.5q-12 -58 -12 -113q0 -129 61 -235t166.5 -166.5t235.5 -60.5q143 0 294.5 78.5t264 211t145.5 285.5q12 59 12 114z" />
    <glyph glyph-name="b" unicode="b" horiz-adv-x="1515" 
d="M498 1573.5q9 8.5 23 8.5h1q20 0 20 -20q0 -8 -1 -12l-148 -695q74 112 182.5 199t235.5 135.5t253 48.5q145 0 259.5 -66t178 -181.5t63.5 -257.5q0 -62 -14 -130q-35 -169 -153 -314t-280 -230.5t-323 -85.5q-127 0 -233 48t-178 134t-98 196l-68 -319q-7 -32 -32 -32
h-1q-23 0 -23 22q0 7 1 10l323 1518q3 15 12 23.5zM327 484q0 -129 60 -233t169 -163.5t251 -59.5q138 0 287.5 81t260.5 214t140 280q12 62 12 118q0 131 -57.5 236.5t-161 165.5t-235.5 60q-148 0 -301.5 -78.5t-266 -212.5t-145.5 -289q-13 -59 -13 -119z" />
    <glyph glyph-name="c" unicode="c" horiz-adv-x="1213" 
d="M1155 187q12 0 21 -11q5 -7 5 -15q0 -17 -17 -28q-228 -160 -455 -160q-148 0 -266 66t-184.5 181t-66.5 257q0 68 14 130q37 178 153.5 322t279 226.5t331.5 82.5q107 0 213 -42t174 -118q10 -10 10 -24q0 -10 -7 -17q-10 -10 -21 -10q-12 0 -21 13q-64 74 -155 108.5
t-200 34.5q-144 0 -294.5 -76t-261.5 -208t-144 -292q-13 -59 -13 -120q0 -130 59.5 -234.5t166.5 -164.5t243 -60q121 0 218 39.5t198 111.5q11 8 20 8z" />
    <glyph glyph-name="d" unicode="d" horiz-adv-x="1503" 
d="M1350 0h-1q-21 0 -21 21q0 7 1 11l69 321q-73 -111 -178 -197t-226.5 -134.5t-239.5 -48.5q-155 0 -275 65t-185.5 178t-65.5 254q0 64 15 133q35 171 152 317t282 232t337 86q126 0 228 -48t169.5 -134.5t93.5 -198.5l147 694q7 32 33 32h1q22 0 22 -22q0 -6 -1 -10
l-323 -1519q-7 -32 -34 -32zM1464 725q0 130 -58 234.5t-163.5 164t-241.5 59.5q-149 0 -299.5 -80.5t-260.5 -214.5t-143 -285q-13 -59 -13 -121q0 -128 60 -232t169 -163t250 -59q143 0 290 78.5t255.5 211t141.5 285.5q13 61 13 122z" />
    <glyph glyph-name="e" unicode="e" horiz-adv-x="1452" 
d="M270 602q-12 -60 -12 -117q0 -129 59 -233.5t165 -165t240 -60.5q88 0 165.5 23.5t136 56t121.5 76.5q7 5 16 5q15 0 22 -9q5 -6 5 -16q0 -8 -3.5 -15t-9.5 -11q-104 -75 -219 -119t-245 -44q-148 0 -264 65.5t-181 180.5t-65 256q0 59 14 127q37 170 153 316.5t278 233
t332 86.5q155 0 273 -71t181.5 -186t63.5 -242q0 -52 -10 -98l-1 -4q-6 -27 -34 -27h-1179zM685.5 1111.5q-138.5 -71.5 -244 -191t-154.5 -256.5h1149q6 33 6 68q0 113 -57.5 217t-166 169t-252.5 65q-142 0 -280.5 -71.5z" />
    <glyph glyph-name="f" unicode="f" horiz-adv-x="720" 
d="M330 -60q-18 -86 -70.5 -158.5t-138.5 -116.5t-200 -44q-16 0 -24 7t-8 17q0 13 9.5 22.5t29.5 9.5q87 0 160 33.5t122.5 94t66.5 140.5l234 1105h-197q-31 0 -25 28v1q3 13 11.5 17t25.5 4h197l23 111q31 149 86.5 241t144 136t220.5 44q15 0 21 -5.5t6 -12v-8.5l-1 -2
q0 -6 -9 -14.5t-31 -8.5q-112 0 -186.5 -38.5t-121 -119t-75.5 -212.5l-23 -111h269q16 0 22 -4t3 -17v-1q-6 -28 -37 -28h-269z" />
    <glyph glyph-name="g" unicode="g" horiz-adv-x="1521" 
d="M1311 -82q-96 -146 -242.5 -233t-327.5 -87q-58 0 -135 12t-131 33.5t-48 48.5q5 11 7 13l2 3q1 1 7.5 6t17.5 5q8 0 20 -6q50 -28 121.5 -43t149.5 -15q159 0 292.5 81.5t222.5 215.5t122 288l25 118q-72 -110 -175 -192.5t-225.5 -127.5t-252.5 -45q-143 0 -261 59.5
t-187 170t-69 256.5q0 65 15 135q35 165 153 309t282 229.5t332 85.5q120 0 222.5 -48t173 -133t98.5 -194l70 331q3 15 12.5 23.5t23.5 8.5q23 0 23 -20q0 -4 -2 -12l-203 -955q-37 -175 -133 -321zM1481 732q0 135 -63.5 237.5t-170.5 158t-234 55.5q-150 0 -301 -80.5
t-260 -212.5t-138 -276q-14 -66 -14 -132q0 -136 63 -234.5t170.5 -149.5t237.5 -51q149 0 291 67.5t246.5 185t146.5 259.5q26 88 26 173z" />
    <glyph glyph-name="h" unicode="h" horiz-adv-x="1306" 
d="M1295 785q0 97 -39 187t-118 147t-191 57q-108 0 -230.5 -60.5t-213.5 -158.5t-113 -204l-153 -720q-9 -33 -34 -33h-1q-22 0 -22 21q0 4 2 12l322 1516q3 15 11.5 24.5t22.5 9.5h1q21 0 21 -23q0 -7 -1 -11l-129 -604q101 129 240 208t288 79q121 0 210.5 -61.5
t136.5 -160.5t47 -209q0 -52 -10 -99l-143 -669q-9 -33 -34 -33h-1q-22 0 -22 21q0 4 2 12l142 666q9 42 9 86z" />
    <glyph glyph-name="i" unicode="i" 
d="M503 1563h49q18 0 14 -22l-9 -44q-5 -22 -24 -22h-48q-17 0 -17 13q0 6 1 9l9 46q5 20 25 20zM457 1226h1q23 0 23 -19q0 -4 -2 -12l-248 -1163q-7 -32 -33 -32h-1q-23 0 -23 22q0 7 1 10l248 1163q7 31 34 31z" />
    <glyph glyph-name="j" unicode="j" 
d="M527 1563h49q18 0 14 -22l-9 -44q-5 -22 -24 -22h-48q-17 0 -17 13q0 6 1 9l9 46q5 20 25 20zM461 1217.5q9 8.5 23 8.5h1q21 0 21 -21q0 -6 -1 -10l-258 -1213q-20 -91 -78 -179t-152.5 -145.5t-215.5 -57.5q-15 0 -21 5.5t-6.5 12t0.5 9.5l1 2q0 6 9.5 15.5t32.5 9.5
q101 0 180.5 49t128.5 124.5t66 155.5l258 1212q2 14 11 22.5z" />
    <glyph glyph-name="k" unicode="k" horiz-adv-x="1223" 
d="M1112 46q7 -10 7 -22q0 -10 -6 -17t-17 -7q-8 0 -15.5 3.5t-14.5 15.5l-414 739l-332 -253l-100 -471q-7 -34 -33 -34h-1q-21 0 -21 23q0 7 1 11l322 1518q7 31 34 31h1q20 0 20 -19q0 -8 -1 -12l-204 -965l823 627q15 12 23 11.5t9 -0.5q10 0 17.5 -8t4.5 -21
q-3 -10 -13 -19l-507 -385z" />
    <glyph glyph-name="l" unicode="l" horiz-adv-x="419" 
d="M494.5 1573.5q8.5 9.5 22.5 9.5h1q21 0 21 -23q0 -7 -1 -11l-322 -1516q-9 -33 -34 -33h-1q-22 0 -22 21q0 4 2 12l322 1516q3 15 11.5 24.5z" />
    <glyph glyph-name="m" unicode="m" horiz-adv-x="2014" 
d="M184 0h-1q-22 0 -22 19q0 4 2 12l247 1163q7 32 33 32h1q20 0 20 -20q0 -8 -1 -12l-38 -185q56 74 130 123t151.5 72.5t145.5 23.5q163 0 243 -86t94 -210q72 129 192.5 212.5t272.5 83.5q115 0 191.5 -48t113 -128.5t36.5 -178.5q0 -55 -13 -118l-154 -723
q-7 -32 -31 -32h-1q-24 0 -24 23q0 6 1 9l154 723q12 63 12 117q0 130 -69.5 214.5t-229.5 84.5q-121 0 -219 -63t-160 -155.5t-79 -177.5l-158 -744q-7 -31 -32 -31h-1q-23 0 -23 20q0 7 1 11l162 760q8 40 8 84q0 76 -28 143t-95 111t-178 44q-76 0 -172 -37.5t-177 -123
t-109 -220.5l-162 -761q-7 -31 -34 -31z" />
    <glyph glyph-name="n" unicode="n" horiz-adv-x="1306" 
d="M200 0h-1q-22 0 -22 19q0 4 2 12l247 1163q7 32 33 32h1q20 0 20 -20q0 -8 -1 -12l-46 -229q63 86 151 149t181.5 96t175.5 33q133 0 225.5 -55.5t139 -148t46.5 -203.5q0 -59 -11 -110l-148 -695q-7 -31 -32 -31h-1q-23 0 -23 20q0 7 1 11l148 695q11 53 11 102
q0 97 -40.5 179t-124 131.5t-205.5 49.5q-95 0 -211.5 -54t-209.5 -156t-121 -239l-151 -708q-7 -31 -34 -31z" />
    <glyph glyph-name="o" unicode="o" horiz-adv-x="1438" 
d="M375 924.5q115 144.5 276.5 229.5t330.5 85q150 0 269 -65.5t185.5 -180t66.5 -256.5q0 -60 -14 -128q-37 -170 -154.5 -316.5t-282 -233t-337.5 -86.5q-147 0 -262 66t-179 180.5t-64 255.5q0 65 15 134q35 171 150 315.5zM266 486q0 -128 58 -233t163 -165t239 -60
q155 0 305.5 81t259 215t143.5 285q14 59 14 123q0 128 -60.5 231t-169.5 162t-248 59q-146 0 -294.5 -79.5t-256.5 -212.5t-139 -283q-14 -65 -14 -123z" />
    <glyph glyph-name="p" unicode="p" horiz-adv-x="1505" 
d="M422 1217.5q9 8.5 23 8.5h1q20 0 20 -20q0 -8 -1 -12l-70 -329q73 109 179 193t230 131t249 47q143 0 260 -65.5t184.5 -180.5t67.5 -256q0 -61 -13 -120q-37 -172 -152 -319t-277.5 -234.5t-337.5 -87.5q-128 0 -231.5 48.5t-172 135t-94.5 197.5l-155 -726
q-5 -32 -32 -32h-1q-23 0 -23 23l1 9l333 1566q3 15 12 23.5zM330 494q0 -132 57.5 -238t163 -167t243.5 -61q146 0 297 80t262 215t144 291q12 57 12 112q0 128 -61.5 232.5t-168 164.5t-236.5 60q-150 0 -301.5 -78.5t-261 -210t-138.5 -280.5q-12 -61 -12 -120z" />
    <glyph glyph-name="q" unicode="q" horiz-adv-x="1494" 
d="M1258 -389.5q-9 -8.5 -23 -8.5h-1q-20 0 -20 20q0 8 1 12l153 720q-72 -111 -177.5 -197.5t-230 -135t-252.5 -48.5q-151 0 -267 66t-179.5 181.5t-63.5 257.5q0 66 15 136q35 168 154 311t283 227t326 84q125 0 229 -46.5t174 -130.5t97 -194l70 329q7 32 33 32h1
q22 0 22 -22q0 -6 -1 -10l-331 -1560q-3 -15 -12 -23.5zM1436 733q0 128 -59 230.5t-165 161t-243 58.5q-147 0 -298 -78.5t-261.5 -209.5t-141.5 -281q-15 -67 -15 -131q0 -131 58.5 -234.5t163 -162t239.5 -58.5q161 0 312 79.5t257 214t140 292.5q13 59 13 119z" />
    <glyph glyph-name="r" unicode="r" horiz-adv-x="1041" 
d="M443 1226h1q21 0 21 -21q0 -6 -1 -10l-55 -255q57 90 142 151t178.5 90t179.5 29q57 0 117 -20.5t106.5 -50.5t64.5 -57q6 -7 6 -18q0 -10 -8 -18q-10 -8 -20 -8q-11 0 -19 8q-109 109 -256 109q-103 0 -215 -48.5t-203 -156t-127 -272.5l-138 -646q-7 -32 -33 -32h-1
q-22 0 -22 22q0 6 1 10l248 1163q5 31 33 31z" />
    <glyph glyph-name="s" unicode="s" horiz-adv-x="1008" 
d="M280 6.5q-77 37.5 -113 97t-36 127.5q0 23 5 51q6 24 23 30l3 1q8 2 10 2q10 0 16 -8t6 -20q0 -6 -1 -10q-3 -21 -3 -42q0 -101 77.5 -157t216.5 -56q72 0 156 27.5t153 91t90 164.5q7 37 7 59q0 100 -76 154.5t-209 88.5q-146 36 -226 93.5t-80 162.5q0 33 7 65
q18 84 74.5 155t148 113.5t206.5 42.5q80 0 152 -35t116 -96.5t44 -138.5q0 -18 -3 -38q-6 -27 -27 -27q-11 0 -18.5 6t-5.5 18q1 8 1 23q0 68 -34.5 121.5t-96.5 84t-140 30.5q-83 0 -160.5 -33.5t-131.5 -92.5t-70 -133q-6 -27 -6 -49q0 -96 77.5 -145.5t186.5 -74.5
q163 -38 245.5 -108t82.5 -180q0 -30 -8 -70q-25 -115 -101.5 -189.5t-174.5 -108.5t-191 -34q-115 0 -192 37.5z" />
    <glyph glyph-name="t" unicode="t" horiz-adv-x="597" 
d="M737 1117q24 0 20 -25l-1 -1q-2 -9 -10.5 -16.5t-19.5 -7.5h-233l-183 -860q-5 -23 -5 -43q0 -48 26 -79.5t85 -31.5h39q31 0 31 -21q0 -7 -5 -19.5t-33 -12.5q-56 0 -80 4q-59 9 -89 48.5t-30 97.5q0 26 6 53l183 864h-163q-27 0 -22 25q4 25 33 25h163l69 323
q5 31 32 31h1q23 0 23 -22l-1 -9l-69 -323h233z" />
    <glyph glyph-name="u" unicode="u" horiz-adv-x="1300" 
d="M1423 1226h1q22 0 22 -19q0 -4 -2 -12l-248 -1163q-7 -32 -32 -32h-1q-21 0 -21 21q0 7 1 11l41 200q-62 -80 -150.5 -140.5t-183.5 -92.5t-178 -32q-134 0 -231.5 58t-148 155.5t-50.5 216.5q0 57 12 115l146 683q7 31 32 31h1q23 0 23 -20q0 -7 -1 -11l-146 -683
q-12 -58 -12 -112q0 -113 49 -199.5t135.5 -133.5t196.5 -47q105 0 224.5 54.5t210.5 153.5t118 226l158 741q7 31 34 31z" />
    <glyph glyph-name="v" unicode="v" horiz-adv-x="1129" 
d="M583 3.5q-9 -4.5 -14 -4.5h-4q-6 0 -12 4.5t-8 15.5l-252 1168q-1 3 -1 9q0 13 7 21t20 8q21 0 26 -22l238 -1108l706 1110q14 21 31 21q12 0 19 -6.5t7 -17.5q0 -8 -4 -16l-743 -1167q-7 -11 -16 -15.5z" />
    <glyph glyph-name="w" unicode="w" horiz-adv-x="1826" 
d="M1254 3.5q-9 -4.5 -14 -4.5h-5q-16 2 -19 20l-148 742l-472 -742q-7 -11 -16 -15.5t-14 -4.5h-5q-16 2 -19 20l-252 1169q-1 3 -1 9q0 13 7 21t20 8q6 0 14 -4.5t11 -15.5l239 -1110l707 1111q12 19 29 19q11 0 18 -7.5t7 -17.5q0 -9 -4 -16l-228 -357l146 -732l705 1109
q14 21 31 21q11 0 17.5 -7.5t6.5 -17.5q0 -7 -5 -17l-740 -1165q-7 -11 -16 -15.5z" />
    <glyph glyph-name="x" unicode="x" horiz-adv-x="923" 
d="M285 1187q-3 6 -3 12q0 11 9 19t22 8q14 0 23 -20l255 -560l500 564q15 16 30 16q12 0 18 -7t6 -17q0 -13 -7 -21l-524 -585l250 -551q5 -10 5 -19q0 -11 -6.5 -18.5t-18.5 -7.5q-16 0 -26 16l-243 536l-482 -538q-14 -14 -27 -14q-10 0 -17.5 8.5t-7.5 19.5q0 10 7 17
l503 558z" />
    <glyph glyph-name="y" unicode="y" horiz-adv-x="1129" 
d="M324 -397q-6 -3 -14 -3q-11 0 -18.5 8t-7.5 19q0 7 4 14l243 387l-240 1159q-1 3 -1 9q0 13 7 21.5t20 8.5q21 0 25 -19l231 -1113l702 1114q7 11 14 14.5t15 3.5q11 0 18 -7t7 -18q0 -5 -3 -13l-988 -1569q-8 -13 -14 -16z" />
    <glyph glyph-name="z" unicode="z" horiz-adv-x="1137" 
d="M1202 1202q0 -12 -10 -22l-995 -1125h730q32 0 28 -26q-4 -18 -16.5 -23.5t-22.5 -5.5h-780q-11 0 -17 7.5t-6 19.5q0 7 4 16t12 17l983 1111h-685q-15 0 -22.5 6.5t-4.5 20.5q4 18 16 23t23 5h740q23 0 23 -24z" />
    <glyph glyph-name="braceleft" unicode="{" horiz-adv-x="595" 
d="M274 701q1 8 10 16.5t27 8.5q37 0 71 11.5t70.5 61t58.5 151.5l79 371q27 131 91 196t129.5 81.5t134.5 16.5q13 0 19 -8.5t3 -18.5q-2 -12 -11 -19t-23 -7q-47 0 -98 -11.5t-108 -63.5t-80 -160l-81 -381q-22 -103 -62.5 -164.5t-86.5 -83.5q56 -42 56 -140
q0 -46 -13 -107l-76 -361q-8 -36 -8 -72q0 -101 60.5 -132t126.5 -31q30 0 30 -28q0 -11 -10 -18t-24 -7q-84 0 -161.5 41.5t-77.5 165.5q0 40 10 87l75 351q12 59 12 97q0 58 -20 86t-44 34.5t-54 6.5h-6q-12 0 -17.5 6.5t-3.5 18.5l1 1z" />
    <glyph glyph-name="bar" unicode="|" horiz-adv-x="482" 
d="M529 1426h1q21 0 21 -18q0 -6 -1 -9l-370 -1740q-6 -28 -32 -28h-1q-22 0 -22 19q0 6 1 9l370 1740q6 27 33 27z" />
    <glyph glyph-name="braceright" unicode="}" horiz-adv-x="685" 
d="M642 716q-1 -8 -10 -16.5t-27 -8.5q-37 0 -71 -11.5t-70.5 -61t-58.5 -151.5l-79 -371q-27 -131 -91 -196t-129.5 -81.5t-134.5 -16.5q-13 0 -19 8.5t-3 18.5q2 12 11 19t23 7q47 0 98 11.5t108 63.5t80 160l81 381q22 103 62.5 164.5t86.5 83.5q-56 42 -56 140
q0 46 13 107l76 361q8 36 8 72q0 101 -60.5 132t-126.5 31q-30 0 -30 28q0 11 9.5 18t24.5 7q84 0 161.5 -41.5t77.5 -165.5q0 -40 -10 -87l-75 -351q-12 -58 -12 -97q0 -58 20 -86t44 -34.5t54 -6.5h6q12 0 17.5 -6.5t3.5 -18.5l-1 -1z" />
    <glyph glyph-name="asciitilde" unicode="~" horiz-adv-x="825" 
d="M283.5 480q-8.5 -5 -16.5 -5q-9 0 -16 7l-1 2q-6 9 -6 16q0 11 15 23q48 44 84 63t78 19q25 0 46.5 -10.5t54.5 -31.5q31 -21 52.5 -31.5t46.5 -10.5q24 0 46 14t40 29.5t25 21.5q6 5 14 9.5t15 4.5q8 0 14 -5q5 -5 5 -12q0 -15 -17 -32q-43 -43 -79.5 -62.5t-78.5 -19.5
q-26 0 -48 10.5t-53 31.5q-28 20 -48 29.5t-43 9.5q-33 0 -55.5 -13.5t-58.5 -45.5q-7 -6 -15.5 -11z" />
    <glyph glyph-name="exclamdown" unicode="&#xa1;" 
d="M502 1155q-3 -3 -10 -3h-49q-8 0 -10 3t0 11l10 47q3 13 16 13h49q13 0 10 -13l-10 -47q-3 -8 -6 -11zM171.5 -333.5q-9.5 -9.5 -21.5 -9.5h-1q-20 0 -20 21q0 7 1 11l247 1163q7 33 31 33h3q10 0 16 -6t6 -17l-1 -8l-248 -1165q-3 -13 -12.5 -22.5z" />
    <glyph glyph-name="cent" unicode="&#xa2;" horiz-adv-x="1213" 
d="M641 -184q0 7 1 11l32 154q-142 5 -251.5 70.5t-170 176t-60.5 247.5q0 69 14 132q37 171 150.5 311.5t269.5 224.5t315 94l35 162q2 12 11 20.5t23 8.5h1q10 0 16 -8.5t4 -20.5l-35 -162q95 -3 179.5 -39.5t153.5 -103.5q8 -8 8 -19q0 -10 -8 -17.5t-19 -7.5t-19 7
q-137 126 -312 126q-148 0 -302 -75.5t-267.5 -208t-146.5 -292.5q-14 -62 -14 -128q0 -127 56.5 -228t159 -158.5t236.5 -57.5q104 0 205 32t184 92q9 8 21 8q11 0 18 -7t7 -18q0 -16 -17 -27q-170 -123 -390 -134l-32 -154q-7 -32 -34 -32h-1q-21 0 -21 21z" />
    <glyph glyph-name="sterling" unicode="&#xa3;" horiz-adv-x="1080" 
d="M765 718q12 0 19 -7.5t4 -20.5v-1q-2 -10 -11 -15t-21 -5h-383l-134 -619h770q18 0 26 -3.5t5 -16.5v-1q-3 -14 -14 -21.5t-26 -7.5h-797q-23 0 -23 19q0 6 1 9l138 641h-67q-17 0 -24.5 3.5t-4.5 17.5v1q6 27 38 27h67l54 253q26 124 115.5 229t214 166.5t248.5 61.5
q52 0 110 -16.5t107 -43t76 -55.5q17 -19 17 -30q0 -6 -6 -14q-8 -10 -21 -10q-9 0 -16 8q-43 43 -116.5 76.5t-158.5 33.5q-101 0 -212 -53t-196 -149.5t-112 -220.5l-50 -236h383z" />
    <glyph glyph-name="currency" unicode="&#xa4;" horiz-adv-x="1035" 
d="M298 644q34 59 84 107l-51 66q-7 9 -4 21q1 9 10 18h1q12 9 21 9q11 0 19 -9l52 -65q55 43 120 66t131 23q64 0 117.5 -21t93.5 -60l69 57q14 9 23 9q11 0 17 -9h1q5 -4 3 -18q-5 -14 -13 -21l-68 -56q51 -71 51 -167q0 -34 -8 -74q-14 -67 -50.5 -127t-91.5 -109l38 -48
q9 -11 7 -24q-3 -11 -13 -18v-1q-12 -9 -20 -9q-12 0 -22 13l-38 48q-58 -39 -121 -60.5t-128 -21.5q-67 0 -122 23.5t-94 66.5l-68 -56q-14 -13 -26 -13q-10 0 -16 9v1q-8 9 -5 18q1 12 17 24l69 57q-42 68 -42 150q0 37 9 77q14 65 48 124zM298 458q0 -68 31 -122.5
t86 -86t125 -31.5q83 0 162.5 41t136 110.5t73.5 150.5q7 37 7 61q0 68 -32 124t-88.5 88t-129.5 32q-80 0 -158 -41.5t-133.5 -112t-72.5 -151.5q-7 -29 -7 -62z" />
    <glyph glyph-name="yen" unicode="&#xa5;" horiz-adv-x="1139" 
d="M688 574h259q12 0 18 -7t3 -21l-1 -1q-2 -10 -11.5 -18t-20.5 -8h-259l-44 -205h259q12 0 18 -7t3 -21v-1q-2 -10 -11.5 -18t-20.5 -8h-259l-48 -225q-7 -34 -34 -34h-1q-21 0 -21 23q0 7 1 11l48 225h-264q-31 0 -26 27l1 1q6 27 36 27h264l44 205h-264q-26 0 -26 18
q0 6 1 9v1q6 27 37 27h263l19 86l-311 725q-3 8 -3 15q0 11 7 19t19 8q16 0 24 -18l300 -699l598 701q15 16 27 16t18 -7t6 -17q0 -11 -6 -19l-626 -734z" />
    <glyph glyph-name="brokenbar" unicode="&#xa6;" horiz-adv-x="574" 
d="M509 1426h1q21 0 21 -18q0 -6 -1 -9l-158 -742q-6 -28 -32 -28h-1q-22 0 -22 19q0 6 1 9l158 742q6 27 33 27zM297 430h1q21 0 21 -18q0 -6 -1 -9l-158 -742q-6 -28 -32 -28h-1q-22 0 -22 19q0 6 1 9l158 742q6 27 33 27z" />
    <glyph glyph-name="section" unicode="&#xa7;" horiz-adv-x="1014" 
d="M860.5 1338q-48.5 32 -126.5 32q-64 0 -122.5 -24t-100 -69t-54.5 -105q-3 -13 -3 -25q0 -72 75 -114.5t147 -57.5q123 -30 180.5 -83.5t57.5 -130.5q0 -26 -6 -53q-21 -98 -95.5 -163t-174.5 -91q66 -31 106.5 -79.5t40.5 -115.5q0 -27 -5 -48q-18 -85 -77.5 -145.5
t-141 -91.5t-162.5 -31q-60 0 -113 28.5t-88 75.5t-46 100q-2 3 0 11q4 16 18 22l2 1q6 3 14 3q16 0 19 -15q23 -85 75 -128.5t121 -43.5q55 0 125 22t127 69t72 119q4 22 4 33q0 52 -36 93.5t-90 67t-108 36.5q-55 12 -106 39.5t-83.5 70.5t-32.5 97q0 21 4 38
q14 66 55.5 123t103 95t132.5 50q-72 25 -121 69.5t-49 109.5q0 20 4 39q16 77 62.5 135t116.5 89.5t154 31.5q92 0 152.5 -36.5t99.5 -122.5q2 -1 2 -6q0 -6 -1 -10q-1 -2 -3.5 -9t-9.5 -11l-4 -2q-7 -4 -16 -4q-16 0 -21 15q-25 68 -73.5 100zM528 493h17q64 0 129 22
t114.5 69.5t64.5 119.5q5 25 5 43q0 64 -45.5 102t-125.5 62l-25 1q-68 0 -137.5 -24t-123 -75t-69.5 -128q-3 -13 -3 -27q0 -60 54.5 -101t122.5 -62q10 -2 22 -2z" />
    <glyph glyph-name="dieresis" unicode="&#xa8;" horiz-adv-x="799" 
d="M481 1347h59q12 0 17 -8t3 -20l-12 -54q-5 -28 -30 -28h-60q-12 0 -16.5 4t-4.5 13q0 7 1 11l12 57q7 25 31 25zM791 1347h59q12 0 17.5 -8t2.5 -20l-12 -54q-5 -28 -30 -28h-60q-12 0 -16.5 4t-4.5 13q0 7 1 11l12 57q7 25 31 25z" />
    <glyph glyph-name="copyright" unicode="&#xa9;" horiz-adv-x="1657" 
d="M424 1078q134 168 322.5 266.5t386.5 98.5q171 0 306 -75.5t210 -208t75 -296.5q0 -75 -16 -151q-43 -198 -177.5 -365t-322.5 -264.5t-385 -97.5q-172 0 -306.5 74.5t-209.5 205t-75 293.5q0 79 17 154q41 198 175 366zM289 571q0 -150 67 -271.5t189 -191t280 -69.5
q182 0 359 91.5t304 246t166 335.5q15 72 15 141q0 151 -67.5 273t-189.5 192t-280 70q-181 0 -358.5 -91.5t-304.5 -247t-165 -337.5q-15 -72 -15 -141zM1345 1024q-1 -8 -5 -12l-4 -4q-8 -8 -21 -8q-11 0 -24 10q-45 38 -89.5 57t-101.5 19q-99 0 -199 -50.5
t-172.5 -136.5t-92.5 -185q-9 -42 -9 -83q0 -81 35 -147.5t100.5 -105.5t153.5 -39q61 0 129.5 21t122.5 60q8 6 19 6q14 0 18 -7l2 -4q2 -4 2 -7l-2 -9q-2 -11 -11 -19q-60 -45 -132.5 -70t-146.5 -25q-100 0 -178.5 44t-122.5 121.5t-44 173.5q0 46 10 90
q25 116 103 213.5t188.5 155t227.5 57.5q72 0 132 -23t105 -68q12 -11 7 -25z" />
    <glyph glyph-name="ordfeminine" unicode="&#xaa;" horiz-adv-x="975" 
d="M866.5 809q-45.5 -35 -104.5 -53.5t-139 -18.5q-84 0 -150 36.5t-103 100.5t-37 144q0 40 8 75q21 98 86.5 180t157.5 130t190 48q94 0 163.5 -45.5t102.5 -123.5l26 120q2 13 12 21t24 8h1q11 0 16.5 -8.5t3.5 -20.5l-126 -629q-2 -11 -14 -20.5t-23 -9.5h-2
q-14 0 -21.5 9t-4.5 22l27 126q-48 -56 -93.5 -91zM390 1029q0 -67 31.5 -120.5t87 -84t126.5 -30.5q82 0 158.5 39.5t131.5 108t73 151.5q7 29 7 62q0 67 -30.5 121t-85.5 85.5t-126 31.5q-81 0 -159 -41t-134 -110t-73 -149q-7 -31 -7 -64z" />
    <glyph glyph-name="guillemotleft" unicode="&#xab;" horiz-adv-x="1296" 
d="M250 535q0 8 9 14l576 465q12 9 25 9q10 0 16.5 -6.5t6.5 -16.5q0 -15 -14 -26l-551 -444l374 -468q6 -9 6 -17q0 -11 -8 -19t-19 -8q-12 0 -21 12l-396 495q-4 4 -4 10zM710 535q0 8 9 14l576 465q12 9 25 9q10 0 16.5 -6.5t6.5 -16.5q0 -15 -14 -26l-551 -444l374 -468
q6 -9 6 -17q0 -11 -8 -19t-19 -8q-12 0 -21 12l-396 495q-4 4 -4 10z" />
    <glyph glyph-name="logicalnot" unicode="&#xac;" horiz-adv-x="1054" 
d="M262.5 678q-6.5 5 -5.5 15v7q1 2 0.5 3t-0.5 2q3 11 12.5 17t22.5 6h700q12 0 17.5 -3.5t5.5 -12.5q0 -8 -1 -12l-72 -339q-2 -12 -9.5 -19.5t-18.5 -7.5h-6q-22 0 -22 18q0 6 1 9l67 312h-673q-12 0 -18.5 5z" />
    <glyph glyph-name="uni00AD" unicode="&#xad;" horiz-adv-x="1037" 
d="M344 699h660q12 0 18 -7t3 -21v-1q-2 -10 -12 -18t-21 -8h-660q-26 0 -26 19q0 5 1 8v1q6 27 37 27z" />
    <glyph glyph-name="registered" unicode="&#xae;" horiz-adv-x="1686" 
d="M437.5 1073q133.5 167 321.5 265t385 98q172 0 305.5 -74.5t207 -205.5t73.5 -295q0 -76 -16 -152q-41 -197 -174 -363t-320.5 -263.5t-384.5 -97.5q-172 0 -306 74.5t-208 205.5t-74 294q0 74 16 150q41 197 174.5 364zM305 569q0 -149 67 -269t188 -189t277 -69
q179 0 355 91t302 244.5t163 331.5q15 72 15 140q0 150 -67 270.5t-187.5 189.5t-276.5 69q-180 0 -356 -90.5t-302 -244.5t-163 -334q-15 -72 -15 -140zM1034 624h-272l-62 -292q-3 -12 -12.5 -19t-19.5 -7h-1q-12 0 -18 7t-4 19l167 785q3 15 19 15h311q60 0 107 -26
t73 -72t26 -103q0 -26 -6 -53q-18 -80 -74.5 -143.5t-133.5 -92.5l75 -290q1 -3 1 -8q0 -10 -10.5 -20t-22.5 -10h-1q-5 0 -11.5 3t-9.5 9l-79 301q-22 -3 -42 -3zM774 678h239q63 0 121 24.5t99 69.5t54 106q6 27 6 50q0 71 -47 110.5t-128 39.5h-259z" />
    <glyph glyph-name="macron" unicode="&#xaf;" horiz-adv-x="937" 
d="M420 1300h622q26 0 21 -26v-1q-2 -9 -11.5 -16.5t-20.5 -7.5h-621q-30 0 -25 25l1 1q4 25 34 25z" />
    <glyph glyph-name="degree" unicode="&#xb0;" horiz-adv-x="655" 
d="M356.5 1126.5q45.5 56.5 109 90t129.5 33.5q58 0 103.5 -25.5t71 -70t25.5 -99.5q0 -24 -6 -51q-14 -67 -59 -123.5t-108.5 -89.5t-130.5 -33q-58 0 -103.5 25.5t-71 69.5t-25.5 100q0 24 6 51q14 66 59.5 122.5zM347 959q0 -65 39 -108t105 -43q52 0 103.5 26.5t88 71
t46.5 95.5q6 26 6 48q0 65 -39 106t-106 41q-52 0 -102.5 -27t-87.5 -71.5t-49 -96.5q-4 -19 -4 -42z" />
    <glyph glyph-name="plusminus" unicode="&#xb1;" horiz-adv-x="954" 
d="M486 296q0 6 1 9l60 279h-276q-32 0 -27 27l1 1q6 27 37 27h276l66 310q2 12 11 20.5t23 8.5h1q10 0 16.5 -8.5t3.5 -20.5l-66 -310h287q12 0 19 -7.5t4 -20.5v-1q-2 -10 -12 -18t-22 -8h-287l-60 -279q-5 -32 -33 -32h-1q-22 0 -22 23zM139.5 7.5q-5.5 7.5 -3.5 19.5v1
q7 28 34 28h618q14 0 20.5 -7.5t4.5 -19.5l-1 -2q-2 -12 -11.5 -19.5t-23.5 -7.5h-618q-14 0 -19.5 7.5z" />
    <glyph glyph-name="uni00B2" unicode="&#xb2;" horiz-adv-x="741" 
d="M250.5 653.5q-5.5 9.5 -3.5 20.5v3q4 15 26 35l402 321q124 98 136 163q5 25 5 42q0 62 -44 99t-115 37q-53 0 -105 -24.5t-89 -68t-49 -96.5q-3 -15 -13.5 -21t-17.5 -6h-2q-10 0 -17 7t-4 20q14 67 58.5 122.5t108 88t131.5 32.5q96 0 155.5 -49.5t59.5 -133.5
q0 -20 -5 -48q-11 -52 -51.5 -101.5t-78.5 -78.5l-405 -319h428q12 0 18 -6.5t4 -17.5l-1 -4q-2 -10 -12 -18t-21 -8h-481q-12 0 -17.5 9.5z" />
    <glyph glyph-name="uni00B3" unicode="&#xb3;" horiz-adv-x="680" 
d="M679.5 1147q48.5 34 60.5 91q3 17 3 33q0 47 -28.5 74.5t-79.5 27.5q-39 0 -76.5 -17t-64 -48t-34.5 -69q-3 -11 -12.5 -20t-22.5 -9h-3q-22 0 -22 23q0 5 1 8q12 54 47.5 96.5t85.5 66t103 23.5q71 0 117 -41t46 -107q0 -21 -4 -40q-11 -49 -41.5 -87.5t-73.5 -62.5
q47 -27 72 -69t25 -97q0 -29 -5 -52q-14 -68 -60 -123.5t-111 -86.5t-135 -31q-61 0 -107 24.5t-71.5 68t-25.5 100.5q0 26 6 53q3 13 13 20t18 7h2q13 0 18.5 -8t3.5 -19q-5 -20 -5 -47q0 -65 40.5 -105t109.5 -40q55 0 108.5 24.5t91.5 67.5t50 96q4 19 4 39
q0 65 -46.5 106.5t-117.5 41.5q-11 0 -18 7t-5 19l1 3q2 11 12.5 18t20.5 7q61 0 109.5 34z" />
    <glyph glyph-name="acute" unicode="&#xb4;" horiz-adv-x="513" 
d="M511 1239h-2q-10 1 -17 7.5t-5 17.5q1 7 9 18l177 229q9 13 15.5 16.5t13.5 3.5h2q9 -1 15 -7t6 -15q0 -12 -8 -22l-176 -228q-16 -20 -30 -20z" />
    <glyph glyph-name="uni00B5" unicode="&#xb5;" horiz-adv-x="1139" 
d="M380 25.5q-77 50.5 -113 139.5l-108 -505q-3 -16 -12.5 -23t-19.5 -7h-2q-24 0 -24 21q0 5 1 8l266 1251q7 28 35 28h3q20 0 20 -22q0 -5 -1 -8l-115 -540q-8 -36 -8 -77q0 -75 32 -134t92 -92t140 -33q95 0 184.5 45t152.5 122t83 169l115 541q6 32 34 32h4
q8 0 14.5 -5.5t6.5 -16.5q0 -6 -1 -9l-111 -522q-23 -109 -93 -204t-173 -152t-218 -57q-107 0 -184 50.5z" />
    <glyph glyph-name="paragraph" unicode="&#xb6;" horiz-adv-x="1323" 
d="M1589 1409q0 -5 -1 -8v-2q-3 -13 -13 -19.5t-23 -6.5h-261l-286 -1345q-6 -28 -30 -28h-2q-12 0 -18 8t-4 20l286 1345h-291l-286 -1345q-2 -12 -10.5 -20t-21.5 -8h-2q-10 0 -16.5 8t-4.5 20l110 514q-129 0 -231.5 36.5t-162 112t-59.5 188.5q0 50 12 105
q25 121 105.5 222.5t194.5 161.5t234 60h756q25 0 25 -19z" />
    <glyph glyph-name="periodcentered" unicode="&#xb7;" horiz-adv-x="415" 
d="M280 587.5q7 6.5 18 6.5h72q17 0 17 -14q0 -7 -1 -11l-14 -67q-6 -23 -23 -23h-80q-17 0 -13 21l15 71q2 10 9 16.5z" />
    <glyph glyph-name="cedilla" unicode="&#xb8;" horiz-adv-x="534" 
d="M205 53h1q11 0 15.5 -4t4.5 -12q0 -7 -1 -11l-32 -152q50 -8 80 -46t30 -90q0 -16 -3 -32q-10 -46 -41 -85t-74 -62t-89 -23q-11 0 -17 6.5t-6 15.5q0 13 10 22.5t23 9.5q36 0 69 19.5t53 52t20 67.5q0 33 -20 56t-55 33q-40 8 -37 24l39 184q5 27 30 27z" />
    <glyph glyph-name="uni00B9" unicode="&#xb9;" horiz-adv-x="405" 
d="M515.5 1421.5q4.5 -6.5 2.5 -17.5l-157 -737q-5 -26 -30 -26h-3q-11 0 -17 7t-4 19l147 690l-49 -19q-6 -2 -13 -2q-18 0 -21 16v3q-1 2 -1 9q5 19 22 26l86 34q9 4 22 4h2q9 0 13.5 -6.5z" />
    <glyph glyph-name="ordmasculine" unicode="&#xba;" horiz-adv-x="1031" 
d="M448 1272.5q66 82.5 158 130.5t189 48q84 0 149.5 -36.5t102.5 -101t37 -144.5q0 -41 -8 -76q-23 -106 -90.5 -187.5t-159 -125t-183.5 -43.5q-84 0 -150 36.5t-103 100.5t-37 144q0 40 8 75q21 97 87 179.5zM411 1029q0 -67 31 -120.5t87 -84t126 -30.5q82 0 159 39.5
t132 108t73 151.5q7 29 7 62q0 67 -31 121t-86 85.5t-126 31.5q-81 0 -159 -41t-133.5 -110t-72.5 -149q-7 -31 -7 -64z" />
    <glyph glyph-name="guillemotright" unicode="&#xbb;" horiz-adv-x="1304" 
d="M795 506q0 -8 -9 -14l-576 -465q-12 -9 -25 -9q-10 0 -16.5 6.5t-6.5 16.5q0 15 14 26l551 444l-374 468q-6 9 -6 17q0 11 8 19t19 8q12 0 21 -12l396 -495q4 -4 4 -10zM1255 506q0 -8 -9 -14l-576 -465q-12 -9 -25 -9q-10 0 -16.5 6.5t-6.5 16.5q0 15 14 26l551 444
l-374 468q-6 9 -6 17q0 11 8 19t19 8q12 0 21 -12l396 -495q4 -4 4 -10z" />
    <glyph glyph-name="onequarter" unicode="&#xbc;" horiz-adv-x="1348" 
d="M533.5 1421.5q4.5 -6.5 2.5 -17.5l-157 -737q-5 -26 -30 -26h-3q-11 0 -17 7t-4 19l147 690l-49 -19q-6 -2 -13 -2q-18 0 -21 16v3q-1 2 -1 9q5 19 22 26l86 34q9 4 22 4h2q9 0 13.5 -6.5zM1247 1421.5q5 3.5 13 3.5q12 0 20 -6t8 -16q0 -9 -7 -20l-1035 -1373
q-6 -9 -18 -9q-11 0 -19.5 8.5t-8.5 19.5q0 9 5 15l1030 1366q7 8 12 11.5zM804 171q3 12 19 30l500 560q21 26 40 26h2q16 0 16 -17q0 -5 -1 -9l-118 -557h61q10 0 18 -6.5t5 -18.5v-2q-3 -13 -12.5 -19.5t-22.5 -6.5h-61l-25 -122q-3 -13 -13 -21t-19 -8h-3q-9 0 -15.5 8
t-3.5 21l25 122h-367q-30 0 -25 20zM1306 668l-414 -464h316z" />
    <glyph glyph-name="onehalf" unicode="&#xbd;" horiz-adv-x="1513" 
d="M573.5 1421.5q4.5 -6.5 2.5 -17.5l-157 -737q-5 -26 -30 -26h-3q-11 0 -17 7t-4 19l147 690l-49 -19q-6 -2 -13 -2q-18 0 -21 16v3q-1 2 -1 9q5 19 22 26l86 34q9 4 22 4h2q9 0 13.5 -6.5zM1319 1421.5q5 3.5 13 3.5q12 0 20 -6t8 -16q0 -9 -7 -20l-1035 -1373
q-6 -9 -18 -9q-11 0 -19.5 8.5t-8.5 19.5q0 9 5 15l1030 1366q7 8 12 11.5zM928.5 10.5q-5.5 9.5 -3.5 20.5v3q4 15 26 35l402 321q124 98 136 163q5 25 5 42q0 62 -44 99t-115 37q-53 0 -105 -24.5t-89 -68t-49 -96.5q-3 -15 -13.5 -21t-17.5 -6h-2q-10 0 -17 7t-4 20
q14 67 58.5 122.5t108 88t131.5 32.5q96 0 155.5 -49.5t59.5 -133.5q0 -20 -5 -48q-11 -52 -51.5 -101.5t-78.5 -78.5l-405 -319h428q12 0 18 -6.5t4 -17.5l-1 -4q-2 -10 -12 -18t-21 -8h-481q-12 0 -17.5 9.5z" />
    <glyph glyph-name="threequarters" unicode="&#xbe;" horiz-adv-x="1369" 
d="M670.5 1147q48.5 34 60.5 91q3 17 3 33q0 47 -28.5 74.5t-79.5 27.5q-39 0 -76.5 -17t-64 -48t-34.5 -69q-3 -11 -12.5 -20t-22.5 -9h-3q-22 0 -22 23q0 5 1 8q12 54 47.5 96.5t85.5 66t103 23.5q71 0 117 -41t46 -107q0 -21 -4 -40q-11 -49 -41.5 -87.5t-73.5 -62.5
q47 -27 72 -69t25 -97q0 -29 -5 -52q-14 -68 -60 -123.5t-111 -86.5t-135 -31q-61 0 -107 24.5t-71.5 68t-25.5 100.5q0 26 6 53q3 13 13 20t18 7h2q13 0 18.5 -8t3.5 -19q-5 -20 -5 -47q0 -65 40.5 -105t109.5 -40q55 0 108.5 24.5t91.5 67.5t50 96q4 19 4 39
q0 65 -46.5 106.5t-117.5 41.5q-11 0 -18 7t-5 19l1 3q2 11 12.5 18t20.5 7q61 0 109.5 34zM1393 1421.5q5 3.5 13 3.5q12 0 20 -6t8 -16q0 -9 -7 -20l-1035 -1373q-6 -9 -18 -9q-11 0 -19.5 8.5t-8.5 19.5q0 9 5 15l1030 1366q7 8 12 11.5zM787 170q3 12 19 30l500 560
q21 26 40 26h2q16 0 16 -17q0 -5 -1 -9l-118 -557h61q10 0 18 -6.5t5 -18.5v-2q-3 -13 -12.5 -19.5t-22.5 -6.5h-61l-25 -122q-3 -13 -13 -21t-19 -8h-3q-9 0 -15.5 8t-3.5 21l25 122h-367q-30 0 -25 20zM1289 667l-414 -464h316z" />
    <glyph glyph-name="questiondown" unicode="&#xbf;" horiz-adv-x="1091" 
d="M819 1143.5q-4 -4.5 -12 -4.5h-57q-7 0 -9.5 2t-2.5 6q0 5 1 9l11 54q3 15 18 15h57q17 0 12 -15l-11 -54q-3 -8 -7 -12.5zM720.5 934.5q10.5 7.5 19.5 7.5h3q8 0 14.5 -7.5t3.5 -20.5l-45 -201q-16 -69 -65.5 -122.5t-88.5 -78t-113 -65.5q-131 -71 -210.5 -149
t-104.5 -195q-7 -29 -7 -62q0 -79 44 -141t117 -97t159 -35q112 0 221 50t187.5 139.5t101.5 200.5q2 10 11.5 17.5t19.5 7.5q12 0 19 -8.5t4 -20.5q-27 -125 -110.5 -225.5t-202 -157.5t-245.5 -57q-118 0 -204 45t-131 119t-45 161q0 35 7 66q27 123 105.5 210t218.5 163
q73 38 124 72t90 81t51 106l38 177q3 13 13.5 20.5z" />
    <glyph glyph-name="Agrave" unicode="&#xc0;" horiz-adv-x="1377" 
d="M906 1829q0 11 6 18.5t18 7.5q11 0 17 -8t11 -22l74 -221q3 -7 3 -16q0 -20 -21 -23q-13 -1 -19 5.5t-12 22.5l-75 224q-2 8 -2 12zM975 1426h5q5 0 11 -5t9 -16l283 -1365q1 -3 1 -9q0 -13 -6.5 -22t-19.5 -9q-8 0 -16 5t-11 16l-79 385h-781l-241 -387
q-8 -12 -14.5 -15.5t-15.5 -3.5q-11 0 -17 7t-6 17q0 8 5 16l864 1365q12 19 29 21zM1141 461l-177 873l-559 -873h736z" />
    <glyph glyph-name="Aacute" unicode="&#xc1;" horiz-adv-x="1377" 
d="M1057 1580h-2q-10 1 -17 7.5t-5 17.5q2 8 9 18l177 229q9 13 15.5 16.5t13.5 3.5h2q9 -1 15 -7t6 -15q0 -12 -8 -22l-176 -228q-16 -20 -30 -20zM975 1426h5q5 0 11 -5t9 -16l283 -1365q1 -3 1 -9q0 -13 -6.5 -22t-19.5 -9q-8 0 -16 5t-11 16l-79 385h-781l-241 -387
q-8 -12 -14.5 -15.5t-15.5 -3.5q-11 0 -17 7t-6 17q0 8 5 16l864 1365q12 19 29 21zM1141 461l-177 873l-559 -873h736z" />
    <glyph glyph-name="Acircumflex" unicode="&#xc2;" horiz-adv-x="1377" 
d="M1074 1840q10 0 18 -9l168 -213q8 -10 8 -19q0 -10 -10 -19l-1 -1q-5 -4 -12 -4q-16 0 -29 17l-147 192l-240 -198q-20 -15 -30 -15q-8 0 -14 7l-1 1q-5 7 -5 13q0 12 16 26l257 212q13 10 22 10zM975 1426h5q5 0 11 -5t9 -16l283 -1365q1 -3 1 -9q0 -13 -6.5 -22
t-19.5 -9q-8 0 -16 5t-11 16l-79 385h-781l-241 -387q-8 -12 -14.5 -15.5t-15.5 -3.5q-11 0 -17 7t-6 17q0 8 5 16l864 1365q12 19 29 21zM1141 461l-177 873l-559 -873h736z" />
    <glyph glyph-name="Atilde" unicode="&#xc3;" horiz-adv-x="1377" 
d="M793.5 1572q-8.5 -5 -16.5 -5q-9 0 -16 7l-1 2q-6 9 -6 16q0 11 15 23q48 44 84 63t78 19q25 0 46.5 -10.5t54.5 -31.5q31 -21 52.5 -31.5t46.5 -10.5q24 0 46 14t40 29.5t25 21.5q6 5 14 9.5t15 4.5q8 0 14 -5q5 -5 5 -12q0 -15 -17 -32q-43 -43 -79.5 -62.5
t-78.5 -19.5q-26 0 -48 10.5t-53 31.5q-28 20 -48 29.5t-43 9.5q-33 0 -55.5 -13.5t-58.5 -45.5q-7 -6 -15.5 -11zM975 1426h5q5 0 11 -5t9 -16l283 -1365q1 -3 1 -9q0 -13 -6.5 -22t-19.5 -9q-8 0 -16 5t-11 16l-79 385h-781l-241 -387q-8 -12 -14.5 -15.5t-15.5 -3.5
q-11 0 -17 7t-6 17q0 8 5 16l864 1365q12 19 29 21zM1141 461l-177 873l-559 -873h736z" />
    <glyph glyph-name="Adieresis" unicode="&#xc4;" horiz-adv-x="1377" 
d="M849 1683h59q12 0 17 -8t3 -20l-12 -54q-5 -28 -30 -28h-60q-12 0 -16.5 4t-4.5 13q0 7 1 11l12 57q7 25 31 25zM1159 1683h59q12 0 17.5 -8t2.5 -20l-12 -54q-5 -28 -30 -28h-60q-12 0 -16.5 4t-4.5 13q0 7 1 11l12 57q7 25 31 25zM975 1426h5q5 0 11 -5t9 -16
l283 -1365q1 -3 1 -9q0 -13 -6.5 -22t-19.5 -9q-8 0 -16 5t-11 16l-79 385h-781l-241 -387q-8 -12 -14.5 -15.5t-15.5 -3.5q-11 0 -17 7t-6 17q0 8 5 16l864 1365q12 19 29 21zM1141 461l-177 873l-559 -873h736z" />
    <glyph glyph-name="Aring" unicode="&#xc5;" horiz-adv-x="1377" 
d="M1167 1826q37 -34 37 -86q0 -14 -3 -31q-14 -64 -66.5 -107t-116.5 -43q-56 0 -92.5 33.5t-36.5 85.5q0 9 4 31q14 64 66 107.5t115 43.5q56 0 93 -34zM1004.5 1798q-29.5 -18 -47.5 -48t-18 -66q0 -35 23 -57t61 -22q36 0 66.5 17t49 47t18.5 66q0 37 -23 59t-66 22
q-34 0 -63.5 -18zM975 1426h5q5 0 11 -5t9 -16l283 -1365q1 -3 1 -9q0 -13 -6.5 -22t-19.5 -9q-8 0 -16 5t-11 16l-79 385h-781l-241 -387q-8 -12 -14.5 -15.5t-15.5 -3.5q-11 0 -17 7t-6 17q0 8 5 16l864 1365q12 19 29 21zM1141 461l-177 873l-559 -873h736z" />
    <glyph glyph-name="AE" unicode="&#xc6;" horiz-adv-x="1997" 
d="M1423 1427h881q32 0 26 -27v-1q-3 -14 -13 -21t-25 -7h-851l-128 -604h688q15 0 23 -6.5t5 -20.5v-1q-3 -14 -14 -20.5t-26 -6.5h-688l-140 -656h871q31 0 27 -27l-1 -1q-6 -28 -37 -28h-898q-23 0 -23 19q0 6 1 9l81 377h-717l-390 -392q-15 -15 -27 -13h-1q-11 2 -18 9
t-7 17q0 11 11 22l1347 1360q19 19 43 19zM1378 1329l-860 -869h675z" />
    <glyph glyph-name="Ccedilla" unicode="&#xc7;" horiz-adv-x="1402" 
d="M1562 1252q0 -11 -8 -18q-8 -8 -16 -8q-10 0 -25 12q-159 148 -391 148q-178 0 -352.5 -93.5t-301 -248.5t-167.5 -331q-16 -71 -16 -142q0 -149 70.5 -270t196 -190t283.5 -69q219 0 450 156q12 8 22 8t18 -8q5 -6 5 -14t-5.5 -16.5t-12.5 -13.5q-105 -76 -222 -120
t-237 -49l-28 -133q50 -8 80 -46t30 -90q0 -16 -3 -32q-10 -46 -41 -85t-74 -62t-89 -23q-11 0 -17 6.5t-6 15.5q0 13 10 22.5t23 9.5q36 0 69 19.5t53 52t20 67.5q0 33 -20 56t-55 33q-40 8 -37 24l35 164q-169 5 -300.5 81t-204.5 205.5t-73 291.5q0 75 16 151
q43 200 177.5 367t324 264t390.5 97q128 0 233.5 -43t185.5 -123q10 -12 10 -23z" />
    <glyph glyph-name="Egrave" unicode="&#xc8;" horiz-adv-x="1213" 
d="M866 1843q0 11 6 18.5t18 7.5q11 0 17 -8t11 -22l74 -221q3 -7 3 -16q0 -20 -21 -23q-13 -1 -19 5.5t-12 22.5l-75 224q-2 8 -2 12zM486 1427h925q15 0 23.5 -6.5t5.5 -20.5t-12 -19t-25 -5h-901l-130 -611h738q34 0 29 -25v-1q-5 -25 -40 -25h-738l-141 -662h921
q15 0 22.5 -6.5t4.5 -17.5q-7 -28 -37 -28h-948q-23 0 -23 19q0 6 1 9l292 1372q6 27 33 27z" />
    <glyph glyph-name="Eacute" unicode="&#xc9;" horiz-adv-x="1213" 
d="M1017 1545h-2q-10 1 -17 7.5t-5 17.5q1 8 9 18l177 229q9 13 15.5 16.5t13.5 3.5h2q9 -1 15 -7t6 -15q0 -12 -8 -22l-176 -228q-16 -20 -30 -20zM486 1427h925q15 0 23.5 -6.5t5.5 -20.5t-12 -19t-25 -5h-901l-130 -611h738q34 0 29 -25v-1q-5 -25 -40 -25h-738
l-141 -662h921q15 0 22.5 -6.5t4.5 -17.5q-7 -28 -37 -28h-948q-23 0 -23 19q0 6 1 9l292 1372q6 27 33 27z" />
    <glyph glyph-name="Ecircumflex" unicode="&#xca;" horiz-adv-x="1213" 
d="M1060 1844q11 0 18 -9l168 -213q8 -10 8 -19q0 -10 -10 -19l-1 -1q-5 -4 -12 -4q-16 0 -29 17l-147 192l-240 -198q-20 -15 -30 -15q-8 0 -14 7l-1 1q-5 7 -5 13q0 12 16 26l257 212q13 10 22 10zM486 1427h925q15 0 23.5 -6.5t5.5 -20.5t-12 -19t-25 -5h-901l-130 -611
h738q34 0 29 -25v-1q-5 -25 -40 -25h-738l-141 -662h921q15 0 22.5 -6.5t4.5 -17.5q-7 -28 -37 -28h-948q-23 0 -23 19q0 6 1 9l292 1372q6 27 33 27z" />
    <glyph glyph-name="Edieresis" unicode="&#xcb;" horiz-adv-x="1213" 
d="M846 1699h59q12 0 17 -8t3 -20l-12 -54q-5 -28 -30 -28h-60q-12 0 -16.5 4t-4.5 13q0 7 1 11l12 57q7 25 31 25zM1156 1699h59q12 0 17.5 -8t2.5 -20l-12 -54q-5 -28 -30 -28h-60q-12 0 -16.5 4t-4.5 13q0 7 1 11l12 57q7 25 31 25zM486 1427h925q15 0 23.5 -6.5
t5.5 -20.5t-12 -19t-25 -5h-901l-130 -611h738q34 0 29 -25v-1q-5 -25 -40 -25h-738l-141 -662h921q15 0 22.5 -6.5t4.5 -17.5q-7 -28 -37 -28h-948q-23 0 -23 19q0 6 1 9l292 1372q6 27 33 27z" />
    <glyph glyph-name="Igrave" unicode="&#xcc;" 
d="M401 1832q0 11 6 18.5t18 7.5q11 0 17 -8t11 -22l74 -221q3 -7 3 -16q0 -20 -21 -23q-13 -1 -19 5.5t-12 22.5l-75 224q-2 8 -2 12zM462 1418q9 9 22 9h1q20 0 20 -20q0 -8 -1 -12l-289 -1362q-9 -33 -33 -33h-1q-22 0 -22 21q0 4 2 12l289 1362q3 14 12 23z" />
    <glyph glyph-name="Iacute" unicode="&#xcd;" 
d="M540 1563h-2q-10 1 -17 7.5t-5 17.5q2 8 9 18l177 229q9 13 15.5 16.5t13.5 3.5h2q9 -1 15 -7t6 -15q0 -12 -8 -22l-176 -228q-16 -20 -30 -20zM462 1418q9 9 22 9h1q20 0 20 -20q0 -8 -1 -12l-289 -1362q-9 -33 -33 -33h-1q-22 0 -22 21q0 4 2 12l289 1362q3 14 12 23z
" />
    <glyph glyph-name="Icircumflex" unicode="&#xce;" 
d="M569 1844q11 0 18 -9l168 -213q8 -10 8 -19q0 -10 -10 -19l-1 -1q-5 -4 -12 -4q-16 0 -29 17l-147 192l-240 -198q-20 -15 -30 -15q-8 0 -14 7l-1 1q-5 7 -5 13q0 12 16 26l257 212q13 10 22 10zM462 1418q9 9 22 9h1q20 0 20 -20q0 -8 -1 -12l-289 -1362q-9 -33 -33 -33
h-1q-22 0 -22 21q0 4 2 12l289 1362q3 14 12 23z" />
    <glyph glyph-name="Idieresis" unicode="&#xcf;" 
d="M360 1690h59q12 0 17 -8t3 -20l-12 -54q-5 -28 -30 -28h-60q-12 0 -16.5 4t-4.5 13q0 7 1 11l12 57q7 25 31 25zM670 1690h59q12 0 17.5 -8t2.5 -20l-12 -54q-5 -28 -30 -28h-60q-12 0 -16.5 4t-4.5 13q0 7 1 11l12 57q7 25 31 25zM462 1418q9 9 22 9h1q20 0 20 -20
q0 -8 -1 -12l-289 -1362q-9 -33 -33 -33h-1q-22 0 -22 21q0 4 2 12l289 1362q3 14 12 23z" />
    <glyph glyph-name="Eth" unicode="&#xd0;" horiz-adv-x="1482" 
d="M204 726h102l143 675q4 22 25 27h473q167 0 297.5 -74t203.5 -203t73 -290q0 -76 -16 -150q-41 -195 -173.5 -358t-318.5 -258t-381 -95h-452q-13 0 -19.5 5t-4.5 14l138 652h-102q-26 0 -26 19q0 5 1 8v1q6 27 37 27zM986.5 143q173.5 88 298 239t163.5 329
q15 72 15 139q0 149 -66.5 268t-187 187t-276.5 68h-435l-137 -647h220q12 0 18 -7t3 -21v-1q-2 -10 -12 -18t-21 -8h-220l-131 -616h415q180 0 353.5 88z" />
    <glyph glyph-name="Ntilde" unicode="&#xd1;" horiz-adv-x="1465" 
d="M896.5 1580q-8.5 -5 -16.5 -5q-9 0 -16 7l-1 2q-6 9 -6 16q0 11 15 23q48 44 84 63t78 19q25 0 46.5 -10.5t54.5 -31.5q31 -21 52.5 -31.5t46.5 -10.5q24 0 46 14t40 29.5t25 21.5q6 5 14 9.5t15 4.5q8 0 14 -5q5 -5 5 -12q0 -15 -17 -32q-43 -43 -79.5 -62.5
t-78.5 -19.5q-26 0 -48 10.5t-53 31.5q-28 20 -48 29.5t-43 9.5q-33 0 -55.5 -13.5t-58.5 -45.5q-7 -6 -15.5 -11zM214 33q-7 -33 -33 -33h-1q-22 0 -22 21q0 4 2 12l290 1367q3 10 11 18t21 9h5q13 0 26 -19l775 -1308l278 1300q6 27 32 27q12 0 18 -6.5t3 -20.5
l-290 -1367q-5 -19 -9.5 -26t-19.5 -7q-8 0 -13 3t-12 15l-782 1328z" />
    <glyph glyph-name="Ograve" unicode="&#xd2;" horiz-adv-x="1657" 
d="M1034 1837q0 11 6 18.5t18 7.5q11 0 17 -8t11 -22l74 -221q3 -7 3 -16q0 -20 -21 -23q-13 -1 -19 5.5t-12 22.5l-75 224q-2 8 -2 12zM410.5 1079q134.5 168 324.5 266t389 98q174 0 307 -74.5t206 -205.5t73 -296q0 -78 -16 -155q-41 -199 -173.5 -366t-320 -264
t-386.5 -97q-173 0 -308.5 74t-211.5 205t-76 294q0 72 17 154q41 199 175.5 367zM277 560q0 -149 67.5 -266.5t192 -184t290.5 -66.5q177 0 347 90.5t293 244.5t166 334q21 87 21 166q0 148 -68.5 261.5t-191.5 177.5t-282 67q-175 4 -350 -88t-302 -248.5t-166 -335.5
q-17 -74 -17 -152z" />
    <glyph glyph-name="Oacute" unicode="&#xd3;" horiz-adv-x="1657" 
d="M1233 1578h-2q-10 1 -17 7.5t-5 17.5q2 8 9 18l177 229q9 13 15.5 16.5t13.5 3.5h2q9 -1 15 -7t6 -15q0 -12 -8 -22l-176 -228q-16 -20 -30 -20zM410.5 1079q134.5 168 324.5 266t389 98q174 0 307 -74.5t206 -205.5t73 -296q0 -78 -16 -155q-41 -199 -173.5 -366
t-320 -264t-386.5 -97q-173 0 -308.5 74t-211.5 205t-76 294q0 72 17 154q41 199 175.5 367zM277 560q0 -149 67.5 -266.5t192 -184t290.5 -66.5q177 0 347 90.5t293 244.5t166 334q21 87 21 166q0 148 -68.5 261.5t-191.5 177.5t-282 67q-175 4 -350 -88t-302 -248.5
t-166 -335.5q-17 -74 -17 -152z" />
    <glyph glyph-name="Ocircumflex" unicode="&#xd4;" horiz-adv-x="1657" 
d="M1207 1842q11 0 18 -9l168 -213q8 -10 8 -19q0 -10 -10 -19l-1 -1q-5 -4 -12 -4q-16 0 -29 17l-147 192l-240 -198q-20 -15 -30 -15q-8 0 -14 7l-1 1q-5 7 -5 13q0 12 16 26l257 212q13 10 22 10zM410.5 1079q134.5 168 324.5 266t389 98q174 0 307 -74.5t206 -205.5
t73 -296q0 -78 -16 -155q-41 -199 -173.5 -366t-320 -264t-386.5 -97q-173 0 -308.5 74t-211.5 205t-76 294q0 72 17 154q41 199 175.5 367zM277 560q0 -149 67.5 -266.5t192 -184t290.5 -66.5q177 0 347 90.5t293 244.5t166 334q21 87 21 166q0 148 -68.5 261.5
t-191.5 177.5t-282 67q-175 4 -350 -88t-302 -248.5t-166 -335.5q-17 -74 -17 -152z" />
    <glyph glyph-name="Otilde" unicode="&#xd5;" horiz-adv-x="1657" 
d="M948.5 1588q-8.5 -5 -16.5 -5q-9 0 -16 7l-1 2q-6 9 -6 16q0 11 15 23q48 44 84 63t78 19q25 0 46.5 -10.5t54.5 -31.5q31 -21 52.5 -31.5t46.5 -10.5q24 0 46 14t40 29.5t25 21.5q6 5 14 9.5t15 4.5q8 0 14 -5q5 -5 5 -12q0 -15 -17 -32q-43 -43 -79.5 -62.5
t-78.5 -19.5q-26 0 -48 10.5t-53 31.5q-28 20 -48 29.5t-43 9.5q-33 0 -55.5 -13.5t-58.5 -45.5q-7 -6 -15.5 -11zM410.5 1079q134.5 168 324.5 266t389 98q174 0 307 -74.5t206 -205.5t73 -296q0 -78 -16 -155q-41 -199 -173.5 -366t-320 -264t-386.5 -97q-173 0 -308.5 74
t-211.5 205t-76 294q0 72 17 154q41 199 175.5 367zM277 560q0 -149 67.5 -266.5t192 -184t290.5 -66.5q177 0 347 90.5t293 244.5t166 334q21 87 21 166q0 148 -68.5 261.5t-191.5 177.5t-282 67q-175 4 -350 -88t-302 -248.5t-166 -335.5q-17 -74 -17 -152z" />
    <glyph glyph-name="Odieresis" unicode="&#xd6;" horiz-adv-x="1657" 
d="M975 1689h59q12 0 17 -8t3 -20l-12 -54q-5 -28 -30 -28h-60q-12 0 -16.5 4t-4.5 13q0 7 1 11l12 57q7 25 31 25zM1285 1689h59q12 0 17.5 -8t2.5 -20l-12 -54q-5 -28 -30 -28h-60q-12 0 -16.5 4t-4.5 13q0 7 1 11l12 57q7 25 31 25zM410.5 1079q134.5 168 324.5 266
t389 98q174 0 307 -74.5t206 -205.5t73 -296q0 -78 -16 -155q-41 -199 -173.5 -366t-320 -264t-386.5 -97q-173 0 -308.5 74t-211.5 205t-76 294q0 72 17 154q41 199 175.5 367zM277 560q0 -149 67.5 -266.5t192 -184t290.5 -66.5q177 0 347 90.5t293 244.5t166 334
q21 87 21 166q0 148 -68.5 261.5t-191.5 177.5t-282 67q-175 4 -350 -88t-302 -248.5t-166 -335.5q-17 -74 -17 -152z" />
    <glyph glyph-name="multiply" unicode="&#xd7;" horiz-adv-x="864" 
d="M284 413q-10 0 -16.5 6.5t-6.5 16.5q0 15 13 27l266 220l-168 213q-6 8 -6 17q0 11 8 20t17 9q12 0 21 -11l169 -215l270 222q11 8 22 8t18 -7t7 -18q0 -13 -12 -22l-272 -224l169 -215q9 -12 9 -24q0 -11 -7.5 -18t-16.5 -7q-13 0 -22 10l-173 220l-263 -217
q-13 -11 -26 -11z" />
    <glyph glyph-name="Oslash" unicode="&#xd8;" horiz-adv-x="1657" 
d="M410.5 1079q134.5 168 324.5 266t389 98q128 0 237 -43l66 108q11 19 26 19h2q10 0 18 -7.5t5 -19.5q0 -4 -5 -12q-26 -41 -29 -47l-38 -60q143 -69 224 -204.5t81 -308.5q0 -73 -17 -156q-41 -199 -173.5 -366t-320 -264t-386.5 -97q-131 0 -243 44l-82 -137
q-12 -18 -26 -18h-2q-11 0 -19.5 6t-5.5 19q1 7 6 13l85 136q-144 69 -226.5 204.5t-82.5 306.5q0 71 17 153q41 199 175.5 367zM278 569q0 -151 69 -270.5t194 -187.5t286 -68q185 0 356.5 89t292.5 242t160 338q16 74 16 147q0 151 -67.5 270.5t-190 187t-282.5 67.5
q-185 0 -359 -89.5t-297 -243.5t-162 -339q-16 -78 -16 -143z" />
    <glyph glyph-name="Ugrave" unicode="&#xd9;" horiz-adv-x="1442" 
d="M950 1815q0 11 6 18.5t18 7.5q11 0 17 -8t11 -22l74 -221q3 -7 3 -16q0 -20 -21 -23q-13 -1 -19 5.5t-12 22.5l-75 224q-2 8 -2 12zM297 446q0 -118 54 -212t151.5 -147.5t222.5 -53.5q142 0 280.5 77.5t236.5 202.5t126 259l175 824q3 15 12 23.5t23 8.5h1q20 0 20 -20
q0 -8 -1 -12l-177 -833q-33 -157 -140.5 -292t-258 -214.5t-308.5 -79.5q-138 0 -245.5 59.5t-167 164.5t-59.5 236q0 62 13 123l178 838q5 30 34 30h1q21 0 21 -20q0 -6 -1 -10l-178 -838q-13 -56 -13 -114z" />
    <glyph glyph-name="Uacute" unicode="&#xda;" horiz-adv-x="1442" 
d="M1083 1571h-2q-10 1 -17 7.5t-5 17.5q2 8 9 18l177 229q9 13 15.5 16.5t13.5 3.5h2q9 -1 15 -7t6 -15q0 -12 -8 -22l-176 -228q-16 -20 -30 -20zM297 446q0 -118 54 -212t151.5 -147.5t222.5 -53.5q142 0 280.5 77.5t236.5 202.5t126 259l175 824q3 15 12 23.5t23 8.5h1
q20 0 20 -20q0 -8 -1 -12l-177 -833q-33 -157 -140.5 -292t-258 -214.5t-308.5 -79.5q-138 0 -245.5 59.5t-167 164.5t-59.5 236q0 62 13 123l178 838q5 30 34 30h1q21 0 21 -20q0 -6 -1 -10l-178 -838q-13 -56 -13 -114z" />
    <glyph glyph-name="Ucircumflex" unicode="&#xdb;" horiz-adv-x="1442" 
d="M1105 1855q11 0 18 -9l168 -213q8 -10 8 -19q0 -10 -10 -19l-1 -1q-5 -4 -12 -4q-16 0 -29 17l-147 192l-240 -198q-20 -15 -30 -15q-8 0 -14 7l-1 1q-5 7 -5 13q0 12 16 26l257 212q13 10 22 10zM297 446q0 -118 54 -212t151.5 -147.5t222.5 -53.5q142 0 280.5 77.5
t236.5 202.5t126 259l175 824q3 15 12 23.5t23 8.5h1q20 0 20 -20q0 -8 -1 -12l-177 -833q-33 -157 -140.5 -292t-258 -214.5t-308.5 -79.5q-138 0 -245.5 59.5t-167 164.5t-59.5 236q0 62 13 123l178 838q5 30 34 30h1q21 0 21 -20q0 -6 -1 -10l-178 -838q-13 -56 -13 -114
z" />
    <glyph glyph-name="Udieresis" unicode="&#xdc;" horiz-adv-x="1442" 
d="M898 1690h59q12 0 17 -8t3 -20l-12 -54q-5 -28 -30 -28h-60q-12 0 -16.5 4t-4.5 13q0 7 1 11l12 57q7 25 31 25zM1208 1690h59q12 0 17.5 -8t2.5 -20l-12 -54q-5 -28 -30 -28h-60q-12 0 -16.5 4t-4.5 13q0 7 1 11l12 57q7 25 31 25zM297 446q0 -118 54 -212t151.5 -147.5
t222.5 -53.5q142 0 280.5 77.5t236.5 202.5t126 259l175 824q3 15 12 23.5t23 8.5h1q20 0 20 -20q0 -8 -1 -12l-177 -833q-33 -157 -140.5 -292t-258 -214.5t-308.5 -79.5q-138 0 -245.5 59.5t-167 164.5t-59.5 236q0 62 13 123l178 838q5 30 34 30h1q21 0 21 -20
q0 -6 -1 -10l-178 -838q-13 -56 -13 -114z" />
    <glyph glyph-name="Yacute" unicode="&#xdd;" horiz-adv-x="1126" 
d="M1001 1560h-2q-10 1 -17 7.5t-5 17.5q2 8 9 18l177 229q9 13 15.5 16.5t13.5 3.5h2q9 -1 15 -7t6 -15q0 -12 -8 -22l-176 -228q-16 -20 -30 -20zM593 34q-7 -34 -34 -34h-1q-21 0 -21 23q0 7 1 11l133 626l-311 725q-3 8 -3 15q0 11 7 19t19 8q18 0 26 -18l300 -699
l598 701q10 11 15 13.5t10 2.5q12 0 18 -7t6 -17q0 -11 -6 -19l-626 -734z" />
    <glyph glyph-name="Thorn" unicode="&#xde;" horiz-adv-x="1196" 
d="M489 1426h1q21 0 21 -18q0 -6 -1 -9l-46 -214h420q105 0 187 -45.5t127.5 -126t45.5 -180.5q0 -46 -10 -92q-26 -121 -107.5 -222t-195.5 -160.5t-235 -59.5h-420l-57 -267q-7 -32 -32 -32h-1q-22 0 -22 22q0 6 1 10l291 1367q6 27 33 27zM288 355h410q108 0 210 51.5
t174.5 140t94.5 194.5q9 47 9 89q0 87 -37 155t-105.5 106.5t-160.5 38.5h-430z" />
    <glyph glyph-name="germandbls" unicode="&#xdf;" horiz-adv-x="1043" 
d="M377 17l1 6t8.5 13t19.5 7l7 -1q51 -12 103 -12q108 0 211.5 46.5t178.5 131.5t98 195q13 56 13 111q0 126 -81.5 195.5t-254.5 69.5q-15 0 -22.5 6.5t-7.5 15.5q0 10 10.5 21t32.5 11q116 0 193 43t115.5 101.5t51.5 115.5q8 38 8 69q0 100 -67 159t-180 59
q-89 0 -169.5 -41.5t-137.5 -114t-77 -161.5l-295 -1391q-6 -29 -35 -29q-11 0 -16 6t-5 14q0 5 2 9l295 1391q23 112 89 196t158.5 129t193.5 45q91 0 158.5 -35.5t103.5 -96.5t36 -136q0 -32 -8 -70q-14 -69 -51 -128t-87.5 -100t-103.5 -60q100 -30 153 -103.5t53 -184.5
q0 -55 -13 -114q-26 -117 -102.5 -213.5t-191.5 -153t-251 -56.5q-69 0 -119 14q-21 5 -18 21z" />
    <glyph glyph-name="agrave" unicode="&#xe0;" horiz-adv-x="1503" 
d="M929 1670q0 11 6 18.5t18 7.5q11 0 17 -8t11 -22l74 -221q3 -7 3 -16q0 -20 -21 -23q-13 -1 -19 5.5t-12 22.5l-75 224q-2 8 -2 12zM1351 0h-1q-22 0 -22 21l2 12l67 318q-75 -111 -181.5 -196.5t-230.5 -133.5t-248 -48q-141 0 -258 66.5t-184.5 182t-67.5 256.5
q0 58 14 125q35 169 155 315.5t284.5 233t325.5 86.5q123 0 227 -48.5t174.5 -135.5t96.5 -198l72 338q3 15 11.5 24t22.5 9h1q21 0 21 -21q0 -8 -1 -12l-246 -1161q-8 -33 -34 -33zM1463 717q0 131 -61.5 237.5t-169 167.5t-239.5 61q-139 0 -289 -79t-262.5 -212.5
t-145.5 -288.5q-12 -58 -12 -113q0 -129 61 -235t166.5 -166.5t235.5 -60.5q143 0 294.5 78.5t264 211t145.5 285.5q12 59 12 114z" />
    <glyph glyph-name="aacute" unicode="&#xe1;" horiz-adv-x="1503" 
d="M1136 1429h-2q-10 1 -17 7.5t-5 17.5q2 8 9 18l177 229q9 13 15.5 16.5t13.5 3.5h2q9 -1 15 -7t6 -15q0 -12 -8 -22l-176 -228q-16 -20 -30 -20zM1351 0h-1q-22 0 -22 21l2 12l67 318q-75 -111 -181.5 -196.5t-230.5 -133.5t-248 -48q-141 0 -258 66.5t-184.5 182
t-67.5 256.5q0 58 14 125q35 169 155 315.5t284.5 233t325.5 86.5q123 0 227 -48.5t174.5 -135.5t96.5 -198l72 338q3 15 11.5 24t22.5 9h1q21 0 21 -21q0 -8 -1 -12l-246 -1161q-8 -33 -34 -33zM1463 717q0 131 -61.5 237.5t-169 167.5t-239.5 61q-139 0 -289 -79
t-262.5 -212.5t-145.5 -288.5q-12 -58 -12 -113q0 -129 61 -235t166.5 -166.5t235.5 -60.5q143 0 294.5 78.5t264 211t145.5 285.5q12 59 12 114z" />
    <glyph glyph-name="acircumflex" unicode="&#xe2;" horiz-adv-x="1503" 
d="M1100 1683q11 0 18 -9l168 -213q8 -10 8 -19q0 -10 -10 -19l-1 -1q-5 -4 -12 -4q-16 0 -29 17l-147 192l-240 -198q-20 -15 -30 -15q-8 0 -14 7l-1 1q-5 7 -5 13q0 12 16 26l257 212q13 10 22 10zM1351 0h-1q-22 0 -22 21l2 12l67 318q-75 -111 -181.5 -196.5
t-230.5 -133.5t-248 -48q-141 0 -258 66.5t-184.5 182t-67.5 256.5q0 58 14 125q35 169 155 315.5t284.5 233t325.5 86.5q123 0 227 -48.5t174.5 -135.5t96.5 -198l72 338q3 15 11.5 24t22.5 9h1q21 0 21 -21q0 -8 -1 -12l-246 -1161q-8 -33 -34 -33zM1463 717
q0 131 -61.5 237.5t-169 167.5t-239.5 61q-139 0 -289 -79t-262.5 -212.5t-145.5 -288.5q-12 -58 -12 -113q0 -129 61 -235t166.5 -166.5t235.5 -60.5q143 0 294.5 78.5t264 211t145.5 285.5q12 59 12 114z" />
    <glyph glyph-name="atilde" unicode="&#xe3;" horiz-adv-x="1503" 
d="M820.5 1416q-8.5 -5 -16.5 -5q-9 0 -16 7l-1 2q-6 9 -6 16q0 11 15 23q48 44 84 63t78 19q25 0 46.5 -10.5t54.5 -31.5q31 -21 52.5 -31.5t46.5 -10.5q24 0 46 14t40 29.5t25 21.5q6 5 14 9.5t15 4.5q8 0 14 -5q5 -5 5 -12q0 -15 -17 -32q-43 -43 -79.5 -62.5
t-78.5 -19.5q-26 0 -48 10.5t-53 31.5q-28 20 -48 29.5t-43 9.5q-33 0 -55.5 -13.5t-58.5 -45.5q-7 -6 -15.5 -11zM1351 0h-1q-22 0 -22 21l2 12l67 318q-75 -111 -181.5 -196.5t-230.5 -133.5t-248 -48q-141 0 -258 66.5t-184.5 182t-67.5 256.5q0 58 14 125
q35 169 155 315.5t284.5 233t325.5 86.5q123 0 227 -48.5t174.5 -135.5t96.5 -198l72 338q3 15 11.5 24t22.5 9h1q21 0 21 -21q0 -8 -1 -12l-246 -1161q-8 -33 -34 -33zM1463 717q0 131 -61.5 237.5t-169 167.5t-239.5 61q-139 0 -289 -79t-262.5 -212.5t-145.5 -288.5
q-12 -58 -12 -113q0 -129 61 -235t166.5 -166.5t235.5 -60.5q143 0 294.5 78.5t264 211t145.5 285.5q12 59 12 114z" />
    <glyph glyph-name="adieresis" unicode="&#xe4;" horiz-adv-x="1503" 
d="M858 1526h59q12 0 17 -8t3 -20l-12 -54q-5 -28 -30 -28h-60q-12 0 -16.5 4t-4.5 13q0 7 1 11l12 57q7 25 31 25zM1168 1526h59q12 0 17.5 -8t2.5 -20l-12 -54q-5 -28 -30 -28h-60q-12 0 -16.5 4t-4.5 13q0 7 1 11l12 57q7 25 31 25zM1351 0h-1q-22 0 -22 21l2 12l67 318
q-75 -111 -181.5 -196.5t-230.5 -133.5t-248 -48q-141 0 -258 66.5t-184.5 182t-67.5 256.5q0 58 14 125q35 169 155 315.5t284.5 233t325.5 86.5q123 0 227 -48.5t174.5 -135.5t96.5 -198l72 338q3 15 11.5 24t22.5 9h1q21 0 21 -21q0 -8 -1 -12l-246 -1161q-8 -33 -34 -33
zM1463 717q0 131 -61.5 237.5t-169 167.5t-239.5 61q-139 0 -289 -79t-262.5 -212.5t-145.5 -288.5q-12 -58 -12 -113q0 -129 61 -235t166.5 -166.5t235.5 -60.5q143 0 294.5 78.5t264 211t145.5 285.5q12 59 12 114z" />
    <glyph glyph-name="aring" unicode="&#xe5;" horiz-adv-x="1503" 
d="M1183 1643q37 -34 37 -86q0 -14 -3 -31q-14 -64 -66.5 -107t-116.5 -43q-56 0 -92.5 33.5t-36.5 85.5q0 9 4 31q14 64 66 107.5t115 43.5q56 0 93 -34zM1020.5 1615q-29.5 -18 -47.5 -48t-18 -66q0 -35 23 -57t61 -22q36 0 66.5 17t49 47t18.5 66q0 37 -23 59t-66 22
q-34 0 -63.5 -18zM1351 0h-1q-22 0 -22 21l2 12l67 318q-75 -111 -181.5 -196.5t-230.5 -133.5t-248 -48q-141 0 -258 66.5t-184.5 182t-67.5 256.5q0 58 14 125q35 169 155 315.5t284.5 233t325.5 86.5q123 0 227 -48.5t174.5 -135.5t96.5 -198l72 338q3 15 11.5 24t22.5 9
h1q21 0 21 -21q0 -8 -1 -12l-246 -1161q-8 -33 -34 -33zM1463 717q0 131 -61.5 237.5t-169 167.5t-239.5 61q-139 0 -289 -79t-262.5 -212.5t-145.5 -288.5q-12 -58 -12 -113q0 -129 61 -235t166.5 -166.5t235.5 -60.5q143 0 294.5 78.5t264 211t145.5 285.5q12 59 12 114z
" />
    <glyph glyph-name="ae" unicode="&#xe6;" horiz-adv-x="2663" 
d="M1737 1054.5q105 86.5 228.5 135t248.5 48.5q155 0 273 -71t181.5 -186t63.5 -242q0 -52 -10 -98l-1 -4q-6 -27 -34 -27h-1179l-2 -8q-13 -59 -13 -121q0 -128 57 -232t160.5 -163.5t237.5 -59.5q95 0 174 22.5t135 53t121 75.5q12 9 22 9q13 0 22 -12q5 -7 5 -15
q0 -13 -16 -23q-104 -75 -219 -119t-245 -44q-125 0 -228.5 47.5t-172.5 133t-94 195.5l-67 -316q-8 -33 -34 -33h-1q-22 0 -22 21l2 12l67 318q-75 -111 -181.5 -196.5t-230.5 -133.5t-248 -48q-141 0 -258 66.5t-184.5 182t-67.5 256.5q0 58 14 125q35 169 155 315.5
t284.5 233t325.5 86.5q123 0 227 -48.5t174.5 -135.5t96.5 -198l68 319q3 15 11.5 24t22.5 9h1q21 0 21 -21q0 -8 -1 -12l-67 -318q72 111 177 197.5zM1463 718q0 130 -60.5 236.5t-166 167.5t-233.5 61q-148 0 -299 -80t-262 -213.5t-146 -286.5q-14 -59 -14 -121
q0 -127 59.5 -231t163.5 -163.5t232 -59.5q156 0 308.5 78t262.5 210.5t143 286.5q12 59 12 115zM1920 1112.5q-139 -70.5 -244 -189.5t-153 -259h1150q4 28 4 63q0 114 -52.5 218.5t-160 171t-262.5 66.5q-143 0 -282 -70.5z" />
    <glyph glyph-name="ccedilla" unicode="&#xe7;" horiz-adv-x="1213" 
d="M1367 1054q0 -10 -7 -17q-10 -10 -21 -10q-12 0 -21 13q-64 74 -155 108.5t-200 34.5q-144 0 -294.5 -76t-261.5 -208t-144 -292q-13 -59 -13 -120q0 -130 59.5 -234.5t166.5 -164.5t243 -60q121 0 218 39.5t198 111.5q11 8 20 8q12 0 21 -11q5 -7 5 -15q0 -17 -17 -28
q-219 -154 -436 -160l-30 -142q50 -8 80 -46t30 -90q0 -16 -3 -32q-10 -46 -41 -85t-74 -62t-89 -23q-11 0 -17 6.5t-6 15.5q0 13 10 22.5t23 9.5q36 0 69 19.5t53 52t20 67.5q0 33 -20 56t-55 33q-40 8 -37 24l37 175q-140 7 -251 74t-173.5 179t-62.5 249q0 64 15 131
q37 178 153.5 322t279 226.5t331.5 82.5q107 0 213 -42t174 -118q10 -10 10 -24z" />
    <glyph glyph-name="egrave" unicode="&#xe8;" horiz-adv-x="1452" 
d="M917 1646q0 11 5.5 18.5t18.5 7.5q11 0 17 -8t11 -22l74 -221q3 -7 3 -16q0 -20 -21 -23q-13 -1 -19 5.5t-12 22.5l-75 224q-2 8 -2 12zM270 602q-12 -60 -12 -117q0 -129 59 -233.5t165 -165t240 -60.5q88 0 165.5 23.5t136 56t121.5 76.5q7 5 16 5q15 0 22 -9
q5 -6 5 -16q0 -8 -3.5 -15t-9.5 -11q-104 -75 -219 -119t-245 -44q-148 0 -264 65.5t-181 180.5t-65 256q0 59 14 127q37 170 153 316.5t278 233t332 86.5q155 0 273 -71t181.5 -186t63.5 -242q0 -52 -10 -98l-1 -4q-6 -27 -34 -27h-1179zM685.5 1111.5
q-138.5 -71.5 -244 -191t-154.5 -256.5h1149q6 33 6 68q0 113 -57.5 217t-166 169t-252.5 65q-142 0 -280.5 -71.5z" />
    <glyph glyph-name="eacute" unicode="&#xe9;" horiz-adv-x="1452" 
d="M1114 1369h-2q-10 1 -17 7.5t-5 17.5q2 7 9 18l177 229q9 13 15.5 16.5t13.5 3.5h2q9 -1 15 -7t6 -15q0 -12 -8 -22l-176 -228q-16 -20 -30 -20zM270 602q-12 -60 -12 -117q0 -129 59 -233.5t165 -165t240 -60.5q88 0 165.5 23.5t136 56t121.5 76.5q7 5 16 5q15 0 22 -9
q5 -6 5 -16q0 -8 -3.5 -15t-9.5 -11q-104 -75 -219 -119t-245 -44q-148 0 -264 65.5t-181 180.5t-65 256q0 59 14 127q37 170 153 316.5t278 233t332 86.5q155 0 273 -71t181.5 -186t63.5 -242q0 -52 -10 -98l-1 -4q-6 -27 -34 -27h-1179zM685.5 1111.5
q-138.5 -71.5 -244 -191t-154.5 -256.5h1149q6 33 6 68q0 113 -57.5 217t-166 169t-252.5 65q-142 0 -280.5 -71.5z" />
    <glyph glyph-name="ecircumflex" unicode="&#xea;" horiz-adv-x="1452" 
d="M1134 1662q10 0 18 -9l168 -213q8 -10 8 -19q0 -10 -10 -19l-1 -1q-5 -4 -12 -4q-16 0 -29 17l-147 192l-240 -198q-20 -15 -30 -15q-8 0 -14 7l-1 1q-5 7 -5 13q0 12 16 26l257 212q13 10 22 10zM270 602q-12 -60 -12 -117q0 -129 59 -233.5t165 -165t240 -60.5
q88 0 165.5 23.5t136 56t121.5 76.5q7 5 16 5q15 0 22 -9q5 -6 5 -16q0 -8 -3.5 -15t-9.5 -11q-104 -75 -219 -119t-245 -44q-148 0 -264 65.5t-181 180.5t-65 256q0 59 14 127q37 170 153 316.5t278 233t332 86.5q155 0 273 -71t181.5 -186t63.5 -242q0 -52 -10 -98l-1 -4
q-6 -27 -34 -27h-1179zM685.5 1111.5q-138.5 -71.5 -244 -191t-154.5 -256.5h1149q6 33 6 68q0 113 -57.5 217t-166 169t-252.5 65q-142 0 -280.5 -71.5z" />
    <glyph glyph-name="edieresis" unicode="&#xeb;" horiz-adv-x="1452" 
d="M916 1498h59q12 0 17 -8t3 -20l-12 -54q-5 -28 -30 -28h-60q-12 0 -16.5 4t-4.5 13q0 7 1 11l12 57q7 25 31 25zM1226 1498h59q12 0 17.5 -8t2.5 -20l-12 -54q-5 -28 -30 -28h-60q-12 0 -16.5 4t-4.5 13q0 7 1 11l12 57q7 25 31 25zM270 602q-12 -60 -12 -117
q0 -129 59 -233.5t165 -165t240 -60.5q88 0 165.5 23.5t136 56t121.5 76.5q7 5 16 5q15 0 22 -9q5 -6 5 -16q0 -8 -3.5 -15t-9.5 -11q-104 -75 -219 -119t-245 -44q-148 0 -264 65.5t-181 180.5t-65 256q0 59 14 127q37 170 153 316.5t278 233t332 86.5q155 0 273 -71
t181.5 -186t63.5 -242q0 -52 -10 -98l-1 -4q-6 -27 -34 -27h-1179zM685.5 1111.5q-138.5 -71.5 -244 -191t-154.5 -256.5h1149q6 33 6 68q0 113 -57.5 217t-166 169t-252.5 65q-142 0 -280.5 -71.5z" />
    <glyph glyph-name="igrave" unicode="&#xec;" 
d="M390 1656q0 11 6 18.5t18 7.5q11 0 17 -8t11 -22l74 -221q3 -7 3 -16q0 -20 -21 -23q-13 -1 -19 5.5t-12 22.5l-75 224q-2 8 -2 12zM457 1226h1q23 0 23 -19q0 -4 -2 -12l-248 -1163q-7 -32 -33 -32h-1q-23 0 -23 22q0 7 1 10l248 1163q7 31 34 31z" />
    <glyph glyph-name="iacute" unicode="&#xed;" 
d="M512 1360h-2q-10 1 -17 7.5t-5 17.5q2 8 9 18l177 229q9 13 15.5 16.5t13.5 3.5h2q9 -1 15 -7t6 -15q0 -12 -8 -22l-176 -228q-16 -20 -30 -20zM457 1226h1q23 0 23 -19q0 -4 -2 -12l-248 -1163q-7 -32 -33 -32h-1q-23 0 -23 22q0 7 1 10l248 1163q7 31 34 31z" />
    <glyph glyph-name="icircumflex" unicode="&#xee;" 
d="M533 1642q10 0 18 -9l168 -213q8 -10 8 -19q0 -10 -10 -19l-1 -1q-5 -4 -12 -4q-16 0 -29 17l-147 192l-240 -198q-20 -15 -30 -15q-8 0 -14 7l-1 1q-5 7 -5 13q0 12 16 26l257 212q13 10 22 10zM457 1226h1q23 0 23 -19q0 -4 -2 -12l-248 -1163q-7 -32 -33 -32h-1
q-23 0 -23 22q0 7 1 10l248 1163q7 31 34 31z" />
    <glyph glyph-name="idieresis" unicode="&#xef;" 
d="M330 1502h59q12 0 17 -8t3 -20l-12 -54q-5 -28 -30 -28h-60q-12 0 -16.5 4t-4.5 13q0 7 1 11l12 57q7 25 31 25zM640 1502h59q12 0 17.5 -8t2.5 -20l-12 -54q-5 -28 -30 -28h-60q-12 0 -16.5 4t-4.5 13q0 7 1 11l12 57q7 25 31 25zM457 1226h1q23 0 23 -19q0 -4 -2 -12
l-248 -1163q-7 -32 -33 -32h-1q-23 0 -23 22q0 7 1 10l248 1163q7 31 34 31z" />
    <glyph glyph-name="eth" unicode="&#xf0;" horiz-adv-x="1449" 
d="M1009.5 1321.5q-6.5 6.5 -6.5 16.5q0 17 19 29l146 100l-50 107q-4 6 -2 19q2 11 11 18.5t21 7.5h1q12 0 21 -14l49 -104l141 96q9 6 18 6q11 0 19 -11l1 -1q4 -7 1 -16q-1 -13 -14 -21l-144 -99l233 -492q48 -102 48 -222q0 -68 -14 -131q-35 -170 -151.5 -315
t-280.5 -230t-336 -85q-148 0 -264 65.5t-181 180.5t-65 256q0 60 14 128q37 172 153.5 317t279 230.5t332.5 85.5q179 0 309 -93l-127 271l-143 -97q-12 -9 -24 -9q-8 0 -14.5 6.5zM290 489q0 -127 56.5 -229.5t159.5 -161t235 -58.5q156 0 306.5 77.5t258 209t140.5 284.5
q13 61 13 123q0 128 -56.5 231t-160 161.5t-238.5 58.5q-155 0 -304.5 -77.5t-256.5 -209.5t-140 -287q-13 -61 -13 -122z" />
    <glyph glyph-name="ntilde" unicode="&#xf1;" horiz-adv-x="1306" 
d="M731.5 1410q-8.5 -5 -16.5 -5q-9 0 -16 7l-1 2q-6 9 -6 16q0 11 15 23q48 44 84 63t78 19q25 0 46.5 -10.5t54.5 -31.5q31 -21 52.5 -31.5t46.5 -10.5q24 0 46 14t40 29.5t25 21.5q6 5 14 9.5t15 4.5q8 0 14 -5q5 -5 5 -12q0 -15 -17 -32q-43 -43 -79.5 -62.5
t-78.5 -19.5q-26 0 -48 10.5t-53 31.5q-28 20 -48 29.5t-43 9.5q-33 0 -55.5 -13.5t-58.5 -45.5q-7 -6 -15.5 -11zM200 0h-1q-22 0 -22 19q0 4 2 12l247 1163q7 32 33 32h1q20 0 20 -20q0 -8 -1 -12l-46 -229q63 86 151 149t181.5 96t175.5 33q133 0 225.5 -55.5t139 -148
t46.5 -203.5q0 -59 -11 -110l-148 -695q-7 -31 -32 -31h-1q-23 0 -23 20q0 7 1 11l148 695q11 53 11 102q0 97 -40.5 179t-124 131.5t-205.5 49.5q-95 0 -211.5 -54t-209.5 -156t-121 -239l-151 -708q-7 -31 -34 -31z" />
    <glyph glyph-name="ograve" unicode="&#xf2;" horiz-adv-x="1438" 
d="M910 1659q0 11 6 18.5t18 7.5q11 0 17 -8t11 -22l74 -221q3 -7 3 -16q0 -20 -21 -23q-13 -1 -19 5.5t-12 22.5l-75 224q-2 8 -2 12zM375 924.5q115 144.5 276.5 229.5t330.5 85q150 0 269 -65.5t185.5 -180t66.5 -256.5q0 -60 -14 -128q-37 -170 -154.5 -316.5t-282 -233
t-337.5 -86.5q-147 0 -262 66t-179 180.5t-64 255.5q0 65 15 134q35 171 150 315.5zM266 486q0 -128 58 -233t163 -165t239 -60q155 0 305.5 81t259 215t143.5 285q14 59 14 123q0 128 -60.5 231t-169.5 162t-248 59q-146 0 -294.5 -79.5t-256.5 -212.5t-139 -283
q-14 -65 -14 -123z" />
    <glyph glyph-name="oacute" unicode="&#xf3;" horiz-adv-x="1438" 
d="M1064 1371h-2q-10 1 -17 7.5t-5 17.5q2 8 9 18l177 229q9 13 15.5 16.5t13.5 3.5h2q9 -1 15 -7t6 -15q0 -12 -8 -22l-176 -228q-16 -20 -30 -20zM375 924.5q115 144.5 276.5 229.5t330.5 85q150 0 269 -65.5t185.5 -180t66.5 -256.5q0 -60 -14 -128
q-37 -170 -154.5 -316.5t-282 -233t-337.5 -86.5q-147 0 -262 66t-179 180.5t-64 255.5q0 65 15 134q35 171 150 315.5zM266 486q0 -128 58 -233t163 -165t239 -60q155 0 305.5 81t259 215t143.5 285q14 59 14 123q0 128 -60.5 231t-169.5 162t-248 59q-146 0 -294.5 -79.5
t-256.5 -212.5t-139 -283q-14 -65 -14 -123z" />
    <glyph glyph-name="ocircumflex" unicode="&#xf4;" horiz-adv-x="1438" 
d="M1078 1641q11 0 18 -9l168 -213q8 -10 8 -19q0 -10 -10 -19l-1 -1q-5 -4 -12 -4q-16 0 -29 17l-147 192l-240 -198q-20 -15 -30 -15q-8 0 -14 7l-1 1q-5 7 -5 13q0 12 16 26l257 212q13 10 22 10zM375 924.5q115 144.5 276.5 229.5t330.5 85q150 0 269 -65.5t185.5 -180
t66.5 -256.5q0 -60 -14 -128q-37 -170 -154.5 -316.5t-282 -233t-337.5 -86.5q-147 0 -262 66t-179 180.5t-64 255.5q0 65 15 134q35 171 150 315.5zM266 486q0 -128 58 -233t163 -165t239 -60q155 0 305.5 81t259 215t143.5 285q14 59 14 123q0 128 -60.5 231t-169.5 162
t-248 59q-146 0 -294.5 -79.5t-256.5 -212.5t-139 -283q-14 -65 -14 -123z" />
    <glyph glyph-name="otilde" unicode="&#xf5;" horiz-adv-x="1438" 
d="M811.5 1403q-8.5 -5 -16.5 -5q-9 0 -16 7l-1 2q-6 9 -6 16q0 11 15 23q48 44 84 63t78 19q25 0 46.5 -10.5t54.5 -31.5q31 -21 52.5 -31.5t46.5 -10.5q24 0 46 14t40 29.5t25 21.5q6 5 14 9.5t15 4.5q8 0 14 -5q5 -5 5 -12q0 -15 -17 -32q-43 -43 -79.5 -62.5
t-78.5 -19.5q-26 0 -48 10.5t-53 31.5q-28 20 -48 29.5t-43 9.5q-33 0 -55.5 -13.5t-58.5 -45.5q-7 -6 -15.5 -11zM375 924.5q115 144.5 276.5 229.5t330.5 85q150 0 269 -65.5t185.5 -180t66.5 -256.5q0 -60 -14 -128q-37 -170 -154.5 -316.5t-282 -233t-337.5 -86.5
q-147 0 -262 66t-179 180.5t-64 255.5q0 65 15 134q35 171 150 315.5zM266 486q0 -128 58 -233t163 -165t239 -60q155 0 305.5 81t259 215t143.5 285q14 59 14 123q0 128 -60.5 231t-169.5 162t-248 59q-146 0 -294.5 -79.5t-256.5 -212.5t-139 -283q-14 -65 -14 -123z" />
    <glyph glyph-name="odieresis" unicode="&#xf6;" horiz-adv-x="1438" 
d="M877 1514h59q12 0 17 -8t3 -20l-12 -54q-5 -28 -30 -28h-60q-12 0 -16.5 4t-4.5 13q0 7 1 11l12 57q7 25 31 25zM1187 1514h59q12 0 17.5 -8t2.5 -20l-12 -54q-5 -28 -30 -28h-60q-12 0 -16.5 4t-4.5 13q0 7 1 11l12 57q7 25 31 25zM375 924.5q115 144.5 276.5 229.5
t330.5 85q150 0 269 -65.5t185.5 -180t66.5 -256.5q0 -60 -14 -128q-37 -170 -154.5 -316.5t-282 -233t-337.5 -86.5q-147 0 -262 66t-179 180.5t-64 255.5q0 65 15 134q35 171 150 315.5zM266 486q0 -128 58 -233t163 -165t239 -60q155 0 305.5 81t259 215t143.5 285
q14 59 14 123q0 128 -60.5 231t-169.5 162t-248 59q-146 0 -294.5 -79.5t-256.5 -212.5t-139 -283q-14 -65 -14 -123z" />
    <glyph glyph-name="divide" unicode="&#xf7;" horiz-adv-x="983" 
d="M703.5 1203.5q3.5 4.5 10.5 4.5h62l7 -1l6 -5q0 -5 1 -6v-4l-12 -58q-3 -8 -7 -13t-11 -5h-68h-1q-10 0 -8 13l1 3l12 58q4 9 7.5 13.5zM293 631.5q-5 7.5 -3 19.5v1q2 13 11 20.5t23 7.5h618q14 0 20.5 -7.5t3.5 -19.5v-2q-3 -12 -12.5 -19.5t-23.5 -7.5h-618
q-14 0 -19 7.5zM461.5 79q1.5 3 1.5 5l5 5l5 2q1 1 7 1h61l3 -1l5 -3q5 -5 3 -16l-13 -58q-1 -5 -5.5 -9.5t-10.5 -4.5h-65q-16 0 -12 13l1 3l12 58z" />
    <glyph glyph-name="oslash" unicode="&#xf8;" horiz-adv-x="1438" 
d="M377.5 925q114.5 145 275 229.5t330.5 84.5q103 0 194 -32l70 113q11 19 26 19h2q10 0 17.5 -7.5t4.5 -19.5q0 -8 -4 -12l-68 -113q129 -61 204 -180t75 -270q0 -66 -14 -128q-37 -170 -154.5 -316.5t-282 -233t-337.5 -86.5q-114 0 -214 42l-68 -110q-12 -18 -26 -18h-2
q-11 0 -19 6t-5 19q0 5 6 13l68 112q-114 65 -179 181.5t-65 258.5q0 69 14 132q37 171 151.5 316zM268 488q0 -129 58 -234t162.5 -165.5t238.5 -60.5q162 0 312.5 79t256 212.5t139.5 289.5q12 60 12 117q0 130 -60.5 234.5t-169 164t-246.5 59.5q-155 0 -302 -77
t-251 -209t-137 -289q-13 -59 -13 -121z" />
    <glyph glyph-name="ugrave" unicode="&#xf9;" horiz-adv-x="1300" 
d="M880 1598q0 11 6 18.5t18 7.5q11 0 17 -8t11 -22l74 -221q3 -7 3 -16q0 -20 -21 -23q-13 -1 -19 5.5t-12 22.5l-75 224q-2 8 -2 12zM1423 1226h1q22 0 22 -19q0 -4 -2 -12l-248 -1163q-7 -32 -32 -32h-1q-21 0 -21 21q0 7 1 11l41 200q-62 -80 -150.5 -140.5
t-183.5 -92.5t-178 -32q-134 0 -231.5 58t-148 155.5t-50.5 216.5q0 57 12 115l146 683q7 31 32 31h1q23 0 23 -20q0 -7 -1 -11l-146 -683q-12 -58 -12 -112q0 -113 49 -199.5t135.5 -133.5t196.5 -47q105 0 224.5 54.5t210.5 153.5t118 226l158 741q7 31 34 31z" />
    <glyph glyph-name="uacute" unicode="&#xfa;" horiz-adv-x="1300" 
d="M995 1325h-2q-10 1 -17 7.5t-5 17.5q2 8 9 18l177 229q9 13 15.5 16.5t13.5 3.5h2q9 -1 15 -7t6 -15q0 -12 -8 -22l-176 -228q-16 -20 -30 -20zM1423 1226h1q22 0 22 -19q0 -4 -2 -12l-248 -1163q-7 -32 -32 -32h-1q-21 0 -21 21q0 7 1 11l41 200q-62 -80 -150.5 -140.5
t-183.5 -92.5t-178 -32q-134 0 -231.5 58t-148 155.5t-50.5 216.5q0 57 12 115l146 683q7 31 32 31h1q23 0 23 -20q0 -7 -1 -11l-146 -683q-12 -58 -12 -112q0 -113 49 -199.5t135.5 -133.5t196.5 -47q105 0 224.5 54.5t210.5 153.5t118 226l158 741q7 31 34 31z" />
    <glyph glyph-name="ucircumflex" unicode="&#xfb;" horiz-adv-x="1300" 
d="M1025 1620q11 0 18 -9l168 -213q8 -10 8 -19q0 -10 -10 -19l-1 -1q-5 -4 -12 -4q-16 0 -29 17l-147 192l-240 -198q-20 -15 -30 -15q-8 0 -14 7l-1 1q-5 7 -5 13q0 12 16 26l257 212q13 10 22 10zM1423 1226h1q22 0 22 -19q0 -4 -2 -12l-248 -1163q-7 -32 -32 -32h-1
q-21 0 -21 21q0 7 1 11l41 200q-62 -80 -150.5 -140.5t-183.5 -92.5t-178 -32q-134 0 -231.5 58t-148 155.5t-50.5 216.5q0 57 12 115l146 683q7 31 32 31h1q23 0 23 -20q0 -7 -1 -11l-146 -683q-12 -58 -12 -112q0 -113 49 -199.5t135.5 -133.5t196.5 -47q105 0 224.5 54.5
t210.5 153.5t118 226l158 741q7 31 34 31z" />
    <glyph glyph-name="udieresis" unicode="&#xfc;" horiz-adv-x="1300" 
d="M821 1493h59q12 0 17 -8t3 -20l-12 -54q-5 -28 -30 -28h-60q-12 0 -16.5 4t-4.5 13q0 7 1 11l12 57q7 25 31 25zM1131 1493h59q12 0 17.5 -8t2.5 -20l-12 -54q-5 -28 -30 -28h-60q-12 0 -16.5 4t-4.5 13q0 7 1 11l12 57q7 25 31 25zM1423 1226h1q22 0 22 -19q0 -4 -2 -12
l-248 -1163q-7 -32 -32 -32h-1q-21 0 -21 21q0 7 1 11l41 200q-62 -80 -150.5 -140.5t-183.5 -92.5t-178 -32q-134 0 -231.5 58t-148 155.5t-50.5 216.5q0 57 12 115l146 683q7 31 32 31h1q23 0 23 -20q0 -7 -1 -11l-146 -683q-12 -58 -12 -112q0 -113 49 -199.5
t135.5 -133.5t196.5 -47q105 0 224.5 54.5t210.5 153.5t118 226l158 741q7 31 34 31z" />
    <glyph glyph-name="yacute" unicode="&#xfd;" horiz-adv-x="1129" 
d="M907 1329h-2q-10 1 -17 7.5t-5 17.5q1 7 9 18l177 229q9 13 15.5 16.5t13.5 3.5h2q9 -1 15 -7t6 -15q0 -12 -8 -22l-176 -228q-16 -20 -30 -20zM324 -397q-6 -3 -14 -3q-11 0 -18.5 8t-7.5 19q0 7 4 14l243 387l-240 1159q-1 3 -1 9q0 13 7 21.5t20 8.5q21 0 25 -19
l231 -1113l702 1114q7 11 14 14.5t15 3.5q11 0 18 -7t7 -18q0 -5 -3 -13l-988 -1569q-8 -13 -14 -16z" />
    <glyph glyph-name="thorn" unicode="&#xfe;" horiz-adv-x="1206" 
d="M485 1417q22 0 22 -19q0 -6 -1 -9l-154 -724q47 87 126.5 153.5t175.5 103.5t193 37q115 0 206 -50.5t141.5 -139.5t50.5 -199q0 -54 -11 -102q-28 -132 -118 -244.5t-217 -178.5t-260 -66q-149 0 -248 77t-123 215l-134 -629q-6 -30 -33 -30q-22 0 -22 20q0 6 1 10
l372 1747q6 28 33 28zM302 386q0 -98 39.5 -178t116.5 -127t185 -47q118 0 233 59t197.5 159t107.5 216q10 46 10 94q0 97 -43 175t-121 122.5t-179 44.5q-116 0 -231.5 -59t-198.5 -159.5t-108 -217.5l-4 -18q-4 -29 -4 -64z" />
    <glyph glyph-name="ydieresis" unicode="&#xff;" horiz-adv-x="1129" 
d="M674 1454h59q12 0 17 -8t3 -20l-12 -54q-5 -28 -30 -28h-60q-12 0 -16.5 4t-4.5 13q0 7 1 11l12 57q7 25 31 25zM984 1454h59q12 0 17.5 -8t2.5 -20l-12 -54q-5 -28 -30 -28h-60q-12 0 -16.5 4t-4.5 13q0 7 1 11l12 57q7 25 31 25zM324 -397q-6 -3 -14 -3q-11 0 -18.5 8
t-7.5 19q0 7 4 14l243 387l-240 1159q-1 3 -1 9q0 13 7 21.5t20 8.5q21 0 25 -19l231 -1113l702 1114q7 11 14 14.5t15 3.5q11 0 18 -7t7 -18q0 -5 -3 -13l-988 -1569q-8 -13 -14 -16z" />
    <glyph glyph-name="Amacron" unicode="&#x100;" horiz-adv-x="1377" 
d="M718 1626h622q26 0 21 -26v-1q-2 -9 -11.5 -16.5t-20.5 -7.5h-621q-30 0 -25 25l1 1q4 25 34 25zM975 1426h5q5 0 11 -5t9 -16l283 -1365q1 -3 1 -9q0 -13 -6.5 -22t-19.5 -9q-8 0 -16 5t-11 16l-79 385h-781l-241 -387q-8 -12 -14.5 -15.5t-15.5 -3.5q-11 0 -17 7t-6 17
q0 8 5 16l864 1365q12 19 29 21zM1141 461l-177 873l-559 -873h736z" />
    <glyph glyph-name="amacron" unicode="&#x101;" horiz-adv-x="1503" 
d="M751 1455h622q26 0 21 -26v-1q-2 -9 -11.5 -16.5t-20.5 -7.5h-621q-30 0 -25 25l1 1q4 25 34 25zM1351 0h-1q-22 0 -22 21l2 12l67 318q-75 -111 -181.5 -196.5t-230.5 -133.5t-248 -48q-141 0 -258 66.5t-184.5 182t-67.5 256.5q0 58 14 125q35 169 155 315.5t284.5 233
t325.5 86.5q123 0 227 -48.5t174.5 -135.5t96.5 -198l72 338q3 15 11.5 24t22.5 9h1q21 0 21 -21q0 -8 -1 -12l-246 -1161q-8 -33 -34 -33zM1463 717q0 131 -61.5 237.5t-169 167.5t-239.5 61q-139 0 -289 -79t-262.5 -212.5t-145.5 -288.5q-12 -58 -12 -113q0 -129 61 -235
t166.5 -166.5t235.5 -60.5q143 0 294.5 78.5t264 211t145.5 285.5q12 59 12 114z" />
    <glyph glyph-name="Abreve" unicode="&#x102;" horiz-adv-x="1377" 
d="M939.5 1595q-33.5 19 -51.5 50t-18 66q0 14 3 29q4 17 11 27t22 10h2q18 -1 18 -18q0 -5 -4 -19q-3 -10 -3 -22q0 -37 28 -64.5t78 -27.5q37 0 71.5 17t58 44t28.5 55q6 35 32 35h3q19 -1 19 -23q0 -9 -1 -13q-10 -43 -41.5 -81t-78.5 -61t-99 -23q-44 0 -77.5 19z
M975 1426h5q5 0 11 -5t9 -16l283 -1365q1 -3 1 -9q0 -13 -6.5 -22t-19.5 -9q-8 0 -16 5t-11 16l-79 385h-781l-241 -387q-8 -12 -14.5 -15.5t-15.5 -3.5q-11 0 -17 7t-6 17q0 8 5 16l864 1365q12 19 29 21zM1141 461l-177 873l-559 -873h736z" />
    <glyph glyph-name="abreve" unicode="&#x103;" horiz-adv-x="1503" 
d="M956.5 1425q-33.5 19 -51.5 50t-18 66q0 14 3 29q4 17 11 27t22 10h2q18 -1 18 -18q0 -5 -4 -19q-3 -10 -3 -22q0 -37 28 -64.5t78 -27.5q37 0 71.5 17t58 44t28.5 55q6 35 32 35h3q19 -1 19 -23q0 -9 -1 -13q-10 -43 -41.5 -81t-78.5 -61t-99 -23q-44 0 -77.5 19z
M1351 0h-1q-22 0 -22 21l2 12l67 318q-75 -111 -181.5 -196.5t-230.5 -133.5t-248 -48q-141 0 -258 66.5t-184.5 182t-67.5 256.5q0 58 14 125q35 169 155 315.5t284.5 233t325.5 86.5q123 0 227 -48.5t174.5 -135.5t96.5 -198l72 338q3 15 11.5 24t22.5 9h1q21 0 21 -21
q0 -8 -1 -12l-246 -1161q-8 -33 -34 -33zM1463 717q0 131 -61.5 237.5t-169 167.5t-239.5 61q-139 0 -289 -79t-262.5 -212.5t-145.5 -288.5q-12 -58 -12 -113q0 -129 61 -235t166.5 -166.5t235.5 -60.5q143 0 294.5 78.5t264 211t145.5 285.5q12 59 12 114z" />
    <glyph glyph-name="Aogonek" unicode="&#x104;" horiz-adv-x="1377" 
d="M1079 -147q-43 -34 -69 -61t-31 -57q-2 -14 -2 -21q0 -32 19 -55.5t60 -23.5q30 0 56.5 14.5t43.5 36.5t21 44q7 35 33 35q10 0 16 -6t6 -17q0 -6 -1 -9q-8 -40 -35 -74t-66 -54.5t-82 -20.5q-55 0 -89.5 33t-34.5 84q0 17 4 33q9 48 36 79t82 74q26 20 28 22l154 125
l-76 372h-781l-241 -387q-8 -12 -14.5 -15.5t-15.5 -3.5q-11 0 -17 7t-6 17q0 8 5 16l864 1365q12 19 29 21h5q5 0 11 -5t9 -16l283 -1365q1 -3 1 -10q0 -11 -5.5 -20t-16.5 -10l-158 -127zM1141 461l-177 873l-559 -873h736z" />
    <glyph glyph-name="aogonek" unicode="&#x105;" horiz-adv-x="1503" 
d="M1632 1206q0 -8 -1 -12l-246 -1161l-3 -9v-2q-3 -10 -15 -21l-164 -132l-25 -20q-43 -34 -69 -61t-31 -57q-2 -14 -2 -21q0 -32 19 -55.5t60 -23.5q30 0 56.5 14.5t43.5 36.5t21 44q7 35 33 35q10 0 16 -6t6 -17q0 -6 -1 -9q-8 -40 -35 -74t-66 -54.5t-82 -20.5
q-55 0 -89.5 33t-34.5 84q0 17 4 33q9 48 36 79t82 74q26 20 28 22l157 128l67 318q-75 -111 -181.5 -196.5t-230.5 -133.5t-248 -48q-141 0 -258 66.5t-184.5 182t-67.5 256.5q0 58 14 125q35 169 155 315.5t284.5 233t325.5 86.5q123 0 227 -48.5t174.5 -135.5t96.5 -198
l72 338q3 15 11.5 24t22.5 9h1q21 0 21 -21zM1463 717q0 131 -61.5 237.5t-169 167.5t-239.5 61q-139 0 -289 -79t-262.5 -212.5t-145.5 -288.5q-12 -58 -12 -113q0 -129 61 -235t166.5 -166.5t235.5 -60.5q143 0 294.5 78.5t264 211t145.5 285.5q12 59 12 114z" />
    <glyph glyph-name="Cacute" unicode="&#x106;" horiz-adv-x="1402" 
d="M1189 1564h-2q-10 1 -17 7.5t-5 17.5q1 7 9 18l177 229q9 13 15.5 16.5t13.5 3.5h2q9 -1 15 -7t6 -15q0 -12 -8 -22l-176 -228q-16 -20 -30 -20zM1307 206q10 0 18 -8q5 -6 5 -14t-5.5 -16.5t-12.5 -13.5q-112 -81 -236.5 -125.5t-252.5 -44.5q-174 0 -310 75t-212 206.5
t-76 296.5q0 75 16 151q43 200 177.5 367t324 264t390.5 97q128 0 233.5 -43t185.5 -123q10 -12 10 -23t-8 -18q-8 -8 -16 -8q-10 0 -25 12q-159 148 -391 148q-178 0 -352.5 -93.5t-301 -248.5t-167.5 -331q-16 -71 -16 -142q0 -149 70.5 -270t196 -190t283.5 -69
q219 0 450 156q12 8 22 8z" />
    <glyph glyph-name="cacute" unicode="&#x107;" horiz-adv-x="1213" 
d="M1082 1364h-2q-10 1 -17 7.5t-5 17.5q2 7 9 18l177 229q9 13 15.5 16.5t13.5 3.5h2q9 -1 15 -7t6 -15q0 -12 -8 -22l-176 -228q-16 -20 -30 -20zM1155 187q12 0 21 -11q5 -7 5 -15q0 -17 -17 -28q-228 -160 -455 -160q-148 0 -266 66t-184.5 181t-66.5 257q0 68 14 130
q37 178 153.5 322t279 226.5t331.5 82.5q107 0 213 -42t174 -118q10 -10 10 -24q0 -10 -7 -17q-10 -10 -21 -10q-12 0 -21 13q-64 74 -155 108.5t-200 34.5q-144 0 -294.5 -76t-261.5 -208t-144 -292q-13 -59 -13 -120q0 -130 59.5 -234.5t166.5 -164.5t243 -60
q121 0 218 39.5t198 111.5q11 8 20 8z" />
    <glyph glyph-name="Ccircumflex" unicode="&#x108;" horiz-adv-x="1402" 
d="M1184 1833q10 0 18 -9l168 -213q8 -10 8 -19q0 -10 -10 -19l-1 -1q-5 -4 -12 -4q-16 0 -29 17l-147 192l-240 -198q-20 -15 -30 -15q-8 0 -14 7l-1 1q-5 7 -5 13q0 12 16 26l257 212q13 10 22 10zM1307 206q10 0 18 -8q5 -6 5 -14t-5.5 -16.5t-12.5 -13.5
q-112 -81 -236.5 -125.5t-252.5 -44.5q-174 0 -310 75t-212 206.5t-76 296.5q0 75 16 151q43 200 177.5 367t324 264t390.5 97q128 0 233.5 -43t185.5 -123q10 -12 10 -23t-8 -18q-8 -8 -16 -8q-10 0 -25 12q-159 148 -391 148q-178 0 -352.5 -93.5t-301 -248.5t-167.5 -331
q-16 -71 -16 -142q0 -149 70.5 -270t196 -190t283.5 -69q219 0 450 156q12 8 22 8z" />
    <glyph glyph-name="ccircumflex" unicode="&#x109;" horiz-adv-x="1213" 
d="M1078 1635q11 0 18 -9l168 -213q8 -10 8 -19q0 -10 -10 -19l-1 -1q-5 -4 -12 -4q-16 0 -29 17l-147 192l-240 -198q-20 -15 -30 -15q-8 0 -14 7l-1 1q-5 7 -5 13q0 12 16 26l257 212q13 10 22 10zM1155 187q12 0 21 -11q5 -7 5 -15q0 -17 -17 -28q-228 -160 -455 -160
q-148 0 -266 66t-184.5 181t-66.5 257q0 68 14 130q37 178 153.5 322t279 226.5t331.5 82.5q107 0 213 -42t174 -118q10 -10 10 -24q0 -10 -7 -17q-10 -10 -21 -10q-12 0 -21 13q-64 74 -155 108.5t-200 34.5q-144 0 -294.5 -76t-261.5 -208t-144 -292q-13 -59 -13 -120
q0 -130 59.5 -234.5t166.5 -164.5t243 -60q121 0 218 39.5t198 111.5q11 8 20 8z" />
    <glyph glyph-name="Cdotaccent" unicode="&#x10a;" horiz-adv-x="1402" 
d="M1141 1684h59q12 0 17 -8t3 -20l-12 -54q-5 -28 -30 -28h-60q-12 0 -16.5 4t-4.5 13q0 7 1 11l12 57q7 25 31 25zM1307 206q10 0 18 -8q5 -6 5 -14t-5.5 -16.5t-12.5 -13.5q-112 -81 -236.5 -125.5t-252.5 -44.5q-174 0 -310 75t-212 206.5t-76 296.5q0 75 16 151
q43 200 177.5 367t324 264t390.5 97q128 0 233.5 -43t185.5 -123q10 -12 10 -23t-8 -18q-8 -8 -16 -8q-10 0 -25 12q-159 148 -391 148q-178 0 -352.5 -93.5t-301 -248.5t-167.5 -331q-16 -71 -16 -142q0 -149 70.5 -270t196 -190t283.5 -69q219 0 450 156q12 8 22 8z" />
    <glyph glyph-name="cdotaccent" unicode="&#x10b;" horiz-adv-x="1213" 
d="M997 1492h59q12 0 17 -8t3 -20l-12 -54q-5 -28 -30 -28h-60q-12 0 -16.5 4t-4.5 13q0 7 1 11l12 57q7 25 31 25zM1155 187q12 0 21 -11q5 -7 5 -15q0 -17 -17 -28q-228 -160 -455 -160q-148 0 -266 66t-184.5 181t-66.5 257q0 68 14 130q37 178 153.5 322t279 226.5
t331.5 82.5q107 0 213 -42t174 -118q10 -10 10 -24q0 -10 -7 -17q-10 -10 -21 -10q-12 0 -21 13q-64 74 -155 108.5t-200 34.5q-144 0 -294.5 -76t-261.5 -208t-144 -292q-13 -59 -13 -120q0 -130 59.5 -234.5t166.5 -164.5t243 -60q121 0 218 39.5t198 111.5q11 8 20 8z
" />
    <glyph glyph-name="Ccaron" unicode="&#x10c;" horiz-adv-x="1402" 
d="M1158 1563q-10 0 -18 9l-168 213q-5 8 -5 17q0 11 7 19t17 8q6 0 11.5 -5t10.5 -11l150 -192l240 198q5 5 13 9t16 4t14 -6l1 -1q5 -5 5 -14q0 -14 -15 -26l-257 -212q-13 -10 -22 -10zM1307 206q10 0 18 -8q5 -6 5 -14t-5.5 -16.5t-12.5 -13.5q-112 -81 -236.5 -125.5
t-252.5 -44.5q-174 0 -310 75t-212 206.5t-76 296.5q0 75 16 151q43 200 177.5 367t324 264t390.5 97q128 0 233.5 -43t185.5 -123q10 -12 10 -23t-8 -18q-8 -8 -16 -8q-10 0 -25 12q-159 148 -391 148q-178 0 -352.5 -93.5t-301 -248.5t-167.5 -331q-16 -71 -16 -142
q0 -149 70.5 -270t196 -190t283.5 -69q219 0 450 156q12 8 22 8z" />
    <glyph glyph-name="ccaron" unicode="&#x10d;" horiz-adv-x="1213" 
d="M1024 1357q-11 0 -18 9l-168 213q-5 8 -5 17q0 11 7 19t17 8q6 0 11.5 -5t10.5 -11l150 -192l240 198q5 5 13 9t16 4t14 -6l1 -1q5 -5 5 -14q0 -14 -15 -26l-257 -212q-13 -10 -22 -10zM1155 187q12 0 21 -11q5 -7 5 -15q0 -17 -17 -28q-228 -160 -455 -160
q-148 0 -266 66t-184.5 181t-66.5 257q0 68 14 130q37 178 153.5 322t279 226.5t331.5 82.5q107 0 213 -42t174 -118q10 -10 10 -24q0 -10 -7 -17q-10 -10 -21 -10q-12 0 -21 13q-64 74 -155 108.5t-200 34.5q-144 0 -294.5 -76t-261.5 -208t-144 -292q-13 -59 -13 -120
q0 -130 59.5 -234.5t166.5 -164.5t243 -60q121 0 218 39.5t198 111.5q11 8 20 8z" />
    <glyph glyph-name="Dcaron" unicode="&#x10e;" horiz-adv-x="1482" 
d="M938 1565q-10 0 -18 9l-168 213q-5 8 -5 17q0 11 7 19t17 8q6 0 11.5 -5t10.5 -11l150 -192l240 198q5 5 13 9t16 4t14 -6l1 -1q5 -5 5 -14q0 -14 -15 -26l-257 -212q-13 -10 -22 -10zM487 1427h431q179 0 317 -74t213.5 -204t75.5 -291q0 -73 -16 -146
q-42 -193 -174.5 -356.5t-322.5 -259.5t-396 -96h-434q-20 0 -20 19l1 9l292 1372q6 27 33 27zM1467 854q0 149 -70 267.5t-198 186t-295 67.5h-400l-281 -1319h400q189 0 365.5 92.5t300.5 244t162 319.5q16 71 16 142z" />
    <glyph glyph-name="dcaron" unicode="&#x10f;" horiz-adv-x="1503" 
d="M1350 0h-1q-21 0 -21 21q0 7 1 11l69 321q-73 -111 -178 -197t-226.5 -134.5t-239.5 -48.5q-155 0 -275 65t-185.5 178t-65.5 254q0 64 15 133q35 171 152 317t282 232t337 86q126 0 228 -48t169.5 -134.5t93.5 -198.5l147 694q7 32 33 32h1q22 0 22 -22q0 -6 -1 -10
l-323 -1519q-7 -32 -34 -32zM1781 1582h61q17 0 13 -19l-15 -73q-7 -34 -23.5 -61t-33 -42t-24.5 -15q-6 0 -11 6l-10 12q-3 2 -3 9q2 5 6 9q16 14 27 31.5t14 31.5l2 11v2q0 6 -6 6h-16q-10 0 -13.5 2.5t-3.5 9.5q0 5 1 9l11 52q6 19 24 19zM1464 725q0 130 -58 234.5
t-163.5 164t-241.5 59.5q-149 0 -299.5 -80.5t-260.5 -214.5t-143 -285q-13 -59 -13 -121q0 -128 60 -232t169 -163t250 -59q143 0 290 78.5t255.5 211t141.5 285.5q13 61 13 122z" />
    <glyph glyph-name="Dcroat" unicode="&#x110;" horiz-adv-x="1482" 
d="M204 726h102l143 675q4 22 25 27h473q167 -3 297.5 -77.5t203.5 -203t73 -288.5q0 -74 -16 -148q-41 -195 -173.5 -358t-318.5 -258t-381 -95h-452q-13 0 -19.5 5t-4.5 14l138 652h-102q-26 0 -26 19q0 5 1 8v1q6 27 37 27zM994 143q171 88 293 238.5t161 329.5
q14 66 14 136q0 149 -68 269t-191 188.5t-280 68.5h-425l-137 -647h220q12 0 18 -7t3 -21v-1q-2 -10 -12 -18t-21 -8h-220l-131 -616h425q180 0 351 88z" />
    <glyph glyph-name="dcroat" unicode="&#x111;" horiz-adv-x="1503" 
d="M1809 1386q6 -7 3 -21l-1 -1q-2 -10 -11.5 -18t-20.5 -8h-117l-278 -1306q-7 -32 -34 -32h-1q-21 0 -21 21q0 7 1 11l69 321q-73 -111 -178 -197t-226.5 -134.5t-239.5 -48.5q-155 0 -275 65t-185.5 178t-65.5 254q0 64 15 133q35 171 152 317t282 232t337 86
q126 0 228 -48t169.5 -134.5t93.5 -198.5l102 481h-240q-26 0 -26 18q0 6 1 9v1q6 27 37 27h240l33 158q7 32 33 32h1q22 0 22 -22q0 -6 -1 -10l-34 -158h118q12 0 18 -7zM1464 725q0 130 -58 234.5t-163.5 164t-241.5 59.5q-149 0 -299.5 -80.5t-260.5 -214.5t-143 -285
q-13 -59 -13 -121q0 -128 60 -232t169 -163t250 -59q143 0 290 78.5t255.5 211t141.5 285.5q13 61 13 122z" />
    <glyph glyph-name="Emacron" unicode="&#x112;" horiz-adv-x="1213" 
d="M681 1640h622q26 0 21 -26v-1q-2 -9 -11.5 -16.5t-20.5 -7.5h-621q-30 0 -25 25l1 1q4 25 34 25zM486 1427h925q15 0 23.5 -6.5t5.5 -20.5t-12 -19t-25 -5h-901l-130 -611h738q34 0 29 -25v-1q-5 -25 -40 -25h-738l-141 -662h921q15 0 22.5 -6.5t4.5 -17.5
q-7 -28 -37 -28h-948q-23 0 -23 19q0 6 1 9l292 1372q6 27 33 27z" />
    <glyph glyph-name="emacron" unicode="&#x113;" horiz-adv-x="1452" 
d="M757 1440h622q26 0 21 -26v-1q-2 -9 -11.5 -16.5t-20.5 -7.5h-621q-30 0 -25 25l1 1q4 25 34 25zM270 602q-12 -60 -12 -117q0 -129 59 -233.5t165 -165t240 -60.5q88 0 165.5 23.5t136 56t121.5 76.5q7 5 16 5q15 0 22 -9q5 -6 5 -16q0 -8 -3.5 -15t-9.5 -11
q-104 -75 -219 -119t-245 -44q-148 0 -264 65.5t-181 180.5t-65 256q0 59 14 127q37 170 153 316.5t278 233t332 86.5q155 0 273 -71t181.5 -186t63.5 -242q0 -52 -10 -98l-1 -4q-6 -27 -34 -27h-1179zM685.5 1111.5q-138.5 -71.5 -244 -191t-154.5 -256.5h1149q6 33 6 68
q0 113 -57.5 217t-166 169t-252.5 65q-142 0 -280.5 -71.5z" />
    <glyph glyph-name="Ebreve" unicode="&#x114;" horiz-adv-x="1213" 
d="M929.5 1594q-33.5 19 -51.5 50t-18 66q0 14 3 29q4 17 11 27t22 10h2q18 -1 18 -18q0 -5 -4 -19q-3 -10 -3 -22q0 -37 28 -64.5t78 -27.5q37 0 71.5 17t58 44t28.5 55q6 35 32 35h3q19 -1 19 -23q0 -9 -1 -13q-10 -43 -41.5 -81t-78.5 -61t-99 -23q-44 0 -77.5 19z
M486 1427h925q15 0 23.5 -6.5t5.5 -20.5t-12 -19t-25 -5h-901l-130 -611h738q34 0 29 -25v-1q-5 -25 -40 -25h-738l-141 -662h921q15 0 22.5 -6.5t4.5 -17.5q-7 -28 -37 -28h-948q-23 0 -23 19q0 6 1 9l292 1372q6 27 33 27z" />
    <glyph glyph-name="ebreve" unicode="&#x115;" horiz-adv-x="1452" 
d="M1024.5 1420q-33.5 19 -51.5 50t-18 66q0 14 3 29q4 17 11 27t22 10h2q18 -1 18 -18q0 -5 -4 -19q-3 -10 -3 -22q0 -37 28 -64.5t78 -27.5q37 0 71.5 17t58 44t28.5 55q6 35 32 35h3q19 -1 19 -23q0 -9 -1 -13q-10 -43 -41.5 -81t-78.5 -61t-99 -23q-44 0 -77.5 19z
M270 602q-12 -60 -12 -117q0 -129 59 -233.5t165 -165t240 -60.5q88 0 165.5 23.5t136 56t121.5 76.5q7 5 16 5q15 0 22 -9q5 -6 5 -16q0 -8 -3.5 -15t-9.5 -11q-104 -75 -219 -119t-245 -44q-148 0 -264 65.5t-181 180.5t-65 256q0 59 14 127q37 170 153 316.5t278 233
t332 86.5q155 0 273 -71t181.5 -186t63.5 -242q0 -52 -10 -98l-1 -4q-6 -27 -34 -27h-1179zM685.5 1111.5q-138.5 -71.5 -244 -191t-154.5 -256.5h1149q6 33 6 68q0 113 -57.5 217t-166 169t-252.5 65q-142 0 -280.5 -71.5z" />
    <glyph glyph-name="Edotaccent" unicode="&#x116;" horiz-adv-x="1213" 
d="M1013 1689h59q12 0 17 -8t3 -20l-12 -54q-5 -28 -30 -28h-60q-12 0 -16.5 4t-4.5 13q0 7 1 11l12 57q7 25 31 25zM486 1427h925q15 0 23.5 -6.5t5.5 -20.5t-12 -19t-25 -5h-901l-130 -611h738q34 0 29 -25v-1q-5 -25 -40 -25h-738l-141 -662h921q15 0 22.5 -6.5
t4.5 -17.5q-7 -28 -37 -28h-948q-23 0 -23 19q0 6 1 9l292 1372q6 27 33 27z" />
    <glyph glyph-name="edotaccent" unicode="&#x117;" horiz-adv-x="1452" 
d="M1080 1512h59q12 0 17 -8t3 -20l-12 -54q-5 -28 -30 -28h-60q-12 0 -16.5 4t-4.5 13q0 7 1 11l12 57q7 25 31 25zM270 602q-12 -60 -12 -117q0 -129 59 -233.5t165 -165t240 -60.5q88 0 165.5 23.5t136 56t121.5 76.5q7 5 16 5q15 0 22 -9q5 -6 5 -16q0 -8 -3.5 -15
t-9.5 -11q-104 -75 -219 -119t-245 -44q-148 0 -264 65.5t-181 180.5t-65 256q0 59 14 127q37 170 153 316.5t278 233t332 86.5q155 0 273 -71t181.5 -186t63.5 -242q0 -52 -10 -98l-1 -4q-6 -27 -34 -27h-1179zM685.5 1111.5q-138.5 -71.5 -244 -191t-154.5 -256.5h1149
q6 33 6 68q0 113 -57.5 217t-166 169t-252.5 65q-142 0 -280.5 -71.5z" />
    <glyph glyph-name="Eogonek" unicode="&#x118;" horiz-adv-x="1213" 
d="M1434.5 1420.5q8.5 -6.5 5.5 -20.5t-12 -19t-25 -5h-901l-130 -611h738q34 0 29 -25v-1q-5 -25 -40 -25h-738l-141 -662h921q13 0 20.5 -5t7.5 -13q0 -11 -9 -22l-10 -11l-164 -132l-25 -20q-43 -34 -69 -61t-31 -57q-2 -14 -2 -21q0 -32 19 -55.5t60 -23.5
q30 0 56.5 14.5t43.5 36.5t21 44q7 35 33 35q10 0 16 -6t6 -17q0 -6 -1 -9q-8 -40 -35 -74t-66 -54.5t-82 -20.5q-55 0 -89.5 33t-34.5 84q0 17 4 33q9 48 36 79t82 74q26 20 28 22l117 95h-890q-23 0 -23 19q0 6 1 9l292 1372q6 27 33 27h925q15 0 23.5 -6.5z" />
    <glyph glyph-name="eogonek" unicode="&#x119;" horiz-adv-x="1452" 
d="M1251 1167q118 -71 181.5 -186t63.5 -242q0 -52 -10 -98l-1 -4q-6 -27 -34 -27h-1179l-2 -8q-12 -60 -12 -117q0 -129 59 -233.5t165 -165t240 -60.5q88 0 165.5 23.5t136 56t121.5 76.5q7 5 16 5q15 0 22 -9q5 -6 5 -16q0 -8 -3.5 -15t-9.5 -11q-18 -13 -20 -14
l-164 -132l-25 -20q-43 -34 -69 -61t-31 -57q-2 -14 -2 -21q0 -32 19 -55.5t60 -23.5q30 0 56.5 14.5t43.5 36.5t21 44q7 35 33 35q10 0 16 -6t6 -17q0 -6 -1 -9q-8 -40 -35 -74t-66 -54.5t-82 -20.5q-55 0 -89.5 33t-34.5 84q0 17 4 33q7 36 25 62.5t38.5 45t66.5 54.5
q-114 -40 -234 -40q-148 0 -264 65.5t-181 180.5t-65 256q0 59 14 127q37 170 153 316.5t278 233t332 86.5q155 0 273 -71zM1442 732q0 113 -57.5 217t-166 169t-252.5 65q-142 0 -280.5 -71.5t-244 -191t-154.5 -256.5h1149q6 33 6 68z" />
    <glyph glyph-name="Ecaron" unicode="&#x11a;" horiz-adv-x="1213" 
d="M1021 1566q-10 0 -18 9l-168 213q-5 8 -5 17q0 11 7 19t17 8q6 0 11.5 -5t10.5 -11l150 -192l240 198q5 5 13 9t16 4t14 -6l1 -1q5 -5 5 -14q0 -14 -15 -26l-257 -212q-13 -10 -22 -10zM486 1427h925q15 0 23.5 -6.5t5.5 -20.5t-12 -19t-25 -5h-901l-130 -611h738
q34 0 29 -25v-1q-5 -25 -40 -25h-738l-141 -662h921q15 0 22.5 -6.5t4.5 -17.5q-7 -28 -37 -28h-948q-23 0 -23 19q0 6 1 9l292 1372q6 27 33 27z" />
    <glyph glyph-name="ecaron" unicode="&#x11b;" horiz-adv-x="1452" 
d="M1088 1383q-10 0 -18 9l-168 213q-5 8 -5 17q0 11 7 19t17 8q6 0 11.5 -5t10.5 -11l150 -192l240 198q5 5 13 9t16 4t14 -6l1 -1q5 -5 5 -14q0 -14 -15 -26l-257 -212q-13 -10 -22 -10zM270 602q-12 -60 -12 -117q0 -129 59 -233.5t165 -165t240 -60.5q88 0 165.5 23.5
t136 56t121.5 76.5q7 5 16 5q15 0 22 -9q5 -6 5 -16q0 -8 -3.5 -15t-9.5 -11q-104 -75 -219 -119t-245 -44q-148 0 -264 65.5t-181 180.5t-65 256q0 59 14 127q37 170 153 316.5t278 233t332 86.5q155 0 273 -71t181.5 -186t63.5 -242q0 -52 -10 -98l-1 -4q-6 -27 -34 -27
h-1179zM685.5 1111.5q-138.5 -71.5 -244 -191t-154.5 -256.5h1149q6 33 6 68q0 113 -57.5 217t-166 169t-252.5 65q-142 0 -280.5 -71.5z" />
    <glyph glyph-name="Gcircumflex" unicode="&#x11c;" horiz-adv-x="1425" 
d="M1195 1840q11 0 18 -9l168 -213q8 -10 8 -19q0 -10 -10 -19l-1 -1q-5 -4 -12 -4q-16 0 -29 17l-147 192l-240 -198q-20 -15 -30 -15q-8 0 -14 7l-1 1q-5 7 -5 13q0 12 16 26l257 212q13 10 22 10zM1066.5 78.5q115.5 39.5 220.5 106.5l89 419q3 15 12 23.5t23 8.5
q21 0 21 -21q0 -7 -1 -11l-90 -424q-5 -21 -20 -32q-109 -76 -239 -120t-256 -44q-173 0 -308.5 74.5t-211.5 205.5t-76 294q0 72 17 154q42 200 176.5 367.5t324 265t388.5 97.5q128 0 234 -43t186 -123q9 -9 9 -22q0 -11 -8 -19t-19 -8q-13 0 -23 10q-79 72 -172 110.5
t-209 38.5q-182 0 -359.5 -90t-304.5 -245t-166 -339q-15 -73 -15 -143q0 -151 69 -272t194 -189.5t286 -68.5q113 0 228.5 39.5z" />
    <glyph glyph-name="gcircumflex" unicode="&#x11d;" horiz-adv-x="1521" 
d="M1149 1656q10 0 18 -9l168 -213q8 -10 8 -19q0 -10 -10 -19l-1 -1q-5 -4 -12 -4q-16 0 -29 17l-147 192l-240 -198q-20 -15 -30 -15q-8 0 -14 7l-1 1q-5 7 -5 13q0 12 16 26l257 212q13 10 22 10zM1311 -82q-96 -146 -242.5 -233t-327.5 -87q-58 0 -135 12t-131 33.5
t-48 48.5q5 11 7 13l2 3q1 1 7.5 6t17.5 5q8 0 20 -6q50 -28 121.5 -43t149.5 -15q159 0 292.5 81.5t222.5 215.5t122 288l25 118q-72 -110 -175 -192.5t-225.5 -127.5t-252.5 -45q-143 0 -261 59.5t-187 170t-69 256.5q0 65 15 135q35 165 153 309t282 229.5t332 85.5
q120 0 222.5 -48t173 -133t98.5 -194l70 331q3 15 12.5 23.5t23.5 8.5q23 0 23 -20q0 -4 -2 -12l-203 -955q-37 -175 -133 -321zM1481 732q0 135 -63.5 237.5t-170.5 158t-234 55.5q-150 0 -301 -80.5t-260 -212.5t-138 -276q-14 -66 -14 -132q0 -136 63 -234.5
t170.5 -149.5t237.5 -51q149 0 291 67.5t246.5 185t146.5 259.5q26 88 26 173z" />
    <glyph glyph-name="Gbreve" unicode="&#x11e;" horiz-adv-x="1425" 
d="M1065.5 1598q-33.5 19 -51.5 50t-18 66q0 14 3 29q4 17 11 27t22 10h2q18 -1 18 -18q0 -5 -4 -19q-3 -10 -3 -22q0 -37 28 -64.5t78 -27.5q37 0 71.5 17t58 44t28.5 55q6 35 32 35h3q19 -1 19 -23q0 -9 -1 -13q-10 -43 -41.5 -81t-78.5 -61t-99 -23q-44 0 -77.5 19z
M1066.5 78.5q115.5 39.5 220.5 106.5l89 419q3 15 12 23.5t23 8.5q21 0 21 -21q0 -7 -1 -11l-90 -424q-5 -21 -20 -32q-109 -76 -239 -120t-256 -44q-173 0 -308.5 74.5t-211.5 205.5t-76 294q0 72 17 154q42 200 176.5 367.5t324 265t388.5 97.5q128 0 234 -43t186 -123
q9 -9 9 -22q0 -11 -8 -19t-19 -8q-13 0 -23 10q-79 72 -172 110.5t-209 38.5q-182 0 -359.5 -90t-304.5 -245t-166 -339q-15 -73 -15 -143q0 -151 69 -272t194 -189.5t286 -68.5q113 0 228.5 39.5z" />
    <glyph glyph-name="gbreve" unicode="&#x11f;" horiz-adv-x="1521" 
d="M1001.5 1396q-33.5 19 -51.5 50t-18 66q0 14 3 29q4 17 11 27t22 10h2q18 -1 18 -18q0 -5 -4 -19q-3 -10 -3 -22q0 -37 28 -64.5t78 -27.5q37 0 71.5 17t58 44t28.5 55q6 35 32 35h3q19 -1 19 -23q0 -9 -1 -13q-10 -43 -41.5 -81t-78.5 -61t-99 -23q-44 0 -77.5 19z
M1311 -82q-96 -146 -242.5 -233t-327.5 -87q-58 0 -135 12t-131 33.5t-48 48.5q5 11 7 13l2 3q1 1 7.5 6t17.5 5q8 0 20 -6q50 -28 121.5 -43t149.5 -15q159 0 292.5 81.5t222.5 215.5t122 288l25 118q-72 -110 -175 -192.5t-225.5 -127.5t-252.5 -45q-143 0 -261 59.5
t-187 170t-69 256.5q0 65 15 135q35 165 153 309t282 229.5t332 85.5q120 0 222.5 -48t173 -133t98.5 -194l70 331q3 15 12.5 23.5t23.5 8.5q23 0 23 -20q0 -4 -2 -12l-203 -955q-37 -175 -133 -321zM1481 732q0 135 -63.5 237.5t-170.5 158t-234 55.5q-150 0 -301 -80.5
t-260 -212.5t-138 -276q-14 -66 -14 -132q0 -136 63 -234.5t170.5 -149.5t237.5 -51q149 0 291 67.5t246.5 185t146.5 259.5q26 88 26 173z" />
    <glyph glyph-name="Gdotaccent" unicode="&#x120;" horiz-adv-x="1425" 
d="M1175 1691h59q12 0 17 -8t3 -20l-12 -54q-5 -28 -30 -28h-60q-12 0 -16.5 4t-4.5 13q0 7 1 11l12 57q7 25 31 25zM1066.5 78.5q115.5 39.5 220.5 106.5l89 419q3 15 12 23.5t23 8.5q21 0 21 -21q0 -7 -1 -11l-90 -424q-5 -21 -20 -32q-109 -76 -239 -120t-256 -44
q-173 0 -308.5 74.5t-211.5 205.5t-76 294q0 72 17 154q42 200 176.5 367.5t324 265t388.5 97.5q128 0 234 -43t186 -123q9 -9 9 -22q0 -11 -8 -19t-19 -8q-13 0 -23 10q-79 72 -172 110.5t-209 38.5q-182 0 -359.5 -90t-304.5 -245t-166 -339q-15 -73 -15 -143
q0 -151 69 -272t194 -189.5t286 -68.5q113 0 228.5 39.5z" />
    <glyph glyph-name="gdotaccent" unicode="&#x121;" horiz-adv-x="1521" 
d="M1073 1499h59q12 0 17 -8t3 -20l-12 -54q-5 -28 -30 -28h-60q-12 0 -16.5 4t-4.5 13q0 7 1 11l12 57q7 25 31 25zM1311 -82q-96 -146 -242.5 -233t-327.5 -87q-58 0 -135 12t-131 33.5t-48 48.5q5 11 7 13l2 3q1 1 7.5 6t17.5 5q8 0 20 -6q50 -28 121.5 -43t149.5 -15
q159 0 292.5 81.5t222.5 215.5t122 288l25 118q-72 -110 -175 -192.5t-225.5 -127.5t-252.5 -45q-143 0 -261 59.5t-187 170t-69 256.5q0 65 15 135q35 165 153 309t282 229.5t332 85.5q120 0 222.5 -48t173 -133t98.5 -194l70 331q3 15 12.5 23.5t23.5 8.5q23 0 23 -20
q0 -4 -2 -12l-203 -955q-37 -175 -133 -321zM1481 732q0 135 -63.5 237.5t-170.5 158t-234 55.5q-150 0 -301 -80.5t-260 -212.5t-138 -276q-14 -66 -14 -132q0 -136 63 -234.5t170.5 -149.5t237.5 -51q149 0 291 67.5t246.5 185t146.5 259.5q26 88 26 173z" />
    <glyph glyph-name="Gcommaaccent" unicode="&#x122;" horiz-adv-x="1425" 
d="M1066.5 78.5q115.5 39.5 220.5 106.5l89 419q3 15 12 23.5t23 8.5q21 0 21 -21q0 -7 -1 -11l-90 -424q-5 -21 -20 -32q-109 -76 -239 -120t-256 -44q-173 0 -308.5 74.5t-211.5 205.5t-76 294q0 72 17 154q42 200 176.5 367.5t324 265t388.5 97.5q128 0 234 -43t186 -123
q9 -9 9 -22q0 -11 -8 -19t-19 -8q-13 0 -23 10q-79 72 -172 110.5t-209 38.5q-182 0 -359.5 -90t-304.5 -245t-166 -339q-15 -73 -15 -143q0 -151 69 -272t194 -189.5t286 -68.5q113 0 228.5 39.5zM768 -125h61q17 0 13 -19l-15 -73q-7 -34 -23.5 -61t-33 -42t-24.5 -15
q-6 0 -11 6l-10 12q-3 1 -3 9q2 4 6 9q16 14 27 31.5t14 31.5l2 11v2q0 6 -6 6h-16q-10 0 -13.5 2.5t-3.5 9.5q0 5 1 9l11 52q6 19 24 19z" />
    <glyph glyph-name="gcommaaccent" unicode="&#x123;" horiz-adv-x="1521" 
d="M1099 1372h-61q-17 0 -13 19l15 73q7 34 23.5 61t33 42t24.5 15q6 0 11 -6l10 -12q3 -1 3 -9q-1 -4 -6 -9q-16 -14 -27 -31.5t-14 -31.5l-2 -11v-2q0 -6 6 -6h16q10 0 13.5 -2.5t3.5 -9.5q0 -5 -1 -9l-11 -52q-6 -19 -24 -19zM1311 -82q-96 -146 -242.5 -233t-327.5 -87
q-58 0 -135 12t-131 33.5t-48 48.5q5 11 7 13l2 3q1 1 7.5 6t17.5 5q8 0 20 -6q50 -28 121.5 -43t149.5 -15q159 0 292.5 81.5t222.5 215.5t122 288l25 118q-72 -110 -175 -192.5t-225.5 -127.5t-252.5 -45q-143 0 -261 59.5t-187 170t-69 256.5q0 65 15 135q35 165 153 309
t282 229.5t332 85.5q120 0 222.5 -48t173 -133t98.5 -194l70 331q3 15 12.5 23.5t23.5 8.5q23 0 23 -20q0 -4 -2 -12l-203 -955q-37 -175 -133 -321zM1481 732q0 135 -63.5 237.5t-170.5 158t-234 55.5q-150 0 -301 -80.5t-260 -212.5t-138 -276q-14 -66 -14 -132
q0 -136 63 -234.5t170.5 -149.5t237.5 -51q149 0 291 67.5t246.5 185t146.5 259.5q26 88 26 173z" />
    <glyph glyph-name="Hcircumflex" unicode="&#x124;" horiz-adv-x="1465" 
d="M1128 1837q11 0 18 -9l168 -213q8 -10 8 -19q0 -10 -10 -19l-1 -1q-5 -4 -12 -4q-16 0 -29 17l-147 192l-240 -198q-20 -15 -30 -15q-8 0 -14 7l-1 1q-5 7 -5 13q0 12 16 26l257 212q13 10 22 10zM353 683l-139 -651q-7 -32 -32 -32h-1q-22 0 -22 22q0 6 1 10l290 1363
q7 32 34 32h1q20 0 20 -20q0 -8 -1 -12l-140 -658h1033l140 658q7 32 34 32h1q20 0 20 -20q0 -8 -1 -12l-290 -1363q-7 -32 -32 -32h-1q-22 0 -22 22q0 6 1 10l139 651h-1033z" />
    <glyph glyph-name="hcircumflex" unicode="&#x125;" horiz-adv-x="1306" 
d="M1057 1663q11 0 18 -9l168 -213q8 -10 8 -19q0 -10 -10 -19l-1 -1q-5 -4 -12 -4q-16 0 -29 17l-147 192l-240 -198q-20 -15 -30 -15q-8 0 -14 7l-1 1q-5 7 -5 13q0 12 16 26l257 212q13 10 22 10zM1295 785q0 97 -39 187t-118 147t-191 57q-108 0 -230.5 -60.5
t-213.5 -158.5t-113 -204l-153 -720q-9 -33 -34 -33h-1q-22 0 -22 21q0 4 2 12l322 1516q3 15 11.5 24.5t22.5 9.5h1q21 0 21 -23q0 -7 -1 -11l-129 -604q101 129 240 208t288 79q121 0 210.5 -61.5t136.5 -160.5t47 -209q0 -52 -10 -99l-143 -669q-9 -33 -34 -33h-1
q-22 0 -22 21q0 4 2 12l142 666q9 42 9 86z" />
    <glyph glyph-name="Hbar" unicode="&#x126;" horiz-adv-x="1465" 
d="M353 683l-139 -651q-7 -32 -32 -32h-1q-22 0 -22 22q0 6 1 10l289 1359q7 32 34 32h1q20 0 20 -20q0 -8 -1 -12l-69 -325h1033l69 325q7 32 34 32h1q20 0 20 -20q0 -8 -1 -12l-289 -1359q-7 -32 -32 -32h-1q-22 0 -22 22q0 6 1 10l139 651h-1033zM1397 737l58 274h-1033
l-58 -274h1033z" />
    <glyph glyph-name="hbar" unicode="&#x127;" horiz-adv-x="1306" 
d="M1168.5 1170.5q89.5 -61.5 136.5 -160.5t47 -209q0 -52 -10 -99l-143 -669q-9 -33 -34 -33h-1q-22 0 -22 21q0 4 2 12l142 666q9 42 9 86q0 97 -39 187t-118 147t-191 57q-108 0 -230.5 -60.5t-213.5 -158.5t-113 -204l-153 -720q-9 -33 -34 -33h-1q-22 0 -22 21
q0 4 2 12l285 1342h-104q-24 0 -24 17q0 16 9.5 23.5t24.5 7.5h104l27 126q3 15 11.5 24.5t22.5 9.5h1q21 0 21 -23q0 -7 -1 -11l-27 -126h240q10 0 16 -6.5t4 -17.5v-1q-2 -9 -10.5 -16t-19.5 -7h-240l-92 -430q101 129 240 208t288 79q121 0 210.5 -61.5z" />
    <glyph glyph-name="Itilde" unicode="&#x128;" 
d="M295.5 1582q-8.5 -5 -16.5 -5q-9 0 -16 7l-1 2q-6 9 -6 16q0 11 15 23q48 44 84 63t78 19q25 0 46.5 -10.5t54.5 -31.5q31 -21 52.5 -31.5t46.5 -10.5q24 0 46 14t40 29.5t25 21.5q6 5 14 9.5t15 4.5q8 0 14 -5q5 -5 5 -12q0 -15 -17 -32q-43 -43 -79.5 -62.5
t-78.5 -19.5q-26 0 -48 10.5t-53 31.5q-28 20 -48 29.5t-43 9.5q-33 0 -55.5 -13.5t-58.5 -45.5q-7 -6 -15.5 -11zM462 1418q9 9 22 9h1q20 0 20 -20q0 -8 -1 -12l-289 -1362q-9 -33 -33 -33h-1q-22 0 -22 21q0 4 2 12l289 1362q3 14 12 23z" />
    <glyph glyph-name="itilde" unicode="&#x129;" 
d="M272.5 1381q-8.5 -5 -16.5 -5q-9 0 -16 7l-1 2q-6 9 -6 16q0 11 15 23q48 44 84 63t78 19q25 0 46.5 -10.5t54.5 -31.5q31 -21 52.5 -31.5t46.5 -10.5q24 0 46 14t40 29.5t25 21.5q6 5 14 9.5t15 4.5q8 0 14 -5q5 -5 5 -12q0 -15 -17 -32q-43 -43 -79.5 -62.5
t-78.5 -19.5q-26 0 -48 10.5t-53 31.5q-28 20 -48 29.5t-43 9.5q-33 0 -55.5 -13.5t-58.5 -45.5q-7 -6 -15.5 -11zM457 1226h1q23 0 23 -19q0 -4 -2 -12l-248 -1163q-7 -32 -33 -32h-1q-23 0 -23 22q0 7 1 10l248 1163q7 31 34 31z" />
    <glyph glyph-name="Imacron" unicode="&#x12a;" 
d="M225 1632h622q26 0 21 -26v-1q-2 -9 -11.5 -16.5t-20.5 -7.5h-621q-30 0 -25 25l1 1q4 25 34 25zM462 1418q9 9 22 9h1q20 0 20 -20q0 -8 -1 -12l-289 -1362q-9 -33 -33 -33h-1q-22 0 -22 21q0 4 2 12l289 1362q3 14 12 23z" />
    <glyph glyph-name="imacron" unicode="&#x12b;" 
d="M267 1439h478q12 0 19 -7.5t4 -20.5v-1q-2 -10 -12 -18t-22 -8h-478q-32 0 -27 27l1 1q6 27 37 27zM457 1226h1q23 0 23 -19q0 -4 -2 -12l-248 -1163q-7 -32 -33 -32h-1q-23 0 -23 22q0 7 1 10l248 1163q7 31 34 31z" />
    <glyph glyph-name="Ibreve" unicode="&#x12c;" 
d="M448.5 1587q-33.5 19 -51.5 50t-18 66q0 14 3 29q4 17 11 27t22 10h2q18 -1 18 -18q0 -5 -4 -19q-3 -10 -3 -22q0 -37 28 -64.5t78 -27.5q37 0 71.5 17t58 44t28.5 55q6 35 32 35h3q19 -1 19 -23q0 -9 -1 -13q-10 -43 -41.5 -81t-78.5 -61t-99 -23q-44 0 -77.5 19z
M462 1418q9 9 22 9h1q20 0 20 -20q0 -8 -1 -12l-289 -1362q-9 -33 -33 -33h-1q-22 0 -22 21q0 4 2 12l289 1362q3 14 12 23z" />
    <glyph glyph-name="ibreve" unicode="&#x12d;" 
d="M406.5 1404q-33.5 19 -51.5 50t-18 66q0 14 3 29q4 17 11 27t22 10h2q18 -1 18 -18q0 -5 -4 -19q-3 -10 -3 -22q0 -37 28 -64.5t78 -27.5q37 0 71.5 17t58 44t28.5 55q6 35 32 35h3q19 -1 19 -23q0 -9 -1 -13q-10 -43 -41.5 -81t-78.5 -61t-99 -23q-44 0 -77.5 19z
M457 1226h1q23 0 23 -19q0 -4 -2 -12l-248 -1163q-7 -32 -33 -32h-1q-23 0 -23 22q0 7 1 10l248 1163q7 31 34 31z" />
    <glyph glyph-name="Iogonek" unicode="&#x12e;" 
d="M505 1407q0 -8 -1 -12l-289 -1362q-2 -8 -4 -12q-3 -10 -15 -21l-164 -132l-25 -20q-43 -34 -69 -61t-31 -57q-2 -14 -2 -21q0 -32 19 -55.5t60 -23.5q30 0 56.5 14.5t43.5 36.5t21 44q7 35 33 35q10 0 16 -6t6 -17q0 -6 -1 -9q-8 -40 -35 -74t-66 -54.5t-82 -20.5
q-55 0 -89.5 33t-34.5 84q0 17 4 33q9 48 36 79t82 74q26 20 28 22l159 129l289 1362q3 14 12 23t22 9h1q20 0 20 -20z" />
    <glyph glyph-name="iogonek" unicode="&#x12f;" 
d="M566 1541l-9 -44q-5 -22 -24 -22h-48q-17 0 -17 13q0 6 1 9l9 46q5 20 25 20h49q18 0 14 -22zM481 1207q0 -4 -2 -12l-248 -1163v-8q-3 -10 -15 -21l-164 -132l-25 -20q-43 -34 -69 -61t-31 -57q-2 -14 -2 -21q0 -32 19 -55.5t60 -23.5q30 0 56.5 14.5t43.5 36.5t21 44
q7 35 33 35q10 0 16 -6t6 -17q0 -6 -1 -9q-8 -40 -35 -74t-66 -54.5t-82 -20.5q-55 0 -89.5 33t-34.5 84q0 17 4 33q9 48 36 79t82 74q26 20 28 22l153 124v1l248 1163q7 31 34 31h1q23 0 23 -19z" />
    <glyph glyph-name="Idotaccent" unicode="&#x130;" 
d="M514 1694h59q12 0 17 -8t3 -20l-12 -54q-5 -28 -30 -28h-60q-12 0 -16.5 4t-4.5 13q0 7 1 11l12 57q7 25 31 25zM462 1418q9 9 22 9h1q20 0 20 -20q0 -8 -1 -12l-289 -1362q-9 -33 -33 -33h-1q-22 0 -22 21q0 4 2 12l289 1362q3 14 12 23z" />
    <glyph glyph-name="dotlessi" unicode="&#x131;" 
d="M457 1226h1q23 0 23 -19q0 -4 -2 -12l-248 -1163q-7 -32 -33 -32h-1q-23 0 -23 22q0 7 1 10l248 1163q7 31 34 31z" />
    <glyph glyph-name="IJ" unicode="&#x132;" horiz-adv-x="835" 
d="M912.5 1419q8.5 9 22.5 9h2q19 0 19 -24q0 -6 -1 -9l-311 -1463q-21 -95 -79 -168.5t-140 -114t-172 -40.5q-69 0 -122 21t-86 62q-17 17 -13 33q2 10 12 17l2 2q7 5 14 5q12 0 21 -11q22 -31 65.5 -52.5t115.5 -21.5q79 0 149 39t118 103t64 137l308 1452q3 15 11.5 24z
M489 1418q9 9 22 9h1q20 0 20 -20q0 -8 -1 -12l-289 -1362q-9 -33 -33 -33h-1q-22 0 -22 21q0 4 2 12l289 1362q3 14 12 23z" />
    <glyph glyph-name="ij" unicode="&#x133;" horiz-adv-x="728" 
d="M504 1563h49q18 0 14 -22l-9 -44q-5 -22 -24 -22h-48q-17 0 -17 13q0 6 1 9l9 46q5 20 25 20zM851 1563h49q18 0 14 -22l-9 -44q-5 -22 -24 -22h-48q-17 0 -17 13q0 6 1 9l9 46q5 20 25 20zM785 1217.5q9 8.5 23 8.5h1q21 0 21 -21q0 -6 -1 -10l-258 -1213
q-20 -91 -78 -179t-152.5 -145.5t-215.5 -57.5q-15 0 -21 5.5t-6.5 12t0.5 9.5l1 2q0 6 9.5 15.5t32.5 9.5q101 0 180.5 49t128.5 124.5t66 155.5l258 1212q2 14 11 22.5zM458 1226h1q23 0 23 -19q0 -4 -2 -12l-248 -1163q-7 -32 -33 -32h-1q-23 0 -23 22q0 7 1 10l248 1163
q7 31 34 31z" />
    <glyph glyph-name="Jcircumflex" unicode="&#x134;" 
d="M626 1841q11 0 18 -9l168 -213q8 -10 8 -19q0 -10 -10 -19l-1 -1q-5 -4 -12 -4q-16 0 -29 17l-147 192l-240 -198q-20 -15 -30 -15q-8 0 -14 7l-1 1q-5 7 -5 13q0 12 16 26l257 212q13 10 22 10zM499.5 1419q8.5 9 22.5 9h2q19 0 19 -24q0 -6 -1 -9l-311 -1463
q-21 -95 -79 -168.5t-140 -114t-172 -40.5q-69 0 -122 21t-86 62q-17 17 -13 33q2 10 12 17l2 2q7 5 14 5q12 0 21 -11q22 -31 65.5 -52.5t115.5 -21.5q79 0 149 39t118 103t64 137l308 1452q3 15 11.5 24z" />
    <glyph glyph-name="jcircumflex" unicode="&#x135;" 
d="M564 1654q11 0 18 -9l168 -213q8 -10 8 -19q0 -10 -10 -19l-1 -1q-5 -4 -12 -4q-16 0 -29 17l-147 192l-240 -198q-20 -15 -30 -15q-8 0 -14 7l-1 1q-5 7 -5 13q0 12 16 26l257 212q13 10 22 10zM461 1217.5q9 8.5 23 8.5h1q21 0 21 -21q0 -6 -1 -10l-259 -1218
q-22 -90 -80.5 -177t-152 -143.5t-212.5 -56.5q-15 0 -21 5.5t-6.5 12t0.5 9.5l1 2q0 6 9.5 15.5t32.5 9.5q102 0 179.5 45.5t126 119t68.5 159.5l1 4l258 1213q2 14 11 22.5z" />
    <glyph glyph-name="Kcommaaccent" unicode="&#x136;" horiz-adv-x="1356" 
d="M1254 42q5 -10 5 -16q0 -11 -7.5 -18.5t-17.5 -7.5q-16 0 -27 19l-492 781l-414 -359l-87 -409q-7 -32 -32 -32h-1q-22 0 -22 22q0 6 1 10l290 1362q7 32 34 32h1q20 0 20 -20q0 -8 -1 -12l-185 -867l1020 882q21 18 35 18h2q11 0 17 -8.5t4 -19.5q-2 -9 -11 -18
l-631 -546zM499 -125h61q17 0 13 -19l-15 -73q-7 -34 -23.5 -61t-33 -42t-24.5 -15q-7 0 -11 6l-10 12q-3 1 -3 9q2 4 6 9q16 14 27 31.5t14 31.5l2 11v2q0 6 -6 6h-16q-10 0 -13.5 2.5t-3.5 9.5q0 5 1 9l11 52q6 19 24 19z" />
    <glyph glyph-name="kcommaaccent" unicode="&#x137;" horiz-adv-x="1223" 
d="M1112 46q7 -10 7 -22q0 -10 -6 -17t-17 -7q-8 0 -15.5 3.5t-14.5 15.5l-414 739l-332 -253l-100 -471q-7 -34 -33 -34h-1q-21 0 -21 23q0 7 1 11l322 1518q7 31 34 31h1q20 0 20 -19q0 -8 -1 -12l-204 -965l823 627q15 12 23 11.5t9 -0.5q10 0 17.5 -8t4.5 -21
q-3 -10 -13 -19l-507 -385zM494 -119h61q17 0 13 -19l-15 -73q-7 -34 -23.5 -61t-33 -42t-24.5 -15q-6 0 -11 6l-10 12q-3 1 -3 9q2 4 6 9q16 14 27 31.5t14 31.5l2 11v2q0 6 -6 6h-16q-10 0 -13.5 2.5t-3.5 9.5q0 5 1 9l11 52q6 19 24 19z" />
    <glyph glyph-name="kgreenlandic" unicode="&#x138;" horiz-adv-x="1223" 
d="M1092 46q7 -10 4 -19q-2 -11 -11.5 -18.5t-19.5 -8.5q-9 0 -15 2.5t-14 14.5l-389 738l-327 -250l-100 -471q-7 -34 -33 -34h-1q-21 0 -21 23q0 7 1 11l247 1161q5 31 33 31h1q21 0 21 -21q0 -6 -1 -10l-132 -621l804 622q11 9 17 11t13 2q10 0 17.5 -8t4.5 -21
q-1 -10 -13 -19l-483 -369z" />
    <glyph glyph-name="Lacute" unicode="&#x139;" horiz-adv-x="1112" 
d="M539 1564h-2q-10 1 -17 7.5t-5 17.5q2 7 9 18l177 229q9 13 15.5 16.5t13.5 3.5h2q9 -1 15 -7t6 -15q0 -12 -8 -22l-176 -228q-16 -20 -30 -20zM487 1427h1q20 0 20 -20q0 -8 -1 -12l-288 -1346h823q32 0 32 -19q0 -30 -40 -30h-850q-23 0 -23 19q0 6 1 9l291 1367
q7 32 34 32z" />
    <glyph glyph-name="lacute" unicode="&#x13a;" horiz-adv-x="419" 
d="M556 1663h-2q-10 1 -17 7.5t-5 17.5q2 8 9 18l177 229q9 13 15.5 16.5t13.5 3.5h2q9 -1 15 -7t6 -15q0 -12 -8 -22l-176 -228q-16 -20 -30 -20zM494.5 1573.5q8.5 9.5 22.5 9.5h1q21 0 21 -23q0 -7 -1 -11l-322 -1516q-9 -33 -34 -33h-1q-22 0 -22 21q0 4 2 12l322 1516
q3 15 11.5 24.5z" />
    <glyph glyph-name="Lcommaaccent" unicode="&#x13b;" horiz-adv-x="1112" 
d="M487 1427h1q20 0 20 -20q0 -8 -1 -12l-288 -1346h823q32 0 32 -19q0 -30 -40 -30h-850q-23 0 -23 19q0 6 1 9l291 1367q7 32 34 32zM543 -173h61q17 0 13 -19l-15 -73q-7 -34 -23.5 -61t-33 -42t-24.5 -15q-6 0 -11 6l-10 12q-3 1 -3 9q2 4 6 9q16 14 27 31.5t14 31.5
l2 11v2q0 6 -6 6h-16q-10 0 -13.5 2.5t-3.5 9.5q0 5 1 9l11 52q6 19 24 19z" />
    <glyph glyph-name="lcommaaccent" unicode="&#x13c;" horiz-adv-x="419" 
d="M494.5 1573.5q8.5 9.5 22.5 9.5h1q21 0 21 -23q0 -7 -1 -11l-322 -1516q-9 -33 -34 -33h-1q-22 0 -22 21q0 4 2 12l322 1516q3 15 11.5 24.5zM119 -146h61q17 0 13 -19l-15 -73q-7 -34 -23.5 -61t-33 -42t-24.5 -15q-6 0 -11 6l-10 12q-3 1 -3 9q2 4 6 9q16 14 27 31.5
t14 31.5l2 11v2q0 6 -6 6h-16q-10 0 -13.5 2.5t-3.5 9.5q0 5 1 9l11 52q6 19 24 19z" />
    <glyph glyph-name="Lcaron" unicode="&#x13d;" horiz-adv-x="1112" 
d="M487 1427h1q20 0 20 -20q0 -8 -1 -12l-288 -1346h823q32 0 32 -19q0 -30 -40 -30h-850q-23 0 -23 19q0 6 1 9l291 1367q7 32 34 32zM920 1427h61q17 0 13 -19l-15 -73q-7 -34 -23.5 -61t-33 -42t-24.5 -15q-7 0 -11 6l-10 12q-3 2 -3 9q2 5 6 9q16 14 27 31.5t14 31.5
l2 11v2q0 6 -6 6h-16q-10 0 -13.5 2.5t-3.5 9.5q0 5 1 9l11 52q6 19 24 19z" />
    <glyph glyph-name="lcaron" unicode="&#x13e;" horiz-adv-x="419" 
d="M494.5 1573.5q8.5 9.5 22.5 9.5h1q21 0 21 -23q0 -7 -1 -11l-322 -1516q-9 -33 -34 -33h-1q-22 0 -22 21q0 4 2 12l322 1516q3 15 11.5 24.5zM627 1579h61q17 0 13 -19l-15 -73q-7 -34 -23.5 -61t-33 -42t-24.5 -15q-6 0 -11 6l-10 12q-3 2 -3 9q2 5 6 9q16 14 27 31.5
t14 31.5l2 11v2q0 6 -6 6h-16q-10 0 -13.5 2.5t-3.5 9.5q0 5 1 9l11 52q6 19 24 19z" />
    <glyph glyph-name="Ldot" unicode="&#x13f;" horiz-adv-x="1112" 
d="M487 1427h1q20 0 20 -20q0 -8 -1 -12l-288 -1346h823q32 0 32 -19q0 -30 -40 -30h-850q-23 0 -23 19q0 6 1 9l291 1367q7 32 34 32zM876 758h59q12 0 17 -8t3 -20l-12 -54q-5 -28 -30 -28h-60q-12 0 -16.5 4t-4.5 13q0 7 1 11l12 57q7 25 31 25z" />
    <glyph glyph-name="ldot" unicode="&#x140;" horiz-adv-x="419" 
d="M494.5 1573.5q8.5 9.5 22.5 9.5h1q21 0 21 -23q0 -7 -1 -11l-322 -1516q-9 -33 -34 -33h-1q-22 0 -22 21q0 4 2 12l322 1516q3 15 11.5 24.5zM507 745h59q12 0 17 -8t3 -20l-12 -54q-5 -28 -30 -28h-60q-12 0 -16.5 4t-4.5 13q0 7 1 11l12 57q7 25 31 25z" />
    <glyph glyph-name="Lslash" unicode="&#x141;" horiz-adv-x="1112" 
d="M131 586q-8 -4 -19 -4q-17 0 -18 17q-1 4 -0.5 7t0.5 5q5 19 27 26l185 65l147 693q7 32 34 32h1q20 0 20 -20q0 -8 -1 -12l-143 -672l291 103l13 2q19 0 20 -15q1 -5 0.5 -8.5t-0.5 -4.5q-4 -19 -24 -25l-312 -111l-129 -607h823q33 0 28 -26v-1q-3 -14 -14 -21.5
t-26 -7.5h-850q-22 0 -22 19q0 6 1 9l130 614z" />
    <glyph glyph-name="lslash" unicode="&#x142;" horiz-adv-x="419" 
d="M599 833q0 -2 -2 -10q-3 -19 -23 -25l-211 -75l-147 -690q-9 -33 -34 -33h-1q-22 0 -22 21q0 4 2 12l142 669l-165 -59q-7 -4 -19 -4q-17 0 -18 17v1q-1 4 -0.5 6.5t0.5 4.5q5 19 27 26l188 67l167 788q3 15 11.5 24.5t22.5 9.5h1q21 0 21 -23q0 -7 -1 -11l-163 -767
l190 67l13 2q19 0 20 -15z" />
    <glyph glyph-name="Nacute" unicode="&#x143;" horiz-adv-x="1465" 
d="M1107 1543h-2q-10 1 -17 7.5t-5 17.5q2 7 9 18l177 229q9 13 15.5 16.5t13.5 3.5h2q9 -1 15 -7t6 -15q0 -12 -8 -22l-176 -228q-16 -20 -30 -20zM214 33q-7 -33 -33 -33h-1q-22 0 -22 21q0 4 2 12l290 1367q3 10 11 18t21 9h5q13 0 26 -19l775 -1308l278 1300q6 27 32 27
q12 0 18 -6.5t3 -20.5l-290 -1367q-5 -19 -9.5 -26t-19.5 -7q-8 0 -13 3t-12 15l-782 1328z" />
    <glyph glyph-name="nacute" unicode="&#x144;" horiz-adv-x="1306" 
d="M1035 1371h-2q-10 1 -17 7.5t-5 17.5q2 7 9 18l177 229q9 13 15.5 16.5t13.5 3.5h2q9 -1 15 -7t6 -15q0 -12 -8 -22l-176 -228q-16 -20 -30 -20zM200 0h-1q-22 0 -22 19q0 4 2 12l247 1163q7 32 33 32h1q20 0 20 -20q0 -8 -1 -12l-46 -229q63 86 151 149t181.5 96
t175.5 33q133 0 225.5 -55.5t139 -148t46.5 -203.5q0 -59 -11 -110l-148 -695q-7 -31 -32 -31h-1q-23 0 -23 20q0 7 1 11l148 695q11 53 11 102q0 97 -40.5 179t-124 131.5t-205.5 49.5q-95 0 -211.5 -54t-209.5 -156t-121 -239l-151 -708q-7 -31 -34 -31z" />
    <glyph glyph-name="Ncommaaccent" unicode="&#x145;" horiz-adv-x="1465" 
d="M214 33q-7 -33 -33 -33h-1q-22 0 -22 21q0 4 2 12l290 1367q3 10 11 18t21 9h5q13 0 26 -19l775 -1308l278 1300q6 27 32 27q12 0 18 -6.5t3 -20.5l-290 -1367q-5 -19 -9.5 -26t-19.5 -7q-8 0 -13 3t-12 15l-782 1328zM625 -147h61q17 0 13 -19l-15 -73q-7 -34 -23.5 -61
t-33 -42t-24.5 -15q-6 0 -11 6l-10 12q-3 1 -3 9q2 4 6 9q16 14 27 31.5t14 31.5l2 11v2q0 6 -6 6h-16q-10 0 -13.5 2.5t-3.5 9.5q0 5 1 9l11 52q6 19 24 19z" />
    <glyph glyph-name="ncommaaccent" unicode="&#x146;" horiz-adv-x="1306" 
d="M200 0h-1q-22 0 -22 19q0 4 2 12l247 1163q7 32 33 32h1q20 0 20 -20q0 -8 -1 -12l-46 -229q63 86 151 149t181.5 96t175.5 33q133 0 225.5 -55.5t139 -148t46.5 -203.5q0 -59 -11 -110l-148 -695q-7 -31 -32 -31h-1q-23 0 -23 20q0 7 1 11l148 695q11 53 11 102
q0 97 -40.5 179t-124 131.5t-205.5 49.5q-95 0 -211.5 -54t-209.5 -156t-121 -239l-151 -708q-7 -31 -34 -31zM597 -89h61q17 0 13 -19l-15 -73q-7 -34 -23.5 -61t-33 -42t-24.5 -15q-6 0 -11 6l-10 12q-3 1 -3 9q2 4 6 9q16 14 27 31.5t14 31.5l2 11v2q0 6 -6 6h-16
q-10 0 -13.5 2.5t-3.5 9.5q0 5 1 9l11 52q6 19 24 19z" />
    <glyph glyph-name="Ncaron" unicode="&#x147;" horiz-adv-x="1465" 
d="M1080 1534q-11 0 -18 9l-168 213q-5 8 -5 17q0 11 7 19t17 8q6 0 11.5 -5t10.5 -11l150 -192l240 198q5 5 13 9t16 4t14 -6l1 -1q5 -5 5 -14q0 -14 -15 -26l-257 -212q-13 -10 -22 -10zM214 33q-7 -33 -33 -33h-1q-22 0 -22 21q0 4 2 12l290 1367q3 10 11 18t21 9h5
q13 0 26 -19l775 -1308l278 1300q6 27 32 27q12 0 18 -6.5t3 -20.5l-290 -1367q-5 -19 -9.5 -26t-19.5 -7q-8 0 -13 3t-12 15l-782 1328z" />
    <glyph glyph-name="ncaron" unicode="&#x148;" horiz-adv-x="1306" 
d="M959 1371q-11 0 -18 9l-168 213q-5 8 -5 17q0 11 7 19t17 8q6 0 11.5 -5t10.5 -11l150 -192l240 198q5 5 13 9t16 4t14 -6l1 -1q5 -5 5 -14q0 -14 -15 -26l-257 -212q-13 -10 -22 -10zM200 0h-1q-22 0 -22 19q0 4 2 12l247 1163q7 32 33 32h1q20 0 20 -20q0 -8 -1 -12
l-46 -229q63 86 151 149t181.5 96t175.5 33q133 0 225.5 -55.5t139 -148t46.5 -203.5q0 -59 -11 -110l-148 -695q-7 -31 -32 -31h-1q-23 0 -23 20q0 7 1 11l148 695q11 53 11 102q0 97 -40.5 179t-124 131.5t-205.5 49.5q-95 0 -211.5 -54t-209.5 -156t-121 -239l-151 -708
q-7 -31 -34 -31z" />
    <glyph glyph-name="napostrophe" unicode="&#x149;" horiz-adv-x="1261" 
d="M139 0h-1q-22 0 -22 19q0 4 2 12l247 1163q7 32 33 32h1q20 0 20 -20q0 -8 -1 -12l-46 -229q63 86 151 149t181.5 96t175.5 33q133 0 225.5 -55.5t139 -148t46.5 -203.5q0 -59 -11 -110l-148 -695q-7 -31 -32 -31h-1q-23 0 -23 20q0 7 1 11l148 695q11 53 11 102
q0 97 -40.5 179t-124 131.5t-205.5 49.5q-95 0 -211.5 -54t-209.5 -156t-121 -239l-151 -708q-7 -31 -34 -31zM218 1217h61q17 0 13 -19l-15 -73q-7 -34 -23.5 -61t-33 -42t-24.5 -15q-6 0 -11 6l-10 12q-3 2 -3 9q2 5 6 9q16 14 27 31.5t14 31.5l2 11v2q0 6 -6 6h-16
q-10 0 -13.5 2.5t-3.5 9.5q0 5 1 9l11 52q6 19 24 19z" />
    <glyph glyph-name="Eng" unicode="&#x14a;" horiz-adv-x="1493" 
d="M483 1426h5q15 0 26 -19l775 -1307l276 1299q6 27 34 27h1q21 0 21 -18q0 -6 -1 -9l-326 -1533q-19 -90 -75 -165.5t-139.5 -120.5t-178.5 -45q-70 0 -123.5 20.5t-85.5 62.5q-12 15 -12 32q0 10 6 16q11 9 20 9q11 0 21 -13q22 -31 66.5 -53t115.5 -22q79 0 149 38
t117.5 99t61.5 126l37 174l-781 1317l-280 -1313q-3 -15 -10 -21.5t-21 -6.5h-1q-23 0 -23 19q0 6 1 9l292 1371q4 25 32 27z" />
    <glyph glyph-name="eng" unicode="&#x14b;" horiz-adv-x="1306" 
d="M200 0h-1q-22 0 -22 19q0 4 2 12l247 1163q7 32 33 32h1q20 0 20 -20q0 -8 -1 -12l-47 -226q57 74 143.5 137.5t185.5 101t190 37.5q138 0 229 -63t133 -155t42 -180q0 -33 -6 -60l-162 -761q-18 -86 -71.5 -160t-141 -119.5t-201.5 -45.5q-16 0 -22 6t-6 14t1 8v2
q0 2 4 9t13.5 12.5t25.5 5.5q88 0 159.5 33.5t119 94.5t64.5 142l162 759q6 27 6 58q0 80 -38.5 159.5t-118 132.5t-196.5 53q-96 0 -218 -56t-220 -160t-126 -241l-149 -701q-7 -31 -34 -31z" />
    <glyph glyph-name="Omacron" unicode="&#x14c;" horiz-adv-x="1657" 
d="M855 1634h622q26 0 21 -26v-1q-2 -9 -11.5 -16.5t-20.5 -7.5h-621q-30 0 -25 25l1 1q4 25 34 25zM410.5 1079q134.5 168 324.5 266t389 98q174 0 307 -74.5t206 -205.5t73 -296q0 -78 -16 -155q-41 -199 -173.5 -366t-320 -264t-386.5 -97q-173 0 -308.5 74t-211.5 205
t-76 294q0 72 17 154q41 199 175.5 367zM277 560q0 -149 67.5 -266.5t192 -184t290.5 -66.5q177 0 347 90.5t293 244.5t166 334q21 87 21 166q0 148 -68.5 261.5t-191.5 177.5t-282 67q-175 4 -350 -88t-302 -248.5t-166 -335.5q-17 -74 -17 -152z" />
    <glyph glyph-name="omacron" unicode="&#x14d;" horiz-adv-x="1438" 
d="M735 1469h622q26 0 21 -26v-1q-2 -9 -11.5 -16.5t-20.5 -7.5h-621q-30 0 -25 25l1 1q4 25 34 25zM375 924.5q115 144.5 276.5 229.5t330.5 85q150 0 269 -65.5t185.5 -180t66.5 -256.5q0 -60 -14 -128q-37 -170 -154.5 -316.5t-282 -233t-337.5 -86.5q-147 0 -262 66
t-179 180.5t-64 255.5q0 65 15 134q35 171 150 315.5zM266 486q0 -128 58 -233t163 -165t239 -60q155 0 305.5 81t259 215t143.5 285q14 59 14 123q0 128 -60.5 231t-169.5 162t-248 59q-146 0 -294.5 -79.5t-256.5 -212.5t-139 -283q-14 -65 -14 -123z" />
    <glyph glyph-name="Obreve" unicode="&#x14e;" horiz-adv-x="1657" 
d="M1069.5 1590q-33.5 19 -51.5 50t-18 66q0 14 3 29q4 17 11 27t22 10h2q18 -1 18 -18q0 -5 -4 -19q-3 -10 -3 -22q0 -37 28 -64.5t78 -27.5q37 0 71.5 17t58 44t28.5 55q6 35 32 35h3q19 -1 19 -23q0 -9 -1 -13q-10 -43 -41.5 -81t-78.5 -61t-99 -23q-44 0 -77.5 19z
M410.5 1079q134.5 168 324.5 266t389 98q174 0 307 -74.5t206 -205.5t73 -296q0 -78 -16 -155q-41 -199 -173.5 -366t-320 -264t-386.5 -97q-173 0 -308.5 74t-211.5 205t-76 294q0 72 17 154q41 199 175.5 367zM277 560q0 -149 67.5 -266.5t192 -184t290.5 -66.5
q177 0 347 90.5t293 244.5t166 334q21 87 21 166q0 148 -68.5 261.5t-191.5 177.5t-282 67q-175 4 -350 -88t-302 -248.5t-166 -335.5q-17 -74 -17 -152z" />
    <glyph glyph-name="obreve" unicode="&#x14f;" horiz-adv-x="1438" 
d="M955.5 1416q-33.5 19 -51.5 50t-18 66q0 14 3 29q4 17 11 27t22 10h2q18 -1 18 -18q0 -5 -4 -19q-3 -10 -3 -22q0 -37 28 -64.5t78 -27.5q37 0 71.5 17t58 44t28.5 55q6 35 32 35h3q19 -1 19 -23q0 -9 -1 -13q-10 -43 -41.5 -81t-78.5 -61t-99 -23q-44 0 -77.5 19z
M375 924.5q115 144.5 276.5 229.5t330.5 85q150 0 269 -65.5t185.5 -180t66.5 -256.5q0 -60 -14 -128q-37 -170 -154.5 -316.5t-282 -233t-337.5 -86.5q-147 0 -262 66t-179 180.5t-64 255.5q0 65 15 134q35 171 150 315.5zM266 486q0 -128 58 -233t163 -165t239 -60
q155 0 305.5 81t259 215t143.5 285q14 59 14 123q0 128 -60.5 231t-169.5 162t-248 59q-146 0 -294.5 -79.5t-256.5 -212.5t-139 -283q-14 -65 -14 -123z" />
    <glyph glyph-name="Ohungarumlaut" unicode="&#x150;" horiz-adv-x="1657" 
d="M1008 1572h-2q-10 1 -17 7.5t-5 17.5q2 8 9 18l177 229q10 13 16 16.5t13 3.5h2q10 -1 17 -8.5t4 -18.5q-1 -9 -8 -17l-176 -228q-16 -20 -30 -20zM1337 1572h-2q-10 1 -17 7.5t-5 17.5q2 8 9 18l177 229q10 13 16 16.5t13 3.5h2q11 -1 17.5 -8.5t3.5 -18.5q-2 -8 -8 -17
l-176 -228q-16 -20 -30 -20zM410.5 1079q134.5 168 324.5 266t389 98q174 0 307 -74.5t206 -205.5t73 -296q0 -78 -16 -155q-41 -199 -173.5 -366t-320 -264t-386.5 -97q-173 0 -308.5 74t-211.5 205t-76 294q0 72 17 154q41 199 175.5 367zM277 560q0 -149 67.5 -266.5
t192 -184t290.5 -66.5q177 0 347 90.5t293 244.5t166 334q21 87 21 166q0 148 -68.5 261.5t-191.5 177.5t-282 67q-175 4 -350 -88t-302 -248.5t-166 -335.5q-17 -74 -17 -152z" />
    <glyph glyph-name="ohungarumlaut" unicode="&#x151;" horiz-adv-x="1438" 
d="M872 1396h-2q-10 1 -17 7.5t-5 17.5q1 8 9 18l177 229q10 13 16 16.5t13 3.5h2q10 -1 17 -8.5t4 -18.5q-1 -9 -8 -17l-176 -228q-16 -20 -30 -20zM1201 1396h-2q-10 1 -17 7.5t-5 17.5q2 8 9 18l177 229q10 13 16 16.5t13 3.5h2q11 -1 17.5 -8.5t3.5 -18.5q-2 -8 -8 -17
l-176 -228q-16 -20 -30 -20zM375 924.5q115 144.5 276.5 229.5t330.5 85q150 0 269 -65.5t185.5 -180t66.5 -256.5q0 -60 -14 -128q-37 -170 -154.5 -316.5t-282 -233t-337.5 -86.5q-147 0 -262 66t-179 180.5t-64 255.5q0 65 15 134q35 171 150 315.5zM266 486
q0 -128 58 -233t163 -165t239 -60q155 0 305.5 81t259 215t143.5 285q14 59 14 123q0 128 -60.5 231t-169.5 162t-248 59q-146 0 -294.5 -79.5t-256.5 -212.5t-139 -283q-14 -65 -14 -123z" />
    <glyph glyph-name="OE" unicode="&#x152;" horiz-adv-x="2512" 
d="M389 1080.5q134 168.5 323.5 267.5t389.5 99q152 0 274.5 -58.5t202 -163t106.5 -239.5l88 413q4 25 31 27h914q25 0 25 -19q0 -5 -1 -8v-1q-6 -28 -36 -28h-884l-128 -603h722q15 0 21.5 -5.5t3.5 -19.5v-1q-3 -14 -13 -21.5t-24 -7.5h-722l-140 -656h903q30 0 25 -27
l-1 -1q-6 -28 -35 -28h-930q-24 0 -24 19q0 6 1 9l88 410q-84 -135 -208 -239t-271.5 -162t-299.5 -58q-173 0 -308.5 75.5t-211 207.5t-75.5 296q0 79 17 154q43 200 177 368.5zM250 566q0 -149 68.5 -270.5t191.5 -191.5t282 -70q178 0 356.5 91.5t308 247.5t168.5 339
q16 73 16 145q0 153 -68.5 274.5t-192.5 191t-284 69.5q-184 0 -360.5 -93t-303 -250t-165.5 -337q-17 -77 -17 -146z" />
    <glyph glyph-name="oe" unicode="&#x153;" horiz-adv-x="2515" 
d="M2411 1167q118 -71 181.5 -186t63.5 -242q0 -52 -10 -98l-1 -4q-6 -27 -34 -27h-1177v-1q-6 -26 -10 -39q-7 -51 -7 -85q0 -129 59.5 -234t165.5 -165t240 -60q88 0 165.5 23.5t136 56t121.5 76.5q7 5 16 5q15 0 22 -9q5 -6 5 -16q0 -8 -3.5 -15t-9.5 -11
q-104 -75 -219 -119t-245 -44q-138 0 -249 58t-178.5 160t-79.5 230q-69 -128 -180 -230t-247.5 -160t-276.5 -58q-147 0 -262 66t-179 180.5t-64 255.5q0 65 15 134q35 171 150 315.5t276.5 229.5t330.5 85q141 0 254 -57.5t182.5 -159.5t81.5 -231q68 128 178 229.5
t244 159.5t271 58q155 0 273 -71zM965.5 103q145.5 75 253.5 200.5t151 270.5q1 11 5 28q2 11 11 44q7 41 7 86q0 128 -60.5 231t-169.5 162t-248 59q-146 0 -294.5 -79.5t-256.5 -212.5t-139 -283q-14 -65 -14 -123q0 -128 58 -233t163 -165t239 -60q149 0 294.5 75z
M2602 732q0 113 -57.5 217t-166 169t-252.5 65q-142 0 -280.5 -71.5t-244 -191t-154.5 -256.5h1149q6 33 6 68z" />
    <glyph glyph-name="Racute" unicode="&#x154;" horiz-adv-x="1279" 
d="M938 1576h-2q-10 1 -17 7.5t-5 17.5q2 8 9 18l177 229q9 13 15.5 16.5t13.5 3.5h2q9 -1 15 -7t6 -15q0 -12 -8 -22l-176 -228q-16 -20 -30 -20zM909 546q-39 -6 -73 -6h-516l-109 -512q-3 -15 -10 -21.5t-21 -6.5h-1q-23 0 -23 19q0 6 1 9l292 1372q6 27 33 27h543
q105 0 186.5 -46t126.5 -126.5t45 -179.5q0 -47 -10 -93q-18 -88 -68 -167.5t-122 -140t-155 -95.5l110 -545q2 -12 -5 -23t-21 -11q-8 0 -15.5 5t-9.5 16l-108 542q-31 -11 -70 -17zM329 591h483q120 0 227.5 52t181 141.5t96.5 197.5q10 43 10 86q0 89 -40.5 159.5
t-115 110.5t-172.5 40h-501z" />
    <glyph glyph-name="racute" unicode="&#x155;" horiz-adv-x="1041" 
d="M946 1372h-2q-10 1 -17 7.5t-5 17.5q2 8 9 18l177 229q9 13 15.5 16.5t13.5 3.5h2q9 -1 15 -7t6 -15q0 -12 -8 -22l-176 -228q-16 -20 -30 -20zM443 1226h1q21 0 21 -21q0 -6 -1 -10l-55 -255q57 90 142 151t178.5 90t179.5 29q57 0 117 -20.5t106.5 -50.5t64.5 -57
q6 -7 6 -18q0 -10 -8 -18q-10 -8 -20 -8q-11 0 -19 8q-109 109 -256 109q-103 0 -215 -48.5t-203 -156t-127 -272.5l-138 -646q-7 -32 -33 -32h-1q-22 0 -22 22q0 6 1 10l248 1163q5 31 33 31z" />
    <glyph glyph-name="Rcommaaccent" unicode="&#x156;" horiz-adv-x="1279" 
d="M909 546q-39 -6 -73 -6h-516l-109 -512q-3 -15 -10 -21.5t-21 -6.5h-1q-23 0 -23 19q0 6 1 9l292 1372q6 27 33 27h543q105 0 186.5 -46t126.5 -126.5t45 -179.5q0 -47 -10 -93q-18 -88 -68 -167.5t-122 -140t-155 -95.5l110 -545q2 -12 -5 -23t-21 -11q-8 0 -15.5 5
t-9.5 16l-108 542q-31 -11 -70 -17zM329 591h483q120 0 227.5 52t181 141.5t96.5 197.5q10 43 10 86q0 89 -40.5 159.5t-115 110.5t-172.5 40h-501zM498 -124h61q17 0 13 -19l-15 -73q-7 -34 -23.5 -61t-33 -42t-24.5 -15q-6 0 -11 6l-10 12q-3 1 -3 9q2 4 6 9
q16 14 27 31.5t14 31.5l2 11v2q0 6 -6 6h-16q-10 0 -13.5 2.5t-3.5 9.5q0 5 1 9l11 52q6 19 24 19z" />
    <glyph glyph-name="rcommaaccent" unicode="&#x157;" horiz-adv-x="1041" 
d="M443 1226h1q21 0 21 -21q0 -6 -1 -10l-55 -255q57 90 142 151t178.5 90t179.5 29q57 0 117 -20.5t106.5 -50.5t64.5 -57q6 -7 6 -18q0 -10 -8 -18q-10 -8 -20 -8q-11 0 -19 8q-109 109 -256 109q-103 0 -215 -48.5t-203 -156t-127 -272.5l-138 -646q-7 -32 -33 -32h-1
q-22 0 -22 22q0 6 1 10l248 1163q5 31 33 31zM128 -138h61q17 0 13 -19l-15 -73q-7 -34 -23.5 -61t-33 -42t-24.5 -15q-6 0 -11 6l-10 12q-3 1 -3 9q2 4 6 9q16 14 27 31.5t14 31.5l2 11v2q0 6 -6 6h-16q-10 0 -13.5 2.5t-3.5 9.5q0 5 1 9l11 52q6 19 24 19z" />
    <glyph glyph-name="Rcaron" unicode="&#x158;" horiz-adv-x="1279" 
d="M937 1574q-10 0 -18 9l-168 213q-5 8 -5 17q0 11 7 19t17 8q6 0 11.5 -5t10.5 -11l150 -192l240 198q5 5 13 9t16 4t14 -6l1 -1q5 -5 5 -14q0 -14 -15 -26l-257 -212q-13 -10 -22 -10zM909 546q-39 -6 -73 -6h-516l-109 -512q-3 -15 -10 -21.5t-21 -6.5h-1q-23 0 -23 19
q0 6 1 9l292 1372q6 27 33 27h543q105 0 186.5 -46t126.5 -126.5t45 -179.5q0 -47 -10 -93q-18 -88 -68 -167.5t-122 -140t-155 -95.5l110 -545q2 -12 -5 -23t-21 -11q-8 0 -15.5 5t-9.5 16l-108 542q-31 -11 -70 -17zM329 591h483q120 0 227.5 52t181 141.5t96.5 197.5
q10 43 10 86q0 89 -40.5 159.5t-115 110.5t-172.5 40h-501z" />
    <glyph glyph-name="rcaron" unicode="&#x159;" horiz-adv-x="1041" 
d="M900 1381q-11 0 -18 9l-168 213q-5 8 -5 17q0 11 7 19t17 8q6 0 11.5 -5t10.5 -11l150 -192l240 198q5 5 13 9t16 4t14 -6l1 -1q5 -5 5 -14q0 -14 -15 -26l-257 -212q-13 -10 -22 -10zM443 1226h1q21 0 21 -21q0 -6 -1 -10l-55 -255q57 90 142 151t178.5 90t179.5 29
q57 0 117 -20.5t106.5 -50.5t64.5 -57q6 -7 6 -18q0 -10 -8 -18q-10 -8 -20 -8q-11 0 -19 8q-109 109 -256 109q-103 0 -215 -48.5t-203 -156t-127 -272.5l-138 -646q-7 -32 -33 -32h-1q-22 0 -22 22q0 6 1 10l248 1163q5 31 33 31z" />
    <glyph glyph-name="Sacute" unicode="&#x15a;" horiz-adv-x="1256" 
d="M996 1574h-2q-10 1 -17 7.5t-5 17.5q2 8 9 18l177 229q9 13 15.5 16.5t13.5 3.5h2q9 -1 15 -7t6 -15q0 -12 -8 -22l-176 -228q-16 -20 -30 -20zM140 213q-2 6 0 13q2 12 12 19l2 2q7 4 16 4q13 0 26 -19q58 -97 156.5 -146.5t257.5 -49.5q133 0 246 38.5t193 118.5
t108 198q7 28 7 55q0 85 -63 136.5t-143 76t-203 49.5q-143 28 -233.5 66.5t-135 94t-44.5 132.5q0 31 8 69q25 118 104.5 202t202 127.5t277.5 43.5q132 0 226 -43.5t170 -135.5q6 -9 6 -19t-9 -19q-5 -5 -14 -5q-16 0 -31 18q-51 52 -96 83t-108.5 48t-155.5 17
q-110 0 -218.5 -31t-191 -102t-104.5 -184q-6 -31 -6 -58q0 -75 47.5 -122.5t124.5 -74.5t203 -55l32 -7q129 -29 212 -57.5t142.5 -86.5t59.5 -152q0 -32 -7 -66q-30 -136 -119 -228t-217.5 -137t-281.5 -45q-160 0 -269.5 50.5t-181.5 167.5q-5 8 -7 14z" />
    <glyph glyph-name="sacute" unicode="&#x15b;" horiz-adv-x="1008" 
d="M826 1372h-2q-10 1 -17 7.5t-5 17.5q2 8 9 18l177 229q9 13 15.5 16.5t13.5 3.5h2q9 -1 15 -7t6 -15q0 -12 -8 -22l-176 -228q-16 -20 -30 -20zM280 6.5q-77 37.5 -113 97t-36 127.5q0 23 5 51q6 24 23 30l3 1q8 2 10 2q10 0 16 -8t6 -20q0 -6 -1 -10q-3 -21 -3 -42
q0 -101 77.5 -157t216.5 -56q72 0 156 27.5t153 91t90 164.5q7 37 7 59q0 100 -76 154.5t-209 88.5q-146 36 -226 93.5t-80 162.5q0 33 7 65q18 84 74.5 155t148 113.5t206.5 42.5q80 0 152 -35t116 -96.5t44 -138.5q0 -18 -3 -38q-6 -27 -27 -27q-11 0 -18.5 6t-5.5 18
q1 8 1 23q0 68 -34.5 121.5t-96.5 84t-140 30.5q-83 0 -160.5 -33.5t-131.5 -92.5t-70 -133q-6 -27 -6 -49q0 -96 77.5 -145.5t186.5 -74.5q163 -38 245.5 -108t82.5 -180q0 -30 -8 -70q-25 -115 -101.5 -189.5t-174.5 -108.5t-191 -34q-115 0 -192 37.5z" />
    <glyph glyph-name="Scircumflex" unicode="&#x15c;" horiz-adv-x="1256" 
d="M1003 1839q10 0 18 -9l168 -213q8 -10 8 -19q0 -10 -10 -19l-1 -1q-5 -4 -12 -4q-16 0 -29 17l-147 192l-240 -198q-20 -15 -30 -15q-8 0 -14 7l-1 1q-5 7 -5 13q0 12 16 26l257 212q13 10 22 10zM140 213q-2 6 0 13q2 12 12 19l2 2q7 4 16 4q13 0 26 -19
q58 -97 156.5 -146.5t257.5 -49.5q133 0 246 38.5t193 118.5t108 198q7 28 7 55q0 85 -63 136.5t-143 76t-203 49.5q-143 28 -233.5 66.5t-135 94t-44.5 132.5q0 31 8 69q25 118 104.5 202t202 127.5t277.5 43.5q132 0 226 -43.5t170 -135.5q6 -9 6 -19t-9 -19q-5 -5 -14 -5
q-16 0 -31 18q-51 52 -96 83t-108.5 48t-155.5 17q-110 0 -218.5 -31t-191 -102t-104.5 -184q-6 -31 -6 -58q0 -75 47.5 -122.5t124.5 -74.5t203 -55l32 -7q129 -29 212 -57.5t142.5 -86.5t59.5 -152q0 -32 -7 -66q-30 -136 -119 -228t-217.5 -137t-281.5 -45
q-160 0 -269.5 50.5t-181.5 167.5q-5 8 -7 14z" />
    <glyph glyph-name="scircumflex" unicode="&#x15d;" horiz-adv-x="1008" 
d="M827 1657q11 0 18 -9l168 -213q8 -10 8 -19q0 -10 -10 -19l-1 -1q-5 -4 -12 -4q-16 0 -29 17l-147 192l-240 -198q-20 -15 -30 -15q-8 0 -14 7l-1 1q-5 7 -5 13q0 12 16 26l257 212q13 10 22 10zM280 6.5q-77 37.5 -113 97t-36 127.5q0 23 5 51q6 24 23 30l3 1q8 2 10 2
q10 0 16 -8t6 -20q0 -6 -1 -10q-3 -21 -3 -42q0 -101 77.5 -157t216.5 -56q72 0 156 27.5t153 91t90 164.5q7 37 7 59q0 100 -76 154.5t-209 88.5q-146 36 -226 93.5t-80 162.5q0 33 7 65q18 84 74.5 155t148 113.5t206.5 42.5q80 0 152 -35t116 -96.5t44 -138.5
q0 -18 -3 -38q-6 -27 -27 -27q-11 0 -18.5 6t-5.5 18q1 8 1 23q0 68 -34.5 121.5t-96.5 84t-140 30.5q-83 0 -160.5 -33.5t-131.5 -92.5t-70 -133q-6 -27 -6 -49q0 -96 77.5 -145.5t186.5 -74.5q163 -38 245.5 -108t82.5 -180q0 -30 -8 -70q-25 -115 -101.5 -189.5
t-174.5 -108.5t-191 -34q-115 0 -192 37.5z" />
    <glyph glyph-name="Scedilla" unicode="&#x15e;" horiz-adv-x="1256" 
d="M1336 1245q0 -10 -9 -19q-5 -5 -14 -5q-16 0 -31 18q-51 52 -96 83t-108.5 48t-155.5 17q-110 0 -218.5 -31t-191 -102t-104.5 -184q-6 -31 -6 -58q0 -75 47.5 -122.5t124.5 -74.5t203 -55l32 -7q129 -29 212 -57.5t142.5 -86.5t59.5 -152q0 -32 -7 -66
q-29 -130 -111.5 -220t-203.5 -137t-265 -52l-26 -126q50 -8 80 -46t30 -90q0 -16 -3 -32q-10 -46 -41 -85t-74 -62t-89 -23q-11 0 -17 6.5t-6 15.5q0 13 10 22.5t23 9.5q36 0 69 19.5t53 52t20 67.5q0 33 -20 56t-55 33q-40 8 -37 24l33 157q-155 2 -261.5 52.5
t-177.5 165.5q-5 8 -7 14t0 13q2 12 12 19l2 2q7 4 16 4q13 0 26 -19q58 -97 156.5 -146.5t257.5 -49.5q133 0 246 38.5t193 118.5t108 198q7 28 7 55q0 85 -63 136.5t-143 76t-203 49.5q-143 28 -233.5 66.5t-135 94t-44.5 132.5q0 31 8 69q25 118 104.5 202t202 127.5
t277.5 43.5q132 0 226 -43.5t170 -135.5q6 -9 6 -19z" />
    <glyph glyph-name="scedilla" unicode="&#x15f;" horiz-adv-x="1008" 
d="M887 1204q72 -35 116 -96.5t44 -138.5q0 -18 -3 -38q-6 -27 -27 -27q-11 0 -18.5 6t-5.5 18q1 8 1 23q0 68 -34.5 121.5t-96.5 84t-140 30.5q-83 0 -160.5 -33.5t-131.5 -92.5t-70 -133q-6 -27 -6 -49q0 -96 77.5 -145.5t186.5 -74.5q163 -38 245.5 -108t82.5 -180
q0 -30 -8 -70q-24 -108 -93 -180.5t-159 -108.5t-182 -42l-28 -134q50 -8 80 -46t30 -90q0 -16 -3 -32q-10 -46 -41 -85t-74 -62t-89 -23q-11 0 -17 6.5t-6 15.5q0 13 10 22.5t23 9.5q36 0 69 19.5t53 52t20 67.5q0 33 -20 56t-55 33q-40 8 -37 24l35 165q-110 3 -182.5 41
t-107 97t-34.5 125q0 23 5 50q6 24 23 30l3 1q8 2 10 2q10 0 16 -8t6 -20q0 -6 -1 -10q-3 -21 -3 -42q0 -101 77.5 -157t216.5 -56q72 0 156 27.5t153 91t90 164.5q7 37 7 59q0 100 -76 154.5t-209 88.5q-146 36 -226 93.5t-80 162.5q0 33 7 65q18 84 74.5 155t148 113.5
t206.5 42.5q80 0 152 -35z" />
    <glyph glyph-name="Scaron" unicode="&#x160;" horiz-adv-x="1256" 
d="M993 1573q-10 0 -18 9l-168 213q-5 8 -5 17q0 11 7 19t17 8q6 0 11.5 -5t10.5 -11l150 -192l240 198q5 5 13 9t16 4t14 -6l1 -1q5 -5 5 -14q0 -14 -15 -26l-257 -212q-13 -10 -22 -10zM140 213q-2 6 0 13q2 12 12 19l2 2q7 4 16 4q13 0 26 -19q58 -97 156.5 -146.5
t257.5 -49.5q133 0 246 38.5t193 118.5t108 198q7 28 7 55q0 85 -63 136.5t-143 76t-203 49.5q-143 28 -233.5 66.5t-135 94t-44.5 132.5q0 31 8 69q25 118 104.5 202t202 127.5t277.5 43.5q132 0 226 -43.5t170 -135.5q6 -9 6 -19t-9 -19q-5 -5 -14 -5q-16 0 -31 18
q-51 52 -96 83t-108.5 48t-155.5 17q-110 0 -218.5 -31t-191 -102t-104.5 -184q-6 -31 -6 -58q0 -75 47.5 -122.5t124.5 -74.5t203 -55l32 -7q129 -29 212 -57.5t142.5 -86.5t59.5 -152q0 -32 -7 -66q-30 -136 -119 -228t-217.5 -137t-281.5 -45q-160 0 -269.5 50.5
t-181.5 167.5q-5 8 -7 14z" />
    <glyph glyph-name="scaron" unicode="&#x161;" horiz-adv-x="1008" 
d="M801 1388q-10 0 -18 9l-168 213q-5 8 -5 17q0 11 7 19t17 8q6 0 11.5 -5t10.5 -11l150 -192l240 198q5 5 13 9t16 4t14 -6l1 -1q5 -5 5 -14q0 -14 -15 -26l-257 -212q-13 -10 -22 -10zM280 6.5q-77 37.5 -113 97t-36 127.5q0 23 5 51q6 24 23 30l3 1q8 2 10 2q10 0 16 -8
t6 -20q0 -6 -1 -10q-3 -21 -3 -42q0 -101 77.5 -157t216.5 -56q72 0 156 27.5t153 91t90 164.5q7 37 7 59q0 100 -76 154.5t-209 88.5q-146 36 -226 93.5t-80 162.5q0 33 7 65q18 84 74.5 155t148 113.5t206.5 42.5q80 0 152 -35t116 -96.5t44 -138.5q0 -18 -3 -38
q-6 -27 -27 -27q-11 0 -18.5 6t-5.5 18q1 8 1 23q0 68 -34.5 121.5t-96.5 84t-140 30.5q-83 0 -160.5 -33.5t-131.5 -92.5t-70 -133q-6 -27 -6 -49q0 -96 77.5 -145.5t186.5 -74.5q163 -38 245.5 -108t82.5 -180q0 -30 -8 -70q-25 -115 -101.5 -189.5t-174.5 -108.5
t-191 -34q-115 0 -192 37.5z" />
    <glyph glyph-name="uni0162" unicode="&#x162;" horiz-adv-x="1202" 
d="M400 1427h1020q25 0 25 -19q0 -6 -1 -9q-3 -14 -10 -18.5t-22 -4.5h-479l-290 -1348q-6 -28 -31 -28h-1q-24 0 -24 19q0 6 1 9l290 1348h-482q-13 0 -21.5 5.5t-8.5 15.5q0 30 34 30zM547 -147h61q17 0 13 -19l-15 -73q-7 -34 -23.5 -61t-33 -42t-24.5 -15q-6 0 -11 6
l-10 12q-3 1 -3 9q2 4 6 9q16 14 27 31.5t14 31.5l2 11v2q0 6 -6 6h-16q-10 0 -13.5 2.5t-3.5 9.5q0 5 1 9l11 52q6 19 24 19z" />
    <glyph glyph-name="uni0163" unicode="&#x163;" horiz-adv-x="597" 
d="M737 1117q24 0 20 -25l-1 -1q-2 -9 -10.5 -16.5t-19.5 -7.5h-233l-183 -860q-5 -23 -5 -43q0 -48 26 -79.5t85 -31.5h39q31 0 31 -21q0 -7 -5 -19.5t-33 -12.5q-56 0 -80 4q-59 9 -89 48.5t-30 97.5q0 26 6 53l183 864h-163q-27 0 -22 25q4 25 33 25h163l69 323
q5 31 32 31h1q23 0 23 -22l-1 -9l-69 -323h233zM235 -170h61q17 0 13 -19l-15 -73q-7 -34 -23.5 -61t-33 -42t-24.5 -15q-6 0 -11 6l-10 12q-3 1 -3 9q2 4 6 9q16 14 27 31.5t14 31.5l2 11v2q0 6 -6 6h-16q-10 0 -13.5 2.5t-3.5 9.5q0 5 1 9l11 52q6 19 24 19z" />
    <glyph glyph-name="Tcaron" unicode="&#x164;" horiz-adv-x="1202" 
d="M944 1575q-11 0 -18 9l-168 213q-5 8 -5 17q0 11 7 19t17 8q6 0 11.5 -5t10.5 -11l150 -192l240 198q5 5 13 9t16 4t14 -6l1 -1q5 -5 5 -14q0 -14 -15 -26l-257 -212q-13 -10 -22 -10zM400 1427h1020q25 0 25 -19q0 -6 -1 -9q-3 -14 -10 -18.5t-22 -4.5h-479l-290 -1348
q-6 -28 -31 -28h-1q-24 0 -24 19q0 6 1 9l290 1348h-482q-13 0 -21.5 5.5t-8.5 15.5q0 30 34 30z" />
    <glyph glyph-name="tcaron" unicode="&#x165;" horiz-adv-x="597" 
d="M737 1117q24 0 20 -25l-1 -1q-2 -9 -10.5 -16.5t-19.5 -7.5h-233l-183 -860q-5 -23 -5 -43q0 -48 26 -79.5t85 -31.5h39q31 0 31 -21q0 -7 -5 -19.5t-33 -12.5q-56 0 -80 4q-59 9 -89 48.5t-30 97.5q0 26 6 53l183 864h-163q-27 0 -22 25q4 25 33 25h163l69 323
q5 31 32 31h1q23 0 23 -22l-1 -9l-69 -323h233zM827 1453h61q17 0 13 -19l-15 -73q-7 -34 -23.5 -61t-33 -42t-24.5 -15q-7 0 -11 6l-10 12q-3 2 -3 9q2 5 6 9q16 14 27 31.5t14 31.5l2 11v2q0 6 -6 6h-16q-10 0 -13.5 2.5t-3.5 9.5q0 5 1 9l11 52q6 19 24 19z" />
    <glyph glyph-name="Tbar" unicode="&#x166;" horiz-adv-x="1202" 
d="M1445 1408q0 -6 -1 -9q-3 -14 -10 -18.5t-22 -4.5h-479l-105 -486h288q20 0 20 -17q0 -5 -1 -8v-1q-1 -9 -9.5 -16.5t-19.5 -7.5h-288l-175 -812q-6 -28 -31 -28h-1q-24 0 -24 19q0 6 1 9l175 812h-282q-28 0 -23 25v1q6 24 33 24h282l105 486h-482q-13 0 -21.5 5.5
t-8.5 15.5q0 30 34 30h1020q25 0 25 -19z" />
    <glyph glyph-name="tbar" unicode="&#x167;" horiz-adv-x="597" 
d="M757 1092l-1 -1q-2 -9 -10.5 -16.5t-19.5 -7.5h-233l-65 -306h175q10 0 15.5 -7t3.5 -19v-1q-2 -9 -10 -16t-19 -7h-176l-107 -504q-5 -23 -5 -43q0 -48 26 -79.5t85 -31.5h39q31 0 31 -21q0 -7 -5 -19.5t-33 -12.5q-56 0 -80 4q-59 9 -89 48.5t-30 97.5q0 26 6 53
l108 508h-137q-28 0 -23 24v1q3 12 12 18.5t21 6.5h137l65 306h-163q-27 0 -22 25q4 25 33 25h163l69 323q5 31 32 31h1q23 0 23 -22l-1 -9l-69 -323h233q24 0 20 -25z" />
    <glyph glyph-name="Utilde" unicode="&#x168;" horiz-adv-x="1442" 
d="M860.5 1580q-8.5 -5 -16.5 -5q-9 0 -16 7l-1 2q-6 9 -6 16q0 11 15 23q48 44 84 63t78 19q25 0 46.5 -10.5t54.5 -31.5q31 -21 52.5 -31.5t46.5 -10.5q24 0 46 14t40 29.5t25 21.5q6 5 14 9.5t15 4.5q8 0 14 -5q5 -5 5 -12q0 -15 -17 -32q-43 -43 -79.5 -62.5
t-78.5 -19.5q-26 0 -48 10.5t-53 31.5q-28 20 -48 29.5t-43 9.5q-33 0 -55.5 -13.5t-58.5 -45.5q-7 -6 -15.5 -11zM297 446q0 -118 54 -212t151.5 -147.5t222.5 -53.5q142 0 280.5 77.5t236.5 202.5t126 259l175 824q3 15 12 23.5t23 8.5h1q20 0 20 -20q0 -8 -1 -12
l-177 -833q-33 -157 -140.5 -292t-258 -214.5t-308.5 -79.5q-138 0 -245.5 59.5t-167 164.5t-59.5 236q0 62 13 123l178 838q5 30 34 30h1q21 0 21 -20q0 -6 -1 -10l-178 -838q-13 -56 -13 -114z" />
    <glyph glyph-name="utilde" unicode="&#x169;" horiz-adv-x="1300" 
d="M738.5 1358q-8.5 -5 -16.5 -5q-9 0 -16 7l-1 2q-6 9 -6 16q0 11 15 23q48 44 84 63t78 19q25 0 46.5 -10.5t54.5 -31.5q31 -21 52.5 -31.5t46.5 -10.5q24 0 46 14t40 29.5t25 21.5q6 5 14 9.5t15 4.5q8 0 14 -5q5 -5 5 -12q0 -15 -17 -32q-43 -43 -79.5 -62.5
t-78.5 -19.5q-26 0 -48 10.5t-53 31.5q-28 20 -48 29.5t-43 9.5q-33 0 -55.5 -13.5t-58.5 -45.5q-7 -6 -15.5 -11zM1423 1226h1q22 0 22 -19q0 -4 -2 -12l-248 -1163q-7 -32 -32 -32h-1q-21 0 -21 21q0 7 1 11l41 200q-62 -80 -150.5 -140.5t-183.5 -92.5t-178 -32
q-134 0 -231.5 58t-148 155.5t-50.5 216.5q0 57 12 115l146 683q7 31 32 31h1q23 0 23 -20q0 -7 -1 -11l-146 -683q-12 -58 -12 -112q0 -113 49 -199.5t135.5 -133.5t196.5 -47q105 0 224.5 54.5t210.5 153.5t118 226l158 741q7 31 34 31z" />
    <glyph glyph-name="Umacron" unicode="&#x16a;" horiz-adv-x="1442" 
d="M750 1623h622q26 0 21 -26v-1q-2 -9 -11.5 -16.5t-20.5 -7.5h-621q-30 0 -25 25l1 1q4 25 34 25zM297 446q0 -118 54 -212t151.5 -147.5t222.5 -53.5q142 0 280.5 77.5t236.5 202.5t126 259l175 824q3 15 12 23.5t23 8.5h1q20 0 20 -20q0 -8 -1 -12l-177 -833
q-33 -157 -140.5 -292t-258 -214.5t-308.5 -79.5q-138 0 -245.5 59.5t-167 164.5t-59.5 236q0 62 13 123l178 838q5 30 34 30h1q21 0 21 -20q0 -6 -1 -10l-178 -838q-13 -56 -13 -114z" />
    <glyph glyph-name="umacron" unicode="&#x16b;" horiz-adv-x="1300" 
d="M684 1437h622q26 0 21 -26v-1q-2 -9 -11.5 -16.5t-20.5 -7.5h-621q-30 0 -25 25l1 1q4 25 34 25zM1423 1226h1q22 0 22 -19q0 -4 -2 -12l-248 -1163q-7 -32 -32 -32h-1q-21 0 -21 21q0 7 1 11l41 200q-62 -80 -150.5 -140.5t-183.5 -92.5t-178 -32q-134 0 -231.5 58
t-148 155.5t-50.5 216.5q0 57 12 115l146 683q7 31 32 31h1q23 0 23 -20q0 -7 -1 -11l-146 -683q-12 -58 -12 -112q0 -113 49 -199.5t135.5 -133.5t196.5 -47q105 0 224.5 54.5t210.5 153.5t118 226l158 741q7 31 34 31z" />
    <glyph glyph-name="Ubreve" unicode="&#x16c;" horiz-adv-x="1442" 
d="M973.5 1594q-33.5 19 -51.5 50t-18 66q0 14 3 29q4 17 11 27t22 10h2q18 -1 18 -18q0 -5 -4 -19q-3 -10 -3 -22q0 -37 28 -64.5t78 -27.5q37 0 71.5 17t58 44t28.5 55q6 35 32 35h3q19 -1 19 -23q0 -9 -1 -13q-10 -43 -41.5 -81t-78.5 -61t-99 -23q-44 0 -77.5 19z
M297 446q0 -118 54 -212t151.5 -147.5t222.5 -53.5q142 0 280.5 77.5t236.5 202.5t126 259l175 824q3 15 12 23.5t23 8.5h1q20 0 20 -20q0 -8 -1 -12l-177 -833q-33 -157 -140.5 -292t-258 -214.5t-308.5 -79.5q-138 0 -245.5 59.5t-167 164.5t-59.5 236q0 62 13 123
l178 838q5 30 34 30h1q21 0 21 -20q0 -6 -1 -10l-178 -838q-13 -56 -13 -114z" />
    <glyph glyph-name="ubreve" unicode="&#x16d;" horiz-adv-x="1300" 
d="M893.5 1371q-33.5 19 -51.5 50t-18 66q0 14 3 29q4 17 11 27t22 10h2q18 -1 18 -18q0 -5 -4 -19q-3 -10 -3 -22q0 -37 28 -64.5t78 -27.5q37 0 71.5 17t58 44t28.5 55q6 35 32 35h3q19 -1 19 -23q0 -9 -1 -13q-10 -43 -41.5 -81t-78.5 -61t-99 -23q-44 0 -77.5 19z
M1423 1226h1q22 0 22 -19q0 -4 -2 -12l-248 -1163q-7 -32 -32 -32h-1q-21 0 -21 21q0 7 1 11l41 200q-62 -80 -150.5 -140.5t-183.5 -92.5t-178 -32q-134 0 -231.5 58t-148 155.5t-50.5 216.5q0 57 12 115l146 683q7 31 32 31h1q23 0 23 -20q0 -7 -1 -11l-146 -683
q-12 -58 -12 -112q0 -113 49 -199.5t135.5 -133.5t196.5 -47q105 0 224.5 54.5t210.5 153.5t118 226l158 741q7 31 34 31z" />
    <glyph glyph-name="Uring" unicode="&#x16e;" horiz-adv-x="1442" 
d="M1192 1813q37 -34 37 -86q0 -14 -3 -31q-14 -64 -66.5 -107t-116.5 -43q-56 0 -92.5 33.5t-36.5 85.5q0 9 4 31q14 64 66 107.5t115 43.5q56 0 93 -34zM1029.5 1785q-29.5 -18 -47.5 -48t-18 -66q0 -35 23 -57t61 -22q36 0 66.5 17t49 47t18.5 66q0 37 -23 59t-66 22
q-34 0 -63.5 -18zM297 446q0 -118 54 -212t151.5 -147.5t222.5 -53.5q142 0 280.5 77.5t236.5 202.5t126 259l175 824q3 15 12 23.5t23 8.5h1q20 0 20 -20q0 -8 -1 -12l-177 -833q-33 -157 -140.5 -292t-258 -214.5t-308.5 -79.5q-138 0 -245.5 59.5t-167 164.5t-59.5 236
q0 62 13 123l178 838q5 30 34 30h1q21 0 21 -20q0 -6 -1 -10l-178 -838q-13 -56 -13 -114z" />
    <glyph glyph-name="uring" unicode="&#x16f;" horiz-adv-x="1300" 
d="M1129 1602q37 -34 37 -86q0 -14 -3 -31q-14 -64 -66.5 -107t-116.5 -43q-56 0 -92.5 33.5t-36.5 85.5q0 9 4 31q14 64 66 107.5t115 43.5q56 0 93 -34zM966.5 1574q-29.5 -18 -47.5 -48t-18 -66q0 -35 23 -57t61 -22q36 0 66.5 17t49 47t18.5 66q0 37 -23 59t-66 22
q-34 0 -63.5 -18zM1423 1226h1q22 0 22 -19q0 -4 -2 -12l-248 -1163q-7 -32 -32 -32h-1q-21 0 -21 21q0 7 1 11l41 200q-62 -80 -150.5 -140.5t-183.5 -92.5t-178 -32q-134 0 -231.5 58t-148 155.5t-50.5 216.5q0 57 12 115l146 683q7 31 32 31h1q23 0 23 -20q0 -7 -1 -11
l-146 -683q-12 -58 -12 -112q0 -113 49 -199.5t135.5 -133.5t196.5 -47q105 0 224.5 54.5t210.5 153.5t118 226l158 741q7 31 34 31z" />
    <glyph glyph-name="Uhungarumlaut" unicode="&#x170;" horiz-adv-x="1442" 
d="M871 1546h-2q-10 1 -17 7.5t-5 17.5q2 8 9 18l177 229q10 13 16 16.5t13 3.5h2q10 -1 17 -8.5t4 -18.5q-1 -9 -8 -17l-176 -228q-16 -20 -30 -20zM1200 1546h-2q-10 1 -17 7.5t-5 17.5q2 7 9 18l177 229q10 13 16 16.5t13 3.5h2q11 -1 17.5 -8.5t3.5 -18.5q-2 -8 -8 -17
l-176 -228q-16 -20 -30 -20zM297 446q0 -118 54 -212t151.5 -147.5t222.5 -53.5q142 0 280.5 77.5t236.5 202.5t126 259l175 824q3 15 12 23.5t23 8.5h1q20 0 20 -20q0 -8 -1 -12l-177 -833q-33 -157 -140.5 -292t-258 -214.5t-308.5 -79.5q-138 0 -245.5 59.5t-167 164.5
t-59.5 236q0 62 13 123l178 838q5 30 34 30h1q21 0 21 -20q0 -6 -1 -10l-178 -838q-13 -56 -13 -114z" />
    <glyph glyph-name="uhungarumlaut" unicode="&#x171;" horiz-adv-x="1300" 
d="M787 1350h-2q-10 1 -17 7.5t-5 17.5q1 8 9 18l177 229q10 13 16 16.5t13 3.5h2q10 -1 17 -8.5t4 -18.5q-1 -9 -8 -17l-176 -228q-16 -20 -30 -20zM1116 1350h-2q-10 1 -17 7.5t-5 17.5q2 8 9 18l177 229q10 13 16 16.5t13 3.5h2q11 -1 17.5 -8.5t3.5 -18.5q-2 -8 -8 -17
l-176 -228q-16 -20 -30 -20zM1423 1226h1q22 0 22 -19q0 -4 -2 -12l-248 -1163q-7 -32 -32 -32h-1q-21 0 -21 21q0 7 1 11l41 200q-62 -80 -150.5 -140.5t-183.5 -92.5t-178 -32q-134 0 -231.5 58t-148 155.5t-50.5 216.5q0 57 12 115l146 683q7 31 32 31h1q23 0 23 -20
q0 -7 -1 -11l-146 -683q-12 -58 -12 -112q0 -113 49 -199.5t135.5 -133.5t196.5 -47q105 0 224.5 54.5t210.5 153.5t118 226l158 741q7 31 34 31z" />
    <glyph glyph-name="Uogonek" unicode="&#x172;" horiz-adv-x="1442" 
d="M1599 1408q0 -8 -1 -12l-177 -833q-29 -134 -112.5 -253t-201.5 -202l-158 -127l-25 -20q-43 -34 -69 -61t-31 -57q-2 -14 -2 -21q0 -32 19 -55.5t60 -23.5q30 0 56.5 14.5t43.5 36.5t21 44q7 35 33 35q10 0 16 -6t6 -17q0 -6 -1 -9q-8 -40 -35 -74t-66 -54.5t-82 -20.5
q-55 0 -89.5 33t-34.5 84q0 17 4 33q9 47 36 78.5t81 73.5l19 15q-98 -32 -195 -32q-138 0 -245.5 59.5t-167 164.5t-59.5 236q0 62 13 123l178 838q5 30 34 30h1q21 0 21 -20q0 -6 -1 -10l-178 -838q-13 -56 -13 -114q0 -118 54 -212t151.5 -147.5t222.5 -53.5
q142 0 280.5 77.5t236.5 202.5t126 259l175 824q3 15 12 23.5t23 8.5h1q20 0 20 -20z" />
    <glyph glyph-name="uogonek" unicode="&#x173;" horiz-adv-x="1300" 
d="M1446 1207q0 -4 -2 -12l-248 -1163q-5 -21 -15 -27l-3 -3l-164 -132l-25 -20q-43 -34 -69 -61t-31 -57q-2 -14 -2 -21q0 -32 19 -55.5t60 -23.5q30 0 56.5 14.5t43.5 36.5t21 44q7 35 33 35q10 0 16 -6t6 -17q0 -6 -1 -9q-8 -40 -35 -74t-66 -54.5t-82 -20.5
q-55 0 -89.5 33t-34.5 84q0 17 4 33q9 48 36 79t82 74q26 20 28 22l160 130l40 196q-62 -80 -150.5 -140.5t-183.5 -92.5t-178 -32q-134 0 -231.5 58t-148 155.5t-50.5 216.5q0 57 12 115l146 683q7 31 32 31h1q23 0 23 -20q0 -7 -1 -11l-146 -683q-12 -58 -12 -112
q0 -113 49 -199.5t135.5 -133.5t196.5 -47q105 0 224.5 54.5t210.5 153.5t118 226l158 741q7 31 34 31h1q22 0 22 -19z" />
    <glyph glyph-name="Wcircumflex" unicode="&#x174;" horiz-adv-x="1985" 
d="M1377 1835q11 0 18 -9l168 -213q8 -10 8 -19q0 -10 -10 -19l-1 -1q-5 -4 -12 -4q-16 0 -29 17l-147 192l-240 -198q-20 -15 -30 -15q-8 0 -14 7l-1 1q-5 7 -5 13q0 12 16 26l257 212q13 10 22 10zM668 20q-7 -11 -15.5 -15.5t-14.5 -4.5h-3q-17 0 -21 20l-283 1368
q-1 3 -1 10q0 12 7 20.5t20 8.5q19 0 23 -19l272 -1318l828 1318q11 19 27 19q12 0 19.5 -7t7.5 -17q0 -7 -5 -15l-340 -541l155 -753l830 1314q11 19 28 19q13 0 19.5 -6t6.5 -16q0 -9 -5 -17l-865 -1368q-6 -10 -14.5 -15t-13.5 -5q-21 0 -25 23l-156 759z" />
    <glyph glyph-name="wcircumflex" unicode="&#x175;" horiz-adv-x="1826" 
d="M1314 1643q10 0 18 -9l168 -213q8 -10 8 -19q0 -10 -10 -19l-1 -1q-5 -4 -12 -4q-16 0 -29 17l-147 192l-240 -198q-20 -15 -30 -15q-8 0 -14 7l-1 1q-5 7 -5 13q0 12 16 26l257 212q13 10 22 10zM1254 3.5q-9 -4.5 -14 -4.5h-5q-16 2 -19 20l-148 742l-472 -742
q-7 -11 -16 -15.5t-14 -4.5h-5q-16 2 -19 20l-252 1169q-1 3 -1 9q0 13 7 21t20 8q6 0 14 -4.5t11 -15.5l239 -1110l707 1111q12 19 29 19q11 0 18 -7.5t7 -17.5q0 -9 -4 -16l-228 -357l146 -732l705 1109q14 21 31 21q11 0 17.5 -7.5t6.5 -17.5q0 -7 -5 -17l-740 -1165
q-7 -11 -16 -15.5z" />
    <glyph glyph-name="Ycircumflex" unicode="&#x176;" horiz-adv-x="1126" 
d="M948 1832q10 0 18 -9l168 -213q8 -10 8 -19q0 -10 -10 -19l-1 -1q-5 -4 -12 -4q-16 0 -29 17l-147 192l-240 -198q-20 -15 -30 -15q-8 0 -14 7l-1 1q-5 7 -5 13q0 12 16 26l257 212q13 10 22 10zM593 34q-7 -34 -34 -34h-1q-21 0 -21 23q0 7 1 11l133 626l-311 725
q-3 8 -3 15q0 11 7 19t19 8q18 0 26 -18l300 -699l598 701q10 11 15 13.5t10 2.5q12 0 18 -7t6 -17q0 -11 -6 -19l-626 -734z" />
    <glyph glyph-name="ycircumflex" unicode="&#x177;" horiz-adv-x="1129" 
d="M901 1619q11 0 18 -9l168 -213q8 -10 8 -19q0 -10 -10 -19l-1 -1q-5 -4 -12 -4q-16 0 -29 17l-147 192l-240 -198q-20 -15 -30 -15q-8 0 -14 7l-1 1q-5 7 -5 13q0 12 16 26l257 212q13 10 22 10zM324 -397q-6 -3 -14 -3q-11 0 -18.5 8t-7.5 19q0 7 4 14l243 387
l-240 1159q-1 3 -1 9q0 13 7 21.5t20 8.5q21 0 25 -19l231 -1113l702 1114q7 11 14 14.5t15 3.5q11 0 18 -7t7 -18q0 -5 -3 -13l-988 -1569q-8 -13 -14 -16z" />
    <glyph glyph-name="Ydieresis" unicode="&#x178;" horiz-adv-x="1126" 
d="M738 1681h59q12 0 17 -8t3 -20l-12 -54q-5 -28 -30 -28h-60q-12 0 -16.5 4t-4.5 13q0 7 1 11l12 57q7 25 31 25zM1048 1681h59q12 0 17.5 -8t2.5 -20l-12 -54q-5 -28 -30 -28h-60q-12 0 -16.5 4t-4.5 13q0 7 1 11l12 57q7 25 31 25zM593 34q-7 -34 -34 -34h-1
q-21 0 -21 23q0 7 1 11l133 626l-311 725q-3 8 -3 15q0 11 7 19t19 8q18 0 26 -18l300 -699l598 701q10 11 15 13.5t10 2.5q12 0 18 -7t6 -17q0 -11 -6 -19l-626 -734z" />
    <glyph glyph-name="Zacute" unicode="&#x179;" horiz-adv-x="1254" 
d="M1005 1568h-2q-10 1 -17 7.5t-5 17.5q2 7 9 18l177 229q9 13 15.5 16.5t13.5 3.5h2q9 -1 15 -7t6 -15q0 -12 -8 -22l-176 -228q-16 -20 -30 -20zM1449.5 1422.5q6.5 -6.5 6.5 -16.5q0 -14 -10 -24l-1306 -1328h975q30 0 25 -26v-1q-6 -27 -36 -27h-1035q-12 0 -18.5 7
t-6.5 17q0 9 8 19l1309 1331l-957 -1q-33 0 -28 26v1q3 14 13.5 20.5t25.5 6.5l1017 2q11 0 17.5 -6.5z" />
    <glyph glyph-name="zacute" unicode="&#x17a;" horiz-adv-x="1137" 
d="M896 1353h-2q-10 1 -17 7.5t-5 17.5q2 8 9 18l177 229q9 13 15.5 16.5t13.5 3.5h2q9 -1 15 -7t6 -15q0 -12 -8 -22l-176 -228q-16 -20 -30 -20zM1202 1202q0 -12 -10 -22l-995 -1125h730q32 0 28 -26q-4 -18 -16.5 -23.5t-22.5 -5.5h-780q-11 0 -17 7.5t-6 19.5q0 7 4 16
t12 17l983 1111h-685q-15 0 -22.5 6.5t-4.5 20.5q4 18 16 23t23 5h740q23 0 23 -24z" />
    <glyph glyph-name="Zdotaccent" unicode="&#x17b;" horiz-adv-x="1254" 
d="M977 1691h59q12 0 17 -8t3 -20l-12 -54q-5 -28 -30 -28h-60q-12 0 -16.5 4t-4.5 13q0 7 1 11l12 57q7 25 31 25zM1449.5 1422.5q6.5 -6.5 6.5 -16.5q0 -14 -10 -24l-1306 -1328h975q30 0 25 -26v-1q-6 -27 -36 -27h-1035q-12 0 -18.5 7t-6.5 17q0 9 8 19l1309 1331
l-957 -1q-33 0 -28 26v1q3 14 13.5 20.5t25.5 6.5l1017 2q11 0 17.5 -6.5z" />
    <glyph glyph-name="zdotaccent" unicode="&#x17c;" horiz-adv-x="1137" 
d="M863 1508h59q12 0 17 -8t3 -20l-12 -54q-5 -28 -30 -28h-60q-12 0 -16.5 4t-4.5 13q0 7 1 11l12 57q7 25 31 25zM1202 1202q0 -12 -10 -22l-995 -1125h730q32 0 28 -26q-4 -18 -16.5 -23.5t-22.5 -5.5h-780q-11 0 -17 7.5t-6 19.5q0 7 4 16t12 17l983 1111h-685
q-15 0 -22.5 6.5t-4.5 20.5q4 18 16 23t23 5h740q23 0 23 -24z" />
    <glyph glyph-name="Zcaron" unicode="&#x17d;" horiz-adv-x="1254" 
d="M987 1563q-10 0 -18 9l-168 213q-5 8 -5 17q0 11 7 19t17 8q6 0 11.5 -5t10.5 -11l150 -192l240 198q5 5 13 9t16 4t14 -6l1 -1q5 -5 5 -14q0 -14 -15 -26l-257 -212q-13 -10 -22 -10zM1449.5 1422.5q6.5 -6.5 6.5 -16.5q0 -14 -10 -24l-1306 -1328h975q30 0 25 -26v-1
q-6 -27 -36 -27h-1035q-12 0 -18.5 7t-6.5 17q0 9 8 19l1309 1331l-957 -1q-33 0 -28 26v1q3 14 13.5 20.5t25.5 6.5l1017 2q11 0 17.5 -6.5z" />
    <glyph glyph-name="zcaron" unicode="&#x17e;" horiz-adv-x="1137" 
d="M875 1346q-11 0 -18 9l-168 213q-5 8 -5 17q0 11 7 19t17 8q6 0 11.5 -5t10.5 -11l150 -192l240 198q5 5 13 9t16 4t14 -6l1 -1q5 -5 5 -14q0 -14 -15 -26l-257 -212q-13 -10 -22 -10zM1202 1202q0 -12 -10 -22l-995 -1125h730q32 0 28 -26q-4 -18 -16.5 -23.5
t-22.5 -5.5h-780q-11 0 -17 7.5t-6 19.5q0 7 4 16t12 17l983 1111h-685q-15 0 -22.5 6.5t-4.5 20.5q4 18 16 23t23 5h740q23 0 23 -24z" />
    <glyph glyph-name="florin" unicode="&#x192;" horiz-adv-x="735" 
d="M379 60l-25 -120q-19 -86 -72 -158.5t-139 -116.5t-197 -44q-30 -1 -28.5 13.5l1.5 14.5v2q0 2 4 8.5t13.5 12t25.5 5.5q86 0 157 33.5t118 94t64 140.5l24 116l205 962h-157q-31 0 -25 28v1q5 26 37 26h157l19 92l9 41q31 148 86.5 240t144.5 136.5t220 44.5
q15 0 21 -5.5t6 -12v-8.5l-1 -2q0 -6 -9 -14.5t-31 -8.5q-116 0 -190 -38t-119 -118t-74 -214l-8 -36l-20 -97h249q31 0 25 -26v-1q-6 -28 -37 -28h-249z" />
    <glyph glyph-name="AEacute" unicode="&#x1fc;" horiz-adv-x="1996" 
d="M1720 1578h-2q-10 1 -17 7.5t-5 17.5q2 7 9 18l177 229q9 13 15.5 16.5t13.5 3.5h2q9 -1 15 -7t6 -15q0 -12 -8 -22l-176 -228q-16 -20 -30 -20zM1423 1427h881q32 0 26 -27v-1q-3 -14 -13 -21t-25 -7h-851l-128 -604h688q15 0 23 -6.5t5 -20.5v-1q-3 -14 -14 -20.5
t-26 -6.5h-688l-140 -656h871q31 0 27 -27l-1 -1q-6 -28 -37 -28h-898q-23 0 -23 19q0 6 1 9l81 377h-717l-390 -392q-15 -15 -27 -13h-1q-11 2 -18 9t-7 17q0 11 11 22l1347 1360q19 19 43 19zM1378 1329l-860 -869h675z" />
    <glyph glyph-name="aeacute" unicode="&#x1fd;" horiz-adv-x="2624" 
d="M1649 1348h-2q-10 1 -17 7.5t-5 17.5q1 7 9 18l177 229q9 13 15.5 16.5t13.5 3.5h2q9 -1 15 -7t6 -15q0 -12 -8 -22l-176 -228q-16 -20 -30 -20zM1728 1054.5q105 86.5 228.5 135t248.5 48.5q155 0 273 -71t181.5 -186t63.5 -242q0 -52 -10 -98l-1 -4q-6 -27 -34 -27
h-1179l-2 -8q-13 -59 -13 -121q0 -128 57 -232t160.5 -163.5t237.5 -59.5q95 0 174 22.5t135 53t121 75.5q12 9 22 9q13 0 22 -12q5 -7 5 -15q0 -13 -16 -23q-104 -75 -219 -119t-245 -44q-125 0 -228.5 47.5t-172.5 133t-94 195.5l-67 -316q-8 -33 -34 -33h-1q-22 0 -22 21
l2 12l67 318q-75 -111 -181.5 -196.5t-230.5 -133.5t-248 -48q-141 0 -258 66.5t-184.5 182t-67.5 256.5q0 58 14 125q35 169 155 315.5t284.5 233t325.5 86.5q123 0 227 -48.5t174.5 -135.5t96.5 -198l68 319q3 15 11.5 24t22.5 9h1q21 0 21 -21q0 -8 -1 -12l-67 -318
q72 111 177 197.5zM1454 718q0 130 -60.5 236.5t-166 167.5t-233.5 61q-148 0 -299 -80t-262 -213.5t-146 -286.5q-14 -59 -14 -121q0 -127 59.5 -231t163.5 -163.5t232 -59.5q156 0 308.5 78t262.5 210.5t143 286.5q12 59 12 115zM1911 1112.5q-139 -70.5 -244 -189.5
t-153 -259h1150q4 28 4 63q0 114 -52.5 218.5t-160 171t-262.5 66.5q-143 0 -282 -70.5z" />
    <glyph glyph-name="Oslashacute" unicode="&#x1fe;" horiz-adv-x="1657" 
d="M1218 1579h-2q-10 1 -17 7.5t-5 17.5q2 8 9 18l177 229q9 13 15.5 16.5t13.5 3.5h2q9 -1 15 -7t6 -15q0 -12 -8 -22l-176 -228q-16 -20 -30 -20zM410.5 1079q134.5 168 324.5 266t389 98q128 0 237 -43l66 108q11 19 26 19h2q10 0 18 -7.5t5 -19.5q0 -4 -5 -12
q-26 -41 -29 -47l-38 -60q143 -69 224 -204.5t81 -308.5q0 -73 -17 -156q-41 -199 -173.5 -366t-320 -264t-386.5 -97q-131 0 -243 44l-82 -137q-12 -18 -26 -18h-2q-11 0 -19.5 6t-5.5 19q1 7 6 13l85 136q-144 69 -226.5 204.5t-82.5 306.5q0 71 17 153q41 199 175.5 367z
M278 569q0 -151 69 -270.5t194 -187.5t286 -68q185 0 356.5 89t292.5 242t160 338q16 74 16 147q0 151 -67.5 270.5t-190 187t-282.5 67.5q-185 0 -359 -89.5t-297 -243.5t-162 -339q-16 -78 -16 -143z" />
    <glyph glyph-name="oslashacute" unicode="&#x1ff;" horiz-adv-x="1438" 
d="M1134 1365h-2q-10 1 -17 7.5t-5 17.5q2 8 9 18l177 229q9 13 15.5 16.5t13.5 3.5h2q9 -1 15 -7t6 -15q0 -12 -8 -22l-176 -228q-16 -20 -30 -20zM377.5 925q114.5 145 275 229.5t330.5 84.5q103 0 194 -32l70 113q11 19 26 19h2q10 0 17.5 -7.5t4.5 -19.5q0 -8 -4 -12
l-68 -113q129 -61 204 -180t75 -270q0 -66 -14 -128q-37 -170 -154.5 -316.5t-282 -233t-337.5 -86.5q-114 0 -214 42l-68 -110q-12 -18 -26 -18h-2q-11 0 -19 6t-5 19q0 5 6 13l68 112q-114 65 -179 181.5t-65 258.5q0 69 14 132q37 171 151.5 316zM268 488q0 -129 58 -234
t162.5 -165.5t238.5 -60.5q162 0 312.5 79t256 212.5t139.5 289.5q12 60 12 117q0 130 -60.5 234.5t-169 164t-246.5 59.5q-155 0 -302 -77t-251 -209t-137 -289q-13 -59 -13 -121z" />
    <glyph glyph-name="Scommaaccent" unicode="&#x218;" horiz-adv-x="1256" 
d="M140 213q-2 6 0 13q2 12 12 19l2 2q7 4 16 4q13 0 26 -19q58 -97 156.5 -146.5t257.5 -49.5q133 0 246 38.5t193 118.5t108 198q7 28 7 55q0 85 -63 136.5t-143 76t-203 49.5q-143 28 -233.5 66.5t-135 94t-44.5 132.5q0 31 8 69q25 118 104.5 202t202 127.5t277.5 43.5
q132 0 226 -43.5t170 -135.5q6 -9 6 -19t-9 -19q-5 -5 -14 -5q-16 0 -31 18q-51 52 -96 83t-108.5 48t-155.5 17q-110 0 -218.5 -31t-191 -102t-104.5 -184q-6 -31 -6 -58q0 -75 47.5 -122.5t124.5 -74.5t203 -55l32 -7q129 -29 212 -57.5t142.5 -86.5t59.5 -152
q0 -32 -7 -66q-30 -136 -119 -228t-217.5 -137t-281.5 -45q-160 0 -269.5 50.5t-181.5 167.5q-5 8 -7 14zM550 -166h61q17 0 13 -19l-15 -73q-7 -34 -23.5 -61t-33 -42t-24.5 -15q-6 0 -11 6l-10 12q-3 1 -3 9q2 4 6 9q16 14 27 31.5t14 31.5l2 11v2q0 6 -6 6h-16
q-10 0 -13.5 2.5t-3.5 9.5q0 5 1 9l11 52q6 19 24 19z" />
    <glyph glyph-name="scommaaccent" unicode="&#x219;" horiz-adv-x="1008" 
d="M280 6.5q-77 37.5 -113 97t-36 127.5q0 23 5 51q6 24 23 30l3 1q8 2 10 2q10 0 16 -8t6 -20q0 -6 -1 -10q-3 -21 -3 -42q0 -101 77.5 -157t216.5 -56q72 0 156 27.5t153 91t90 164.5q7 37 7 59q0 100 -76 154.5t-209 88.5q-146 36 -226 93.5t-80 162.5q0 33 7 65
q18 84 74.5 155t148 113.5t206.5 42.5q80 0 152 -35t116 -96.5t44 -138.5q0 -18 -3 -38q-6 -27 -27 -27q-11 0 -18.5 6t-5.5 18q1 8 1 23q0 68 -34.5 121.5t-96.5 84t-140 30.5q-83 0 -160.5 -33.5t-131.5 -92.5t-70 -133q-6 -27 -6 -49q0 -96 77.5 -145.5t186.5 -74.5
q163 -38 245.5 -108t82.5 -180q0 -30 -8 -70q-25 -115 -101.5 -189.5t-174.5 -108.5t-191 -34q-115 0 -192 37.5zM411 -139h61q17 0 13 -19l-15 -73q-7 -34 -23.5 -61t-33 -42t-24.5 -15q-6 0 -11 6l-10 12q-3 1 -3 9q2 4 6 9q16 14 27 31.5t14 31.5l2 11v2q0 6 -6 6h-16
q-10 0 -13.5 2.5t-3.5 9.5q0 5 1 9l11 52q6 19 24 19z" />
    <glyph glyph-name="uni021A" unicode="&#x21a;" horiz-adv-x="1277" 
d="M392 1427h1020q25 0 25 -19q0 -6 -1 -9q-3 -14 -10 -18.5t-22 -4.5h-479l-290 -1348q-6 -28 -31 -28h-1q-24 0 -24 19q0 6 1 9l290 1348h-482q-13 0 -21.5 5.5t-8.5 15.5q0 30 34 30zM549 -114h61q17 0 13 -19l-15 -73q-7 -34 -23.5 -61t-33 -42t-24.5 -15q-6 0 -11 6
l-10 12q-3 1 -3 9q2 4 6 9q16 14 27 31.5t14 31.5l2 11v2q0 6 -6 6h-16q-10 0 -13.5 2.5t-3.5 9.5q0 5 1 9l11 52q6 19 24 19z" />
    <glyph glyph-name="uni021B" unicode="&#x21b;" horiz-adv-x="597" 
d="M737 1117q24 0 20 -25l-1 -1q-2 -9 -10.5 -16.5t-19.5 -7.5h-233l-183 -860q-5 -23 -5 -43q0 -48 26 -79.5t85 -31.5h39q31 0 31 -21q0 -7 -5 -19.5t-33 -12.5q-56 0 -80 4q-59 9 -89 48.5t-30 97.5q0 26 6 53l183 864h-163q-27 0 -22 25q4 25 33 25h163l69 323
q5 31 32 31h1q23 0 23 -22l-1 -9l-69 -323h233zM247 -99h61q17 0 13 -19l-15 -73q-7 -34 -23.5 -61t-33 -42t-24.5 -15q-6 0 -11 6l-10 12q-3 1 -3 9q2 4 6 9q16 14 27 31.5t14 31.5l2 11v2q0 6 -6 6h-16q-10 0 -13.5 2.5t-3.5 9.5q0 5 1 9l11 52q6 19 24 19z" />
    <glyph glyph-name="uni0237" unicode="&#x237;" horiz-adv-x="398" 
d="M430 1217.5q9 8.5 23 8.5h1q21 0 21 -21q0 -6 -1 -10l-259 -1218q-22 -90 -80.5 -177t-152 -143.5t-212.5 -56.5q-15 0 -21 5.5t-6.5 12t0.5 9.5l1 2q0 6 9.5 15.5t32.5 9.5q102 0 179.5 45.5t126 119t68.5 159.5l1 4l258 1213q2 14 11 22.5z" />
    <glyph glyph-name="circumflex" unicode="&#x2c6;" horiz-adv-x="718" 
d="M652 1511q11 0 18 -9l168 -213q8 -10 8 -19q0 -10 -10 -19l-1 -1q-5 -4 -12 -4q-16 0 -29 17l-147 192l-240 -198q-20 -15 -30 -15q-8 0 -14 7l-1 1q-5 7 -5 13q0 12 16 26l257 212q13 10 22 10z" />
    <glyph glyph-name="caron" unicode="&#x2c7;" horiz-adv-x="710" 
d="M581 1151q-10 0 -18 9l-168 213q-5 8 -5 17q0 11 7 19t17 8q6 0 11.5 -5t10.5 -11l150 -192l240 198q5 5 13 9t16 4t14 -6l1 -1q5 -5 5 -14q0 -14 -15 -26l-257 -212q-13 -10 -22 -10z" />
    <glyph glyph-name="breve" unicode="&#x2d8;" horiz-adv-x="626" 
d="M475.5 1290q-33.5 19 -51.5 50t-18 66q0 14 3 29q4 17 11 27t22 10h2q18 -1 18 -18q0 -5 -4 -19q-3 -10 -3 -22q0 -37 28 -64.5t78 -27.5q37 0 71.5 17t58 44t28.5 55q6 35 32 35h3q19 -1 19 -23q0 -9 -1 -13q-10 -43 -41.5 -81t-78.5 -61t-99 -23q-44 0 -77.5 19z" />
    <glyph glyph-name="dotaccent" unicode="&#x2d9;" horiz-adv-x="495" 
d="M481 1367h59q12 0 17 -8t3 -20l-12 -54q-5 -28 -30 -28h-60q-12 0 -16.5 4t-4.5 13q0 7 1 11l12 57q7 25 31 25z" />
    <glyph glyph-name="ring" unicode="&#x2da;" horiz-adv-x="449" 
d="M609 1477q37 -34 37 -86q0 -14 -3 -31q-14 -64 -66.5 -107t-116.5 -43q-56 0 -92.5 33.5t-36.5 85.5q0 9 4 31q14 64 66 107.5t115 43.5q56 0 93 -34zM446.5 1449q-29.5 -18 -47.5 -48t-18 -66q0 -35 23 -57t61 -22q36 0 66.5 17t49 47t18.5 66q0 37 -23 59t-66 22
q-34 0 -63.5 -18z" />
    <glyph glyph-name="ogonek" unicode="&#x2db;" horiz-adv-x="532" 
d="M319 -346q-27 -34 -66 -54.5t-82 -20.5q-55 0 -89.5 33t-34.5 84q0 17 4 33q9 48 36 79t82 74q26 20 28 22l166 135q14 11 21 11q9 0 16 -10l1 -1q7 -7 5 -18q-3 -10 -15 -21l-164 -132l-25 -20q-43 -34 -69 -61t-31 -57q-2 -14 -2 -21q0 -32 19 -55.5t60 -23.5
q30 0 56.5 14.5t43.5 36.5t21 44q7 35 33 35q10 0 16 -6t6 -17q0 -6 -1 -9q-8 -40 -35 -74z" />
    <glyph glyph-name="tilde" unicode="&#x2dc;" horiz-adv-x="622" 
d="M333.5 1272q-8.5 -5 -16.5 -5q-9 0 -16 7l-1 2q-6 9 -6 16q0 11 15 23q48 44 84 63t78 19q25 0 46.5 -10.5t54.5 -31.5q31 -21 52.5 -31.5t46.5 -10.5q24 0 46 14t40 29.5t25 21.5q6 5 14 9.5t15 4.5q8 0 14 -5q5 -5 5 -12q0 -15 -17 -32q-43 -43 -79.5 -62.5
t-78.5 -19.5q-26 0 -48 10.5t-53 31.5q-28 20 -48 29.5t-43 9.5q-33 0 -55.5 -13.5t-58.5 -45.5q-7 -6 -15.5 -11z" />
    <glyph glyph-name="hungarumlaut" unicode="&#x2dd;" horiz-adv-x="889" 
d="M451 1221h-2q-10 1 -17 7.5t-5 17.5q1 8 9 18l177 229q10 13 16 16.5t13 3.5h2q10 -1 17 -8.5t4 -18.5q-1 -9 -8 -17l-176 -228q-16 -20 -30 -20zM780 1221h-2q-10 1 -17 7.5t-5 17.5q2 8 9 18l177 229q10 13 16 16.5t13 3.5h2q11 -1 17.5 -8.5t3.5 -18.5q-2 -8 -8 -17
l-176 -228q-16 -20 -30 -20z" />
    <glyph glyph-name="uni037E" unicode="&#x37e;" horiz-adv-x="419" 
 />
    <glyph glyph-name="tonos" unicode="&#x384;" horiz-adv-x="330" 
d="M513 1599q22 0 22 -21q0 -6 -1 -10l-40 -189q-7 -30 -34 -30q-21 0 -21 20q0 6 1 10l40 189q7 31 33 31z" />
    <glyph glyph-name="dieresistonos" unicode="&#x385;" horiz-adv-x="826" 
d="M751 1599q22 0 22 -21q0 -6 -1 -10l-40 -189q-7 -30 -34 -30q-21 0 -21 20q0 6 1 10l40 189q7 31 33 31zM511 1456h67q15 0 15 -14q0 -6 -1 -9l-13 -61q-1 -7 -6 -13.5t-14 -6.5h-73q-7 0 -10.5 4.5t-1.5 13.5l14 66q5 20 23 20zM863 1456h67q15 0 15 -14q0 -6 -1 -9
l-13 -61q-1 -7 -6 -13.5t-14 -6.5h-73q-7 0 -10.5 4.5t-1.5 13.5l14 66q5 20 23 20z" />
    <glyph glyph-name="Alphatonos" unicode="&#x386;" horiz-adv-x="1377" 
d="M479 1432q22 0 22 -21q0 -6 -1 -10l-40 -189q-7 -30 -34 -30q-21 0 -21 20q0 6 1 10l40 189q7 31 33 31zM975 1426h5q5 0 11 -5t9 -16l283 -1365q1 -3 1 -9q0 -13 -6.5 -22t-19.5 -9q-8 0 -16 5t-11 16l-79 385h-781l-241 -387q-8 -12 -14.5 -15.5t-15.5 -3.5
q-11 0 -17 7t-6 17q0 8 5 16l864 1365q12 19 29 21zM1141 461l-177 873l-559 -873h736z" />
    <glyph glyph-name="anoteleia" unicode="&#x387;" horiz-adv-x="436" 
d="M320 607h67q15 0 15 -14q0 -6 -1 -9l-13 -61q-4 -9 -8.5 -14.5t-12.5 -5.5h-73q-15 0 -12 18l14 66q5 20 24 20z" />
    <glyph glyph-name="Epsilontonos" unicode="&#x388;" horiz-adv-x="1296" 
d="M354 1430q22 0 22 -21q0 -6 -1 -10l-40 -189q-7 -30 -34 -30q-21 0 -21 20q0 6 1 10l40 189q7 31 33 31zM486 1427h925q15 0 23.5 -6.5t5.5 -20.5t-12 -19t-25 -5h-901l-130 -611h738q34 0 29 -25v-1q-5 -25 -40 -25h-738l-141 -662h921q15 0 22.5 -6.5t4.5 -17.5
q-7 -28 -37 -28h-948q-23 0 -23 19q0 6 1 9l292 1372q6 27 33 27z" />
    <glyph glyph-name="Etatonos" unicode="&#x389;" horiz-adv-x="1542" 
d="M320 1430q22 0 22 -21q0 -6 -1 -10l-40 -189q-7 -30 -34 -30q-21 0 -21 20q0 6 1 10l40 189q7 31 33 31zM353 683l-139 -651q-7 -32 -32 -32h-1q-22 0 -22 22q0 6 1 10l290 1363q7 32 34 32h1q20 0 20 -20q0 -8 -1 -12l-140 -658h1033l140 658q7 32 34 32h1q20 0 20 -20
q0 -8 -1 -12l-290 -1363q-7 -32 -32 -32h-1q-22 0 -22 22q0 6 1 10l139 651h-1033z" />
    <glyph glyph-name="Iotatonos" unicode="&#x38a;" 
d="M462 1418q9 9 22 9h1q20 0 20 -20q0 -8 -1 -12l-289 -1362q-9 -33 -33 -33h-1q-22 0 -22 21q0 4 2 12l289 1362q3 14 12 23zM316 1427q22 0 22 -21q0 -6 -1 -10l-40 -189q-7 -30 -34 -30q-21 0 -21 20q0 6 1 10l40 189q7 31 33 31z" />
    <glyph glyph-name="Omicrontonos" unicode="&#x38c;" horiz-adv-x="1656" 
d="M410.5 1079q134.5 168 324.5 266t389 98q174 0 307 -74.5t206 -205.5t73 -296q0 -78 -16 -155q-41 -199 -173.5 -366t-320 -264t-386.5 -97q-173 0 -308.5 74t-211.5 205t-76 294q0 72 17 154q41 199 175.5 367zM373 1426q22 0 22 -21q0 -6 -1 -10l-40 -189
q-7 -30 -34 -30q-21 0 -21 20q0 6 1 10l40 189q7 31 33 31zM277 560q0 -149 67.5 -266.5t192 -184t290.5 -66.5q177 0 347 90.5t293 244.5t166 334q21 87 21 166q0 148 -68.5 261.5t-191.5 177.5t-282 67q-175 4 -350 -88t-302 -248.5t-166 -335.5q-17 -74 -17 -152z" />
    <glyph glyph-name="Upsilontonos" unicode="&#x38e;" horiz-adv-x="1118" 
d="M301 1431q22 0 22 -21q0 -6 -1 -10l-40 -189q-7 -30 -34 -30q-21 0 -21 20q0 6 1 10l40 189q7 31 33 31zM593 34q-7 -34 -34 -34h-1q-21 0 -21 23q0 7 1 11l133 626l-311 725q-3 8 -3 15q0 11 7 19t19 8q18 0 26 -18l300 -699l598 701q10 11 15 13.5t10 2.5q12 0 18 -7
t6 -17q0 -11 -6 -19l-626 -734z" />
    <glyph glyph-name="Omegatonos" unicode="&#x38f;" horiz-adv-x="1427" 
d="M110 27v1q5 26 36 26h380l36 171q-101 33 -174.5 101t-112.5 161.5t-39 203.5q0 70 14 133q34 163 148 307t276 230.5t332 86.5q147 0 262.5 -65t180 -179t64.5 -253q0 -60 -14 -127q-29 -136 -110.5 -258.5t-200.5 -211.5t-254 -129l-36 -171h378q28 0 23 -26v-1
q-6 -27 -34 -27h-404q-31 0 -25 27l47 219q2 9 9 16t17 9q129 33 240.5 114.5t188.5 195.5t105 243q14 65 14 123q0 126 -57 228t-160 160t-235 58q-155 0 -304.5 -76.5t-256.5 -207.5t-139 -285q-14 -63 -14 -131q0 -154 81.5 -267.5t232.5 -159.5q9 -3 13 -10.5t2 -15.5
l-46 -213q-6 -27 -35 -27h-404q-31 0 -25 27zM362 1428q22 0 22 -21q0 -6 -1 -10l-40 -189q-7 -30 -34 -30q-21 0 -21 20q0 6 1 10l40 189q7 31 33 31z" />
    <glyph glyph-name="iotadieresistonos" unicode="&#x390;" horiz-adv-x="362" 
d="M524 1589q22 0 22 -21q0 -6 -1 -10l-40 -189q-7 -30 -34 -30q-21 0 -21 20q0 6 1 10l40 189q7 31 33 31zM284 1446h67q15 0 15 -14q0 -6 -1 -9l-13 -61q-1 -7 -6 -13.5t-14 -6.5h-73q-7 0 -10.5 4.5t-1.5 13.5l14 66q5 20 23 20zM636 1446h67q15 0 15 -14q0 -6 -1 -9
l-13 -61q-1 -7 -6 -13.5t-14 -6.5h-73q-7 0 -10.5 4.5t-1.5 13.5l14 66q5 20 23 20zM443 1226h1q23 0 23 -19q0 -4 -2 -12l-248 -1163q-7 -32 -33 -32h-1q-23 0 -23 22q0 7 1 10l248 1163q7 31 34 31z" />
    <glyph glyph-name="Alpha" unicode="&#x391;" horiz-adv-x="1377" 
d="M975 1426h5q5 0 11 -5t9 -16l283 -1365q1 -3 1 -9q0 -13 -6.5 -22t-19.5 -9q-8 0 -16 5t-11 16l-79 385h-781l-241 -387q-8 -12 -14.5 -15.5t-15.5 -3.5q-11 0 -17 7t-6 17q0 8 5 16l864 1365q12 19 29 21zM1141 461l-177 873l-559 -873h736z" />
    <glyph glyph-name="Beta" unicode="&#x392;" horiz-adv-x="1284" 
d="M486 1427h574q87 0 155 -36t106 -100.5t38 -146.5q0 -41 -8 -76q-23 -105 -94.5 -187t-173.5 -130q58 -21 103.5 -66.5t70.5 -107t25 -130.5q0 -35 -8 -75q-21 -97 -87.5 -183t-159 -137.5t-188.5 -51.5h-656q-23 0 -23 19q0 6 1 9l292 1372q6 27 33 27zM372 766h547
q81 0 162.5 41.5t140.5 112.5t77 155q7 31 7 63q0 68 -33 121.5t-92 83t-133 29.5h-547zM221 55h622q95 0 176.5 53t134 127.5t65.5 134.5q8 40 8 73q0 79 -36 140.5t-93 94.5t-118 33h-619z" />
    <glyph glyph-name="Gamma" unicode="&#x393;" horiz-adv-x="1078" 
d="M201 29q-6 -29 -32 -29h-1q-22 0 -22 20q0 6 1 9l290 1367q6 30 34 30h840q29 0 24 -26v-1q-6 -27 -36 -27h-813z" />
    <glyph glyph-name="Epsilon" unicode="&#x395;" horiz-adv-x="1213" 
d="M467 1427h925q15 0 23.5 -6.5t5.5 -20.5t-12 -19t-25 -5h-901l-130 -611h738q34 0 29 -25v-1q-5 -25 -40 -25h-738l-141 -662h921q15 0 22.5 -6.5t4.5 -17.5q-7 -28 -37 -28h-948q-23 0 -23 19q0 6 1 9l292 1372q6 27 33 27z" />
    <glyph glyph-name="Zeta" unicode="&#x396;" horiz-adv-x="1236" 
d="M1449.5 1422.5q6.5 -6.5 6.5 -16.5q0 -14 -10 -24l-1306 -1328h975q30 0 25 -26v-1q-6 -27 -36 -27h-1035q-12 0 -18.5 7t-6.5 17q0 9 8 19l1309 1331l-957 -1q-33 0 -28 26v1q3 14 13.5 20.5t25.5 6.5l1017 2q11 0 17.5 -6.5z" />
    <glyph glyph-name="Eta" unicode="&#x397;" horiz-adv-x="1465" 
d="M353 683l-139 -651q-7 -32 -32 -32h-1q-22 0 -22 22q0 6 1 10l290 1363q7 32 34 32h1q20 0 20 -20q0 -8 -1 -12l-140 -658h1033l140 658q7 32 34 32h1q20 0 20 -20q0 -8 -1 -12l-290 -1363q-7 -32 -32 -32h-1q-22 0 -22 22q0 6 1 10l139 651h-1033z" />
    <glyph glyph-name="Theta" unicode="&#x398;" horiz-adv-x="1657" 
d="M411.5 1077q134.5 168 323.5 266.5t386 98.5q174 0 308.5 -75t208.5 -207t74 -297q0 -76 -16 -152q-43 -199 -176.5 -366t-321.5 -265t-387 -98q-172 0 -307 75t-209.5 207t-74.5 296q0 75 16 151q41 198 175.5 366zM766.5 1300.5q-172.5 -86.5 -298.5 -234.5t-171 -326
h1349q10 57 10 116q0 151 -67 272t-189 190t-281 69q-180 0 -352.5 -86.5zM1165.5 123.5q172.5 86.5 298 235.5t170.5 327h-1349q-11 -64 -11 -120q0 -151 67 -271.5t189.5 -189t281.5 -68.5q181 0 353.5 86.5z" />
    <glyph glyph-name="Iota" unicode="&#x399;" 
d="M462 1418q9 9 22 9h1q20 0 20 -20q0 -8 -1 -12l-289 -1362q-9 -33 -33 -33h-1q-22 0 -22 21q0 4 2 12l289 1362q3 14 12 23z" />
    <glyph glyph-name="Kappa" unicode="&#x39a;" horiz-adv-x="1356" 
d="M1254 42q5 -10 5 -16q0 -11 -7.5 -18.5t-17.5 -7.5q-16 0 -27 19l-492 781l-414 -359l-87 -409q-7 -32 -32 -32h-1q-22 0 -22 22q0 6 1 10l290 1362q7 32 34 32h1q20 0 20 -20q0 -8 -1 -12l-185 -867l1020 882q21 18 35 18h2q11 0 17 -8.5t4 -19.5q-2 -9 -11 -18
l-631 -546z" />
    <glyph glyph-name="Lambda" unicode="&#x39b;" horiz-adv-x="1286" 
d="M954 1423q9 5 17 5q18 0 22 -20l283 -1376q1 -3 1 -8q0 -23 -30 -23q-16 0 -21 21l-271 1315l-832 -1317q-12 -19 -27 -19h-2q-11 0 -17.5 8t-6.5 18q0 7 5 15l864 1366q6 10 15 15z" />
    <glyph glyph-name="Mu" unicode="&#x39c;" horiz-adv-x="1699" 
d="M167 28q-7 -28 -34 -28h-1q-24 3 -19 27l2 6l407 1370q6 24 28 24q7 0 13 -4t8 -12l308 -1186l806 1185q12 17 30 17q28 0 25 -24l-175 -1373q-2 -14 -10.5 -22t-19.5 -8t-18 6.5t-5 19.5l165 1276l-787 -1153q-9 -13 -25 -13h-3q-17 0 -20 13l-297 1149z" />
    <glyph glyph-name="Nu" unicode="&#x39d;" horiz-adv-x="1465" 
d="M214 33q-7 -33 -33 -33h-1q-22 0 -22 21q0 4 2 12l290 1367q3 10 11 18t21 9h5q13 0 26 -19l775 -1308l278 1300q6 27 32 27q12 0 18 -6.5t3 -20.5l-290 -1367q-5 -19 -9.5 -26t-19.5 -7q-8 0 -13 3t-12 15l-782 1328z" />
    <glyph glyph-name="Xi" unicode="&#x39e;" horiz-adv-x="1214" 
d="M444 1427h931q23 0 23 -18q0 -6 -1 -9v-1q-6 -28 -34 -28h-931q-22 0 -22 19q0 6 1 9v1q6 27 33 27zM392 754h681q23 0 23 -18q0 -6 -1 -9v-1q-6 -27 -34 -27h-681q-23 0 -23 18q0 6 1 9v1q6 27 34 27zM152 56h950q29 0 24 -27l-1 -1q-6 -28 -34 -28h-950q-23 0 -23 19
q0 6 1 9l1 1q5 27 32 27z" />
    <glyph glyph-name="Omicron" unicode="&#x39f;" horiz-adv-x="1657" 
d="M410.5 1079q134.5 168 324.5 266t389 98q174 0 307 -74.5t206 -205.5t73 -296q0 -78 -16 -155q-41 -199 -173.5 -366t-320 -264t-386.5 -97q-173 0 -308.5 74t-211.5 205t-76 294q0 72 17 154q41 199 175.5 367zM277 560q0 -149 67.5 -266.5t192 -184t290.5 -66.5
q177 0 347 90.5t293 244.5t166 334q21 87 21 166q0 148 -68.5 261.5t-191.5 177.5t-282 67q-175 4 -350 -88t-302 -248.5t-166 -335.5q-17 -74 -17 -152z" />
    <glyph glyph-name="Pi" unicode="&#x3a0;" horiz-adv-x="1268" 
d="M499 1371l-285 -1340q-7 -31 -32 -31h-1q-23 0 -23 19q0 4 2 12l290 1364q7 32 34 32h876q20 0 20 -20q0 -8 -1 -12l-290 -1364q-7 -31 -32 -31h-1q-23 0 -23 19q0 4 2 12l285 1340h-821z" />
    <glyph glyph-name="Rho" unicode="&#x3a1;" horiz-adv-x="1159" 
d="M482 1427h466q105 0 186.5 -46t127 -126.5t45.5 -180.5q0 -46 -10 -92q-26 -120 -107.5 -221t-195.5 -160t-235 -59h-438l-109 -510q-7 -32 -32 -32h-1q-22 0 -22 22q0 6 1 10l291 1368q6 27 33 27zM332 591h425q111 0 214.5 54.5t175.5 145t93 191.5q10 46 10 92
q0 89 -39 158t-111.5 107.5t-170.5 38.5h-430z" />
    <glyph glyph-name="Sigma" unicode="&#x3a3;" horiz-adv-x="1207" 
d="M898 700q-2 -3 -5 -5l-679 -640h930q28 0 24 -26l-1 -2q-3 -14 -13 -20.5t-21 -6.5h-983q-11 0 -16.5 8t-5.5 19q0 22 13 32l699 658l-420 660q-7 12 -7 23q0 12 6 19.5t18 7.5h962q31 0 27 -25l-1 -2q-3 -13 -13.5 -20t-24.5 -7h-902l413 -648q4 -5 5 -7.5t0.5 -5
t-0.5 -3.5q-3 -7 -5 -9z" />
    <glyph glyph-name="Tau" unicode="&#x3a4;" horiz-adv-x="1202" 
d="M381 1427h1020q25 0 25 -19q0 -6 -1 -9q-3 -14 -10 -18.5t-22 -4.5h-479l-290 -1348q-6 -28 -31 -28h-1q-24 0 -24 19q0 6 1 9l290 1348h-482q-13 0 -21.5 5.5t-8.5 15.5q0 30 34 30z" />
    <glyph glyph-name="Upsilon" unicode="&#x3a5;" horiz-adv-x="1126" 
d="M593 34q-7 -34 -34 -34h-1q-21 0 -21 23q0 7 1 11l133 626l-311 725q-3 8 -3 15q0 11 7 19t19 8q18 0 26 -18l300 -699l598 701q10 11 15 13.5t10 2.5q12 0 18 -7t6 -17q0 -11 -6 -19l-626 -734z" />
    <glyph glyph-name="Phi" unicode="&#x3a6;" horiz-adv-x="1501" 
d="M459 178.5q-118 64.5 -183.5 173.5t-65.5 243q0 59 13 117q33 160 147 296.5t277.5 220t339.5 91.5l16 76q6 30 34 30h1q20 0 20 -18q0 -8 -1 -12l-16 -76q155 -5 276 -70t188 -175.5t67 -246.5q0 -56 -12 -116q-35 -162 -150.5 -298.5t-281 -218.5t-345.5 -88l-16 -78
q-6 -29 -32 -29h-1q-22 0 -22 20q0 6 1 9l16 78q-152 7 -270 71.5zM268 601q0 -122 59.5 -221.5t167.5 -157.5t246 -58l235 1102q-152 -8 -301 -85t-256 -201.5t-138 -267.5q-13 -55 -13 -111zM1515 822q0 125 -60 226t-170 159.5t-255 58.5l-235 -1103q157 0 309 75
t260 201t139 273q12 56 12 110z" />
    <glyph glyph-name="Chi" unicode="&#x3a7;" horiz-adv-x="1123" 
d="M1042 43q4 -7 4 -17q0 -11 -6.5 -18.5t-18.5 -7.5q-18 0 -23 13l-307 658l-586 -657q-12 -14 -24 -14q-11 0 -18 8t-7 19t6 17l604 678l-308 665q-3 8 -3 13q0 11 7.5 18.5t19.5 8.5h1q13 0 21 -14l300 -649l577 648q13 15 31 15q10 0 16 -7t6 -17q0 -9 -8 -19l-598 -670
z" />
    <glyph glyph-name="Psi" unicode="&#x3a8;" horiz-adv-x="1178" 
d="M624 480q-111 0 -202.5 52.5t-144.5 144t-53 203.5q0 51 10 98l90 423q3 12 11 19.5t20 7.5h1q11 0 16 -6t5 -16q0 -6 -1 -9l-89 -419q-11 -53 -11 -99q0 -99 44 -177.5t125 -123t190 -44.5h34l183 862q6 30 34 30h1q20 0 20 -18q0 -8 -1 -12l-183 -862h29
q114 0 227.5 60t195.5 162.5t106 221.5l90 420q3 13 10.5 21.5t20.5 8.5h1q13 0 18.5 -8.5t3.5 -20.5l-91 -429q-28 -132 -117 -244t-215.5 -178.5t-259.5 -67.5h-30l-96 -451q-6 -29 -32 -29h-1q-22 0 -22 20q0 6 1 9l96 451h-34z" />
    <glyph glyph-name="Iotadieresis" unicode="&#x3aa;" 
d="M357 1682h59q12 0 17 -8t3 -20l-12 -54q-5 -28 -30 -28h-60q-12 0 -16.5 4t-4.5 13q0 7 1 11l12 57q7 25 31 25zM667 1682h59q12 0 17.5 -8t2.5 -20l-12 -54q-5 -28 -30 -28h-60q-12 0 -16.5 4t-4.5 13q0 7 1 11l12 57q7 25 31 25zM462 1418q9 9 22 9h1q20 0 20 -20
q0 -8 -1 -12l-289 -1362q-9 -33 -33 -33h-1q-22 0 -22 21q0 4 2 12l289 1362q3 14 12 23z" />
    <glyph glyph-name="Upsilondieresis" unicode="&#x3ab;" horiz-adv-x="1126" 
d="M729 1653h59q12 0 17 -8t3 -20l-12 -54q-5 -28 -30 -28h-60q-12 0 -16.5 4t-4.5 13q0 7 1 11l12 57q7 25 31 25zM1039 1653h59q12 0 17.5 -8t2.5 -20l-12 -54q-5 -28 -30 -28h-60q-12 0 -16.5 4t-4.5 13q0 7 1 11l12 57q7 25 31 25zM593 34q-7 -34 -34 -34h-1
q-21 0 -21 23q0 7 1 11l133 626l-311 725q-3 8 -3 15q0 11 7 19t19 8q18 0 26 -18l300 -699l598 701q10 11 15 13.5t10 2.5q12 0 18 -7t6 -17q0 -11 -6 -19l-626 -734z" />
    <glyph glyph-name="alphatonos" unicode="&#x3ac;" horiz-adv-x="1503" 
d="M1086 1619q22 0 22 -21q0 -6 -1 -10l-40 -189q-7 -30 -34 -30q-21 0 -21 20q0 6 1 10l40 189q7 31 33 31zM1351 0h-1q-22 0 -22 21l2 12l67 318q-75 -111 -181.5 -196.5t-230.5 -133.5t-248 -48q-141 0 -258 66.5t-184.5 182t-67.5 256.5q0 58 14 125q35 169 155 315.5
t284.5 233t325.5 86.5q123 0 227 -48.5t174.5 -135.5t96.5 -198l72 338q3 15 11.5 24t22.5 9h1q21 0 21 -21q0 -8 -1 -12l-246 -1161q-8 -33 -34 -33zM1463 717q0 131 -61.5 237.5t-169 167.5t-239.5 61q-139 0 -289 -79t-262.5 -212.5t-145.5 -288.5q-12 -58 -12 -113
q0 -129 61 -235t166.5 -166.5t235.5 -60.5q143 0 294.5 78.5t264 211t145.5 285.5q12 59 12 114z" />
    <glyph glyph-name="epsilontonos" unicode="&#x3ad;" horiz-adv-x="917" 
d="M838 1628q22 0 22 -21q0 -6 -1 -10l-40 -189q-7 -30 -34 -30q-21 0 -21 20q0 6 1 10l40 189q7 31 33 31zM882 209q11 0 18 -7t7 -17t-9 -22q-59 -75 -151.5 -119t-185.5 -44h-105q-84 0 -150.5 34t-104 94.5t-37.5 138.5q0 32 8 72q20 99 93.5 179t180.5 127
q-52 34 -81.5 88.5t-29.5 120.5q0 25 7 62q18 84 74.5 155.5t136 113t163.5 41.5h30q112 0 186.5 -34.5t104.5 -126.5q2 -10 2 -15q0 -22 -24 -27h-2q-6 0 -12 3.5t-9 10.5q-18 61 -71.5 98t-130.5 37h-85q-64 0 -130.5 -36.5t-115.5 -95.5t-62 -124q-5 -25 -5 -45
q0 -55 28 -101.5t75.5 -73.5t104.5 -27h194q35 0 29 -25v-2q-6 -27 -41 -27h-195q-77 0 -154.5 -37t-133 -100.5t-71.5 -138.5q-7 -29 -7 -60q0 -64 30.5 -115.5t84 -80.5t121.5 -29h121q69 0 143.5 33.5t135.5 107.5q11 14 25 14z" />
    <glyph glyph-name="etatonos" unicode="&#x3ae;" horiz-adv-x="1306" 
d="M1019 1629q22 0 22 -21q0 -6 -1 -10l-40 -189q-7 -30 -34 -30q-21 0 -21 20q0 6 1 10l40 189q7 31 33 31zM200 0h-1q-22 0 -22 19q0 4 2 12l247 1163q7 32 33 32h1q20 0 20 -20q0 -8 -1 -12l-46 -229q63 86 151 149t181.5 96t175.5 33q133 0 225.5 -55.5t139 -148
t46.5 -203.5q0 -59 -11 -110l-233 -1093q-7 -31 -32 -31h-1q-23 0 -23 20q0 7 1 11l233 1093q11 52 11 98q0 98 -41 181t-122 133t-197 50q-96 0 -215 -54t-214 -156t-123 -239l-151 -708q-7 -31 -34 -31z" />
    <glyph glyph-name="iotatonos" unicode="&#x3af;" 
d="M551 1628q22 0 22 -21q0 -6 -1 -10l-40 -189q-7 -30 -34 -30q-21 0 -21 20q0 6 1 10l40 189q7 31 33 31zM457 1226h1q23 0 23 -19q0 -4 -2 -12l-248 -1163q-7 -32 -33 -32h-1q-23 0 -23 22q0 7 1 10l248 1163q7 31 34 31z" />
    <glyph glyph-name="upsilondieresistonos" unicode="&#x3b0;" horiz-adv-x="1188" 
d="M939 1599q22 0 22 -21q0 -6 -1 -10l-40 -189q-7 -30 -34 -30q-21 0 -21 20q0 6 1 10l40 189q7 31 33 31zM699 1456h67q15 0 15 -14q0 -6 -1 -9l-13 -61q-1 -7 -6 -13.5t-14 -6.5h-73q-7 0 -10.5 4.5t-1.5 13.5l14 66q5 20 23 20zM1051 1456h67q15 0 15 -14q0 -6 -1 -9
l-13 -61q-1 -7 -6 -13.5t-14 -6.5h-73q-7 0 -10.5 4.5t-1.5 13.5l14 66q5 20 23 20zM255 351q0 -111 49.5 -181.5t125.5 -101.5t158 -31h19q96 0 204.5 45t196 143.5t119.5 248.5l153 719q3 15 12 24t23 9h2q10 0 14.5 -7.5t4.5 -16.5q0 -7 -1 -9l-156 -733
q-28 -132 -109.5 -241.5t-202 -173t-261.5 -63.5h-19q-104 0 -192.5 38t-142.5 118t-54 201q0 56 14 126l155 726q7 35 33 35h4q20 0 20 -18q0 -6 -1 -10.5t-1 -6.5l-153 -718q-14 -63 -14 -122z" />
    <glyph glyph-name="alpha" unicode="&#x3b1;" horiz-adv-x="1503" 
d="M1351 0h-1q-22 0 -22 21l2 12l67 318q-75 -111 -181.5 -196.5t-230.5 -133.5t-248 -48q-141 0 -258 66.5t-184.5 182t-67.5 256.5q0 58 14 125q35 169 155 315.5t284.5 233t325.5 86.5q123 0 227 -48.5t174.5 -135.5t96.5 -198l72 338q3 15 11.5 24t22.5 9h1q21 0 21 -21
q0 -8 -1 -12l-246 -1161q-8 -33 -34 -33zM1463 717q0 131 -61.5 237.5t-169 167.5t-239.5 61q-139 0 -289 -79t-262.5 -212.5t-145.5 -288.5q-12 -58 -12 -113q0 -129 61 -235t166.5 -166.5t235.5 -60.5q143 0 294.5 78.5t264 211t145.5 285.5q12 59 12 114z" />
    <glyph glyph-name="beta" unicode="&#x3b2;" horiz-adv-x="1106" 
d="M377 17l1 6t8.5 13t19.5 7l7 -1q51 -12 103 -12q108 0 211.5 46.5t178.5 131.5t98 195q13 56 13 111q0 126 -81.5 195.5t-254.5 69.5q-15 0 -22.5 6.5t-7.5 15.5q0 10 10.5 21t32.5 11q116 0 193 43t115.5 101.5t51.5 115.5q8 38 8 69q0 100 -67 159t-180 59
q-89 0 -169.5 -41.5t-137.5 -114t-77 -161.5l-295 -1391q-6 -29 -35 -29q-11 0 -16 6t-5 14q0 5 2 9l295 1391q23 112 89 196t158.5 129t193.5 45q91 0 158.5 -35.5t103.5 -96.5t36 -136q0 -32 -8 -70q-14 -69 -51 -128t-87.5 -100t-103.5 -60q100 -30 153 -103.5t53 -184.5
q0 -55 -13 -114q-26 -117 -102.5 -213.5t-191.5 -153t-251 -56.5q-69 0 -119 14q-21 5 -18 21z" />
    <glyph glyph-name="gamma" unicode="&#x3b3;" horiz-adv-x="1017" 
d="M293 1187l-1 8q0 14 8 22.5t18 8.5q8 0 15.5 -6t9.5 -16l183 -1096l646 1093q8 14 17.5 19.5t16.5 5.5q21 0 21 -22q0 -10 -5 -20l-682 -1155l-85 -397q-6 -28 -32 -28h-1q-22 0 -22 19q0 6 1 9l85 393z" />
    <glyph glyph-name="delta" unicode="&#x3b4;" horiz-adv-x="1438" 
d="M376 926.5q115 145.5 276.5 231.5t331.5 86q42 0 86 -6l-414 291q-8 0 -11.5 8.5t-0.5 15.5q3 16 14.5 22.5t25.5 6.5h883q12 0 19 -7.5t4 -20.5v-1q-2 -10 -12.5 -18t-22.5 -8h-793l533 -373q98 -68 152.5 -175t54.5 -237q0 -69 -14 -133q-35 -170 -152.5 -314.5
t-283 -229.5t-337.5 -85q-147 0 -262 64.5t-179.5 178t-64.5 253.5q0 64 15 133q37 172 152 317.5zM266 485q0 -128 56 -230.5t158.5 -161t236.5 -58.5q158 0 311 77.5t262.5 209.5t142.5 287q13 61 13 122q0 129 -58 233.5t-163.5 164.5t-242.5 60q-155 0 -305 -78.5
t-257.5 -212t-140.5 -289.5q-13 -62 -13 -124z" />
    <glyph glyph-name="epsilon" unicode="&#x3b5;" horiz-adv-x="920" 
d="M882 209q11 0 18 -7t7 -17t-9 -22q-59 -75 -151.5 -119t-185.5 -44h-105q-84 0 -150.5 34t-104 94.5t-37.5 138.5q0 32 8 72q20 99 93.5 179t180.5 127q-52 34 -81.5 88.5t-29.5 120.5q0 25 7 62q18 84 74.5 155.5t136 113t163.5 41.5h30q112 0 186.5 -34.5t104.5 -126.5
q2 -10 2 -15q0 -22 -24 -27h-2q-6 0 -12 3.5t-9 10.5q-18 61 -71.5 98t-130.5 37h-85q-64 0 -130.5 -36.5t-115.5 -95.5t-62 -124q-5 -25 -5 -45q0 -55 28 -101.5t75.5 -73.5t104.5 -27h194q35 0 29 -25v-2q-6 -27 -41 -27h-195q-77 0 -154.5 -37t-133 -100.5t-71.5 -138.5
q-7 -29 -7 -60q0 -64 30.5 -115.5t84 -80.5t121.5 -29h121q69 0 143.5 33.5t135.5 107.5q11 14 25 14z" />
    <glyph glyph-name="zeta" unicode="&#x3b6;" horiz-adv-x="1054" 
d="M858 18q60 -34 94.5 -93t34.5 -132q0 -31 -8 -68q-12 -57 -44 -111t-80 -99q-12 -12 -28 -12q-9 0 -15.5 7.5t-6.5 17.5q0 11 8 18q43 39 73 84t39 92q7 31 7 64q0 62 -26.5 110.5t-77.5 76t-120 27.5h-183q-107 0 -190 48t-129 132t-46 188q0 44 9 90q16 89 67 170.5
t125 147.5l848 754h-729q-12 0 -18.5 8t-4.5 17v1q3 12 12.5 19.5t21.5 7.5h789q13 0 19.5 -8.5t4.5 -17.5v-2q-5 -13 -13 -21l-895 -796q-75 -66 -115.5 -134t-57.5 -144q-10 -44 -10 -90q0 -90 39 -162.5t110.5 -114t164.5 -41.5h196q75 0 135 -34z" />
    <glyph glyph-name="eta" unicode="&#x3b7;" horiz-adv-x="1306" 
d="M200 0h-1q-22 0 -22 19q0 4 2 12l247 1163q7 32 33 32h1q20 0 20 -20q0 -8 -1 -12l-46 -229q63 86 151 149t181.5 96t175.5 33q133 0 225.5 -55.5t139 -148t46.5 -203.5q0 -59 -11 -110l-233 -1093q-7 -31 -32 -31h-1q-23 0 -23 20q0 7 1 11l233 1093q11 52 11 98
q0 98 -41 181t-122 133t-197 50q-96 0 -215 -54t-214 -156t-123 -239l-151 -708q-7 -31 -34 -31z" />
    <glyph glyph-name="theta" unicode="&#x3b8;" horiz-adv-x="1333" 
d="M421 1181.5q118 184.5 276 293t317 108.5q131 0 230.5 -75t154.5 -207.5t55 -298.5q0 -105 -24 -221q-45 -216 -163.5 -399t-276.5 -290.5t-316 -107.5q-131 0 -231 74t-154.5 205t-54.5 296q0 107 24 222q45 216 163 400.5zM724 1428q-144 -100 -252.5 -266.5
t-154.5 -357.5h1062q18 99 18 192q0 150 -45.5 271t-132 191t-205.5 70q-146 0 -290 -100zM963 136.5q144 99.5 253 265t155 353.5h-1066q-17 -99 -17 -187q0 -150 45.5 -271t133 -190.5t208.5 -69.5q144 0 288 99.5z" />
    <glyph glyph-name="iota" unicode="&#x3b9;" horiz-adv-x="362" 
d="M443 1226h1q23 0 23 -19q0 -4 -2 -12l-248 -1163q-7 -32 -33 -32h-1q-23 0 -23 22q0 7 1 10l248 1163q7 31 34 31z" />
    <glyph glyph-name="kappa" unicode="&#x3ba;" horiz-adv-x="1191" 
d="M441 1226h1q21 0 21 -20q0 -7 -1 -11l-143 -673l906 697q9 7 25 7h102q12 0 19 -7.5t4 -20.5v-1q-2 -10 -11 -16.5t-21 -6.5h-92l-583 -448l461 -686q5 -6 5 -16t-7 -17t-17 -7q-9 0 -15 2.5t-14 14.5l-454 677l-325 -250l-87 -410q-7 -34 -33 -34h-1q-21 0 -21 23
q0 7 1 11l247 1161q5 31 33 31z" />
    <glyph glyph-name="lambda" unicode="&#x3bb;" horiz-adv-x="1017" 
d="M999 30q0 -13 -7.5 -21.5t-19.5 -8.5q-7 0 -14.5 5.5t-9.5 16.5l-203 1090l-652 -1088q-13 -24 -33 -24q-9 0 -16 5.5t-7 15.5q0 8 6 20l688 1148l-8 49q-19 115 -36.5 170t-61 86.5t-129.5 31.5q-30 0 -30 26l1 2l4 13.5t33 13.5q100 0 154 -41t75.5 -100t39.5 -156
l9 -49l216 -1197q1 -3 1 -8z" />
    <glyph glyph-name="uni03BC" unicode="&#x3bc;" horiz-adv-x="1230" 
d="M1058 0h-1q-21 0 -21 21q0 7 1 11l43 210q-85 -110 -206.5 -185.5t-249.5 -75.5q-82 0 -159.5 29t-137.5 86.5t-87 139.5l-123 -569q-7 -32 -33 -32h-1q-20 0 -20 20q0 8 1 12l325 1529q7 31 32 31h1q23 0 23 -20q0 -7 -1 -11l-156 -733q-10 -46 -10 -91
q0 -103 51.5 -178.5t132 -114.5t163.5 -39q108 0 216 61t184 150t92 165l166 780q7 31 34 31h1q22 0 22 -19q0 -4 -2 -12l-248 -1164q-7 -32 -32 -32z" />
    <glyph glyph-name="nu" unicode="&#x3bd;" horiz-adv-x="1091" 
d="M564 3.5q-9 -4.5 -14 -4.5h-4q-6 0 -12 4.5t-8 15.5l-252 1168q-1 3 -1 9q0 13 7 21t20 8q21 0 26 -22l238 -1108l706 1110q14 21 31 21q12 0 19 -6.5t7 -17.5q0 -8 -4 -16l-743 -1167q-7 -11 -16 -15.5z" />
    <glyph glyph-name="xi" unicode="&#x3be;" horiz-adv-x="1079" 
d="M324.5 52q-81.5 52 -125.5 139t-44 188q0 47 8 86q19 99 80 190.5t145.5 158t173.5 96.5q-68 35 -106 99t-38 145q0 33 8 73q21 94 81.5 181t138.5 128h-223q-14 0 -21.5 4t-4.5 18v2q4 22 36 22h843q15 0 24 -5t7 -16v-2q-3 -14 -13.5 -18.5t-27.5 -4.5h-455
q-71 0 -141 -45t-120 -116.5t-66 -147.5q-7 -29 -7 -62q0 -65 30 -119t82.5 -85t117.5 -31l239 2q35 0 30 -24l-1 -3q-2 -10 -13 -16.5t-27 -6.5h-228q-101 0 -206.5 -59.5t-183 -156t-99.5 -201.5q-8 -35 -8 -79q0 -89 40.5 -166t112.5 -122.5t162 -45.5h153q75 0 135 -34
t94.5 -93t34.5 -132q0 -31 -8 -68q-12 -57 -44 -111t-80 -99q-11 -12 -25 -12q-12 0 -20 9q-6 6 -6 16t9 18q43 39 73 84t39 92q7 31 7 64q0 62 -26.5 110.5t-77.5 76t-120 27.5h-150q-107 0 -188.5 52z" />
    </font>
</defs>
</svg>
