<?xml version="1.0" standalone="no"?>
<!DOCTYPE svg PUBLIC "-//W3C//DTD SVG 1.1//EN" "http://www.w3.org/Graphics/SVG/1.1/DTD/svg11.dtd" >
<svg xmlns="http://www.w3.org/2000/svg" xmlns:xlink="http://www.w3.org/1999/xlink" version="1.1">
<metadata>
Created by FontForge 20170731 at Mon Dec 19 19:18:53 2016
 By Aleksey,,,
Copyright \(c\) 2016 by Zetafonts. All rights reserved.
</metadata>
<defs>
<font id="CocogoosePro-LightItalic" horiz-adv-x="495" >
  <font-face 
    font-family="Cocogoose Pro Light"
    font-weight="300"
    font-style="italic"
    font-stretch="normal"
    units-per-em="1920"
    panose-1="0 0 5 0 0 0 0 0 0 0"
    ascent="1536"
    descent="-384"
    x-height="1227"
    cap-height="1426"
    bbox="-406 -528 2652 2024"
    underline-thickness="96"
    underline-position="-288"
    slope="-12"
    unicode-range="U+000D-FB04"
  />
<missing-glyph horiz-adv-x="602" 
d="M551 56q-117 0 -206.5 50.5t-138.5 138t-49 195.5q0 48 11 101q28 135 118.5 247t216 176.5t255.5 64.5q117 0 206.5 -51.5t137.5 -140t48 -195.5q0 -54 -11 -101q-23 -114 -90 -210t-162.5 -162.5t-201.5 -95.5q-64 -17 -134 -17zM750 989q-126 0 -241.5 -61.5
t-195.5 -164.5t-105 -222q-10 -44 -10 -92q0 -99 45 -180.5t127 -129t189 -47.5q122 0 237 60t196.5 163t108.5 226q11 52 11 96q0 83 -32 151t-88.5 115t-128.5 69q-53 17 -113 17zM589.5 918q74.5 27 150.5 27t138.5 -27.5t105.5 -76.5h-537q68 50 142.5 77zM1003 404.5
q-37 -65.5 -92 -120.5h-536l636 528q53 -89 53 -188q0 -41 -9 -83q-15 -71 -52 -136.5zM243 455q0 41 9 86q30 141 145 256h534l-636 -526q-52 80 -52 184zM718.5 165q-74.5 -27 -149.5 -27t-137.5 27t-109.5 75h539q-68 -48 -142.5 -75z" />
    <glyph glyph-name="ff" unicode="ff" horiz-adv-x="1246" 
d="M-45 -200q0 5 2 15l18 91q4 20 18.5 32t32.5 12q44 0 85.5 21.5t72 61t42.5 92.5l175 836h-97q-34 0 -34 30q0 4 2 18l18 77q9 42 52 42h97l44 206q33 150 126.5 243t256.5 93q19 0 30.5 -9.5t11.5 -25.5q0 -7 -1 -11l-22 -99q-5 -18 -18.5 -27.5t-31.5 -9.5
q-66 0 -113.5 -43.5t-61.5 -110.5l-44 -206h445l44 206q33 150 126.5 243t256.5 93q19 0 30.5 -9.5t11.5 -25.5q0 -7 -1 -11l-22 -99q-5 -18 -18.5 -27.5t-31.5 -9.5q-66 0 -113.5 -43.5t-61.5 -110.5l-44 -206h139q35 0 35 -28q0 -4 -2 -14l-18 -77q-10 -48 -53 -48h-139
l-158 -771q-38 -184 -142.5 -301t-289.5 -117q-33 0 -33 28q0 5 2 15l18 91q4 20 18.5 32t32.5 12q44 0 85.5 21.5t72 61t42.5 92.5l175 836h-445l-158 -771q-38 -184 -142.5 -301t-289.5 -117q-33 0 -33 28z" />
    <glyph glyph-name="fi" unicode="fi" horiz-adv-x="1098" 
d="M578 961l-158 -771q-38 -184 -142.5 -301t-289.5 -117q-33 0 -33 28q0 5 2 15l18 91q4 20 18.5 32t32.5 12q44 0 85.5 21.5t72 61t42.5 92.5l175 836h-97q-34 0 -34 30q0 4 2 18l18 77q9 42 52 42h97l44 206q33 150 126.5 243t256.5 93q19 0 30.5 -9.5t11.5 -25.5
q0 -7 -1 -11l-22 -99q-5 -18 -18.5 -27.5t-31.5 -9.5q-66 0 -113.5 -43.5t-61.5 -110.5l-44 -206h558q13 0 20.5 -7t7.5 -19q0 -6 -1 -9l-222 -1057q-7 -36 -41 -36h-118q-28 0 -28 24q0 8 1 12l194 925h-409zM1129 1571q12 11 33 11h109q30 0 30 -28q0 -3 -2 -15l-23 -106
q-5 -22 -15.5 -30t-29.5 -8h-108q-35 0 -35 24q0 3 2 13l23 109q4 19 16 30z" />
    <glyph glyph-name="ffi" unicode="ffi" horiz-adv-x="1769" 
d="M-24 -200q0 5 2 15l18 91q4 20 18.5 32t32.5 12q44 0 85.5 21.5t72 61t42.5 92.5l175 836h-97q-34 0 -34 30q0 4 2 18l18 77q9 42 52 42h97l44 206q33 150 126.5 243t256.5 93q19 0 30.5 -9.5t11.5 -25.5q0 -7 -1 -11l-22 -99q-5 -18 -18.5 -27.5t-31.5 -9.5
q-66 0 -113.5 -43.5t-61.5 -110.5l-44 -206h425l44 206q33 150 126.5 243t256.5 93q19 0 30.5 -9.5t11.5 -25.5q0 -7 -1 -11l-22 -99q-5 -18 -18.5 -27.5t-31.5 -9.5q-66 0 -113.5 -43.5t-61.5 -110.5l-44 -206h538q27 0 27 -21q0 -5 -1 -8l-226 -1063q-7 -36 -40 -36h-119
q-28 0 -28 24q0 8 1 12l197 925h-387l-158 -771q-38 -184 -142.5 -301t-289.5 -117q-33 0 -33 28q0 5 2 15l18 91q4 20 18.5 32t32.5 12q44 0 85.5 21.5t72 61t42.5 92.5l175 836h-425l-158 -771q-38 -184 -142.5 -301t-289.5 -117q-33 0 -33 28zM1724.5 1612
q17.5 20 42.5 22l101 2q28 1 42 -12t14 -37q0 -6 -2 -20l-15 -70q-8 -35 -29.5 -53.5t-53.5 -16.5l-101 2q-17 2 -28.5 15.5t-11.5 30.5q0 4 2 12l16 79q6 26 23.5 46z" />
    <glyph glyph-name="f_f_j" unicode="ffj" horiz-adv-x="1761" 
d="M-16 -200q0 5 2 15l18 91q4 20 18.5 32t32.5 12q44 0 85.5 21.5t72 61t42.5 92.5l175 836h-97q-34 0 -34 30q0 4 2 18l18 77q9 42 52 42h97l44 206q33 150 126.5 243t256.5 93q19 0 30.5 -9.5t11.5 -25.5q0 -7 -1 -11l-22 -99q-5 -18 -18.5 -27.5t-31.5 -9.5
q-66 0 -113.5 -43.5t-61.5 -110.5l-44 -206h440l44 206q33 150 126.5 243t256.5 93q19 0 30.5 -9.5t11.5 -25.5q0 -7 -1 -11l-22 -99q-5 -18 -18.5 -27.5t-31.5 -9.5q-66 0 -113.5 -43.5t-61.5 -110.5l-44 -206h543q27 0 27 -21q0 -5 -1 -8l-233 -1096q-36 -169 -136 -275.5
t-275 -106.5q-25 0 -34.5 11t-6.5 22l20 93q0 1 3.5 11t15.5 17.5t32 7.5q78 0 127 61.5t72 171.5l200 943l-392 2l-158 -771q-38 -184 -142.5 -301t-289.5 -117q-33 0 -33 28q0 5 2 15l18 91q4 20 18.5 32t32.5 12q44 0 85.5 21.5t72 61t42.5 92.5l175 836h-440l-158 -771
q-38 -184 -142.5 -301t-289.5 -117q-33 0 -33 28zM1753 1575q12 11 33 11h109q29 0 29 -26q0 -11 -2 -17l-22 -106q-5 -22 -15.5 -30t-29.5 -8h-108q-35 0 -35 24q0 3 2 13l23 109q4 19 16 30z" />
    <glyph glyph-name="f_j" unicode="fj" horiz-adv-x="1098" 
d="M787 16l200 945h-409l-158 -771q-38 -184 -142.5 -301t-289.5 -117q-33 0 -33 28q0 5 2 15l18 91q4 20 18.5 32t32.5 12q44 0 85.5 21.5t72 61t42.5 92.5l175 836h-97q-34 0 -34 30q0 4 2 18l18 77q9 42 52 42h97l44 206q33 150 126.5 243t256.5 93q19 0 30.5 -9.5
t11.5 -25.5q0 -7 -1 -11l-22 -99q-5 -18 -18.5 -27.5t-31.5 -9.5q-66 0 -113.5 -43.5t-61.5 -110.5l-44 -206h558q13 0 20.5 -7t7.5 -19q0 -6 -1 -9l-231 -1090q-36 -169 -136 -275.5t-275 -106.5q-25 0 -34.5 11t-6.5 22l20 93q0 1 3.5 11t15.5 17.5t32 7.5q149 0 198 233z
M1127 1575q12 11 33 11h109q21 0 27 -14q4 -7 4 -19q0 -9 -1 -14l-23 -106q-5 -22 -15.5 -30t-29.5 -8h-108q-25 0 -33 14q-4 8 -4 15q0 4 2 12l23 109q4 19 16 30z" />
    <glyph glyph-name=".notdef" horiz-adv-x="602" 
d="M551 56q-117 0 -206.5 50.5t-138.5 138t-49 195.5q0 48 11 101q28 135 118.5 247t216 176.5t255.5 64.5q117 0 206.5 -51.5t137.5 -140t48 -195.5q0 -54 -11 -101q-23 -114 -90 -210t-162.5 -162.5t-201.5 -95.5q-64 -17 -134 -17zM750 989q-126 0 -241.5 -61.5
t-195.5 -164.5t-105 -222q-10 -44 -10 -92q0 -99 45 -180.5t127 -129t189 -47.5q122 0 237 60t196.5 163t108.5 226q11 52 11 96q0 83 -32 151t-88.5 115t-128.5 69q-53 17 -113 17zM589.5 918q74.5 27 150.5 27t138.5 -27.5t105.5 -76.5h-537q68 50 142.5 77zM1003 404.5
q-37 -65.5 -92 -120.5h-536l636 528q53 -89 53 -188q0 -41 -9 -83q-15 -71 -52 -136.5zM243 455q0 41 9 86q30 141 145 256h534l-636 -526q-52 80 -52 184zM718.5 165q-74.5 -27 -149.5 -27t-137.5 27t-109.5 75h539q-68 -48 -142.5 -75z" />
    <glyph glyph-name=".null" horiz-adv-x="0" 
 />
    <glyph glyph-name=".null" horiz-adv-x="0" 
 />
    <glyph glyph-name="nonmarkingreturn" unicode="&#xd;" horiz-adv-x="601" 
 />
    <glyph glyph-name="space" unicode=" " horiz-adv-x="601" 
 />
    <glyph glyph-name="exclam" unicode="!" horiz-adv-x="550" 
d="M540 1575.5q11 9.5 27 9.5h117q27 0 27 -24q0 -8 -1 -12l-239 -1123q-7 -36 -40 -36h-118q-27 0 -27 24q0 7 1 11l239 1124q3 17 14 26.5zM240.5 179q8.5 7 20.5 7h134q21 0 21 -18q0 -6 -1 -9l-28 -132q-3 -14 -12 -20t-19 -6h-134q-10 0 -17 6t-4 20l28 131
q3 14 11.5 21z" />
    <glyph glyph-name="quotedbl" unicode="&#x22;" horiz-adv-x="841" 
d="M492 1429h110q27 0 27 -22q0 -4 -2 -14l-77 -361q-7 -33 -37 -33h-116q-24 0 -24 21q0 4 2 14l77 359q6 36 40 36zM832 1429h110q27 0 27 -22q0 -4 -2 -14l-77 -361q-7 -33 -37 -33h-116q-24 0 -24 21q0 4 2 14l77 359q6 36 40 36z" />
    <glyph glyph-name="numbersign" unicode="#" horiz-adv-x="993" 
d="M1027.5 1413.5q16.5 12.5 36.5 12.5h89q14 0 23 -8t9 -21q0 -6 -3 -14l-107 -331h119q14 0 22.5 -7t8.5 -20q0 -6 -3 -15l-30 -90q-5 -18 -21.5 -31t-34.5 -13h-119l-94 -295h119q14 0 22.5 -7t8.5 -20q0 -6 -3 -15l-29 -87q-5 -18 -22 -32.5t-35 -14.5h-119l-117 -363
q-13 -42 -57 -42h-89q-33 0 -33 24q0 8 3 18l117 363h-206l-117 -363q-13 -42 -59 -42h-87q-32 0 -32 24q0 8 3 18l117 363h-109q-33 0 -33 26q0 10 4 21l29 87q14 42 58 42h109l94 295h-109q-33 0 -33 26q0 8 3 18l30 90q14 42 58 42h109l107 331q5 18 21 30.5t36 12.5h87
q14 0 23.5 -8.5t9.5 -21.5q0 -8 -2 -13l-107 -331h206l107 331q5 18 21.5 30.5zM747 581l94 295h-206l-94 -295h206z" />
    <glyph glyph-name="dollar" unicode="$" horiz-adv-x="1235" 
d="M168 252q0 16 19 31l94 72q12 9 22 9q15 0 32 -21q137 -183 339 -183q78 0 167 27t158.5 84.5t86.5 141.5q4 24 4 33q0 59 -44.5 100t-103.5 65.5t-145 51.5q2 -1 -42 13q-132 40 -213 81.5t-121.5 97t-40.5 131.5q0 37 9 80q20 94 82 172.5t159.5 130t221.5 67.5l28 132
q6 30 36 30h125q24 0 24 -21q0 -6 -1 -9l-28 -131q107 -15 194.5 -66.5t145.5 -131.5q8 -13 8 -24q0 -19 -20 -35l-84 -65q-11 -10 -23 -10q-9 0 -17 6t-21 18q-61 64 -125.5 101.5t-155.5 37.5q-71 0 -147 -19t-135 -64t-74 -117q-4 -17 -4 -37q0 -52 37 -87.5t89.5 -57.5
t146.5 -52q143 -46 226.5 -82.5t144 -101.5t60.5 -164q0 -30 -8 -72q-26 -122 -104 -214t-192.5 -146t-248.5 -68l-30 -138q-6 -30 -36 -30h-125q-25 0 -25 21q0 6 1 9l30 141q-109 18 -205.5 79t-158.5 153q-12 20 -12 31z" />
    <glyph glyph-name="percent" unicode="%" horiz-adv-x="1855" 
d="M347.5 1292q71.5 90 172 142.5t206.5 52.5q93 0 165.5 -40.5t113 -112t40.5 -159.5q0 -43 -8 -79q-22 -106 -94.5 -195.5t-174.5 -142t-208 -52.5q-92 0 -163.5 40t-111.5 110.5t-40 158.5q0 39 9 81q22 106 93.5 196zM1410 1424h131q25 0 25 -17q0 -12 -10 -26
l-925 -1362q-10 -12 -18.5 -15.5t-18.5 -3.5h-130q-9 1 -14 6.5t-5 12.5q0 12 9 21l919 1365q12 19 37 19zM404 1039q0 -79 48 -130t130 -51q65 0 128.5 32.5t109.5 87t60 118.5q6 27 6 52q0 52 -22.5 94t-64 66.5t-96.5 24.5q-64 0 -127 -32.5t-108 -87t-58 -117.5
q-6 -28 -6 -57zM1105.5 569q71.5 90 172 142.5t206.5 52.5q93 0 165.5 -40.5t113 -112t40.5 -159.5q0 -43 -8 -79q-22 -106 -94.5 -195.5t-174.5 -142t-208 -52.5q-92 0 -163.5 40t-111.5 110.5t-40 158.5q0 39 9 81q22 106 93.5 196zM1162 316q0 -79 48 -130t130 -51
q65 0 128.5 32.5t109.5 87t60 118.5q6 27 6 52q0 52 -22.5 94t-64 66.5t-96.5 24.5q-64 0 -127 -32.5t-108 -87t-58 -117.5q-6 -28 -6 -57z" />
    <glyph glyph-name="ampersand" unicode="&#x26;" horiz-adv-x="1663" 
d="M764 569q55 33 132 33q67 0 157 -25l265 -69q37 -10 69 -10q54 0 88.5 26t47 48.5t37.5 78.5q5 11 16 17.5t23 4.5l109 -21q8 -1 12 -7t4 -14q0 -7 -3 -13q-43 -112 -134.5 -193t-229.5 -81q-53 0 -116 15l-77 19q-36 -133 -119 -222.5t-197 -132.5t-247 -43
q-104 0 -192 50.5t-140 137.5t-52 192q0 42 9 85q58 266 280 364q-31 35 -46 85t-15 108q0 43 10 93q22 102 90 179.5t163.5 120t196.5 42.5q99 0 170 -33.5t108 -94.5t37 -143q0 -44 -10 -88q-4 -18 -12.5 -30.5t-22.5 -12.5l-112 -1q-22 0 -22 18q0 6 1 9q8 40 8 69
q0 65 -38.5 98.5t-123.5 33.5q-64 0 -120.5 -25t-93 -66.5t-46.5 -87.5q-7 -37 -7 -58q0 -70 44.5 -113t136.5 -55q10 -2 17 -8.5t7 -15.5q0 -6 -2 -10l-36 -86q-8 -20 -34 -20q-3 0 -27 3q-11 2 -33 2q-60 0 -122 -30t-110.5 -91.5t-66.5 -151.5q-8 -42 -8 -74
q0 -69 29 -122.5t84 -83.5t130 -30q91 0 169 29.5t131 87t73 138.5l5 23q-15 4 -34 11q-33 10 -51 14.5t-39 4.5q-34 0 -67 -15q-10 -5 -20 -5q-16 0 -20 14l-31 92q-2 22 18 36z" />
    <glyph glyph-name="quotesingle" unicode="'" horiz-adv-x="507" 
d="M492 1429h110q27 0 27 -22q0 -4 -2 -14l-77 -361q-7 -33 -37 -33h-116q-24 0 -24 21q0 4 2 14l77 359q6 36 40 36z" />
    <glyph glyph-name="parenleft" unicode="(" horiz-adv-x="705" 
d="M535 1238.5q130 254.5 300 449.5q13 16 28 16q11 0 19 -7l98 -70q9 -6 9 -17q0 -14 -11 -25q-94 -106 -186.5 -255t-163 -311t-99.5 -302q-35 -156 -35 -347q0 -154 24 -295t68 -239q3 -6 3 -13q0 -18 -19 -29l-104 -57q-11 -7 -23 -7q-14 0 -21 15q-56 121 -85.5 271
t-29.5 315q0 194 41 386q57 267 187 521.5z" />
    <glyph glyph-name="parenright" unicode=")" horiz-adv-x="705" 
d="M505 195.5q-130 -254.5 -300 -449.5q-13 -16 -28 -16q-11 0 -19 7l-98 70q-9 6 -9 17q0 14 11 25q94 106 186.5 255t163 311t99.5 302q35 156 35 347q0 154 -24 295t-68 239q-3 6 -3 13q0 18 19 29l104 57q11 7 23 7q14 0 21 -15q56 -121 85.5 -271t29.5 -315
q0 -194 -41 -386q-57 -267 -187 -521.5z" />
    <glyph glyph-name="asterisk" unicode="*" horiz-adv-x="943" 
d="M265.5 662q10.5 8 25.5 7l223 -12l-81 181q-3 5 -3 11q0 17 21 29l79 41q8 4 16 4q17 0 22 -17l54 -182l132 183q11 16 26 16q8 0 16 -5l62 -41q9 -6 9 -17t-9 -23l-163 -184l231 15q24 2 24 -20l-1 -9l-17 -82q-3 -12 -13.5 -20.5t-22.5 -7.5l-216 18l87 -195
q3 -6 3 -12q0 -16 -21 -28l-80 -41q-7 -4 -15 -4t-14 4.5t-7 11.5l-57 224l-158 -227q-15 -17 -29 -17q-6 0 -14 5l-61 41q-11 8 -11 19t10 23l168 192l-221 -14q-13 1 -20.5 8t-4.5 22l18 81q2 14 12.5 22z" />
    <glyph glyph-name="plus" unicode="+" horiz-adv-x="864" 
d="M418 302q0 6 1 9l48 227h-222q-12 0 -19.5 7t-4.5 21l24 115q6 28 37 28h221l47 219q2 12 11.5 20t22.5 8h109q11 0 17 -8t4 -21l-47 -218h216q13 0 19 -7t3 -21l-24 -116q-2 -11 -12.5 -19t-22.5 -8h-215l-49 -228q-2 -12 -11 -21t-23 -9h-108q-22 0 -22 22z" />
    <glyph glyph-name="comma" unicode="," horiz-adv-x="507" 
d="M204 171.5q10 8.5 25 8.5h120q24 0 24 -23q0 -6 -1 -10l-23 -108q-17 -85 -54 -143t-100 -111q-11 -10 -22 -10q-8 0 -15 7l-27 32q-5 5 -5 12q0 11 14 21q70 59 90 135l1 6q0 11 -11 11h-32q-23 0 -23 22q0 7 1 11l25 114q3 17 13 25.5z" />
    <glyph glyph-name="hyphen" unicode="-" horiz-adv-x="993" 
d="M283.5 615.5q12.5 9.5 28.5 9.5h631q30 0 30 -24q0 -3 -2 -13l-20 -96q-4 -16 -17 -26t-30 -10h-628q-13 0 -22.5 6.5t-9.5 19.5q0 3 2 11l20 94q5 19 17.5 28.5z" />
    <glyph glyph-name="period" unicode="." horiz-adv-x="507" 
d="M200 176q9 7 21 7h130q22 0 22 -20q0 -6 -1 -9l-27 -127q-3 -13 -12 -20t-18 -7h-135q-8 0 -15 6.5t-4 19.5l27 129q3 14 12 21z" />
    <glyph glyph-name="slash" unicode="/" horiz-adv-x="954" 
d="M389 0h-131q-12 0 -20 6t-8 17q0 5 5 17l686 1357q14 29 39 29h141q12 0 19.5 -6t7.5 -17q0 -6 -5 -18l-694 -1357q-13 -28 -40 -28z" />
    <glyph glyph-name="zero" unicode="0" horiz-adv-x="1688" 
d="M435.5 1076q134.5 168 323.5 267t387 99q172 0 308 -76.5t211.5 -209.5t75.5 -297q0 -74 -16 -148q-43 -197 -180.5 -365t-329 -266.5t-389.5 -98.5q-170 0 -302.5 75t-206.5 206t-74 293q0 80 17 156q41 197 175.5 365zM431 590q0 -122 52.5 -220t149 -154t222.5 -56
q141 0 289.5 73t258.5 199.5t143 278.5q13 61 13 121q0 125 -56 222t-156.5 151t-229.5 54q-143 0 -287.5 -74t-249.5 -200t-136 -274q-13 -61 -13 -121z" />
    <glyph glyph-name="one" unicode="1" horiz-adv-x="582" 
d="M702 1404q0 -7 -1 -10l-289 -1358q-7 -36 -43 -36h-113q-27 0 -27 25q0 6 1 10l251 1181l-146 -56q-14 -4 -19 -4q-18 0 -14 18l25 120q6 30 31 40l151 72q39 18 64 18h107q22 0 22 -20z" />
    <glyph glyph-name="two" unicode="2" horiz-adv-x="1238" 
d="M335 929q0 5 2 15q30 144 110.5 255.5t199 174.5t258.5 63q114 0 204 -37.5t141.5 -111t51.5 -175.5q0 -44 -11 -97q-21 -100 -76 -186.5t-152 -165.5l-606 -481h655q33 0 33 -24q0 -6 -1 -10l-24 -114q-8 -35 -44 -35h-902q-17 0 -27 8.5t-6 24.5l18 85q3 16 7.5 24
t12.5 14l756 622q82 70 121.5 125t55.5 131q6 29 6 56q0 80 -56 127t-176 47q-84 0 -160 -40.5t-130.5 -116.5t-75.5 -178q-3 -16 -13 -19.5t-24 -3.5l-126 1q-22 0 -22 22z" />
    <glyph glyph-name="three" unicode="3" horiz-adv-x="1060" 
d="M396 1053q0 7 1 11q24 110 85.5 196t151.5 133.5t195 47.5q92 0 161.5 -39t107 -106t37.5 -148q0 -34 -8 -72q-18 -88 -60 -146t-111 -119q60 -43 96.5 -117t36.5 -168q0 -46 -11 -101q-26 -124 -107 -225.5t-196 -160t-239 -58.5q-91 0 -176.5 33.5t-141.5 108.5
t-56 190q0 54 13 113q6 26 13 38.5t31 12.5h109q15 0 21.5 -7.5t3.5 -21.5q-10 -47 -10 -88q0 -106 60.5 -153t141.5 -47q66 0 141.5 31t135 92t78.5 146q7 32 7 67q0 64 -28 113.5t-80 77t-123 27.5q-30 0 -30 20q0 6 1 10l23 109q7 32 40 32q87 0 153.5 51.5t86.5 142.5
q7 35 7 56q0 60 -36.5 95t-108.5 35q-57 0 -107 -27t-84.5 -74t-46.5 -104q-4 -15 -13.5 -22.5t-22.5 -6.5l-124 1q-18 3 -18 21z" />
    <glyph glyph-name="four" unicode="4" horiz-adv-x="1210" 
d="M132.5 249q-7.5 9 -7.5 23t6.5 30t18.5 29l901 1067q12 15 23 21.5t26 6.5h120q23 0 23 -20q0 -4 -2 -14l-207 -974h130q17 0 24.5 -8.5t4.5 -22.5l-23 -105q-4 -19 -13.5 -30.5t-31.5 -11.5h-128l-44 -207q-8 -33 -35 -33h-129q-25 0 -25 18q0 7 3 16l44 206h-655
q-16 0 -23.5 9zM988 1064l-549 -639h413z" />
    <glyph glyph-name="five" unicode="5" horiz-adv-x="1164" 
d="M249 509h111q30 0 30 -27q0 -3 -2 -15q-9 -39 -9 -76q0 -68 28 -120.5t80.5 -82.5t123.5 -30q85 0 169.5 41.5t145 112.5t79.5 155q7 34 7 68q0 69 -29.5 123.5t-83.5 85.5t-127 31q-62 0 -126.5 -22.5t-115.5 -62.5q-19 -16 -34 -24.5t-44 -8.5h-121q-17 0 -26 5.5
t-9 19.5q0 11 4 24l205 671q8 27 22 39t38 12h650q42 0 42 -37q0 -4 -2 -16l-18 -85q-10 -48 -64 -48h-515l-105 -346q125 61 243 61q116 0 207 -50.5t141 -139.5t50 -199q0 -46 -11 -101q-30 -133 -119.5 -245t-215.5 -177.5t-260 -65.5q-110 0 -200.5 51t-142 140
t-51.5 198q0 46 11 99q8 42 44 42z" />
    <glyph glyph-name="six" unicode="6" horiz-adv-x="1179" 
d="M310 711l527 672q18 24 35 33.5t41 9.5h120q18 0 26.5 -3t8.5 -11q0 -12 -19 -35l-341 -435q43 15 79 15q115 0 205 -49.5t140.5 -137t50.5 -197.5q0 -51 -12 -105q-29 -133 -118 -245t-215 -177t-259 -65q-116 0 -205.5 49.5t-139.5 137t-50 197.5q0 54 11 103
q27 130 115 243zM375 394q0 -68 28 -121t81 -83t124 -30q83 0 161.5 41.5t134.5 112t74 154.5q8 40 8 74q0 68 -27 122t-78.5 85t-121.5 31q-84 0 -164.5 -42.5t-137.5 -114.5t-74 -155q-8 -33 -8 -74z" />
    <glyph glyph-name="seven" unicode="7" horiz-adv-x="1056" 
d="M1286 1417.5q10 -9.5 10 -26.5q0 -23 -17 -46l-958 -1323q-8 -11 -19 -16.5t-21 -5.5h-146q-25 0 -25 20q0 12 10 24l867 1199h-613q-14 0 -21.5 6.5t-7.5 19.5q0 6 1 10l24 114q7 34 43 34h843q20 0 30 -9.5z" />
    <glyph glyph-name="eight" unicode="8" horiz-adv-x="1064" 
d="M480 1256.5q67 81.5 161.5 129t193.5 47.5q87 0 154.5 -36t104.5 -100t37 -144q0 -41 -8 -76q-17 -78 -61.5 -146t-110.5 -120q64 -48 99 -121.5t35 -162.5q0 -48 -10 -94q-26 -123 -109 -226t-200.5 -163t-241.5 -60q-107 0 -190 45.5t-129 126.5t-46 182q0 48 10 95
q24 115 100 216.5t181 161.5q-32 38 -49.5 86.5t-17.5 102.5q0 38 9 77q21 98 88 179.5zM568 1033q0 -64 41 -105t108 -41q52 0 101 25t83.5 68t45.5 95q5 20 5 46q0 63 -39.5 103.5t-105.5 40.5q-53 0 -102.5 -25.5t-85 -69t-47.5 -95.5q-4 -19 -4 -42zM339 371
q0 -60 24.5 -108t70.5 -75.5t109 -27.5q74 0 150.5 38t132 101t71.5 136q6 29 6 55q0 62 -28.5 112.5t-79.5 79.5t-115 29q-74 0 -145.5 -37.5t-122 -101t-66.5 -137.5q-7 -31 -7 -64z" />
    <glyph glyph-name="nine" unicode="9" horiz-adv-x="1175" 
d="M1148 714l-527 -672q-18 -24 -35 -33.5t-41 -9.5h-120q-18 0 -26.5 3t-8.5 11q0 12 19 35l341 435q-43 -15 -79 -15q-115 0 -205 49.5t-140.5 137t-50.5 197.5q0 51 12 105q29 133 118 245t215 177t259 65q116 0 205.5 -49.5t139.5 -137t50 -197.5q0 -53 -11 -103
q-27 -130 -115 -243zM1083 1031q0 68 -28 121t-81 83t-124 30q-84 0 -162.5 -41t-134 -112t-73.5 -155q-8 -40 -8 -74q0 -68 27 -122t78.5 -85t121.5 -31q84 0 164.5 42.5t137.5 114.5t74 155q8 33 8 74z" />
    <glyph glyph-name="colon" unicode=":" 
d="M443 1223h133q23 0 23 -21q0 -6 -1 -9l-28 -130q-2 -13 -12 -20.5t-20 -7.5h-138q-9 0 -15.5 7t-3.5 20l28 132q6 29 34 29zM223 188h133q23 0 23 -21q0 -6 -1 -9l-28 -130q-2 -13 -11.5 -20.5t-19.5 -7.5h-138q-9 0 -16 7t-4 20l28 132q6 29 34 29z" />
    <glyph glyph-name="semicolon" unicode=";" 
d="M420 1212q9 7 21 7h130q22 0 22 -20q0 -6 -1 -9l-27 -127q-3 -13 -12 -20t-18 -7h-135q-8 0 -15 6.5t-4 19.5l27 129q3 14 12 21zM206 171.5q10 8.5 25 8.5h120q24 0 24 -23q0 -6 -1 -10l-23 -108q-17 -85 -54 -143t-100 -111q-11 -10 -22 -10q-8 0 -15 7l-27 32
q-5 5 -5 12q0 11 14 21q70 59 90 135l1 6q0 11 -11 11h-32q-23 0 -23 22q0 7 1 11l25 114q3 17 13 25.5z" />
    <glyph glyph-name="less" unicode="&#x3c;" horiz-adv-x="841" 
d="M211 564q1 4 4 7.5t8 6.5l567 468q14 12 29 12q11 0 16 -8l59 -70q6 -7 6 -18q0 -18 -17 -31l-473 -389l330 -412q6 -7 6 -18q0 -18 -16 -31l-67 -54q-8 -7 -18 -7q-15 0 -25 12l-405 509q-5 6 -6 9t0 9q1 1 2 5z" />
    <glyph glyph-name="equal" unicode="=" horiz-adv-x="993" 
d="M288 700q0 7 1 11l25 98q9 36 41 36h626q14 0 21.5 -6.5t7.5 -17.5q0 -6 -1 -9l-25 -100q-3 -15 -14 -24.5t-28 -9.5h-626q-28 0 -28 22zM224 419q0 7 1 11l25 98q9 36 41 36h626q14 0 21.5 -6.5t7.5 -17.5q0 -6 -1 -9l-25 -100q-3 -15 -14 -24.5t-28 -9.5h-626
q-28 0 -28 22z" />
    <glyph glyph-name="greater" unicode="&#x3e;" horiz-adv-x="841" 
d="M858 515q-1 -4 -4 -7.5t-8 -6.5l-567 -468q-14 -12 -29 -12q-11 0 -16 8l-59 70q-6 8 -6 18q0 18 17 31l473 389l-330 412q-6 8 -6 18q0 18 16 31l67 54q8 7 18 7q15 0 25 -12l405 -509q5 -6 6 -9t0 -9q-1 -1 -2 -5z" />
    <glyph glyph-name="question" unicode="?" horiz-adv-x="1091" 
d="M651 333l-121 -1q-11 0 -17.5 7t-6.5 18q0 10 2 16l40 192q18 80 93.5 143.5t178.5 122.5q69 38 112.5 73t73 83t43.5 116q6 26 6 51q0 53 -24 96t-71 67.5t-113 24.5q-88 0 -165.5 -36t-130.5 -98.5t-69 -139.5q-9 -39 -45 -39h-119q-13 0 -20 8.5t-4 22.5
q29 136 112 241t201.5 162.5t251.5 57.5q111 0 200.5 -45.5t140.5 -124t51 -173.5q0 -33 -8 -73q-30 -141 -107.5 -231.5t-206.5 -162.5q-86 -48 -139.5 -97t-67.5 -119l-26 -121q-10 -41 -45 -41zM472.5 177q9.5 8 21.5 8h138q23 0 23 -20q0 -6 -1 -9l-27 -124
q-3 -14 -13 -20.5t-20 -6.5h-138q-10 0 -17.5 6.5t-4.5 20.5l26 123q3 14 12.5 22z" />
    <glyph glyph-name="at" unicode="@" horiz-adv-x="1849" 
d="M1302 -129q10 0 15 -11l47 -101q2 -3 2 -9q0 -17 -24 -31q-227 -125 -474 -125q-206 1 -367.5 92t-251.5 248.5t-90 353.5q0 92 21 189q51 236 212.5 438t389.5 321.5t468 119.5q179 0 323 -67t227.5 -194t83.5 -299q0 -76 -18 -160q-35 -164 -107.5 -293.5t-175 -203.5
t-224.5 -74q-45 0 -97.5 20.5t-71.5 76.5q-131 -131 -287 -131q-104 0 -184 45t-123.5 124t-43.5 178q0 46 11 99q25 122 102 223.5t187.5 160.5t230.5 59q82 0 146 -39t84 -104l49 97q7 20 16 26.5t29 6.5h49q14 0 24 -6q8 -8 8 -15q0 -2 -2 -10l-122 -573q-3 -13 -3 -24
q0 -26 16.5 -33.5t50.5 -7.5q72 0 129 65.5t94 157t56 180.5q14 64 14 132q0 126 -56 219.5t-161 144t-248 50.5q-183 0 -378.5 -91.5t-341.5 -256t-188 -371.5q-15 -73 -15 -143q0 -156 69 -285t192 -204t278 -75q96 -1 201 25t207 79q16 6 22 6zM709 416q0 -61 26 -110
t74 -76.5t111 -27.5q73 0 145 37t123 100.5t67 137.5q6 30 6 57q0 61 -27.5 111.5t-77 79.5t-112.5 29q-73 0 -143 -38t-119.5 -102t-65.5 -137q-7 -37 -7 -61z" />
    <glyph glyph-name="A" unicode="A" horiz-adv-x="1411" 
d="M975 1426h90q27 0 32 -30l264 -1355q1 -4 1 -10q0 -15 -10 -23t-25 -8h-130q-26 0 -30 29l-51 273h-670l-166 -273q-11 -16 -21 -22.5t-22 -6.5h-140q-25 0 -25 19q0 9 7 22l850 1355q20 30 46 30zM1082 486l-121 656l-405 -656h526z" />
    <glyph glyph-name="B" unicode="B" horiz-adv-x="1302" 
d="M492 1427h594q86 0 154.5 -38.5t107.5 -106.5t39 -155q0 -36 -10 -86q-37 -168 -194 -283q68 -36 105.5 -109t37.5 -164q0 -44 -9 -89q-23 -104 -96.5 -195.5t-175 -146t-204.5 -54.5h-652q-27 0 -27 23q0 7 1 11l289 1360q6 33 40 33zM517 827h404q62 0 119 26t98 75
t57 114q9 41 9 71q0 140 -183 140h-416zM379 175h476q67 0 126.5 34.5t98.5 87.5t49 104q6 36 6 65q0 91 -50.5 134.5t-128.5 43.5h-478z" />
    <glyph glyph-name="C" unicode="C" horiz-adv-x="1365" 
d="M1242 294q13 0 20 -11l58 -97q5 -10 5 -16q0 -18 -25 -35q-104 -72 -223 -112.5t-246 -40.5q-174 0 -310 75.5t-212 208t-76 297.5q0 75 16 151q43 200 177.5 367.5t324.5 265t390 97.5q123 0 217.5 -42t176.5 -118q11 -11 11 -24q0 -12 -9 -21l-76 -85q-11 -11 -26 -11
q-13 0 -24 10q-60 56 -135.5 83.5t-172.5 27.5q-146 0 -289 -73.5t-246 -199.5t-134 -277q-14 -68 -14 -127q0 -123 52.5 -219.5t152 -150.5t234.5 -54q171 0 351 118q18 13 32 13z" />
    <glyph glyph-name="D" unicode="D" horiz-adv-x="1482" 
d="M490 1426h457q175 0 310.5 -75.5t209.5 -206t74 -290.5q0 -70 -15 -142q-42 -192 -172.5 -355.5t-316.5 -260t-386 -96.5h-464q-27 0 -27 23q0 7 1 11l289 1359q6 33 40 33zM1353 840q0 120 -51.5 213t-150 146t-236.5 53h-309l-230 -1078h269q157 0 305 72t253 195.5
t136 270.5q14 68 14 128z" />
    <glyph glyph-name="E" unicode="E" horiz-adv-x="1233" 
d="M492 1427h940q30 0 30 -24q0 -6 -1 -9l-26 -120q-6 -34 -43 -34h-787l-84 -396h609q33 0 33 -25q0 -6 -1 -9l-25 -118q-7 -33 -46 -33h-609l-100 -470h786q30 0 30 -24q0 -6 -1 -9l-26 -122q-7 -34 -43 -34h-939q-27 0 -27 23q0 7 1 11l289 1360q6 33 40 33z" />
    <glyph glyph-name="F" unicode="F" horiz-adv-x="1204" 
d="M492 1427h926q26 0 26 -23q0 -6 -1 -10l-25 -117q-7 -34 -39 -34h-774l-101 -473h609q26 0 26 -22q0 -7 -1 -11l-25 -117q-7 -34 -39 -34h-609l-117 -552q-7 -34 -39 -34h-120q-27 0 -27 23q0 7 1 11l289 1360q6 33 40 33z" />
    <glyph glyph-name="G" unicode="G" horiz-adv-x="1415" 
d="M1028.5 184q94.5 23 152.5 61l74 350q8 36 42 36h111q26 0 26 -24q0 -8 -1 -12l-91 -430q-7 -26 -27 -38q-107 -68 -228.5 -106.5t-248.5 -38.5q-173 0 -309.5 75t-212.5 207t-76 296q0 72 17 154q44 200 178 367.5t322.5 265t388.5 97.5q124 0 222.5 -40.5t178.5 -115.5
q12 -11 12 -24q0 -12 -11 -23l-75 -81q-9 -12 -27 -12q-13 0 -23 9q-60 54 -130 80.5t-163 26.5q-154 0 -300 -73t-249 -199t-136 -278q-14 -68 -14 -128q0 -122 50.5 -218.5t145 -151.5t223.5 -55q84 0 178.5 23z" />
    <glyph glyph-name="H" unicode="H" horiz-adv-x="1484" 
d="M479 658l-132 -622q-8 -36 -42 -36h-117q-28 0 -28 24q0 8 1 12l288 1355q3 16 14 26t28 10h120q11 0 18.5 -6t7.5 -17l-2 -12l-116 -546h804l116 545q3 16 13.5 26t27.5 10h120q26 0 26 -22q0 -3 -2 -13l-288 -1356q-8 -36 -41 -36h-118q-27 0 -27 24q0 7 1 12l132 622
h-804z" />
    <glyph glyph-name="I" unicode="I" 
d="M463.5 1417.5q10.5 9.5 26.5 9.5h120q27 0 27 -23q0 -3 -2 -13l-288 -1354q-7 -37 -40 -37h-120q-27 0 -27 24q0 8 1 13l288 1354q4 17 14.5 26.5z" />
    <glyph glyph-name="J" unicode="J" horiz-adv-x="501" 
d="M474 1418.5q11 8.5 25 8.5h116q30 0 30 -23q0 -8 -3 -17l-271 -1276q-4 -15 -10 -45q-13 -55 -22 -91q-28 -90 -97 -166.5t-162.5 -121.5t-190.5 -45q-73 0 -144.5 33t-110.5 90q-12 14 -12 30q0 15 14 26l80 68q14 11 26 11t20 -8.5t10 -10.5q50 -63 146 -63
q58 0 111 28t89.5 73.5t47.5 95.5l292 1376q5 19 16 27.5z" />
    <glyph glyph-name="K" unicode="K" horiz-adv-x="1409" 
d="M1331 43q5 -8 5 -15q0 -11 -9.5 -19.5t-22.5 -8.5h-146q-21 0 -37 28l-399 650l-291 -252l-83 -390q-7 -36 -40 -36h-120q-26 0 -26 24q0 7 1 12l288 1354q4 17 14 27t26 10h119q11 0 19 -8t8 -20q0 -6 -1 -9l-147 -692l809 704q16 15 28 20t24 5h164q11 0 16.5 -5
t5.5 -13q0 -14 -15 -28l-658 -582z" />
    <glyph glyph-name="L" unicode="L" horiz-adv-x="1102" 
d="M466 1416q11 10 26 10h120q25 0 25 -24q0 -8 -1 -13l-259 -1215h702q32 0 32 -24q0 -6 -1 -9l-22 -107q-7 -34 -45 -34h-854q-27 0 -27 23q0 7 1 11l288 1355q4 17 15 27z" />
    <glyph glyph-name="M" unicode="M" horiz-adv-x="1778" 
d="M275 34q-10 -34 -41 -34h-114q-27 0 -27 22q0 9 2 15l441 1358q12 32 43 32h153q11 0 15.5 -5.5t6.5 -20.5l207 -1034l640 1032q16 28 37 28h172q31 0 28 -32l-130 -1360q-5 -35 -38 -35h-124q-15 0 -21.5 5.5t-6.5 18.5l1 9l118 1085l-646 -1033q-11 -15 -19 -20t-19 -5
h-100q-11 0 -17.5 5t-9.5 20l-203 1032z" />
    <glyph glyph-name="N" unicode="N" horiz-adv-x="1516" 
d="M341 37q-7 -37 -42 -37h-111q-28 0 -28 25q0 8 1 12l288 1355q3 14 14.5 24t27.5 10h114q22 0 39 -29l597 -1105l234 1100q3 15 14.5 24.5t28.5 9.5h111q12 0 20 -6.5t8 -18.5q0 -6 -1 -9l-288 -1355q-7 -37 -42 -37h-120q-13 0 -23 6t-18 22l-587 1122z" />
    <glyph glyph-name="O" unicode="O" horiz-adv-x="1688" 
d="M436 1079.5q135 168.5 325 267t389 98.5q173 0 307 -75t208 -207t74 -296q0 -73 -17 -155q-43 -200 -175.5 -367t-320 -264.5t-387.5 -97.5q-173 0 -308.5 74.5t-211.5 205.5t-76 295q0 72 17 154q41 199 176 367.5zM433 584q0 -122 51 -217.5t147 -149.5t226 -54
q152 0 296.5 73.5t247.5 199.5t134 276q15 69 15 132q0 122 -50.5 217t-145.5 149t-223 54q-162 0 -307 -73.5t-244.5 -199.5t-132.5 -279q-14 -68 -14 -128z" />
    <glyph glyph-name="P" unicode="P" horiz-adv-x="1227" 
d="M465.5 1419q10.5 8 26.5 8h516q104 0 178.5 -51.5t112 -135t37.5 -177.5q0 -46 -9 -91q-23 -106 -95.5 -206t-179.5 -162.5t-228 -62.5h-369l-107 -505q-7 -36 -40 -36h-119q-27 0 -27 24q0 7 1 12l289 1358q3 17 13.5 25zM494 723h323q80 0 149.5 35t115 93.5
t60.5 126.5q8 38 8 72q0 86 -48 140.5t-144 54.5h-353z" />
    <glyph glyph-name="Q" unicode="Q" horiz-adv-x="1688" 
d="M436 1079.5q135 168.5 325 267t389 98.5q174 0 308.5 -75.5t209 -207.5t74.5 -297q0 -77 -16 -153q-39 -184 -156.5 -341.5t-285.5 -258.5t-352 -123l-55 -261q-8 -36 -41 -36h-120q-27 0 -27 23q0 3 2 13l55 261q-149 19 -263.5 97t-177 201t-62.5 272q0 71 17 153
q41 199 176 367.5zM433 584q0 -122 51 -217.5t147 -149.5t226 -54q152 0 297.5 73.5t249 199.5t134.5 276q14 63 14 131q0 122 -51 217.5t-146.5 149.5t-223.5 54q-151 0 -297.5 -73.5t-251 -200.5t-135.5 -278q-14 -68 -14 -128z" />
    <glyph glyph-name="R" unicode="R" horiz-adv-x="1319" 
d="M450 517l-102 -483q-7 -34 -40 -34h-120q-26 0 -26 23q0 7 1 11l289 1360q7 33 39 33h582q108 0 187.5 -47.5t121.5 -129t42 -182.5q0 -48 -11 -101q-18 -83 -69 -165t-125 -148t-160 -103l139 -511q1 -3 1 -8q0 -13 -10 -22.5t-23 -9.5h-122q-12 0 -19.5 6t-12.5 22
l-125 491zM487 693h380q84 0 160 35.5t129.5 98.5t70.5 143q10 48 10 84q0 94 -56 148t-170 54h-410z" />
    <glyph glyph-name="S" unicode="S" horiz-adv-x="1277" 
d="M167 264q0 16 18 31l93 60q11 8 22 8q15 0 32 -20q55 -82 139.5 -132t195.5 -50q79 0 167.5 27t157.5 84t88 141q4 22 4 33q0 58 -44 98t-103 63.5t-144 48.5l-46 14q-130 39 -210.5 83t-120.5 101t-40 135q0 38 9 83q23 106 98.5 190.5t195.5 132.5t271 48
q128 0 235.5 -58t170.5 -156q8 -13 8 -23q0 -19 -20 -36l-72 -56q-13 -10 -26 -10q-18 0 -35 24q-46 64 -115 102t-164 38q-71 0 -147 -19t-135 -64t-74 -117q-4 -17 -4 -37q0 -52 37 -87.5t89.5 -57.5t146.5 -52q143 -46 226.5 -82.5t144 -101.5t60.5 -164q0 -30 -8 -72
q-29 -136 -122 -234t-229 -148.5t-290 -50.5q-129 0 -251.5 69.5t-197.5 182.5q-11 18 -11 31z" />
    <glyph glyph-name="T" unicode="T" horiz-adv-x="1190" 
d="M389 1427h1012q26 0 26 -24q0 -6 -1 -10l-25 -118q-7 -34 -40 -34h-413l-256 -1207q-7 -34 -40 -34h-120q-28 0 -28 23q0 7 1 11l256 1207h-412q-27 0 -27 23q0 7 1 11l25 118q6 34 41 34z" />
    <glyph glyph-name="U" unicode="U" horiz-adv-x="1444" 
d="M430 468q0 -94 39 -164.5t110.5 -108.5t165.5 -38q112 0 217.5 54t181 149t101.5 214l173 817q3 16 14 26t28 10h117q14 0 21 -7.5t7 -19.5q0 -6 -1 -9l-176 -830q-39 -181 -143 -313t-250 -201.5t-308 -69.5q-141 0 -252 53t-174 154t-63 240q0 69 16 142l175 826
q4 15 14.5 25t25.5 10h122q26 0 26 -22q0 -3 -2 -13l-173 -818q-12 -55 -12 -106z" />
    <glyph glyph-name="V" unicode="V" horiz-adv-x="1382" 
d="M750 -1h-78q-13 0 -20.5 6.5t-11.5 22.5l-280 1356q-1 4 -1 11q0 15 10.5 23.5t24.5 8.5h125q26 0 30 -31l214 -1102l675 1102q20 30 44 30h143q10 0 17 -5t7 -14t-9 -24l-846 -1355q-16 -29 -44 -29z" />
    <glyph glyph-name="W" unicode="W" horiz-adv-x="2045" 
d="M786 29q-21 -29 -44 -29h-75q-12 0 -21 7t-12 22l-274 1358q-3 18 8 29t27 11h116q12 0 18.5 -6t10.5 -23l217 -1117l687 1117q11 16 21 22.5t22 6.5h137q11 0 17.5 -5.5t6.5 -14.5q0 -10 -7 -20l-347 -554l114 -552l690 1117q11 16 20.5 22.5t21.5 6.5h138q11 0 18 -5.5
t7 -15.5q0 -9 -7 -19l-857 -1358q-21 -29 -45 -29h-76q-12 0 -21.5 7t-11.5 22l-121 598z" />
    <glyph glyph-name="X" unicode="X" horiz-adv-x="1288" 
d="M1185 43q3 -7 3 -14q0 -13 -10.5 -21t-22.5 -8h-126q-24 0 -34 25l-245 531l-472 -530q-15 -16 -24 -21t-21 -5h-146q-10 0 -17 5t-7 14q0 12 11 24l598 671l-313 669q-3 8 -3 14q0 13 9.5 21.5t21.5 8.5h127q12 0 19.5 -6t13.5 -20l253 -544l488 546q12 14 22.5 20
t22.5 6h148q10 0 17 -6t7 -16q0 -11 -10 -22l-617 -691z" />
    <glyph glyph-name="Y" unicode="Y" horiz-adv-x="1200" 
d="M321 1385q-3 8 -3 13q0 13 10.5 21t23.5 8h134q11 0 18 -6t13 -21l229 -613l483 613q12 15 21 21t21 6h158q10 0 16.5 -5.5t6.5 -14.5q0 -12 -10 -23l-630 -781l-121 -566q-7 -37 -40 -37h-120q-27 0 -27 26q0 7 1 11l120 563z" />
    <glyph glyph-name="Z" unicode="Z" horiz-adv-x="1309" 
d="M1537 1407q0 -6 -1 -10l-26 -126q-7 -17 -15 -25l-1132 -1058h882q28 0 28 -22q0 -6 -1 -9l-27 -126q-7 -31 -39 -31h-1111q-27 0 -27 21q0 6 1 10l26 123q1 2 5 13.5t11 18.5l1137 1056l-869 -1q-30 0 -30 22q0 6 1 9l26 124q7 31 43 31l1092 2q26 0 26 -22z" />
    <glyph glyph-name="bracketleft" unicode="[" horiz-adv-x="520" 
d="M538 1654h303q13 0 19.5 -7.5t3.5 -21.5l-29 -138q-3 -12 -13.5 -20t-22.5 -8h-141l-316 -1483h142q13 0 19.5 -7.5t3.5 -21.5l-27 -128q-2 -12 -13 -20t-23 -8h-304q-25 0 -25 23q0 7 1 11l382 1796q7 33 40 33z" />
    <glyph glyph-name="backslash" unicode="\" horiz-adv-x="893" 
d="M368 1393q0 16 10.5 24.5t24.5 8.5h117q12 0 19.5 -6.5t10.5 -22.5l279 -1357q1 -3 1 -8q0 -15 -10.5 -23.5t-24.5 -8.5h-107q-13 0 -21.5 6t-11.5 22l-286 1357q-1 3 -1 8z" />
    <glyph glyph-name="bracketright" unicode="]" horiz-adv-x="520" 
d="M305 -209h-303q-13 0 -19.5 7.5t-3.5 21.5l29 138q3 12 13.5 20t22.5 8h141l316 1483h-142q-13 0 -19.5 7.5t-3.5 21.5l27 128q2 12 13 20t23 8h304q25 0 25 -23q0 -7 -1 -11l-382 -1796q-7 -33 -40 -33z" />
    <glyph glyph-name="asciicircum" unicode="^" horiz-adv-x="937" 
d="M765 1473q15 0 28 -17l247 -316q11 -14 11 -25q0 -12 -21 -30l-63 -55q-17 -14 -30 -14q-14 0 -26 17l-174 225l-288 -237q-23 -20 -39 -20q-12 0 -21 12l-57 69q-9 12 -9 21q0 10 7.5 19.5t21.5 22.5l374 311q19 17 39 17z" />
    <glyph glyph-name="underscore" unicode="_" horiz-adv-x="1254" 
d="M163.5 -7.5q10.5 7.5 25.5 7.5h912q27 0 23 -28l-23 -105q-2 -11 -12.5 -19.5t-23.5 -8.5h-912q-13 0 -20.5 7t-4.5 22l22 103q3 14 13.5 21.5z" />
    <glyph glyph-name="grave" unicode="`" 
d="M444 1499q0 14 8.5 24t20.5 10h94q32 0 38 -29l58 -223q2 -10 2 -15q0 -14 -8 -22t-19 -8h-88q-14 0 -23 6t-14 24l-67 220q-2 8 -2 13z" />
    <glyph glyph-name="a" unicode="a" horiz-adv-x="1478" 
d="M1313 0h-115q-32 0 -32 30q0 5 2 17l25 116q-52 -52 -130.5 -93.5t-169.5 -65.5t-176 -24q-136 0 -251.5 67.5t-183.5 186t-68 263.5q0 64 13 126q35 169 151.5 310.5t278.5 223t328 81.5q141 0 239 -49t160 -129l27 130q9 37 41 37h121q26 0 26 -24q0 -8 -1 -13
l-245 -1153q-7 -37 -40 -37zM1310 715q0 101 -41.5 180.5t-118 124.5t-176.5 45q-116 0 -237 -61t-211 -166.5t-117 -231.5q-12 -57 -12 -110q0 -100 41 -177.5t118.5 -121t183.5 -43.5q112 0 232.5 61t210.5 165.5t115 225.5q12 57 12 109z" />
    <glyph glyph-name="b" unicode="b" horiz-adv-x="1488" 
d="M525 1582h120q26 0 26 -24q0 -8 -1 -13l-104 -488q91 77 216 129t265 52q146 0 258 -64t173 -176.5t61 -252.5q0 -68 -15 -140q-37 -173 -153 -317t-272 -227t-309 -83q-138 0 -249 49t-167 126l-21 -97q-4 -20 -20 -38t-36 -18h-108q-29 0 -29 25q0 8 1 12l321 1508
q7 37 43 37zM451 500q0 -97 39.5 -175t116.5 -123.5t185 -45.5q114 0 229.5 57.5t199.5 158.5t110 225q14 67 14 124q0 99 -37 176.5t-109 122t-175 44.5q-128 0 -248 -63.5t-204 -169t-109 -224.5q-12 -54 -12 -107z" />
    <glyph glyph-name="c" unicode="c" horiz-adv-x="1210" 
d="M1085 299q14 0 18 -10l61 -96q4 -8 4 -17q0 -19 -22 -34q-106 -75 -215 -121t-231 -46q-149 0 -266 64t-183 178t-66 256q0 66 15 136q38 175 155 319t278.5 227t325.5 83q111 0 205 -43.5t167 -118.5q8 -9 8 -20t-9 -22l-75 -77q-11 -11 -26 -11q-10 0 -18 8
q-57 61 -121 84.5t-147 23.5q-120 -2 -238 -59.5t-204 -161t-113 -233.5q-13 -56 -13 -113q0 -100 41 -176.5t118.5 -119t181.5 -42.5q95 0 174.5 36t167.5 97q12 9 27 9z" />
    <glyph glyph-name="d" unicode="d" horiz-adv-x="1478" 
d="M1305 0h-108q-16 0 -25.5 13.5t-9.5 31.5q0 7 1 11l21 97q-87 -77 -219.5 -126t-270.5 -49q-133 0 -243.5 63.5t-174.5 176.5t-64 255q0 68 14 132q37 172 149 317t270 230.5t328 85.5q140 0 243.5 -52t159.5 -129l104 488q7 37 41 37h120q28 0 28 -25q0 -8 -1 -12
l-321 -1508q-7 -37 -42 -37zM1301 715q0 98 -39.5 177.5t-116 125.5t-183.5 46q-124 0 -240 -63.5t-198 -171t-109 -232.5q-11 -51 -11 -107q0 -99 41.5 -174.5t119 -117.5t183.5 -42q127 0 242 62.5t194.5 166t104.5 222.5q12 56 12 108z" />
    <glyph glyph-name="e" unicode="e" horiz-adv-x="1453" 
d="M445.5 316.5q41.5 -80.5 116.5 -120t170 -39.5q84 0 152 20t113 45.5t108 67.5q14 10 28 10q13 0 17 -10l50 -93q5 -10 5 -18q0 -17 -19 -32q-117 -85 -228 -127t-239 -42q-146 0 -262 65.5t-181 179.5t-65 255q0 64 13 126q36 171 149 316.5t274 231t334 85.5
q172 0 289 -65.5t174.5 -177t57.5 -250.5q0 -78 -18 -161q-9 -41 -28 -54.5t-51 -13.5h-996q-5 -118 36.5 -198.5zM751 1009.5q-101 -45.5 -179.5 -125.5t-120.5 -181h862q1 11 1 32q0 94 -43.5 166.5t-124 113t-188.5 40.5q-106 0 -207 -45.5z" />
    <glyph glyph-name="f" unicode="f" horiz-adv-x="622" 
d="M-45 -200q0 5 2 15l18 91q4 20 18.5 32t32.5 12q44 0 85.5 21.5t72 61t42.5 92.5l175 836h-97q-34 0 -34 30q0 4 2 18l18 77q9 42 52 42h97l44 206q33 150 126.5 243t256.5 93q19 0 30.5 -9.5t11.5 -25.5q0 -7 -1 -11l-22 -99q-5 -18 -18.5 -27.5t-31.5 -9.5
q-66 0 -113.5 -43.5t-61.5 -110.5l-44 -206h139q35 0 35 -28q0 -4 -2 -14l-18 -77q-10 -48 -53 -48h-139l-158 -771q-38 -184 -142.5 -301t-289.5 -117q-33 0 -33 28z" />
    <glyph glyph-name="g" unicode="g" horiz-adv-x="1515" 
d="M1283.5 -140q-115.5 -133 -270 -199t-313.5 -66q-128 0 -217.5 28.5t-163.5 89.5q-12 11 -12 23q0 9 6 17.5t7 9.5l66 81q14 16 33 16q14 0 27 -9q47 -32 84.5 -50t87 -26.5t123.5 -8.5q98 0 208 49t189.5 125.5t95.5 154.5l15 72q-197 -188 -481 -188q-138 0 -252 63
t-179.5 176t-65.5 257q0 67 15 139q35 167 146 311t266.5 229t317.5 85q150 0 254 -45.5t169 -134.5l26 125q12 42 48 42h123q19 0 19 -23q0 -4 -2 -14l-213 -1004q-41 -192 -156.5 -325zM1361 712q0 100 -44.5 179.5t-126 125t-188.5 45.5q-119 0 -230.5 -60.5t-190 -163.5
t-104.5 -226q-13 -58 -13 -114q0 -104 44.5 -181t121.5 -118t173 -41q117 0 234 62t202 167t111 226q11 53 11 99z" />
    <glyph glyph-name="h" unicode="h" horiz-adv-x="1261" 
d="M1141 784q0 118 -61.5 194t-185.5 76q-86 0 -172 -41.5t-147 -112t-78 -152.5l-150 -710q-4 -18 -14.5 -28t-27.5 -10h-116q-29 0 -29 23q0 10 2 15l320 1506q4 18 15 28t28 10h116q27 0 27 -27q0 -7 -1 -11l-96 -448q63 52 115 82t112.5 45.5t140.5 15.5
q125 0 212 -52.5t131 -147t44 -218.5q0 -78 -18 -165l-130 -618q-4 -18 -14.5 -28t-27.5 -10h-116q-29 0 -29 23q0 10 2 15l136 640q12 54 12 106z" />
    <glyph glyph-name="i" unicode="i" 
d="M497 1571q12 11 33 11h109q30 0 30 -28q0 -3 -2 -15l-23 -106q-5 -22 -15.5 -30t-29.5 -8h-108q-35 0 -35 24q0 3 2 13l23 109q4 19 16 30zM421 1217q11 9 27 9h118q13 0 20.5 -7t7.5 -19q0 -6 -1 -9l-246 -1155q-7 -36 -41 -36h-118q-28 0 -28 24q0 8 1 12l246 1155
q3 17 14 26z" />
    <glyph glyph-name="j" unicode="j" 
d="M506 1575q12 11 33 11h109q29 0 29 -26q0 -11 -2 -17l-22 -106q-5 -22 -15.5 -30t-29.5 -8h-108q-35 0 -35 24q0 3 2 13l23 109q4 19 16 30zM463 1226h118q26 0 26 -24q0 -8 -1 -13l-252 -1186q-36 -169 -136 -275.5t-275 -106.5q-25 0 -34.5 11t-6.5 22l20 93
q0 1 3.5 11t15.5 17.5t32 7.5q149 0 198 233l249 1173q7 37 43 37z" />
    <glyph glyph-name="k" unicode="k" horiz-adv-x="1198" 
d="M1094 57q6 -9 6 -19q0 -15 -13 -26.5t-28 -11.5h-119q-12 0 -21.5 6t-18.5 21l-319 529l-152 -128l-83 -391q-6 -37 -39 -37h-118q-27 0 -27 26q0 7 1 11l321 1510q8 35 41 35h118q25 0 25 -23q0 -8 -1 -12l-180 -846l595 506q16 13 27 16.5t26 3.5h158q15 0 23 -7t8 -17
q0 -19 -17 -33l-587 -500z" />
    <glyph glyph-name="l" unicode="l" 
d="M497 1572q11 10 28 10h116q27 0 27 -27q0 -7 -1 -11l-320 -1506q-4 -18 -14.5 -28t-27.5 -10h-116q-29 0 -29 23q0 10 2 15l320 1506q4 18 15 28z" />
    <glyph glyph-name="m" unicode="m" horiz-adv-x="2072" 
d="M305 0h-115q-28 0 -28 25q0 8 1 12l245 1152q8 38 42 38h110q15 0 25 -10t10 -24q0 -5 -1 -8l-24 -116q79 85 174.5 127t195.5 42q132 0 223.5 -60t120.5 -159q78 106 192.5 162.5t251.5 56.5q127 0 215 -47.5t132.5 -132t44.5 -195.5q0 -60 -14 -130l-148 -696
q-7 -37 -40 -37h-113q-29 0 -29 25q0 8 1 12l149 700q11 53 11 101q0 99 -56.5 159t-187.5 60q-92 0 -176 -47.5t-141.5 -121.5t-73.5 -148l-150 -704q-7 -36 -40 -36h-114q-29 0 -29 24q0 8 1 12l150 705q10 48 10 87q0 100 -57 164t-182 64q-63 0 -148.5 -40t-156.5 -117
t-93 -181l-145 -681q-7 -37 -43 -37z" />
    <glyph glyph-name="n" unicode="n" horiz-adv-x="1261" 
d="M328 10q-14 -10 -32 -10h-108q-28 0 -28 25q0 8 1 12l245 1151q8 38 42 38h122q22 0 22 -24q0 -6 -2 -18l-27 -127q176 182 399 182q109 0 193.5 -46t131.5 -133t47 -205q0 -68 -14 -134l-146 -685q-7 -36 -40 -36h-115q-30 0 -30 24q0 8 1 12l143 674q15 72 15 124
q0 222 -242 222q-79 0 -167 -40.5t-157 -118t-92 -184.5l-144 -676q-4 -17 -18 -27z" />
    <glyph glyph-name="o" unicode="o" horiz-adv-x="1457" 
d="M382.5 925q114.5 144 276.5 228.5t333 84.5q150 0 265.5 -64.5t179 -178t63.5 -254.5q0 -62 -14 -132q-35 -170 -150 -315.5t-278 -231.5t-334 -86q-148 0 -263.5 65.5t-180 179.5t-64.5 255q0 64 15 133q37 172 151.5 316zM407 506q0 -100 42 -179.5t118.5 -124.5
t175.5 -45q129 0 245.5 60t198 163.5t107.5 228.5q13 65 13 117q0 99 -38.5 174.5t-113.5 118.5t-181 43q-117 0 -236 -60.5t-206.5 -165t-113.5 -227.5q-11 -55 -11 -103z" />
    <glyph glyph-name="p" unicode="p" horiz-adv-x="1496" 
d="M451 1226h108q16 0 25 -13.5t9 -30.5q0 -8 -1 -12l-21 -98q87 77 220.5 126t270.5 49q134 0 243.5 -64t172.5 -178.5t63 -258.5q0 -60 -12 -126q-37 -186 -147.5 -330t-267.5 -223.5t-331 -79.5q-140 0 -244.5 52t-159.5 129l-106 -498q-7 -37 -41 -37h-120q-28 0 -28 25
q0 8 1 12l323 1519q7 37 43 37zM456 515q0 -99 41 -179.5t120 -127.5t187 -47q124 0 237.5 63.5t192.5 170.5t106 233q11 55 11 102q0 100 -42.5 177t-120.5 119.5t-180 42.5q-127 0 -242 -62.5t-194 -166t-105 -222.5q-11 -55 -11 -103z" />
    <glyph glyph-name="q" unicode="q" horiz-adv-x="1496" 
d="M1216 -367h-120q-26 0 -26 24q0 8 1 13l106 498q-89 -77 -214.5 -129t-265.5 -52q-148 0 -259 65.5t-171 180t-60 258.5q0 63 12 129q34 191 149 333.5t272 218t314 75.5q137 0 248 -49t167 -126l25 118q6 19 15 27.5t28 8.5h118q28 0 28 -25q0 -8 -1 -12l-323 -1519
q-7 -37 -43 -37zM1292 718q0 98 -41.5 178t-121 126.5t-187.5 46.5q-119 0 -231.5 -57.5t-192.5 -158t-106 -225.5q-13 -58 -13 -117q0 -100 39 -179.5t113.5 -125t178.5 -45.5q127 0 244.5 63.5t199.5 168.5t107 225q11 53 11 100z" />
    <glyph glyph-name="r" unicode="r" horiz-adv-x="993" 
d="M444 1227h118q15 0 22 -5t7 -18l-2 -16l-20 -93q72 79 142.5 112t164.5 33q67 0 125 -20t98.5 -47.5t62.5 -53.5q14 -15 14 -28q0 -10 -11 -25l-72 -87q-12 -14 -27 -14q-12 0 -25 10l-28 21q-40 33 -77 49t-99 16q-73 0 -141.5 -28.5t-121.5 -94t-76 -170.5l-156 -731
q-7 -37 -41 -37h-117q-28 0 -28 25q0 8 1 12l246 1154q8 36 41 36z" />
    <glyph glyph-name="s" unicode="s" horiz-adv-x="996" 
d="M108 270q0 14 7.5 22.5t25.5 15.5l102 32q9 4 19 4q24 0 32 -36q8 -47 44 -80.5t82 -51t84 -17.5q64 0 129.5 20t113.5 61.5t61 102.5q4 16 4 34q0 44 -28 72.5t-69 44.5t-108 35l-34 9q-144 41 -220.5 117.5t-76.5 181.5q0 29 6 60q32 165 154 254t305 89
q132 0 210.5 -53.5t134.5 -154.5q7 -13 7 -25q0 -20 -25 -35l-79 -50q-16 -10 -26 -10q-8 0 -14 5.5t-15 19.5q-26 42 -51 68t-64.5 42.5t-98.5 16.5q-92 0 -165 -43t-90 -127q-2 -7 -2 -20q0 -54 62.5 -97t140.5 -62q160 -39 248.5 -113.5t88.5 -190.5q0 -34 -7 -68
q-24 -109 -97.5 -191t-183.5 -125.5t-238 -43.5q-82 0 -158 31t-131.5 91t-76.5 143q-3 14 -3 22z" />
    <glyph glyph-name="t" unicode="t" horiz-adv-x="622" 
d="M787 1226q14 0 21.5 -6.5t7.5 -18.5q0 -6 -1 -10l-22 -100q-3 -15 -15.5 -24.5t-28.5 -9.5h-137l-157 -740q-7 -33 -7 -59q0 -45 21 -73t70 -29l33 -1q39 0 39 -21q0 -7 -1 -10l-24 -110q-3 -14 -12.5 -21t-37.5 -7q-137 0 -208.5 58.5t-71.5 163.5q0 37 9 79l163 770
h-122q-13 0 -21.5 6.5t-8.5 18.5q0 6 1 9l21 98q5 18 17 27.5t27 9.5h122l41 193q4 17 13 25.5t29 13.5l119 18q3 1 9 1q19 0 19 -24q0 -9 -1 -14l-45 -213h139z" />
    <glyph glyph-name="u" unicode="u" horiz-adv-x="1267" 
d="M840.5 6q-90.5 -36 -211.5 -36q-127 0 -214 48t-130 133.5t-43 197.5q0 64 16 142l147 691q4 23 14 34t34 11h112q16 0 22 -6t6 -17q0 -5 -2 -19l-147 -694q-12 -62 -12 -109q0 -101 53 -164.5t176 -63.5q77 0 166.5 36.5t159 105.5t90.5 161l154 728q9 42 51 42h99
q36 0 38 -29q0 -3 -2 -13l-243 -1144q-4 -18 -18.5 -30t-32.5 -12h-100q-17 0 -26.5 9t-9.5 24q0 6 1 9l15 71q-72 -70 -162.5 -106z" />
    <glyph glyph-name="v" unicode="v" horiz-adv-x="1142" 
d="M621 -1h-82q-27 0 -32 30l-225 1145q-1 4 -1 12q0 19 12.5 30t30.5 11h103q28 0 32 -30l174 -904l549 906q16 28 44 28h132q11 0 18 -5t7 -15q0 -12 -11 -29l-705 -1149q-20 -30 -46 -30z" />
    <glyph glyph-name="w" unicode="w" horiz-adv-x="1853" 
d="M1324 -1h-81q-25 0 -31 30l-131 654l-401 -654q-20 -30 -46 -30h-85q-26 0 -31 30l-233 1145q-1 4 -1 12q0 19 12.5 30t30.5 11h110q27 0 32 -30l179 -896l535 897q10 16 20.5 22t23.5 6h135q12 0 18.5 -5.5t6.5 -15.5q0 -12 -10 -28l-158 -263l116 -620l539 904
q16 28 43 28h145q24 0 24 -20q0 -12 -10 -29l-706 -1148q-20 -30 -46 -30z" />
    <glyph glyph-name="x" unicode="x" horiz-adv-x="1114" 
d="M340 1178q-4 7 -4 16q0 14 11.5 23.5t27.5 9.5h117q14 0 20.5 -6t14.5 -21l186 -421l373 421q13 15 21.5 21t22.5 6h138q13 0 20.5 -5.5t7.5 -15.5q0 -14 -14 -28l-490 -544l276 -571q5 -10 5 -21q0 -17 -11.5 -29.5t-31.5 -12.5h-113q-25 0 -36 26l-211 478l-433 -478
q-23 -26 -45 -26h-123q-15 0 -22.5 7t-7.5 18q0 9 5 19.5t13 18.5l532 583z" />
    <glyph glyph-name="y" unicode="y" horiz-adv-x="1142" 
d="M396 -367h-109q-16 0 -26 6.5t-10 19.5q0 15 12 34l233 384l-211 1097q-1 4 -1 11q0 20 14 31t31 11h101q27 0 32 -30l170 -920l550 920q17 30 44 30h130q30 0 30 -22q0 -13 -10 -29l-934 -1514q-19 -29 -46 -29z" />
    <glyph glyph-name="z" unicode="z" horiz-adv-x="1204" 
d="M1121 175q15 0 22.5 -8.5t4.5 -21.5l-24 -114q-3 -15 -15.5 -23t-24.5 -8h-969q-24 0 -24 25q0 7 1 11l16 84q3 16 10.5 25.5t19.5 19.5l977 888h-773q-15 0 -22.5 9t-4.5 21l24 113q3 15 15.5 23t24.5 8h958q17 0 27.5 -8t7.5 -27l-25 -114q-1 -2 -5 -14t-17 -25
l-951 -864h747z" />
    <glyph glyph-name="braceleft" unicode="{" horiz-adv-x="756" 
d="M313 787q10 7 22 7h4q40 0 70 8.5t56.5 40.5t41.5 98l64 303q34 164 125.5 247t179 105t152.5 22q13 0 19.5 -7.5t3.5 -21.5l-27 -130q-3 -12 -13.5 -20t-22.5 -8q-66 0 -138 -32t-97 -151l-74 -349q-25 -117 -124 -193q49 -54 49 -130q0 -31 -7 -62l-74 -349
q-6 -30 -6 -53q0 -85 53 -107.5t110 -22.5q12 0 19 -8t5 -19l-22 -112q-3 -14 -12.5 -21.5t-22.5 -7.5q-48 0 -119 21t-131 83t-60 175q0 40 11 95l59 284q6 33 6 56q0 40 -16 60t-39 25.5t-56 5.5h-7q-22 2 -22 21q0 5 1 8l25 118q4 14 14 21z" />
    <glyph glyph-name="bar" unicode="|" horiz-adv-x="482" 
d="M516 1577h114q25 0 25 -22q0 -8 -1 -12l-382 -1798q-7 -34 -39 -34h-114q-27 0 -27 23q0 7 1 11l382 1798q7 34 41 34z" />
    <glyph glyph-name="braceright" unicode="}" horiz-adv-x="726" 
d="M735 645q-10 -7 -22 -7h-4q-40 0 -70 -8.5t-56.5 -40.5t-41.5 -98l-64 -303q-34 -164 -125.5 -247t-179 -105t-152.5 -22q-13 0 -19.5 7.5t-3.5 21.5l27 130q3 12 13.5 20t22.5 8q66 0 138 32t97 151l74 349q25 117 124 193q-49 54 -49 131q0 30 7 61l74 349q6 30 6 53
q0 85 -53 107.5t-110 22.5q-12 0 -19 8t-5 19l22 112q3 14 12.5 21.5t22.5 7.5q48 0 119 -21t131 -83t60 -175q0 -40 -11 -95l-59 -284q-6 -33 -6 -56q0 -40 16 -60t39 -25.5t56 -5.5h7q22 -2 22 -21q0 -5 -1 -8l-25 -118q-4 -14 -14 -21z" />
    <glyph glyph-name="asciitilde" unicode="~" horiz-adv-x="1265" 
d="M475 452q-11 0 -20 11l-32 40q-10 11 -10 20q0 6 5 13t18 20q48 48 94 71t97 23q30 0 58 -12.5t66 -36.5q31 -20 52.5 -30t41.5 -10q26 0 47 14t50 42q21 21 38 21q11 0 21 -10l28 -37q6 -7 6 -16q0 -11 -14 -27q-50 -55 -96.5 -81.5t-99.5 -26.5q-31 0 -57.5 12.5
t-61.5 36.5q-35 22 -53.5 31t-39.5 9q-31 0 -54 -15t-54 -46q-17 -16 -30 -16z" />
    <glyph glyph-name="exclamdown" unicode="&#xa1;" horiz-adv-x="472" 
d="M559.5 1045q-8.5 -7 -20.5 -7h-134q-21 0 -21 18q0 6 1 9l28 132q3 14 12 20t19 6h134q10 0 17 -6t4 -20l-28 -131q-3 -14 -11.5 -21zM260 -351.5q-11 -9.5 -27 -9.5h-117q-27 0 -27 24q0 8 1 12l239 1123q7 36 40 36h118q27 0 27 -24q0 -7 -1 -11l-239 -1124
q-3 -17 -14 -26.5z" />
    <glyph glyph-name="cent" unicode="&#xa2;" horiz-adv-x="1219" 
d="M564 -183q0 7 1 10l34 160q-123 19 -217 85.5t-145.5 170.5t-51.5 230q0 66 15 136q33 157 132.5 290t239.5 220t291 111l35 167q3 13 12.5 21t23.5 8h130q11 0 17 -8.5t3 -20.5l-35 -165q84 -11 152 -44t125 -90q9 -8 9 -19q0 -9 -10 -22l-72 -82q-3 -5 -10 -8t-14 -3
q-11 0 -19 7q-61 53 -126 77t-144 24q-108 0 -229.5 -61t-214 -167.5t-119.5 -235.5q-12 -55 -12 -108q0 -102 44 -182t124 -125t186 -45q85 0 171 29t154 78q12 9 25 9q15 0 19 -11l46 -83q4 -7 4 -16q0 -19 -22 -34q-74 -52 -159 -87t-172 -47l-34 -160q-3 -13 -12 -22
t-23 -9h-129q-23 0 -23 22z" />
    <glyph glyph-name="sterling" unicode="&#xa3;" horiz-adv-x="1231" 
d="M747 750q13 0 19.5 -7.5t3.5 -21.5l-27 -126q-2 -11 -12.5 -19t-23.5 -8h-241l-81 -384h689q31 0 31 -24q0 -6 -1 -9l-25 -117q-7 -34 -44 -34h-841q-27 0 -27 23q0 7 1 11l113 534h-44q-13 0 -20.5 7t-4.5 21l27 125q3 14 13 21.5t24 7.5h44l46 217q31 145 127.5 255
t227 169.5t260.5 59.5q103 0 196 -31.5t145 -82.5q3 -3 9.5 -10.5t10.5 -14.5t4 -15q0 -10 -7 -20l-61 -75q-17 -20 -34 -20q-14 0 -26 12q-33 36 -101.5 58t-138.5 22q-85 0 -174.5 -31.5t-160 -103t-94.5 -182.5l-44 -207h242z" />
    <glyph glyph-name="currency" unicode="&#xa4;" horiz-adv-x="1035" 
d="M479 931q18 0 29 -14l80 -102q66 17 104 17q37 0 96 -17l125 102q17 12 31 12q19 0 30 -14l97 -123q12 -15 8 -30q-3 -15 -21 -30l-123 -102q2 -32 2 -45q0 -31 -6 -55q-13 -49 -38 -101l79 -102q10 -12 10 -23q0 -24 -23 -36l-148 -122q-13 -13 -36 -13q-17 0 -26 11
l-82 101q-66 -17 -103 -17q-38 0 -97 17l-123 -101q-18 -15 -33 -15q-16 0 -27 15l-96 122q-7 7 -7 20q0 9 1 14q4 14 17 27l123 102q-2 30 -2 44q0 33 6 57q11 41 38 100l-79 102q-8 13 -8 21q0 20 23 41l148 123q20 14 31 14zM517.5 422q31.5 -31 81.5 -31q59 0 108 40.5
t61 98.5q3 15 3 30q0 48 -31 79t-82 31q-43 0 -83 -23.5t-64.5 -62.5t-24.5 -83q0 -48 31.5 -79z" />
    <glyph glyph-name="yen" unicode="&#xa5;" horiz-adv-x="1236" 
d="M399 560q-12 0 -19.5 5.5t-7.5 16.5q0 5 1 8l19 90q4 15 14.5 23t24.5 8h183l-273 673q-3 8 -3 13q0 13 10.5 21t23.5 8l133 1q12 0 18.5 -5.5t12.5 -22.5l223 -609l493 609q13 16 22.5 22t20.5 6l147 -1q9 0 16 -5.5t7 -14.5q0 -11 -10 -22l-570 -673h212q23 0 23 -20
q0 -6 -1 -10l-19 -92q-3 -12 -13 -20.5t-24 -8.5h-253l-22 -102h255q23 0 23 -20q0 -6 -1 -10l-19 -92q-2 -12 -12.5 -20.5t-24.5 -8.5h-253l-58 -270q-7 -37 -40 -37h-120q-27 0 -27 24q0 8 1 13l58 270h-225q-14 0 -21.5 7.5t-4.5 22.5l19 90q4 15 14.5 23t24.5 8h225
l22 102h-225z" />
    <glyph glyph-name="brokenbar" unicode="&#xa6;" horiz-adv-x="574" 
d="M565 1584h119q26 0 26 -23q0 -7 -1 -11l-155 -730q-7 -33 -39 -33h-119q-27 0 -27 22q0 7 1 11l155 730q7 34 40 34zM339 519h119q26 0 26 -23q0 -6 -1 -10l-155 -730q-7 -34 -40 -34h-119q-26 0 -26 23q0 7 1 11l155 730q6 33 40 33z" />
    <glyph glyph-name="section" unicode="&#xa7;" horiz-adv-x="1127" 
d="M1108 1198q-13 0 -19 13q-34 72 -98.5 100t-136.5 28q-59 0 -127 -22.5t-120 -66t-65 -103.5q-3 -13 -3 -25q0 -35 25 -58.5t63 -38.5t111 -37q29 -8 60 -18q135 -44 197.5 -99t62.5 -132q0 -24 -6 -53q-17 -78 -69 -139t-131 -97q52 -30 81 -70t29 -96q0 -23 -6 -52
q-20 -95 -87.5 -170t-166 -117t-207.5 -42q-97 0 -186.5 41.5t-133.5 138.5q-9 21 -9 32q0 9 4.5 15t14.5 11l57 32q16 8 22 8q12 0 20 -14q29 -50 57.5 -78.5t67.5 -41.5t98 -13q61 0 127 22.5t115.5 66t62.5 103.5q3 14 3 25q0 36 -26 61t-67.5 41.5t-119.5 40.5
q-9 3 -18 5.5t-17 5.5q-136 44 -200 99t-64 132q0 25 6 50q17 78 67 137t128 96q-104 59 -104 166q0 26 6 54q20 96 85.5 171t161.5 116.5t204 41.5q171 0 278 -95q35 -32 54 -65t16 -45q-6 -17 -21 -26l-54 -32q-11 -7 -22 -7zM571 821q-54 -22 -86 -57t-40 -74
q-3 -21 -3 -32q0 -51 44 -89.5t167 -38.5q87 0 146.5 27t88 69t28.5 86q0 61 -58 89.5t-163 41.5q-70 0 -124 -22z" />
    <glyph glyph-name="dieresis" unicode="&#xa8;" horiz-adv-x="841" 
d="M496 1417h106q30 0 30 -27q0 -3 -2 -15l-22 -102q-5 -22 -16 -30.5t-29 -8.5h-105q-33 0 -33 27q0 7 1 11l22 105q9 40 48 40zM876 1417h106q30 0 30 -27q0 -3 -2 -15l-22 -102q-5 -22 -16 -30.5t-29 -8.5h-105q-33 0 -33 27q0 7 1 11l22 105q9 40 48 40z" />
    <glyph glyph-name="copyright" unicode="&#xa9;" horiz-adv-x="1686" 
d="M439 1091.5q135 168.5 325 268t390 99.5q171 0 306 -75.5t211 -208.5t76 -297q0 -72 -17 -154q-41 -198 -176 -366t-325 -267t-389 -99q-172 0 -307.5 75.5t-211 207.5t-75.5 296q0 80 17 155q41 197 176 365.5zM374 598q0 -136 63 -246t175 -172.5t253 -62.5
q166 0 325 85t271 226t146 301q13 62 13 124q0 136 -64 245t-175 170.5t-249 61.5q-169 0 -328 -85t-271 -225.5t-146 -300.5q-13 -59 -13 -121zM1374 1054q0 -9 -9 -20l-52 -67q-12 -15 -23 -15q-10 0 -23 9q-80 57 -175 57q-83 0 -160.5 -40.5t-131.5 -109t-71 -148.5
q-8 -35 -8 -74q0 -65 26.5 -115.5t77 -79.5t119.5 -30q52 0 113 14.5t108 45.5q11 6 20 6q14 0 19 -12l24 -62q3 -7 3 -14q0 -18 -19 -31q-63 -44 -136.5 -66.5t-149.5 -22.5q-104 0 -185 45t-126 124.5t-45 178.5q0 48 10 95q25 120 106.5 221t196 160.5t234.5 59.5
q73 0 134.5 -21t108.5 -63q14 -12 14 -25z" />
    <glyph glyph-name="ordfeminine" unicode="&#xaa;" horiz-adv-x="981" 
d="M835.5 796q-34.5 -28 -87.5 -46.5t-126 -18.5q-85 0 -151 36t-102.5 100t-36.5 144q0 41 8 76q21 98 86 180t156 130t187 48q169 -1 235 -142l27 97q11 29 36 29h51q12 0 18.5 -7.5t3.5 -21.5l-129 -632q-3 -10 -12 -19t-22 -9h-67q-16 0 -21.5 9.5t-2.5 21.5l20 94
q-36 -41 -70.5 -69zM457 1037q0 -52 24 -93.5t67.5 -65t98.5 -23.5q64 0 123.5 31t102 84t56.5 118q5 27 5 47q0 52 -23.5 94.5t-66.5 67t-98 24.5q-64 0 -124 -31.5t-103 -85t-56 -116.5q-6 -27 -6 -51z" />
    <glyph glyph-name="guillemotleft" unicode="&#xab;" horiz-adv-x="1323" 
d="M281 544q1 4 4 7.5t8 6.5l567 468q14 12 29 12q11 0 16 -8l59 -70q6 -7 6 -18q0 -18 -17 -31l-473 -389l330 -412q6 -7 6 -18q0 -18 -16 -31l-67 -54q-8 -7 -18 -7q-15 0 -25 12l-405 509q-5 6 -6 9t0 9q1 1 2 5zM670 538q1 4 4 7.5t8 6.5l567 468q14 12 29 12
q11 0 16 -8l59 -70q6 -7 6 -18q0 -18 -17 -31l-473 -389l330 -412q6 -7 6 -18q0 -18 -16 -31l-67 -54q-8 -7 -18 -7q-15 0 -25 12l-405 509q-7 11 -6 18q1 1 2 5z" />
    <glyph glyph-name="logicalnot" unicode="&#xac;" horiz-adv-x="1116" 
d="M266.5 618q-7.5 7 -5.5 19l13 65q2 17 13 28t30 11h759q15 0 21.5 -5t6.5 -17q0 -8 -1 -12l-83 -390q-3 -15 -11.5 -24t-22.5 -9h-66q-17 0 -25.5 9t-5.5 24l62 294h-662q-15 0 -22.5 7z" />
    <glyph glyph-name="uni00AD" unicode="&#xad;" horiz-adv-x="1056" 
d="M341.5 739q13.5 10 29.5 10h645q29 0 29 -26q0 -8 -1 -12l-23 -108q-4 -15 -17 -25t-30 -10h-642q-14 0 -23 7t-9 21q0 5 1 8l22 106q5 19 18.5 29z" />
    <glyph glyph-name="registered" unicode="&#xae;" horiz-adv-x="1686" 
d="M1456.5 1369.5q134.5 -75.5 210 -208t75.5 -297.5q0 -73 -17 -155q-41 -196 -175.5 -364t-324.5 -267t-389 -99q-172 0 -306.5 75.5t-210 208.5t-75.5 299q0 76 16 152q41 197 176 365t325.5 267t390.5 99q170 0 304.5 -75.5zM803 1219.5q-151 -77.5 -256.5 -212.5
t-141.5 -298q-14 -62 -14 -130q0 -127 54 -230.5t156.5 -164t241.5 -60.5q165 0 322.5 78.5t269.5 213.5t146 295q14 68 14 128q0 132 -59 236t-167 163t-251 59q-164 0 -315 -77.5zM799 1117h334q61 -2 108 -30t73 -75t26 -105q0 -27 -6 -54q-15 -73 -62.5 -132.5
t-115.5 -97.5l76 -289l1 -7q-4 -19 -29 -19h-119q-15 0 -17 17l-65 264h-190l-55 -258q-5 -23 -30 -23h-101q-12 0 -17.5 5.5t-2.5 17.5l161 759q6 27 31 27zM1186 878q0 39 -23.5 65.5t-65.5 26.5h-203l-49 -231h203q48 0 86.5 33.5t49.5 82.5q2 16 2 23z" />
    <glyph glyph-name="macron" unicode="&#xaf;" horiz-adv-x="935" 
d="M401 1395.5q10 7.5 25 7.5h668q13 0 19.5 -7t3.5 -21l-18 -85q-3 -12 -13 -20t-22 -8h-669q-13 0 -20.5 7t-4.5 21l18 84q3 14 13 21.5z" />
    <glyph glyph-name="degree" unicode="&#xb0;" horiz-adv-x="624" 
d="M365.5 1110.5q38.5 49.5 93 78.5t111.5 29q52 0 92.5 -23t63.5 -62.5t23 -88.5q0 -22 -4 -41q-13 -59 -50.5 -108t-91.5 -78t-113 -29q-51 0 -92 22.5t-64.5 62t-23.5 87.5q0 18 5 43q12 58 50.5 107.5zM433 909.5q24 -25.5 64 -25.5q49 0 93 34.5t54 82.5q3 15 3 30
q0 39 -24 63t-67 24q-35 0 -69.5 -20t-56 -53t-21.5 -70q0 -40 24 -65.5z" />
    <glyph glyph-name="plusminus" unicode="&#xb1;" horiz-adv-x="954" 
d="M473.5 326q-5.5 6 -5.5 16q0 5 1 8l44 207h-215q-12 0 -19 6.5t-4 19.5l26 120q3 13 12.5 20t22.5 7h214l47 224q3 12 11.5 19.5t20.5 7.5h119q11 0 16 -7.5t3 -19.5l-47 -224h200q12 0 17.5 -7.5t2.5 -19.5l-26 -120q-2 -11 -11.5 -18.5t-20.5 -7.5h-199l-44 -208
q-2 -12 -10.5 -20.5t-21.5 -8.5h-118q-10 0 -15.5 6zM169 23q0 6 1 9l23 108q9 33 38 33h576q15 0 22 -8t4 -22l-23 -110q-3 -13 -14 -22t-25 -9h-576q-26 0 -26 21z" />
    <glyph glyph-name="uni00B2" unicode="&#xb2;" horiz-adv-x="803" 
d="M808 775q21 0 21 -17q0 -5 -1 -8l-19 -89q-4 -25 -30 -25h-486q-11 0 -17.5 7t-4.5 18l17 80q0 6 7 13l419 353q28 24 38.5 40.5t16.5 41.5q3 14 3 26q0 37 -24.5 61.5t-64.5 24.5q-32 0 -64.5 -17t-56.5 -44.5t-30 -56.5l-9 -44q-6 -23 -29 -23h-97q-11 0 -15.5 7
t-2.5 16l9 44q16 72 59.5 128.5t106.5 87.5t134 31q65 0 119.5 -23.5t87 -67t32.5 -101.5q0 -18 -5 -45q-12 -55 -43.5 -101.5t-74.5 -77.5l-288 -239h292z" />
    <glyph glyph-name="uni00B3" unicode="&#xb3;" horiz-adv-x="726" 
d="M535.5 987.5q-4.5 3.5 -2.5 11.5l22 103q5 24 29 24q44 0 67.5 23.5t30.5 56.5q4 20 4 33q0 53 -60 53q-41 0 -60.5 -24.5t-29.5 -67.5q-3 -13 -10.5 -19.5t-21.5 -6.5h-90q-24 0 -19 23q25 115 97 171t167 56q50 0 89 -22t61 -61t22 -87q0 -23 -4 -43q-18 -84 -80 -134
q67 -51 67 -137q0 -27 -8 -67q-16 -72 -61.5 -130.5t-110.5 -92t-136 -33.5q-90 0 -152 43.5t-62 149.5q0 41 10 88q5 17 28 23h97q23 0 18 -23q-6 -28 -6 -50q0 -48 25.5 -68t65.5 -20q53 0 91 30t49 85q3 17 3 31q0 38 -26 58t-85 20q-14 0 -18.5 3.5z" />
    <glyph glyph-name="acute" unicode="&#xb4;" 
d="M602.5 1241q-9.5 -5 -22.5 -5h-94q-10 0 -20 7.5t-10 19.5q0 11 8 22l151 218q12 17 22 23.5t23 6.5h101q10 -1 16.5 -8t6.5 -17q0 -12 -8 -23l-151 -220q-13 -19 -22.5 -24z" />
    <glyph glyph-name="uni00B5" unicode="&#xb5;" horiz-adv-x="1260" 
d="M458 1221h99q32 0 32 -38q0 -12 -3 -29.5t-4 -22.5l-147 -691q-4 -19 -4 -41q0 -60 33.5 -109t88.5 -77.5t117 -28.5q70 0 146 36t133 97.5t72 132.5l156 731q7 40 53 40h99q36 0 36 -29q0 -3 -2 -13l-144 -678q-29 -138 -114.5 -253t-210 -182.5t-264.5 -67.5
q-95 0 -162 37.5t-97 103.5l-100 -469q-4 -17 -19 -28.5t-33 -11.5h-99q-36 0 -36 29q0 4 2 14l320 1506q9 42 52 42z" />
    <glyph glyph-name="paragraph" unicode="&#xb6;" horiz-adv-x="1340" 
d="M1543 1404q0 -6 -1 -9l-26 -122q-3 -14 -15.5 -23t-31.5 -9h-138l-257 -1211q-6 -30 -33 -30h-133q-24 0 -24 20q0 6 1 9l257 1212h-196l-257 -1212q-7 -29 -34 -29h-143q-12 0 -18.5 7.5t-3.5 21.5l130 615q-77 0 -155.5 32.5t-131 100t-52.5 166.5q0 38 9 81
q25 114 100.5 206t182.5 144t222 52h715q33 0 33 -22z" />
    <glyph glyph-name="periodcentered" unicode="&#xb7;" horiz-adv-x="436" 
d="M291.5 749q9.5 8 22.5 8h140q13 0 18.5 -6.5t5.5 -15.5q0 -6 -1 -8l-29 -138q-3 -13 -13 -21t-20 -8h-145q-9 0 -16.5 7t-4.5 21l30 139q3 14 12.5 22z" />
    <glyph glyph-name="cedilla" unicode="&#xb8;" horiz-adv-x="534" 
d="M210 28.5q34 9.5 64 9.5q43 0 43 -16q0 -8 -15 -20q-29 -19 -29 -39q0 -14 13.5 -27t41.5 -33q47 -33 72.5 -62.5t25.5 -74.5q0 -13 -3 -28q-31 -148 -307 -217q-8 -2 -11 -2q-13 0 -16 13l-14 82l-1 6q0 7 4.5 13.5t12.5 8.5q98 24 140.5 48t42.5 58q0 22 -17 40t-52 43
q-40 28 -61 51t-21 55q0 5 2 19q5 27 30 46q21 17 55 26.5z" />
    <glyph glyph-name="uni00B9" unicode="&#xb9;" horiz-adv-x="449" 
d="M602 1420q5 -7 3 -18l-156 -733q-6 -27 -32 -27h-94q-12 0 -17.5 7t-3.5 19l131 614l-78 -30q-4 -2 -11 -2q-8 0 -14 5.5t-6 13.5l16 78q3 15 7 22.5t17 12.5l107 40q15 5 29 5h86q11 0 16 -7z" />
    <glyph glyph-name="ordmasculine" unicode="&#xba;" horiz-adv-x="981" 
d="M426.5 1264.5q67.5 84.5 162 134t194.5 49.5q87 0 154.5 -38t105 -104.5t37.5 -148.5q0 -42 -8 -77q-22 -105 -90.5 -189t-163 -130.5t-191.5 -46.5q-87 0 -154.5 37.5t-105 103.5t-37.5 148q0 42 8 77q21 100 88.5 184.5zM465 1025q0 -52 22.5 -93t63.5 -64.5t94 -23.5
q65 0 127 31.5t107 85.5t59 118q6 27 6 53q0 52 -22 94t-63 66t-96 24q-63 0 -125.5 -32.5t-108 -87t-58.5 -117.5q-6 -28 -6 -54z" />
    <glyph glyph-name="guillemotright" unicode="&#xbb;" horiz-adv-x="1327" 
d="M891 495q-1 -4 -4 -7.5t-8 -6.5l-567 -468q-14 -12 -29 -12q-11 0 -16 8l-59 70q-6 8 -6 18q0 18 17 31l473 389l-330 412q-6 8 -6 18q0 18 16 31l67 54q8 7 18 7q15 0 25 -12l405 -509q8 -10 6 -18q-1 -1 -2 -5zM1280 489q-1 -4 -4 -7.5t-8 -6.5l-567 -468
q-14 -12 -29 -12q-11 0 -16 8l-59 70q-6 8 -6 18q0 18 17 31l473 389l-330 412q-6 8 -6 18q0 18 16 31l67 54q8 7 18 7q15 0 25 -12l405 -509q5 -6 6 -9t0 -9q-1 -1 -2 -5z" />
    <glyph glyph-name="onequarter" unicode="&#xbc;" horiz-adv-x="1442" 
d="M686 1420q5 -7 3 -18l-156 -733q-6 -27 -32 -27h-94q-12 0 -17.5 7t-3.5 19l131 614l-78 -30q-4 -2 -11 -2q-8 0 -14 5.5t-6 13.5l16 78q3 15 7 22.5t17 12.5l107 40q15 5 29 5h86q11 0 16 -7zM1288 1424h131q25 0 25 -17q0 -12 -10 -26l-925 -1362q-10 -12 -18.5 -15.5
t-18.5 -3.5h-130q-9 1 -14 6.5t-5 12.5q0 12 9 21l919 1365q12 19 37 19zM847 126q0 7 1 10q3 8 13 24l487 609q8 10 12.5 13t11.5 3h100q9 0 13.5 -8t2.5 -17l-108 -508h77q13 0 20 -6t5 -17l-21 -100q-2 -10 -13 -17.5t-23 -7.5h-77l-20 -95q-5 -23 -31 -23h-95
q-19 0 -19 15q0 5 1 8l20 95h-333q-24 0 -24 22zM1291 511l-205 -259h150z" />
    <glyph glyph-name="onehalf" unicode="&#xbd;" horiz-adv-x="1567" 
d="M686 1420q5 -7 3 -18l-156 -733q-6 -27 -32 -27h-94q-12 0 -17.5 7t-3.5 19l131 614l-78 -30q-4 -2 -11 -2q-8 0 -14 5.5t-6 13.5l16 78q3 15 7 22.5t17 12.5l107 40q15 5 29 5h86q11 0 16 -7zM1343 1424h131q25 0 25 -17q0 -12 -10 -26l-925 -1362q-10 -12 -18.5 -15.5
t-18.5 -3.5h-130q-9 1 -14 6.5t-5 12.5q0 12 9 21l919 1365q12 19 37 19zM1571 143q21 0 21 -17q0 -5 -1 -8l-19 -89q-4 -25 -30 -25h-486q-11 0 -17.5 7t-4.5 18l17 80q0 6 7 13l419 353q28 24 38.5 40.5t16.5 41.5q3 14 3 26q0 37 -24.5 61.5t-64.5 24.5q-32 0 -64.5 -17
t-56.5 -44.5t-30 -56.5l-9 -44q-6 -23 -29 -23h-97q-11 0 -15.5 7t-2.5 16l9 44q16 72 59.5 128.5t106.5 87.5t134 31q65 0 119.5 -23.5t87 -67t32.5 -101.5q0 -18 -5 -45q-12 -55 -43.5 -101.5t-74.5 -77.5l-288 -239h292z" />
    <glyph glyph-name="threequarters" unicode="&#xbe;" horiz-adv-x="1471" 
d="M526.5 987.5q-4.5 3.5 -2.5 11.5l22 103q5 24 29 24q44 0 67.5 23.5t30.5 56.5q4 20 4 33q0 53 -60 53q-41 0 -60.5 -24.5t-29.5 -67.5q-3 -13 -10.5 -19.5t-21.5 -6.5h-90q-24 0 -19 23q25 115 97 171t167 56q50 0 89 -22t61 -61t22 -87q0 -23 -4 -43q-18 -84 -80 -134
q67 -51 67 -137q0 -27 -8 -67q-16 -72 -61.5 -130.5t-110.5 -92t-136 -33.5q-90 0 -152 43.5t-62 149.5q0 41 10 88q5 17 28 23h97q23 0 18 -23q-6 -28 -6 -50q0 -48 25.5 -68t65.5 -20q53 0 91 30t49 85q3 17 3 31q0 38 -26 58t-85 20q-14 0 -18.5 3.5zM1355 1424h131
q25 0 25 -17q0 -12 -10 -26l-925 -1362q-10 -12 -18.5 -15.5t-18.5 -3.5h-130q-9 1 -14 6.5t-5 12.5q0 12 9 21l919 1365q12 19 37 19zM806 130q0 7 1 10q3 8 13 24l487 609q8 10 12.5 13t11.5 3h100q9 0 13.5 -8t2.5 -17l-108 -508h77q13 0 20 -6t5 -17l-21 -100
q-2 -10 -13 -17.5t-23 -7.5h-77l-20 -95q-5 -23 -31 -23h-95q-19 0 -19 15q0 5 1 8l20 95h-333q-24 0 -24 22zM1250 515l-205 -259h150z" />
    <glyph glyph-name="questiondown" unicode="&#xbf;" horiz-adv-x="1037" 
d="M865.5 1050q-9.5 -8 -21.5 -8h-138q-23 0 -23 20q0 6 1 9l27 124q3 14 13 20.5t20 6.5h138q10 0 17.5 -6.5t4.5 -20.5l-26 -123q-3 -14 -12.5 -22zM687 894l121 1q11 0 17.5 -7t6.5 -18q0 -10 -2 -16l-40 -192q-18 -80 -93.5 -143.5t-178.5 -122.5q-69 -38 -112.5 -73
t-73 -83t-43.5 -116q-6 -25 -6 -51q0 -53 24 -96t71 -67.5t113 -24.5q88 0 165.5 36t130.5 98.5t69 139.5q9 39 45 39h119q13 0 20 -8.5t4 -22.5q-29 -136 -112 -241t-201.5 -162.5t-251.5 -57.5q-111 0 -200.5 45.5t-140.5 124t-51 173.5q0 33 8 73q30 140 107.5 231
t206.5 163q86 48 139.5 97t67.5 119l26 121q10 41 45 41z" />
    <glyph glyph-name="Agrave" unicode="&#xc0;" horiz-adv-x="1411" 
d="M895 1840q0 14 8.5 24t20.5 10h94q32 0 38 -29l58 -223q2 -10 2 -15q0 -14 -8 -22t-19 -8h-88q-14 0 -23 6t-14 24l-67 220q-2 8 -2 13zM975 1426h90q27 0 32 -30l264 -1355q1 -4 1 -10q0 -15 -10 -23t-25 -8h-130q-26 0 -30 29l-51 273h-670l-166 -273
q-11 -16 -21 -22.5t-22 -6.5h-140q-25 0 -25 19q0 9 7 22l850 1355q20 30 46 30zM1082 486l-121 656l-405 -656h526z" />
    <glyph glyph-name="Aacute" unicode="&#xc1;" horiz-adv-x="1411" 
d="M1141.5 1558q-9.5 -5 -22.5 -5h-94q-10 0 -20 7.5t-10 19.5q0 11 8 22l151 218q12 17 22 23.5t23 6.5h101q10 -1 16.5 -8t6.5 -17q0 -12 -8 -23l-151 -220q-13 -19 -22.5 -24zM975 1426h90q27 0 32 -30l264 -1355q1 -4 1 -10q0 -15 -10 -23t-25 -8h-130q-26 0 -30 29
l-51 273h-670l-166 -273q-11 -16 -21 -22.5t-22 -6.5h-140q-25 0 -25 19q0 9 7 22l850 1355q20 30 46 30zM1082 486l-121 656l-405 -656h526z" />
    <glyph glyph-name="Acircumflex" unicode="&#xc2;" horiz-adv-x="1411" 
d="M1095 1882h1q10 0 21 -12l181 -232q9 -13 9 -18q0 -9 -16 -22l-46 -40q-14 -11 -22 -11q-9 0 -19 13l-128 165l-211 -174q-17 -15 -28 -15q-9 0 -16 9l-42 51q-6 8 -6 15q0 14 21 31l274 228q17 12 27 12zM975 1426h90q27 0 32 -30l264 -1355q1 -4 1 -10q0 -15 -10 -23
t-25 -8h-130q-26 0 -30 29l-51 273h-670l-166 -273q-11 -16 -21 -22.5t-22 -6.5h-140q-25 0 -25 19q0 9 7 22l850 1355q20 30 46 30zM1082 486l-121 656l-405 -656h526z" />
    <glyph glyph-name="Atilde" unicode="&#xc3;" horiz-adv-x="1411" 
d="M791 1569q-11 0 -20 11l-32 40q-10 11 -10 20q0 6 5 13t18 20q48 48 94 71t97 23q30 0 58 -12.5t66 -36.5q31 -20 52.5 -30t41.5 -10q26 0 47 14t50 42q21 21 38 21q11 0 21 -10l28 -37q6 -7 6 -16q0 -11 -14 -27q-50 -55 -96.5 -81.5t-99.5 -26.5q-31 0 -57.5 12.5
t-61.5 36.5q-35 22 -53.5 31t-39.5 9q-31 0 -54 -15t-54 -46q-17 -16 -30 -16zM975 1426h90q27 0 32 -30l264 -1355q1 -4 1 -10q0 -15 -10 -23t-25 -8h-130q-26 0 -30 29l-51 273h-670l-166 -273q-11 -16 -21 -22.5t-22 -6.5h-140q-25 0 -25 19q0 9 7 22l850 1355
q20 30 46 30zM1082 486l-121 656l-405 -656h526z" />
    <glyph glyph-name="Adieresis" unicode="&#xc4;" horiz-adv-x="1411" 
d="M856 1743h106q30 0 30 -27q0 -3 -2 -15l-22 -102q-5 -22 -16 -30.5t-29 -8.5h-105q-33 0 -33 27q0 7 1 11l22 105q9 40 48 40zM1236 1743h106q30 0 30 -27q0 -3 -2 -15l-22 -102q-5 -22 -16 -30.5t-29 -8.5h-105q-33 0 -33 27q0 7 1 11l22 105q9 40 48 40zM975 1426h90
q27 0 32 -30l264 -1355q1 -4 1 -10q0 -15 -10 -23t-25 -8h-130q-26 0 -30 29l-51 273h-670l-166 -273q-11 -16 -21 -22.5t-22 -6.5h-140q-25 0 -25 19q0 9 7 22l850 1355q20 30 46 30zM1082 486l-121 656l-405 -656h526z" />
    <glyph glyph-name="Aring" unicode="&#xc5;" horiz-adv-x="1411" 
d="M1187 1931q37 -21 58 -57t21 -81q0 -18 -5 -41q-12 -55 -48.5 -101t-88.5 -72.5t-107 -26.5q-47 0 -84 20.5t-57.5 56.5t-20.5 81q0 17 5 42q12 54 49 100t88 73t105 27q48 0 85 -21zM1006 1824.5q-35 -30.5 -43 -72.5q-3 -15 -3 -29q0 -34 19.5 -54.5t59.5 -20.5
q45 0 79 30t43 74q3 17 3 32q0 71 -82 71q-41 0 -76 -30.5zM975 1426h90q27 0 32 -30l264 -1355q1 -4 1 -10q0 -15 -10 -23t-25 -8h-130q-26 0 -30 29l-51 273h-670l-166 -273q-11 -16 -21 -22.5t-22 -6.5h-140q-25 0 -25 19q0 9 7 22l850 1355q20 30 46 30zM1082 486
l-121 656l-405 -656h526z" />
    <glyph glyph-name="AE" unicode="&#xc6;" horiz-adv-x="2231" 
d="M196 0h-135q-30 0 -30 15q0 12 13 26t13 15q852 824 1394 1357q16 13 43 13h924q35 0 35 -30q0 -4 -2 -16l-17 -77q-3 -19 -18 -31.5t-36 -12.5h-788l-102 -480h625q16 0 25 -8.5t9 -25.5q0 -7 -1 -11l-17 -78q-4 -19 -17.5 -31.5t-33.5 -12.5h-625l-95 -445h797
q35 0 35 -29q0 -4 -2 -16l-17 -80q-7 -42 -50 -42h-922q-35 0 -35 29q0 7 1 11l58 272h-682l-275 -274q-39 -38 -72 -38zM1259 475l144 677l-692 -677h548z" />
    <glyph glyph-name="Ccedilla" unicode="&#xc7;" horiz-adv-x="1365" 
d="M1546 1260q0 -12 -9 -21l-76 -85q-11 -11 -26 -11q-13 0 -24 10q-60 56 -135.5 83.5t-172.5 27.5q-146 0 -289 -73.5t-246 -199.5t-134 -277q-14 -68 -14 -127q0 -123 52.5 -219.5t152 -150.5t234.5 -54q171 0 351 118q18 13 32 13q13 0 20 -11l58 -97q5 -10 5 -16
q0 -18 -25 -35q-99 -69 -212.5 -109t-233.5 -44q-4 -6 -6 -14q-3 -16 9.5 -29t44.5 -36q47 -33 72.5 -62.5t25.5 -74.5q0 -13 -3 -28q-31 -148 -307 -217q-8 -2 -11 -2q-13 0 -16 13l-14 82l-1 6q0 7 4.5 13.5t12.5 8.5q98 24 140.5 48t42.5 58q0 22 -17 40t-52 43
q-40 28 -61 51t-21 55q0 5 2 19q3 20 18 35q-144 23 -254 102.5t-170 201t-60 268.5q0 75 16 151q43 200 177.5 367.5t324.5 265t390 97.5q123 0 217.5 -42t176.5 -118q11 -11 11 -24z" />
    <glyph glyph-name="Egrave" unicode="&#xc8;" horiz-adv-x="1233" 
d="M912 1827q0 14 8.5 24t20.5 10h94q32 0 38 -29l58 -223q2 -10 2 -15q0 -14 -8 -22t-19 -8h-88q-14 0 -23 6t-14 24l-67 220q-2 8 -2 13zM492 1427h940q30 0 30 -24q0 -6 -1 -9l-26 -120q-6 -34 -43 -34h-787l-84 -396h609q33 0 33 -25q0 -6 -1 -9l-25 -118
q-7 -33 -46 -33h-609l-100 -470h786q30 0 30 -24q0 -6 -1 -9l-26 -122q-7 -34 -43 -34h-939q-27 0 -27 23q0 7 1 11l289 1360q6 33 40 33z" />
    <glyph glyph-name="Eacute" unicode="&#xc9;" horiz-adv-x="1233" 
d="M1051.5 1567q-9.5 -5 -22.5 -5h-94q-10 0 -20 7.5t-10 19.5q0 11 8 22l151 218q12 17 22 23.5t23 6.5h101q10 -1 16.5 -8t6.5 -17q0 -12 -8 -23l-151 -220q-13 -19 -22.5 -24zM492 1427h940q30 0 30 -24q0 -6 -1 -9l-26 -120q-6 -34 -43 -34h-787l-84 -396h609
q33 0 33 -25q0 -6 -1 -9l-25 -118q-7 -33 -46 -33h-609l-100 -470h786q30 0 30 -24q0 -6 -1 -9l-26 -122q-7 -34 -43 -34h-939q-27 0 -27 23q0 7 1 11l289 1360q6 33 40 33z" />
    <glyph glyph-name="Ecircumflex" unicode="&#xca;" horiz-adv-x="1233" 
d="M1060 1905h1q10 0 21 -12l181 -232q9 -13 9 -18q0 -9 -16 -22l-46 -40q-14 -11 -22 -11q-9 0 -19 13l-128 165l-211 -174q-17 -15 -28 -15q-9 0 -16 9l-42 51q-6 8 -6 15q0 14 21 31l274 228q17 12 27 12zM492 1427h940q30 0 30 -24q0 -6 -1 -9l-26 -120q-6 -34 -43 -34
h-787l-84 -396h609q33 0 33 -25q0 -6 -1 -9l-25 -118q-7 -33 -46 -33h-609l-100 -470h786q30 0 30 -24q0 -6 -1 -9l-26 -122q-7 -34 -43 -34h-939q-27 0 -27 23q0 7 1 11l289 1360q6 33 40 33z" />
    <glyph glyph-name="Edieresis" unicode="&#xcb;" horiz-adv-x="1233" 
d="M809 1765h106q30 0 30 -27q0 -3 -2 -15l-22 -102q-5 -22 -16 -30.5t-29 -8.5h-105q-33 0 -33 27q0 7 1 11l22 105q9 40 48 40zM1189 1765h106q30 0 30 -27q0 -3 -2 -15l-22 -102q-5 -22 -16 -30.5t-29 -8.5h-105q-33 0 -33 27q0 7 1 11l22 105q9 40 48 40zM492 1427h940
q30 0 30 -24q0 -6 -1 -9l-26 -120q-6 -34 -43 -34h-787l-84 -396h609q33 0 33 -25q0 -6 -1 -9l-25 -118q-7 -33 -46 -33h-609l-100 -470h786q30 0 30 -24q0 -6 -1 -9l-26 -122q-7 -34 -43 -34h-939q-27 0 -27 23q0 7 1 11l289 1360q6 33 40 33z" />
    <glyph glyph-name="Igrave" unicode="&#xcc;" 
d="M430 1818q0 14 8.5 24t20.5 10h94q32 0 38 -29l58 -223q2 -10 2 -15q0 -14 -8 -22t-19 -8h-88q-14 0 -23 6t-14 24l-67 220q-2 8 -2 13zM463.5 1417.5q10.5 9.5 26.5 9.5h120q27 0 27 -23q0 -3 -2 -13l-288 -1354q-7 -37 -40 -37h-120q-27 0 -27 24q0 8 1 13l288 1354
q4 17 14.5 26.5z" />
    <glyph glyph-name="Iacute" unicode="&#xcd;" 
d="M665.5 1566q-9.5 -5 -22.5 -5h-94q-10 0 -20 7.5t-10 19.5q0 11 8 22l151 218q12 17 22 23.5t23 6.5h101q10 -1 16.5 -8t6.5 -17q0 -12 -8 -23l-151 -220q-13 -19 -22.5 -24zM463.5 1417.5q10.5 9.5 26.5 9.5h120q27 0 27 -23q0 -3 -2 -13l-288 -1354q-7 -37 -40 -37
h-120q-27 0 -27 24q0 8 1 13l288 1354q4 17 14.5 26.5z" />
    <glyph glyph-name="Icircumflex" unicode="&#xce;" 
d="M653 1900h1q10 0 21 -12l181 -232q9 -13 9 -18q0 -9 -16 -22l-46 -40q-14 -11 -22 -11q-9 0 -19 13l-128 165l-211 -174q-17 -15 -28 -15q-8 0 -16 9l-42 51q-6 8 -6 15q0 14 21 31l274 228q17 12 27 12zM463.5 1417.5q10.5 9.5 26.5 9.5h120q27 0 27 -23q0 -3 -2 -13
l-288 -1354q-7 -37 -40 -37h-120q-27 0 -27 24q0 8 1 13l288 1354q4 17 14.5 26.5z" />
    <glyph glyph-name="Idieresis" unicode="&#xcf;" 
d="M388 1762h106q30 0 30 -27q0 -3 -2 -15l-22 -102q-5 -22 -16 -30.5t-29 -8.5h-105q-33 0 -33 27q0 7 1 11l22 105q9 40 48 40zM768 1762h106q30 0 30 -27q0 -3 -2 -15l-22 -102q-5 -22 -16 -30.5t-29 -8.5h-105q-33 0 -33 27q0 7 1 11l22 105q9 40 48 40zM463.5 1417.5
q10.5 9.5 26.5 9.5h120q27 0 27 -23q0 -3 -2 -13l-288 -1354q-7 -37 -40 -37h-120q-27 0 -27 24q0 8 1 13l288 1354q4 17 14.5 26.5z" />
    <glyph glyph-name="Eth" unicode="&#xd0;" horiz-adv-x="1401" 
d="M201 780.5q12 9.5 27 9.5h95l129 603q6 30 37 35h467q169 0 299.5 -72.5t202 -201t71.5 -289.5q0 -77 -16 -154q-41 -197 -171 -360t-314.5 -257t-381.5 -94h-455q-35 0 -30 28l126 589h-95q-13 0 -21.5 6.5t-8.5 18.5q0 6 1 9l22 103q4 17 16 26.5zM931 251.5
q148 63.5 259 182.5t143 277q13 64 13 124q0 135 -62 230.5t-163.5 144t-217.5 48.5h-303l-93 -468h130q27 0 27 -25q0 -6 -1 -10l-22 -105q-3 -14 -15 -23.5t-28 -9.5h-127l-92 -429h264q140 0 288 63.5z" />
    <glyph glyph-name="Ntilde" unicode="&#xd1;" horiz-adv-x="1516" 
d="M892 1567q-11 0 -20 11l-32 40q-10 11 -10 20q0 6 5 13t18 20q48 48 94 71t97 23q30 0 58 -12.5t66 -36.5q31 -20 52.5 -30t41.5 -10q26 0 47 14t50 42q21 21 38 21q11 0 21 -10l28 -37q6 -7 6 -16q0 -11 -14 -27q-50 -55 -96.5 -81.5t-99.5 -26.5q-31 0 -57.5 12.5
t-61.5 36.5q-35 22 -53.5 31t-39.5 9q-31 0 -54 -15t-54 -46q-17 -16 -30 -16zM341 37q-7 -37 -42 -37h-111q-28 0 -28 25q0 8 1 12l288 1355q3 14 14.5 24t27.5 10h114q22 0 39 -29l597 -1105l234 1100q3 15 14.5 24.5t28.5 9.5h111q12 0 20 -6.5t8 -18.5q0 -6 -1 -9
l-288 -1355q-7 -37 -42 -37h-120q-13 0 -23 6t-18 22l-587 1122z" />
    <glyph glyph-name="Ograve" unicode="&#xd2;" horiz-adv-x="1688" 
d="M1058 1825q0 14 8.5 24t20.5 10h94q32 0 38 -29l58 -223q2 -10 2 -15q0 -14 -8 -22t-19 -8h-88q-14 0 -23 6t-14 24l-67 220q-2 8 -2 13zM436 1079.5q135 168.5 325 267t389 98.5q173 0 307 -75t208 -207t74 -296q0 -73 -17 -155q-43 -200 -175.5 -367t-320 -264.5
t-387.5 -97.5q-173 0 -308.5 74.5t-211.5 205.5t-76 295q0 72 17 154q41 199 176 367.5zM433 584q0 -122 51 -217.5t147 -149.5t226 -54q152 0 296.5 73.5t247.5 199.5t134 276q15 69 15 132q0 122 -50.5 217t-145.5 149t-223 54q-162 0 -307 -73.5t-244.5 -199.5
t-132.5 -279q-14 -68 -14 -128z" />
    <glyph glyph-name="Oacute" unicode="&#xd3;" horiz-adv-x="1688" 
d="M1254.5 1574q-9.5 -5 -22.5 -5h-94q-10 0 -20 7.5t-10 19.5q0 11 8 22l151 218q12 17 22 23.5t23 6.5h101q10 -1 16.5 -8t6.5 -17q0 -12 -8 -23l-151 -220q-13 -19 -22.5 -24zM436 1079.5q135 168.5 325 267t389 98.5q173 0 307 -75t208 -207t74 -296q0 -73 -17 -155
q-43 -200 -175.5 -367t-320 -264.5t-387.5 -97.5q-173 0 -308.5 74.5t-211.5 205.5t-76 295q0 72 17 154q41 199 176 367.5zM433 584q0 -122 51 -217.5t147 -149.5t226 -54q152 0 296.5 73.5t247.5 199.5t134 276q15 69 15 132q0 122 -50.5 217t-145.5 149t-223 54
q-162 0 -307 -73.5t-244.5 -199.5t-132.5 -279q-14 -68 -14 -128z" />
    <glyph glyph-name="Ocircumflex" unicode="&#xd4;" horiz-adv-x="1688" 
d="M1275 1895h1q10 0 21 -12l181 -232q9 -13 9 -18q0 -9 -16 -22l-46 -40q-14 -11 -22 -11q-9 0 -19 13l-128 165l-211 -174q-17 -15 -28 -15q-9 0 -16 9l-42 51q-6 8 -6 15q0 14 21 31l274 228q17 12 27 12zM436 1079.5q135 168.5 325 267t389 98.5q173 0 307 -75t208 -207
t74 -296q0 -73 -17 -155q-43 -200 -175.5 -367t-320 -264.5t-387.5 -97.5q-173 0 -308.5 74.5t-211.5 205.5t-76 295q0 72 17 154q41 199 176 367.5zM433 584q0 -122 51 -217.5t147 -149.5t226 -54q152 0 296.5 73.5t247.5 199.5t134 276q15 69 15 132q0 122 -50.5 217
t-145.5 149t-223 54q-162 0 -307 -73.5t-244.5 -199.5t-132.5 -279q-14 -68 -14 -128z" />
    <glyph glyph-name="Otilde" unicode="&#xd5;" horiz-adv-x="1688" 
d="M965 1584q-11 0 -20 11l-32 40q-10 11 -10 20q0 6 5 13t18 20q48 48 94 71t97 23q30 0 58 -12.5t66 -36.5q31 -20 52.5 -30t41.5 -10q26 0 47 14t50 42q21 21 38 21q11 0 21 -10l28 -37q6 -7 6 -16q0 -11 -14 -27q-50 -55 -96.5 -81.5t-99.5 -26.5q-31 0 -57.5 12.5
t-61.5 36.5q-35 22 -53.5 31t-39.5 9q-31 0 -54 -15t-54 -46q-17 -16 -30 -16zM436 1079.5q135 168.5 325 267t389 98.5q173 0 307 -75t208 -207t74 -296q0 -73 -17 -155q-43 -200 -175.5 -367t-320 -264.5t-387.5 -97.5q-173 0 -308.5 74.5t-211.5 205.5t-76 295
q0 72 17 154q41 199 176 367.5zM433 584q0 -122 51 -217.5t147 -149.5t226 -54q152 0 296.5 73.5t247.5 199.5t134 276q15 69 15 132q0 122 -50.5 217t-145.5 149t-223 54q-162 0 -307 -73.5t-244.5 -199.5t-132.5 -279q-14 -68 -14 -128z" />
    <glyph glyph-name="Odieresis" unicode="&#xd6;" horiz-adv-x="1688" 
d="M958 1751h106q30 0 30 -27q0 -3 -2 -15l-22 -102q-5 -22 -16 -30.5t-29 -8.5h-105q-33 0 -33 27q0 7 1 11l22 105q9 40 48 40zM1338 1751h106q30 0 30 -27q0 -3 -2 -15l-22 -102q-5 -22 -16 -30.5t-29 -8.5h-105q-33 0 -33 27q0 7 1 11l22 105q9 40 48 40zM436 1079.5
q135 168.5 325 267t389 98.5q173 0 307 -75t208 -207t74 -296q0 -73 -17 -155q-43 -200 -175.5 -367t-320 -264.5t-387.5 -97.5q-173 0 -308.5 74.5t-211.5 205.5t-76 295q0 72 17 154q41 199 176 367.5zM433 584q0 -122 51 -217.5t147 -149.5t226 -54q152 0 296.5 73.5
t247.5 199.5t134 276q15 69 15 132q0 122 -50.5 217t-145.5 149t-223 54q-162 0 -307 -73.5t-244.5 -199.5t-132.5 -279q-14 -68 -14 -128z" />
    <glyph glyph-name="multiply" unicode="&#xd7;" horiz-adv-x="895" 
d="M240 406q0 14 17 28l224 185l-143 183q-7 9 -7 18q0 13 14 24l78 64q11 9 22 9q12 0 20 -11l143 -182l228 188q12 9 23 9q10 0 18 -9l55 -71q5 -7 5 -13q0 -14 -14 -28l-227 -187l145 -185q6 -7 6 -16q0 -13 -14 -25l-79 -64q-10 -8 -20 -8q-12 0 -20 9l-146 184
l-225 -185q-13 -11 -25 -11q-9 0 -17 9l-55 70q-6 8 -6 15z" />
    <glyph glyph-name="Oslash" unicode="&#xd8;" horiz-adv-x="1688" 
d="M436 1079.5q135 168.5 325 267t389 98.5q102 0 191 -27l57 91q19 31 48 31h133q11 0 18.5 -5.5t7.5 -15.5t-8 -22l-99 -153q114 -79 177 -202.5t63 -275.5q0 -77 -16 -154q-43 -200 -175.5 -367t-320 -264.5t-387.5 -97.5q-98 0 -190 26l-64 -107q-21 -30 -49 -30h-133
q-26 0 -26 18q0 11 8 23l108 167q-118 78 -184 202t-66 276q0 72 17 154q41 199 176 367.5zM434 593q0 -123 55 -221t155.5 -153.5t232.5 -55.5q151 0 290.5 73t237.5 199t130 277q13 61 13 123q0 123 -54 220.5t-153.5 153t-229.5 55.5q-151 0 -292 -73.5t-240 -200
t-132 -278.5q-13 -59 -13 -119z" />
    <glyph glyph-name="Ugrave" unicode="&#xd9;" horiz-adv-x="1444" 
d="M950 1814q0 14 8.5 24t20.5 10h94q32 0 38 -29l58 -223q2 -10 2 -15q0 -14 -8 -22t-19 -8h-88q-14 0 -23 6t-14 24l-67 220q-2 8 -2 13zM430 468q0 -94 39 -164.5t110.5 -108.5t165.5 -38q112 0 217.5 54t181 149t101.5 214l173 817q3 16 14 26t28 10h117q14 0 21 -7.5
t7 -19.5q0 -6 -1 -9l-176 -830q-39 -181 -143 -313t-250 -201.5t-308 -69.5q-141 0 -252 53t-174 154t-63 240q0 69 16 142l175 826q4 15 14.5 25t25.5 10h122q26 0 26 -22q0 -3 -2 -13l-173 -818q-12 -55 -12 -106z" />
    <glyph glyph-name="Uacute" unicode="&#xda;" horiz-adv-x="1444" 
d="M1128.5 1570q-9.5 -5 -22.5 -5h-94q-10 0 -20 7.5t-10 19.5q0 11 8 22l151 218q12 17 22 23.5t23 6.5h101q10 -1 16.5 -8t6.5 -17q0 -12 -8 -23l-151 -220q-13 -19 -22.5 -24zM430 468q0 -94 39 -164.5t110.5 -108.5t165.5 -38q112 0 217.5 54t181 149t101.5 214l173 817
q3 16 14 26t28 10h117q14 0 21 -7.5t7 -19.5q0 -6 -1 -9l-176 -830q-39 -181 -143 -313t-250 -201.5t-308 -69.5q-141 0 -252 53t-174 154t-63 240q0 69 16 142l175 826q4 15 14.5 25t25.5 10h122q26 0 26 -22q0 -3 -2 -13l-173 -818q-12 -55 -12 -106z" />
    <glyph glyph-name="Ucircumflex" unicode="&#xdb;" horiz-adv-x="1444" 
d="M1146 1901h1q10 0 21 -12l181 -232q9 -13 9 -18q0 -9 -16 -22l-46 -40q-14 -11 -22 -11q-9 0 -19 13l-128 165l-211 -174q-17 -15 -28 -15q-9 0 -16 9l-42 51q-6 8 -6 15q0 14 21 31l274 228q17 12 27 12zM430 468q0 -94 39 -164.5t110.5 -108.5t165.5 -38
q112 0 217.5 54t181 149t101.5 214l173 817q3 16 14 26t28 10h117q14 0 21 -7.5t7 -19.5q0 -6 -1 -9l-176 -830q-39 -181 -143 -313t-250 -201.5t-308 -69.5q-141 0 -252 53t-174 154t-63 240q0 69 16 142l175 826q4 15 14.5 25t25.5 10h122q26 0 26 -22q0 -3 -2 -13
l-173 -818q-12 -55 -12 -106z" />
    <glyph glyph-name="Udieresis" unicode="&#xdc;" horiz-adv-x="1444" 
d="M865 1753h106q30 0 30 -27q0 -3 -2 -15l-22 -102q-5 -22 -16 -30.5t-29 -8.5h-105q-33 0 -33 27q0 7 1 11l22 105q9 40 48 40zM1245 1753h106q30 0 30 -27q0 -3 -2 -15l-22 -102q-5 -22 -16 -30.5t-29 -8.5h-105q-33 0 -33 27q0 7 1 11l22 105q9 40 48 40zM430 468
q0 -94 39 -164.5t110.5 -108.5t165.5 -38q112 0 217.5 54t181 149t101.5 214l173 817q3 16 14 26t28 10h117q14 0 21 -7.5t7 -19.5q0 -6 -1 -9l-176 -830q-39 -181 -143 -313t-250 -201.5t-308 -69.5q-141 0 -252 53t-174 154t-63 240q0 69 16 142l175 826q4 15 14.5 25
t25.5 10h122q26 0 26 -22q0 -3 -2 -13l-173 -818q-12 -55 -12 -106z" />
    <glyph glyph-name="Yacute" unicode="&#xdd;" horiz-adv-x="1200" 
d="M1056.5 1561q-9.5 -5 -22.5 -5h-94q-10 0 -20 7.5t-10 19.5q0 11 8 22l151 218q12 17 22 23.5t23 6.5h101q10 -1 16.5 -8t6.5 -17q0 -12 -8 -23l-151 -220q-13 -19 -22.5 -24zM321 1385q-3 8 -3 13q0 13 10.5 21t23.5 8h134q11 0 18 -6t13 -21l229 -613l483 613
q12 15 21 21t21 6h158q10 0 16.5 -5.5t6.5 -14.5q0 -12 -10 -23l-630 -781l-121 -566q-7 -37 -40 -37h-120q-27 0 -27 26q0 7 1 11l120 563z" />
    <glyph glyph-name="Thorn" unicode="&#xde;" horiz-adv-x="1248" 
d="M476.5 1417.5q10.5 8.5 26.5 8.5h120q26 0 26 -23q0 -7 -1 -11l-44 -211h360q107 0 189 -48t127 -130.5t45 -182.5q0 -47 -10 -93q-26 -119 -105.5 -222.5t-193.5 -165.5t-238 -62h-367l-51 -241q-7 -36 -41 -36h-119q-27 0 -27 24q0 7 1 12l288 1356q4 17 14.5 25.5z
M445 436h331q73 0 150 40t134 107t74 145q9 42 9 80q0 96 -56 155t-166 59h-351z" />
    <glyph glyph-name="germandbls" unicode="&#xdf;" horiz-adv-x="1102" 
d="M220 -365h-99q-37 0 -37 29v4q0 5 1 9l298 1404q23 109 88 187.5t155 119t187 40.5q87 0 157 -43t109 -113.5t39 -150.5q0 -35 -7 -66q-18 -86 -55.5 -146.5t-102.5 -104.5q151 -94 151 -273q0 -50 -12 -109q-28 -128 -110 -229t-200.5 -157.5t-250.5 -56.5q-17 0 -25 8
t-8 20q0 6 1 9l19 90q10 52 57 52q79 0 149 32.5t118 93t65 140.5q8 40 8 71q0 97 -65 147.5t-182 50.5q-37 0 -37 28q0 7 1 11l21 100q10 43 51 43q57 0 108.5 24.5t87 67t45.5 93.5q4 19 4 41q0 68 -45.5 112t-131.5 44q-81 0 -133.5 -47t-67.5 -122l-300 -1411
q-9 -42 -51 -42z" />
    <glyph glyph-name="agrave" unicode="&#xe0;" horiz-adv-x="1478" 
d="M933 1639q0 14 8.5 24t20.5 10h94q32 0 38 -29l58 -223q2 -10 2 -15q0 -14 -8 -22t-19 -8h-88q-14 0 -23 6t-14 24l-67 220q-2 8 -2 13zM1313 0h-115q-32 0 -32 30q0 5 2 17l25 116q-52 -52 -130.5 -93.5t-169.5 -65.5t-176 -24q-136 0 -251.5 67.5t-183.5 186t-68 263.5
q0 64 13 126q35 169 151.5 310.5t278.5 223t328 81.5q141 0 239 -49t160 -129l27 130q9 37 41 37h121q26 0 26 -24q0 -8 -1 -13l-245 -1153q-7 -37 -40 -37zM1310 715q0 101 -41.5 180.5t-118 124.5t-176.5 45q-116 0 -237 -61t-211 -166.5t-117 -231.5q-12 -57 -12 -110
q0 -100 41 -177.5t118.5 -121t183.5 -43.5q112 0 232.5 61t210.5 165.5t115 225.5q12 57 12 109z" />
    <glyph glyph-name="aacute" unicode="&#xe1;" horiz-adv-x="1478" 
d="M1143.5 1409q-9.5 -5 -22.5 -5h-94q-10 0 -20 7.5t-10 19.5q0 11 8 22l151 218q12 17 22 23.5t23 6.5h101q10 -1 16.5 -8t6.5 -17q0 -12 -8 -23l-151 -220q-13 -19 -22.5 -24zM1313 0h-115q-32 0 -32 30q0 5 2 17l25 116q-52 -52 -130.5 -93.5t-169.5 -65.5t-176 -24
q-136 0 -251.5 67.5t-183.5 186t-68 263.5q0 64 13 126q35 169 151.5 310.5t278.5 223t328 81.5q141 0 239 -49t160 -129l27 130q9 37 41 37h121q26 0 26 -24q0 -8 -1 -13l-245 -1153q-7 -37 -40 -37zM1310 715q0 101 -41.5 180.5t-118 124.5t-176.5 45q-116 0 -237 -61
t-211 -166.5t-117 -231.5q-12 -57 -12 -110q0 -100 41 -177.5t118.5 -121t183.5 -43.5q112 0 232.5 61t210.5 165.5t115 225.5q12 57 12 109z" />
    <glyph glyph-name="acircumflex" unicode="&#xe2;" horiz-adv-x="1478" 
d="M1104 1713h1q10 0 21 -12l181 -232q9 -13 9 -18q0 -9 -16 -22l-46 -40q-14 -11 -22 -11q-9 0 -19 13l-128 165l-211 -174q-17 -15 -28 -15q-8 0 -16 9l-42 51q-6 8 -6 15q0 14 21 31l274 228q17 12 27 12zM1313 0h-115q-32 0 -32 30q0 5 2 17l25 116
q-52 -52 -130.5 -93.5t-169.5 -65.5t-176 -24q-136 0 -251.5 67.5t-183.5 186t-68 263.5q0 64 13 126q35 169 151.5 310.5t278.5 223t328 81.5q141 0 239 -49t160 -129l27 130q9 37 41 37h121q26 0 26 -24q0 -8 -1 -13l-245 -1153q-7 -37 -40 -37zM1310 715
q0 101 -41.5 180.5t-118 124.5t-176.5 45q-116 0 -237 -61t-211 -166.5t-117 -231.5q-12 -57 -12 -110q0 -100 41 -177.5t118.5 -121t183.5 -43.5q112 0 232.5 61t210.5 165.5t115 225.5q12 57 12 109z" />
    <glyph glyph-name="atilde" unicode="&#xe3;" horiz-adv-x="1478" 
d="M821 1406q-11 0 -20 11l-32 40q-10 11 -10 20q0 6 5 13t18 20q48 48 94 71t97 23q30 0 58 -12.5t66 -36.5q31 -20 52.5 -30t41.5 -10q26 0 47 14t50 42q21 21 38 21q11 0 21 -10l28 -37q6 -7 6 -16q0 -11 -14 -27q-50 -55 -96.5 -81.5t-99.5 -26.5q-31 0 -57.5 12.5
t-61.5 36.5q-35 22 -53.5 31t-39.5 9q-31 0 -54 -15t-54 -46q-17 -16 -30 -16zM1313 0h-115q-32 0 -32 30q0 5 2 17l25 116q-52 -52 -130.5 -93.5t-169.5 -65.5t-176 -24q-136 0 -251.5 67.5t-183.5 186t-68 263.5q0 64 13 126q35 169 151.5 310.5t278.5 223t328 81.5
q141 0 239 -49t160 -129l27 130q9 37 41 37h121q26 0 26 -24q0 -8 -1 -13l-245 -1153q-7 -37 -40 -37zM1310 715q0 101 -41.5 180.5t-118 124.5t-176.5 45q-116 0 -237 -61t-211 -166.5t-117 -231.5q-12 -57 -12 -110q0 -100 41 -177.5t118.5 -121t183.5 -43.5
q112 0 232.5 61t210.5 165.5t115 225.5q12 57 12 109z" />
    <glyph glyph-name="adieresis" unicode="&#xe4;" horiz-adv-x="1478" 
d="M827 1559h106q30 0 30 -27q0 -3 -2 -15l-22 -102q-5 -22 -16 -30.5t-29 -8.5h-105q-33 0 -33 27q0 7 1 11l22 105q9 40 48 40zM1207 1559h106q30 0 30 -27q0 -3 -2 -15l-22 -102q-5 -22 -16 -30.5t-29 -8.5h-105q-33 0 -33 27q0 7 1 11l22 105q9 40 48 40zM1313 0h-115
q-32 0 -32 30q0 5 2 17l25 116q-52 -52 -130.5 -93.5t-169.5 -65.5t-176 -24q-136 0 -251.5 67.5t-183.5 186t-68 263.5q0 64 13 126q35 169 151.5 310.5t278.5 223t328 81.5q141 0 239 -49t160 -129l27 130q9 37 41 37h121q26 0 26 -24q0 -8 -1 -13l-245 -1153
q-7 -37 -40 -37zM1310 715q0 101 -41.5 180.5t-118 124.5t-176.5 45q-116 0 -237 -61t-211 -166.5t-117 -231.5q-12 -57 -12 -110q0 -100 41 -177.5t118.5 -121t183.5 -43.5q112 0 232.5 61t210.5 165.5t115 225.5q12 57 12 109z" />
    <glyph glyph-name="aring" unicode="&#xe5;" horiz-adv-x="1478" 
d="M1203 1741q37 -21 58 -57t21 -81q0 -18 -5 -41q-12 -55 -48.5 -101t-88.5 -72.5t-107 -26.5q-47 0 -84 20.5t-57.5 56.5t-20.5 81q0 17 5 42q12 54 49 100t88 73t105 27q48 0 85 -21zM1022 1634.5q-35 -30.5 -43 -72.5q-3 -15 -3 -29q0 -34 19.5 -54.5t59.5 -20.5
q45 0 79 30t43 74q3 17 3 32q0 71 -82 71q-41 0 -76 -30.5zM1313 0h-115q-32 0 -32 30q0 5 2 17l25 116q-52 -52 -130.5 -93.5t-169.5 -65.5t-176 -24q-136 0 -251.5 67.5t-183.5 186t-68 263.5q0 64 13 126q35 169 151.5 310.5t278.5 223t328 81.5q141 0 239 -49t160 -129
l27 130q9 37 41 37h121q26 0 26 -24q0 -8 -1 -13l-245 -1153q-7 -37 -40 -37zM1310 715q0 101 -41.5 180.5t-118 124.5t-176.5 45q-116 0 -237 -61t-211 -166.5t-117 -231.5q-12 -57 -12 -110q0 -100 41 -177.5t118.5 -121t183.5 -43.5q112 0 232.5 61t210.5 165.5
t115 225.5q12 57 12 109z" />
    <glyph glyph-name="ae" unicode="&#xe6;" horiz-adv-x="2457" 
d="M2311 1176.5q113 -62.5 173 -174.5t60 -258q0 -78 -18 -164q-7 -34 -19 -49t-37 -15h-1012q0 -101 41.5 -183t117 -129t172.5 -47t178.5 31.5t156.5 85.5q27 21 44 21q16 0 24 -17l53 -78q5 -9 5 -19q0 -15 -12 -28.5t-35 -29.5q-103 -70 -207.5 -107.5t-220.5 -37.5
q-127 0 -229.5 50.5t-168.5 140.5l-27 -127q-4 -18 -18 -30t-32 -12h-100q-17 0 -27 9.5t-10 24.5l1 8l26 120q-103 -87 -222.5 -134t-245.5 -47q-146 0 -262.5 65.5t-182 180t-65.5 254.5q0 64 15 131q35 170 151.5 315t279.5 230t332 85q125 0 224.5 -47.5t166.5 -133.5
l26 124q9 42 51 42h99q36 0 38 -29q0 -3 -2 -13l-27 -126q102 85 224 132.5t253 47.5q155 0 268 -62.5zM978 220.5q119 63.5 205 168.5t112 223q11 55 11 101q0 98 -40.5 178t-116.5 126t-177 46q-118 0 -236.5 -62.5t-204 -166.5t-109.5 -222q-11 -53 -11 -101
q0 -99 40 -179.5t114.5 -127.5t174.5 -47q119 0 238 63.5zM2369 740q0 94 -43 166t-120 111t-175 39q-106 0 -209.5 -43.5t-188 -124t-134.5 -185.5h868q2 24 2 37z" />
    <glyph glyph-name="ccedilla" unicode="&#xe7;" horiz-adv-x="1210" 
d="M1339 1056q0 -11 -9 -22l-75 -77q-11 -11 -26 -11q-10 0 -18 8q-57 61 -121 84.5t-147 23.5q-120 -2 -238 -59.5t-204 -161t-113 -233.5q-13 -56 -13 -113q0 -100 41 -176.5t118.5 -119t181.5 -42.5q95 0 174.5 36t167.5 97q12 9 27 9q14 0 18 -10l61 -96q4 -8 4 -17
q0 -19 -22 -34q-100 -71 -202.5 -116t-217.5 -50q-7 -9 -9 -19q-3 -16 9.5 -29t44.5 -36q47 -33 72.5 -62.5t25.5 -74.5q0 -13 -3 -28q-31 -148 -307 -217q-8 -2 -11 -2q-13 0 -16 13l-14 82l-1 6q0 7 4.5 13.5t12.5 8.5q98 24 140.5 48t42.5 58q0 22 -17 40t-52 43
q-40 28 -61 51t-21 55q0 5 2 19q6 25 22 40q-120 22 -212 89.5t-142.5 171t-50.5 227.5q0 66 15 136q38 175 155 319t278.5 227t325.5 83q111 0 205 -43.5t167 -118.5q8 -9 8 -20z" />
    <glyph glyph-name="egrave" unicode="&#xe8;" horiz-adv-x="1453" 
d="M932 1628q0 14 8.5 24t20.5 10h94q32 0 38 -29l58 -223q2 -10 2 -15q0 -14 -8 -22t-19 -8h-88q-14 0 -23 6t-14 24l-67 220q-2 8 -2 13zM445.5 316.5q41.5 -80.5 116.5 -120t170 -39.5q84 0 152 20t113 45.5t108 67.5q14 10 28 10q13 0 17 -10l50 -93q5 -10 5 -18
q0 -17 -19 -32q-117 -85 -228 -127t-239 -42q-146 0 -262 65.5t-181 179.5t-65 255q0 64 13 126q36 171 149 316.5t274 231t334 85.5q172 0 289 -65.5t174.5 -177t57.5 -250.5q0 -78 -18 -161q-9 -41 -28 -54.5t-51 -13.5h-996q-5 -118 36.5 -198.5zM751 1009.5
q-101 -45.5 -179.5 -125.5t-120.5 -181h862q1 11 1 32q0 94 -43.5 166.5t-124 113t-188.5 40.5q-106 0 -207 -45.5z" />
    <glyph glyph-name="eacute" unicode="&#xe9;" horiz-adv-x="1453" 
d="M1134.5 1376q-9.5 -5 -22.5 -5h-94q-10 0 -20 7.5t-10 19.5q0 11 8 22l151 218q12 17 22 23.5t23 6.5h101q10 -1 16.5 -8t6.5 -17q0 -12 -8 -23l-151 -220q-13 -19 -22.5 -24zM445.5 316.5q41.5 -80.5 116.5 -120t170 -39.5q84 0 152 20t113 45.5t108 67.5q14 10 28 10
q13 0 17 -10l50 -93q5 -10 5 -18q0 -17 -19 -32q-117 -85 -228 -127t-239 -42q-146 0 -262 65.5t-181 179.5t-65 255q0 64 13 126q36 171 149 316.5t274 231t334 85.5q172 0 289 -65.5t174.5 -177t57.5 -250.5q0 -78 -18 -161q-9 -41 -28 -54.5t-51 -13.5h-996
q-5 -118 36.5 -198.5zM751 1009.5q-101 -45.5 -179.5 -125.5t-120.5 -181h862q1 11 1 32q0 94 -43.5 166.5t-124 113t-188.5 40.5q-106 0 -207 -45.5z" />
    <glyph glyph-name="ecircumflex" unicode="&#xea;" horiz-adv-x="1453" 
d="M1119 1699h1q10 0 21 -12l181 -232q9 -13 9 -18q0 -9 -16 -22l-46 -40q-14 -11 -22 -11q-9 0 -19 13l-128 165l-211 -174q-17 -15 -28 -15q-8 0 -16 9l-42 51q-6 8 -6 15q0 14 21 31l274 228q17 12 27 12zM445.5 316.5q41.5 -80.5 116.5 -120t170 -39.5q84 0 152 20
t113 45.5t108 67.5q14 10 28 10q13 0 17 -10l50 -93q5 -10 5 -18q0 -17 -19 -32q-117 -85 -228 -127t-239 -42q-146 0 -262 65.5t-181 179.5t-65 255q0 64 13 126q36 171 149 316.5t274 231t334 85.5q172 0 289 -65.5t174.5 -177t57.5 -250.5q0 -78 -18 -161
q-9 -41 -28 -54.5t-51 -13.5h-996q-5 -118 36.5 -198.5zM751 1009.5q-101 -45.5 -179.5 -125.5t-120.5 -181h862q1 11 1 32q0 94 -43.5 166.5t-124 113t-188.5 40.5q-106 0 -207 -45.5z" />
    <glyph glyph-name="edieresis" unicode="&#xeb;" horiz-adv-x="1453" 
d="M832 1541h106q30 0 30 -27q0 -3 -2 -15l-22 -102q-5 -22 -16 -30.5t-29 -8.5h-105q-33 0 -33 27q0 7 1 11l22 105q9 40 48 40zM1212 1541h106q30 0 30 -27q0 -3 -2 -15l-22 -102q-5 -22 -16 -30.5t-29 -8.5h-105q-33 0 -33 27q0 7 1 11l22 105q9 40 48 40zM445.5 316.5
q41.5 -80.5 116.5 -120t170 -39.5q84 0 152 20t113 45.5t108 67.5q14 10 28 10q13 0 17 -10l50 -93q5 -10 5 -18q0 -17 -19 -32q-117 -85 -228 -127t-239 -42q-146 0 -262 65.5t-181 179.5t-65 255q0 64 13 126q36 171 149 316.5t274 231t334 85.5q172 0 289 -65.5
t174.5 -177t57.5 -250.5q0 -78 -18 -161q-9 -41 -28 -54.5t-51 -13.5h-996q-5 -118 36.5 -198.5zM751 1009.5q-101 -45.5 -179.5 -125.5t-120.5 -181h862q1 11 1 32q0 94 -43.5 166.5t-124 113t-188.5 40.5q-106 0 -207 -45.5z" />
    <glyph glyph-name="igrave" unicode="&#xec;" 
d="M410 1641q0 14 8.5 24t20.5 10h94q32 0 38 -29l58 -223q2 -10 2 -15q0 -14 -8 -22t-19 -8h-88q-14 0 -23 6t-14 24l-67 220q-2 8 -2 13zM421 1217q11 9 27 9h118q13 0 20.5 -7t7.5 -19q0 -6 -1 -9l-246 -1155q-7 -36 -41 -36h-118q-28 0 -28 24q0 8 1 12l246 1155
q3 17 14 26z" />
    <glyph glyph-name="iacute" unicode="&#xed;" 
d="M627.5 1385q-9.5 -5 -22.5 -5h-94q-10 0 -20 7.5t-10 19.5q0 11 8 22l151 218q12 17 22 23.5t23 6.5h101q10 -1 16.5 -8t6.5 -17q0 -12 -8 -23l-151 -220q-13 -19 -22.5 -24zM421 1217q11 9 27 9h118q13 0 20.5 -7t7.5 -19q0 -6 -1 -9l-246 -1155q-7 -36 -41 -36h-118
q-28 0 -28 24q0 8 1 12l246 1155q3 17 14 26z" />
    <glyph glyph-name="icircumflex" unicode="&#xee;" 
d="M618 1701h1q10 0 21 -12l181 -232q9 -13 9 -18q0 -9 -16 -22l-46 -40q-14 -11 -22 -11q-9 0 -19 13l-128 165l-211 -174q-17 -15 -28 -15q-8 0 -16 9l-42 51q-6 8 -6 15q0 14 21 31l274 228q17 12 27 12zM421 1217q11 9 27 9h118q13 0 20.5 -7t7.5 -19q0 -6 -1 -9
l-246 -1155q-7 -36 -41 -36h-118q-28 0 -28 24q0 8 1 12l246 1155q3 17 14 26z" />
    <glyph glyph-name="idieresis" unicode="&#xef;" 
d="M349 1574h106q30 0 30 -27q0 -3 -2 -15l-22 -102q-5 -22 -16 -30.5t-29 -8.5h-105q-33 0 -33 27q0 7 1 11l22 105q9 40 48 40zM729 1574h106q30 0 30 -27q0 -3 -2 -15l-22 -102q-5 -22 -16 -30.5t-29 -8.5h-105q-33 0 -33 27q0 7 1 11l22 105q9 40 48 40zM421 1217
q11 9 27 9h118q13 0 20.5 -7t7.5 -19q0 -6 -1 -9l-246 -1155q-7 -36 -41 -36h-118q-28 0 -28 24q0 8 1 12l246 1155q3 17 14 26z" />
    <glyph glyph-name="eth" unicode="&#xf0;" horiz-adv-x="1332" 
d="M919 1387q0 23 28 35l116 50l-31 104q-2 8 -2 11q0 16 11.5 27.5t29.5 10.5h96q9 -1 17 -7.5t12 -17.5l15 -55l116 50q8 4 17 4q17 0 21 -19l19 -68q3 -11 -4 -23t-22 -19l-116 -50l169 -563q10 -30 19 -71q2 -14 2 -16q6 -39 6 -80q0 -60 -13 -118
q-34 -161 -144.5 -296.5t-267 -215.5t-321.5 -80q-142 0 -254 61.5t-174.5 169t-62.5 240.5q0 62 13 121q33 161 144 297t267 216t319 80q118 0 219 -44l-65 228l-118 -51q-8 -4 -18 -4q-18 0 -22 17l-19 66q-2 8 -2 10zM382 481q0 -96 42.5 -174t120.5 -122.5t180 -44.5
q119 0 229.5 58.5t188 158t102.5 216.5q10 47 10 95q0 97 -42.5 174t-121 121t-181.5 44q-118 0 -228 -58t-187.5 -157.5t-102.5 -218.5q-10 -46 -10 -92z" />
    <glyph glyph-name="ntilde" unicode="&#xf1;" horiz-adv-x="1261" 
d="M744 1396q-11 0 -20 11l-32 40q-10 11 -10 20q0 6 5 13t18 20q48 48 94 71t97 23q30 0 58 -12.5t66 -36.5q31 -20 52.5 -30t41.5 -10q26 0 47 14t50 42q21 21 38 21q11 0 21 -10l28 -37q6 -7 6 -16q0 -11 -14 -27q-50 -55 -96.5 -81.5t-99.5 -26.5q-31 0 -57.5 12.5
t-61.5 36.5q-35 22 -53.5 31t-39.5 9q-31 0 -54 -15t-54 -46q-17 -16 -30 -16zM328 10q-14 -10 -32 -10h-108q-28 0 -28 25q0 8 1 12l245 1151q8 38 42 38h122q22 0 22 -24q0 -6 -2 -18l-27 -127q176 182 399 182q109 0 193.5 -46t131.5 -133t47 -205q0 -68 -14 -134
l-146 -685q-7 -36 -40 -36h-115q-30 0 -30 24q0 8 1 12l143 674q15 72 15 124q0 222 -242 222q-79 0 -167 -40.5t-157 -118t-92 -184.5l-144 -676q-4 -17 -18 -27z" />
    <glyph glyph-name="ograve" unicode="&#xf2;" horiz-adv-x="1457" 
d="M888 1637q0 14 8.5 24t20.5 10h94q32 0 38 -29l58 -223q2 -10 2 -15q0 -14 -8 -22t-19 -8h-88q-14 0 -23 6t-14 24l-67 220q-2 8 -2 13zM382.5 925q114.5 144 276.5 228.5t333 84.5q150 0 265.5 -64.5t179 -178t63.5 -254.5q0 -62 -14 -132q-35 -170 -150 -315.5
t-278 -231.5t-334 -86q-148 0 -263.5 65.5t-180 179.5t-64.5 255q0 64 15 133q37 172 151.5 316zM407 506q0 -100 42 -179.5t118.5 -124.5t175.5 -45q129 0 245.5 60t198 163.5t107.5 228.5q13 65 13 117q0 99 -38.5 174.5t-113.5 118.5t-181 43q-117 0 -236 -60.5
t-206.5 -165t-113.5 -227.5q-11 -55 -11 -103z" />
    <glyph glyph-name="oacute" unicode="&#xf3;" horiz-adv-x="1457" 
d="M1116.5 1391q-9.5 -5 -22.5 -5h-94q-10 0 -20 7.5t-10 19.5q0 11 8 22l151 218q12 17 22 23.5t23 6.5h101q10 -1 16.5 -8t6.5 -17q0 -12 -8 -23l-151 -220q-13 -19 -22.5 -24zM382.5 925q114.5 144 276.5 228.5t333 84.5q150 0 265.5 -64.5t179 -178t63.5 -254.5
q0 -62 -14 -132q-35 -170 -150 -315.5t-278 -231.5t-334 -86q-148 0 -263.5 65.5t-180 179.5t-64.5 255q0 64 15 133q37 172 151.5 316zM407 506q0 -100 42 -179.5t118.5 -124.5t175.5 -45q129 0 245.5 60t198 163.5t107.5 228.5q13 65 13 117q0 99 -38.5 174.5
t-113.5 118.5t-181 43q-117 0 -236 -60.5t-206.5 -165t-113.5 -227.5q-11 -55 -11 -103z" />
    <glyph glyph-name="ocircumflex" unicode="&#xf4;" horiz-adv-x="1457" 
d="M1087 1688h1q10 0 21 -12l181 -232q9 -13 9 -18q0 -9 -16 -22l-46 -40q-14 -11 -22 -11q-9 0 -19 13l-128 165l-211 -174q-17 -15 -28 -15q-8 0 -16 9l-42 51q-6 8 -6 15q0 14 21 31l274 228q17 12 27 12zM382.5 925q114.5 144 276.5 228.5t333 84.5q150 0 265.5 -64.5
t179 -178t63.5 -254.5q0 -62 -14 -132q-35 -170 -150 -315.5t-278 -231.5t-334 -86q-148 0 -263.5 65.5t-180 179.5t-64.5 255q0 64 15 133q37 172 151.5 316zM407 506q0 -100 42 -179.5t118.5 -124.5t175.5 -45q129 0 245.5 60t198 163.5t107.5 228.5q13 65 13 117
q0 99 -38.5 174.5t-113.5 118.5t-181 43q-117 0 -236 -60.5t-206.5 -165t-113.5 -227.5q-11 -55 -11 -103z" />
    <glyph glyph-name="otilde" unicode="&#xf5;" horiz-adv-x="1457" 
d="M797 1388q-11 0 -20 11l-32 40q-10 11 -10 20q0 6 5 13t18 20q48 48 94 71t97 23q30 0 58 -12.5t66 -36.5q31 -20 52.5 -30t41.5 -10q26 0 47 14t50 42q21 21 38 21q11 0 21 -10l28 -37q6 -7 6 -16q0 -11 -14 -27q-50 -55 -96.5 -81.5t-99.5 -26.5q-31 0 -57.5 12.5
t-61.5 36.5q-35 22 -53.5 31t-39.5 9q-31 0 -54 -15t-54 -46q-17 -16 -30 -16zM382.5 925q114.5 144 276.5 228.5t333 84.5q150 0 265.5 -64.5t179 -178t63.5 -254.5q0 -62 -14 -132q-35 -170 -150 -315.5t-278 -231.5t-334 -86q-148 0 -263.5 65.5t-180 179.5t-64.5 255
q0 64 15 133q37 172 151.5 316zM407 506q0 -100 42 -179.5t118.5 -124.5t175.5 -45q129 0 245.5 60t198 163.5t107.5 228.5q13 65 13 117q0 99 -38.5 174.5t-113.5 118.5t-181 43q-117 0 -236 -60.5t-206.5 -165t-113.5 -227.5q-11 -55 -11 -103z" />
    <glyph glyph-name="odieresis" unicode="&#xf6;" horiz-adv-x="1457" 
d="M831 1577h106q30 0 30 -27q0 -3 -2 -15l-22 -102q-5 -22 -16 -30.5t-29 -8.5h-105q-33 0 -33 27q0 7 1 11l22 105q9 40 48 40zM1211 1577h106q30 0 30 -27q0 -3 -2 -15l-22 -102q-5 -22 -16 -30.5t-29 -8.5h-105q-33 0 -33 27q0 7 1 11l22 105q9 40 48 40zM382.5 925
q114.5 144 276.5 228.5t333 84.5q150 0 265.5 -64.5t179 -178t63.5 -254.5q0 -62 -14 -132q-35 -170 -150 -315.5t-278 -231.5t-334 -86q-148 0 -263.5 65.5t-180 179.5t-64.5 255q0 64 15 133q37 172 151.5 316zM407 506q0 -100 42 -179.5t118.5 -124.5t175.5 -45
q129 0 245.5 60t198 163.5t107.5 228.5q13 65 13 117q0 99 -38.5 174.5t-113.5 118.5t-181 43q-117 0 -236 -60.5t-206.5 -165t-113.5 -227.5q-11 -55 -11 -103z" />
    <glyph glyph-name="divide" unicode="&#xf7;" horiz-adv-x="910" 
d="M655 1204q9 7 20 7h128q15 0 18.5 -8.5t1.5 -18.5l-25 -120q-3 -12 -12 -19t-18 -7h-132q-8 0 -15 6t-4 19l26 122q3 12 12 19zM973 684.5q9 -8.5 9 -24.5q0 -6 -1 -10l-19 -88q-4 -18 -18.5 -32t-33.5 -14h-623q-36 0 -36 30q0 4 2 16l19 88q7 43 53 43h623
q16 0 25 -8.5zM434 165q9 7 20 7h128q15 0 18.5 -8.5t1.5 -18.5l-25 -120q-3 -12 -12 -19t-18 -7h-132q-8 0 -14.5 6t-3.5 19l25 121q3 13 12 20z" />
    <glyph glyph-name="oslash" unicode="&#xf8;" horiz-adv-x="1457" 
d="M382.5 925q116.5 145 280 230.5t333.5 85.5q90 0 174 -26l58 92q16 25 39 25h95q24 0 24 -14q0 -11 -13 -31l-82 -129q101 -66 155.5 -172.5t54.5 -237.5q0 -67 -15 -138q-38 -172 -151 -316.5t-273.5 -229t-333.5 -84.5q-85 0 -168 24l-64 -101q-15 -24 -37 -24h-95
q-23 0 -23 16q0 9 7 20l92 144q-105 66 -164 176t-59 245q0 60 14 130q35 170 151.5 315zM407 509q0 -99 41.5 -178.5t118.5 -125.5t179 -46q118 0 236 62.5t204 166.5t111 223q11 51 11 106q0 99 -39.5 177.5t-114.5 123.5t-177 45q-118 0 -238 -62t-208 -166.5
t-113 -223.5q-11 -48 -11 -102z" />
    <glyph glyph-name="ugrave" unicode="&#xf9;" horiz-adv-x="1267" 
d="M836 1601q0 14 8.5 24t20.5 10h94q32 0 38 -29l58 -223q2 -10 2 -15q0 -14 -8 -22t-19 -8h-88q-14 0 -23 6t-14 24l-67 220q-2 8 -2 13zM840.5 6q-90.5 -36 -211.5 -36q-127 0 -214 48t-130 133.5t-43 197.5q0 64 16 142l147 691q4 23 14 34t34 11h112q16 0 22 -6t6 -17
q0 -5 -2 -19l-147 -694q-12 -62 -12 -109q0 -101 53 -164.5t176 -63.5q77 0 166.5 36.5t159 105.5t90.5 161l154 728q9 42 51 42h99q36 0 38 -29q0 -3 -2 -13l-243 -1144q-4 -18 -18.5 -30t-32.5 -12h-100q-17 0 -26.5 9t-9.5 24q0 6 1 9l15 71q-72 -70 -162.5 -106z" />
    <glyph glyph-name="uacute" unicode="&#xfa;" horiz-adv-x="1267" 
d="M1000.5 1346q-9.5 -5 -22.5 -5h-94q-10 0 -20 7.5t-10 19.5q0 11 8 22l151 218q12 17 22 23.5t23 6.5h101q10 -1 16.5 -8t6.5 -17q0 -12 -8 -23l-151 -220q-13 -19 -22.5 -24zM840.5 6q-90.5 -36 -211.5 -36q-127 0 -214 48t-130 133.5t-43 197.5q0 64 16 142l147 691
q4 23 14 34t34 11h112q16 0 22 -6t6 -17q0 -5 -2 -19l-147 -694q-12 -62 -12 -109q0 -101 53 -164.5t176 -63.5q77 0 166.5 36.5t159 105.5t90.5 161l154 728q9 42 51 42h99q36 0 38 -29q0 -3 -2 -13l-243 -1144q-4 -18 -18.5 -30t-32.5 -12h-100q-17 0 -26.5 9t-9.5 24
q0 6 1 9l15 71q-72 -70 -162.5 -106z" />
    <glyph glyph-name="ucircumflex" unicode="&#xfb;" horiz-adv-x="1267" 
d="M1037 1681h1q10 0 21 -12l181 -232q9 -13 9 -18q0 -9 -16 -22l-46 -40q-14 -11 -22 -11q-9 0 -19 13l-128 165l-211 -174q-17 -15 -28 -15q-8 0 -16 9l-42 51q-6 8 -6 15q0 14 21 31l274 228q17 12 27 12zM840.5 6q-90.5 -36 -211.5 -36q-127 0 -214 48t-130 133.5
t-43 197.5q0 64 16 142l147 691q4 23 14 34t34 11h112q16 0 22 -6t6 -17q0 -5 -2 -19l-147 -694q-12 -62 -12 -109q0 -101 53 -164.5t176 -63.5q77 0 166.5 36.5t159 105.5t90.5 161l154 728q9 42 51 42h99q36 0 38 -29q0 -3 -2 -13l-243 -1144q-4 -18 -18.5 -30t-32.5 -12
h-100q-17 0 -26.5 9t-9.5 24q0 6 1 9l15 71q-72 -70 -162.5 -106z" />
    <glyph glyph-name="udieresis" unicode="&#xfc;" horiz-adv-x="1267" 
d="M760 1546h106q30 0 30 -27q0 -3 -2 -15l-22 -102q-5 -22 -16 -30.5t-29 -8.5h-105q-33 0 -33 27q0 7 1 11l22 105q9 40 48 40zM1140 1546h106q30 0 30 -27q0 -3 -2 -15l-22 -102q-5 -22 -16 -30.5t-29 -8.5h-105q-33 0 -33 27q0 7 1 11l22 105q9 40 48 40zM840.5 6
q-90.5 -36 -211.5 -36q-127 0 -214 48t-130 133.5t-43 197.5q0 64 16 142l147 691q4 23 14 34t34 11h112q16 0 22 -6t6 -17q0 -5 -2 -19l-147 -694q-12 -62 -12 -109q0 -101 53 -164.5t176 -63.5q77 0 166.5 36.5t159 105.5t90.5 161l154 728q9 42 51 42h99q36 0 38 -29
q0 -3 -2 -13l-243 -1144q-4 -18 -18.5 -30t-32.5 -12h-100q-17 0 -26.5 9t-9.5 24q0 6 1 9l15 71q-72 -70 -162.5 -106z" />
    <glyph glyph-name="yacute" unicode="&#xfd;" horiz-adv-x="1142" 
d="M967.5 1343q-9.5 -5 -22.5 -5h-94q-10 0 -20 7.5t-10 19.5q0 11 8 22l151 218q12 17 22 23.5t23 6.5h101q10 -1 16.5 -8t6.5 -17q0 -12 -8 -23l-151 -220q-13 -19 -22.5 -24zM396 -367h-109q-16 0 -26 6.5t-10 19.5q0 15 12 34l233 384l-211 1097q-1 4 -1 11q0 20 14 31
t31 11h101q27 0 32 -30l170 -920l550 920q17 30 44 30h130q30 0 30 -22q0 -13 -10 -29l-934 -1514q-19 -29 -46 -29z" />
    <glyph glyph-name="thorn" unicode="&#xfe;" horiz-adv-x="1496" 
d="M499 1562q14 12 34 12h99q16 0 26.5 -8.5t10.5 -22.5q0 -3 -2 -11l-100 -470q102 85 222 132.5t245 47.5q148 0 264 -66t181 -181t65 -256q0 -63 -13 -127q-37 -170 -153.5 -315t-279 -230.5t-332.5 -85.5q-126 0 -225.5 47t-164.5 133l-104 -488q-4 -18 -18.5 -30.5
t-34.5 -12.5h-100q-15 0 -24.5 9.5t-9.5 24.5q0 6 1 9l395 1859q4 18 18 30zM785 1012.5q-111 -50.5 -196 -150.5t-115 -242q-13 -61 -13 -118q0 -107 45 -185t121 -119t167 -41q117 0 233.5 63.5t200 168.5t108.5 223q10 47 10 96q0 99 -42 180t-119.5 128t-178.5 47
q-110 0 -221 -50.5z" />
    <glyph glyph-name="ydieresis" unicode="&#xff;" horiz-adv-x="1142" 
d="M696 1533h106q30 0 30 -27q0 -3 -2 -15l-22 -102q-5 -22 -16 -30.5t-29 -8.5h-105q-33 0 -33 27q0 7 1 11l22 105q9 40 48 40zM1076 1533h106q30 0 30 -27q0 -3 -2 -15l-22 -102q-5 -22 -16 -30.5t-29 -8.5h-105q-33 0 -33 27q0 7 1 11l22 105q9 40 48 40zM396 -367h-109
q-16 0 -26 6.5t-10 19.5q0 15 12 34l233 384l-211 1097q-1 4 -1 11q0 20 14 31t31 11h101q27 0 32 -30l170 -920l550 920q17 30 44 30h130q30 0 30 -22q0 -13 -10 -29l-934 -1514q-19 -29 -46 -29z" />
    <glyph glyph-name="Amacron" unicode="&#x100;" horiz-adv-x="1411" 
d="M708 1693.5q10 7.5 25 7.5h668q13 0 19.5 -7t3.5 -21l-18 -85q-3 -12 -13 -20t-22 -8h-669q-13 0 -20.5 7t-4.5 21l18 84q3 14 13 21.5zM975 1426h90q27 0 32 -30l264 -1355q1 -4 1 -10q0 -15 -10 -23t-25 -8h-130q-26 0 -30 29l-51 273h-670l-166 -273
q-11 -16 -21 -22.5t-22 -6.5h-140q-25 0 -25 19q0 9 7 22l850 1355q20 30 46 30zM1082 486l-121 656l-405 -656h526z" />
    <glyph glyph-name="amacron" unicode="&#x101;" horiz-adv-x="1478" 
d="M698 1536.5q10 7.5 25 7.5h668q13 0 19.5 -7t3.5 -21l-18 -85q-3 -12 -13 -20t-22 -8h-669q-13 0 -20.5 7t-4.5 21l18 84q3 14 13 21.5zM1313 0h-115q-32 0 -32 30q0 5 2 17l25 116q-52 -52 -130.5 -93.5t-169.5 -65.5t-176 -24q-136 0 -251.5 67.5t-183.5 186t-68 263.5
q0 64 13 126q35 169 151.5 310.5t278.5 223t328 81.5q141 0 239 -49t160 -129l27 130q9 37 41 37h121q26 0 26 -24q0 -8 -1 -13l-245 -1153q-7 -37 -40 -37zM1310 715q0 101 -41.5 180.5t-118 124.5t-176.5 45q-116 0 -237 -61t-211 -166.5t-117 -231.5q-12 -57 -12 -110
q0 -100 41 -177.5t118.5 -121t183.5 -43.5q112 0 232.5 61t210.5 165.5t115 225.5q12 57 12 109z" />
    <glyph glyph-name="Abreve" unicode="&#x102;" horiz-adv-x="1411" 
d="M939 1583q-49 27 -76 73t-27 99q0 23 4 42q3 17 15.5 26.5t28.5 9.5h77q17 0 25 -10.5t5 -25.5q-3 -13 -3 -27q0 -35 21 -57.5t67 -22.5q35 0 67 16.5t53.5 41.5t26.5 49q3 16 13.5 26t27.5 10h79q16 0 24.5 -9.5t5.5 -26.5q-13 -62 -61 -117.5t-117 -89.5t-143 -34
q-64 0 -113 27zM975 1426h90q27 0 32 -30l264 -1355q1 -4 1 -10q0 -15 -10 -23t-25 -8h-130q-26 0 -30 29l-51 273h-670l-166 -273q-11 -16 -21 -22.5t-22 -6.5h-140q-25 0 -25 19q0 9 7 22l850 1355q20 30 46 30zM1082 486l-121 656l-405 -656h526z" />
    <glyph glyph-name="abreve" unicode="&#x103;" horiz-adv-x="1478" 
d="M918 1416q-49 27 -76 73t-27 99q0 23 4 42q3 17 15.5 26.5t28.5 9.5h77q17 0 25 -10.5t5 -25.5q-3 -13 -3 -27q0 -35 21 -57.5t67 -22.5q35 0 67 16.5t53.5 41.5t26.5 49q3 16 13.5 26t27.5 10h79q16 0 24.5 -9.5t5.5 -26.5q-13 -62 -61 -117.5t-117 -89.5t-143 -34
q-64 0 -113 27zM1313 0h-115q-32 0 -32 30q0 5 2 17l25 116q-52 -52 -130.5 -93.5t-169.5 -65.5t-176 -24q-136 0 -251.5 67.5t-183.5 186t-68 263.5q0 64 13 126q35 169 151.5 310.5t278.5 223t328 81.5q141 0 239 -49t160 -129l27 130q9 37 41 37h121q26 0 26 -24
q0 -8 -1 -13l-245 -1153q-7 -37 -40 -37zM1310 715q0 101 -41.5 180.5t-118 124.5t-176.5 45q-116 0 -237 -61t-211 -166.5t-117 -231.5q-12 -57 -12 -110q0 -100 41 -177.5t118.5 -121t183.5 -43.5q112 0 232.5 61t210.5 165.5t115 225.5q12 57 12 109z" />
    <glyph glyph-name="Aogonek" unicode="&#x104;" horiz-adv-x="1411" 
d="M1100.5 -200.5q-18.5 -18.5 -27.5 -41.5t-9 -43q0 -29 18.5 -46.5t53.5 -17.5q37 0 69 28.5t38 63.5q5 18 15 27t22 9h49q10 0 16.5 -6t6.5 -17q0 -6 -1 -9q-11 -52 -43 -97t-79.5 -71.5t-102.5 -26.5q-47 0 -85 20t-59.5 55t-21.5 79q0 22 4 39q10 51 41 89t88 85l99 81
q-21 3 -25 29l-51 273h-670l-166 -273q-11 -16 -21 -22.5t-22 -6.5h-140q-25 0 -25 19q0 9 7 22l850 1355q20 30 46 30h90q27 0 32 -30l264 -1355q1 -3 1 -10q0 -16 -12 -25l-5 -4l-191 -156q-35 -28 -53.5 -46.5zM1082 486l-121 656l-405 -656h526z" />
    <glyph glyph-name="aogonek" unicode="&#x105;" horiz-adv-x="1478" 
d="M1599 1203q0 -8 -1 -13l-245 -1153l-1 -4q0 -14 -16 -27l-191 -156q-35 -28 -53.5 -46.5t-27.5 -41.5t-9 -43q0 -29 18.5 -46.5t53.5 -17.5q37 0 69 28.5t38 63.5q5 18 15 27t22 9h49q10 0 16.5 -6t6.5 -17q0 -6 -1 -9q-11 -52 -43 -97t-79.5 -71.5t-102.5 -26.5
q-47 0 -85 20t-59.5 55t-21.5 79q0 22 4 39q10 51 41 89t88 85l97 80q-15 7 -15 27q0 5 2 17l25 116q-52 -52 -130.5 -93.5t-169.5 -65.5t-176 -24q-136 0 -251.5 67.5t-183.5 186t-68 263.5q0 64 13 126q35 169 151.5 310.5t278.5 223t328 81.5q141 0 239 -49t160 -129
l27 130q9 37 41 37h121q26 0 26 -24zM972.5 215q120.5 61 210.5 165.5t115 225.5q12 57 12 109q0 101 -41.5 180.5t-118 124.5t-176.5 45q-116 0 -237 -61t-211 -166.5t-117 -231.5q-12 -57 -12 -110q0 -100 41 -177.5t118.5 -121t183.5 -43.5q112 0 232.5 61z" />
    <glyph glyph-name="Cacute" unicode="&#x106;" horiz-adv-x="1365" 
d="M1302.5 1566q-9.5 -5 -22.5 -5h-94q-10 0 -20 7.5t-10 19.5q0 11 8 22l151 218q12 17 22 23.5t23 6.5h101q10 -1 16.5 -8t6.5 -17q0 -12 -8 -23l-151 -220q-13 -19 -22.5 -24zM1242 294q13 0 20 -11l58 -97q5 -10 5 -16q0 -18 -25 -35q-104 -72 -223 -112.5t-246 -40.5
q-174 0 -310 75.5t-212 208t-76 297.5q0 75 16 151q43 200 177.5 367.5t324.5 265t390 97.5q123 0 217.5 -42t176.5 -118q11 -11 11 -24q0 -12 -9 -21l-76 -85q-11 -11 -26 -11q-13 0 -24 10q-60 56 -135.5 83.5t-172.5 27.5q-146 0 -289 -73.5t-246 -199.5t-134 -277
q-14 -68 -14 -127q0 -123 52.5 -219.5t152 -150.5t234.5 -54q171 0 351 118q18 13 32 13z" />
    <glyph glyph-name="cacute" unicode="&#x107;" horiz-adv-x="1210" 
d="M1076.5 1384q-9.5 -5 -22.5 -5h-94q-10 0 -20 7.5t-10 19.5q0 11 8 22l151 218q12 17 22 23.5t23 6.5h101q10 -1 16.5 -8t6.5 -17q0 -12 -8 -23l-151 -220q-13 -19 -22.5 -24zM1085 299q14 0 18 -10l61 -96q4 -8 4 -17q0 -19 -22 -34q-106 -75 -215 -121t-231 -46
q-149 0 -266 64t-183 178t-66 256q0 66 15 136q38 175 155 319t278.5 227t325.5 83q111 0 205 -43.5t167 -118.5q8 -9 8 -20t-9 -22l-75 -77q-11 -11 -26 -11q-10 0 -18 8q-57 61 -121 84.5t-147 23.5q-120 -2 -238 -59.5t-204 -161t-113 -233.5q-13 -56 -13 -113
q0 -100 41 -176.5t118.5 -119t181.5 -42.5q95 0 174.5 36t167.5 97q12 9 27 9z" />
    <glyph glyph-name="Ccircumflex" unicode="&#x108;" horiz-adv-x="1365" 
d="M1190 1885h1q10 0 21 -12l181 -232q9 -13 9 -18q0 -9 -16 -22l-46 -40q-14 -11 -22 -11q-9 0 -19 13l-128 165l-211 -174q-17 -15 -28 -15q-9 0 -16 9l-42 51q-6 8 -6 15q0 14 21 31l274 228q17 12 27 12zM1242 294q13 0 20 -11l58 -97q5 -10 5 -16q0 -18 -25 -35
q-104 -72 -223 -112.5t-246 -40.5q-174 0 -310 75.5t-212 208t-76 297.5q0 75 16 151q43 200 177.5 367.5t324.5 265t390 97.5q123 0 217.5 -42t176.5 -118q11 -11 11 -24q0 -12 -9 -21l-76 -85q-11 -11 -26 -11q-13 0 -24 10q-60 56 -135.5 83.5t-172.5 27.5
q-146 0 -289 -73.5t-246 -199.5t-134 -277q-14 -68 -14 -127q0 -123 52.5 -219.5t152 -150.5t234.5 -54q171 0 351 118q18 13 32 13z" />
    <glyph glyph-name="ccircumflex" unicode="&#x109;" horiz-adv-x="1210" 
d="M1076 1693h1q10 0 21 -12l181 -232q9 -13 9 -18q0 -9 -16 -22l-46 -40q-14 -11 -22 -11q-9 0 -19 13l-128 165l-211 -174q-17 -15 -28 -15q-8 0 -16 9l-42 51q-6 8 -6 15q0 14 21 31l274 228q17 12 27 12zM1085 299q14 0 18 -10l61 -96q4 -8 4 -17q0 -19 -22 -34
q-106 -75 -215 -121t-231 -46q-149 0 -266 64t-183 178t-66 256q0 66 15 136q38 175 155 319t278.5 227t325.5 83q111 0 205 -43.5t167 -118.5q8 -9 8 -20t-9 -22l-75 -77q-11 -11 -26 -11q-10 0 -18 8q-57 61 -121 84.5t-147 23.5q-120 -2 -238 -59.5t-204 -161
t-113 -233.5q-13 -56 -13 -113q0 -100 41 -176.5t118.5 -119t181.5 -42.5q95 0 174.5 36t167.5 97q12 9 27 9z" />
    <glyph glyph-name="Cdotaccent" unicode="&#x10a;" horiz-adv-x="1365" 
d="M1215 1742h106q30 0 30 -26q0 -5 -2 -15l-21 -102q-5 -22 -16 -30.5t-30 -8.5h-105q-34 0 -34 24q0 4 2 14l23 104q7 40 47 40zM1242 294q13 0 20 -11l58 -97q5 -10 5 -16q0 -18 -25 -35q-104 -72 -223 -112.5t-246 -40.5q-174 0 -310 75.5t-212 208t-76 297.5
q0 75 16 151q43 200 177.5 367.5t324.5 265t390 97.5q123 0 217.5 -42t176.5 -118q11 -11 11 -24q0 -12 -9 -21l-76 -85q-11 -11 -26 -11q-13 0 -24 10q-60 56 -135.5 83.5t-172.5 27.5q-146 0 -289 -73.5t-246 -199.5t-134 -277q-14 -68 -14 -127q0 -123 52.5 -219.5
t152 -150.5t234.5 -54q171 0 351 118q18 13 32 13z" />
    <glyph glyph-name="cdotaccent" unicode="&#x10b;" horiz-adv-x="1210" 
d="M982 1565h106q30 0 30 -26q0 -5 -2 -15l-21 -102q-5 -22 -16 -30.5t-30 -8.5h-105q-34 0 -34 24q0 4 2 14l23 104q7 40 47 40zM1085 299q14 0 18 -10l61 -96q4 -8 4 -17q0 -19 -22 -34q-106 -75 -215 -121t-231 -46q-149 0 -266 64t-183 178t-66 256q0 66 15 136
q38 175 155 319t278.5 227t325.5 83q111 0 205 -43.5t167 -118.5q8 -9 8 -20t-9 -22l-75 -77q-11 -11 -26 -11q-10 0 -18 8q-57 61 -121 84.5t-147 23.5q-120 -2 -238 -59.5t-204 -161t-113 -233.5q-13 -56 -13 -113q0 -100 41 -176.5t118.5 -119t181.5 -42.5q95 0 174.5 36
t167.5 97q12 9 27 9z" />
    <glyph glyph-name="Ccaron" unicode="&#x10c;" horiz-adv-x="1365" 
d="M1220 1558h-1q-10 0 -21 12l-181 232q-9 13 -9 18q0 9 16 22l46 40q14 11 22 11q9 0 19 -13l128 -165l211 174q17 15 28 15q9 0 16 -9l42 -51q6 -7 6 -15q0 -13 -21 -31l-274 -228q-17 -12 -27 -12zM1242 294q13 0 20 -11l58 -97q5 -10 5 -16q0 -18 -25 -35
q-104 -72 -223 -112.5t-246 -40.5q-174 0 -310 75.5t-212 208t-76 297.5q0 75 16 151q43 200 177.5 367.5t324.5 265t390 97.5q123 0 217.5 -42t176.5 -118q11 -11 11 -24q0 -12 -9 -21l-76 -85q-11 -11 -26 -11q-13 0 -24 10q-60 56 -135.5 83.5t-172.5 27.5
q-146 0 -289 -73.5t-246 -199.5t-134 -277q-14 -68 -14 -127q0 -123 52.5 -219.5t152 -150.5t234.5 -54q171 0 351 118q18 13 32 13z" />
    <glyph glyph-name="ccaron" unicode="&#x10d;" horiz-adv-x="1210" 
d="M996 1351h-1q-10 0 -21 12l-181 232q-9 13 -9 18q0 9 16 22l46 40q14 11 22 11q9 0 19 -13l128 -165l211 174q17 15 28 15q9 0 16 -9l42 -51q6 -7 6 -15q0 -13 -21 -31l-274 -228q-17 -12 -27 -12zM1085 299q14 0 18 -10l61 -96q4 -8 4 -17q0 -19 -22 -34
q-106 -75 -215 -121t-231 -46q-149 0 -266 64t-183 178t-66 256q0 66 15 136q38 175 155 319t278.5 227t325.5 83q111 0 205 -43.5t167 -118.5q8 -9 8 -20t-9 -22l-75 -77q-11 -11 -26 -11q-10 0 -18 8q-57 61 -121 84.5t-147 23.5q-120 -2 -238 -59.5t-204 -161
t-113 -233.5q-13 -56 -13 -113q0 -100 41 -176.5t118.5 -119t181.5 -42.5q95 0 174.5 36t167.5 97q12 9 27 9z" />
    <glyph glyph-name="Dcaron" unicode="&#x10e;" horiz-adv-x="1482" 
d="M969 1551h-1q-10 0 -21 12l-181 232q-9 13 -9 18q0 9 16 22l46 40q14 11 22 11q9 0 19 -13l128 -165l211 174q17 15 28 15q9 0 16 -9l42 -51q6 -7 6 -15q0 -13 -21 -31l-274 -228q-17 -12 -27 -12zM490 1426h457q175 0 310.5 -75.5t209.5 -206t74 -290.5q0 -70 -15 -142
q-42 -192 -172.5 -355.5t-316.5 -260t-386 -96.5h-464q-27 0 -27 23q0 7 1 11l289 1359q6 33 40 33zM1353 840q0 120 -51.5 213t-150 146t-236.5 53h-309l-230 -1078h269q157 0 305 72t253 195.5t136 270.5q14 68 14 128z" />
    <glyph glyph-name="dcaron" unicode="&#x10f;" horiz-adv-x="1478" 
d="M1759.5 1576q10.5 9 26.5 9h122q26 0 26 -24q0 -6 -1 -10l-23 -106q-30 -137 -122 -201q-12 -9 -22 -9q-9 0 -18 9l-23 24q-5 6 -5 14q0 12 14 22q23 19 39 42.5t20 39.5l2 12v2q0 8 -10 8h-39q-25 0 -25 23q0 7 1 11l23 108q4 17 14.5 26zM1305 0h-108q-16 0 -25.5 13.5
t-9.5 31.5q0 7 1 11l21 97q-87 -77 -219.5 -126t-270.5 -49q-133 0 -243.5 63.5t-174.5 176.5t-64 255q0 68 14 132q37 172 149 317t270 230.5t328 85.5q140 0 243.5 -52t159.5 -129l104 488q7 37 41 37h120q28 0 28 -25q0 -8 -1 -12l-321 -1508q-7 -37 -42 -37zM1301 715
q0 98 -39.5 177.5t-116 125.5t-183.5 46q-124 0 -240 -63.5t-198 -171t-109 -232.5q-11 -51 -11 -107q0 -99 41.5 -174.5t119 -117.5t183.5 -42q127 0 242 62.5t194.5 166t104.5 222.5q12 56 12 108z" />
    <glyph glyph-name="Dcroat" unicode="&#x110;" horiz-adv-x="1482" 
d="M1259.5 1350.5q135.5 -75.5 209.5 -206t74 -290.5q0 -70 -15 -142q-42 -192 -172.5 -355.5t-316.5 -260t-386 -96.5h-464q-27 0 -27 23q0 7 1 11l124 582h-96q-13 0 -21.5 6.5t-8.5 18.5q0 6 1 9l20 98q5 18 17 27.5t28 9.5h96l129 608q6 33 40 33h457q175 0 310.5 -75.5
zM1355 840q0 120 -51.5 213t-150 146t-236.5 53h-309l-100 -467h110q11 0 19.5 -7.5t8.5 -20.5q0 -5 -1 -8l-21 -99q-3 -13 -15.5 -23.5t-29.5 -10.5h-107l-94 -442h269q157 0 305 72t253 195.5t136 270.5q14 68 14 128z" />
    <glyph glyph-name="dcroat" unicode="&#x111;" horiz-adv-x="1478" 
d="M1745.5 1451.5q7.5 -8.5 4.5 -22.5l-21 -102q-2 -12 -13 -20.5t-25 -8.5h-76l-268 -1261q-7 -37 -42 -37h-108q-16 0 -25.5 13.5t-9.5 31.5q0 7 1 11l21 97q-87 -77 -219.5 -126t-270.5 -49q-133 0 -243.5 63.5t-174.5 176.5t-64 255q0 68 14 132q37 172 149 317
t270 230.5t328 85.5q140 0 243.5 -52t159.5 -129l51 241h-207q-11 0 -18.5 5.5t-7.5 16.5q0 5 1 8l21 100q3 15 14 23.5t25 8.5h207l18 85q7 37 41 37h120q28 0 28 -25q0 -8 -1 -12l-18 -85h78q10 0 17.5 -8.5zM1301 715q0 98 -39.5 177.5t-116 125.5t-183.5 46
q-124 0 -240 -63.5t-198 -171t-109 -232.5q-11 -51 -11 -107q0 -99 41.5 -174.5t119 -117.5t183.5 -42q127 0 242 62.5t194.5 166t104.5 222.5q12 56 12 108z" />
    <glyph glyph-name="Emacron" unicode="&#x112;" horiz-adv-x="1233" 
d="M660 1708.5q10 7.5 25 7.5h668q13 0 19.5 -7t3.5 -21l-18 -85q-3 -12 -13 -20t-22 -8h-669q-13 0 -20.5 7t-4.5 21l18 84q3 14 13 21.5zM492 1427h940q30 0 30 -24q0 -6 -1 -9l-26 -120q-6 -34 -43 -34h-787l-84 -396h609q33 0 33 -25q0 -6 -1 -9l-25 -118
q-7 -33 -46 -33h-609l-100 -470h786q30 0 30 -24q0 -6 -1 -9l-26 -122q-7 -34 -43 -34h-939q-27 0 -27 23q0 7 1 11l289 1360q6 33 40 33z" />
    <glyph glyph-name="emacron" unicode="&#x113;" horiz-adv-x="1453" 
d="M703 1503.5q10 7.5 25 7.5h668q13 0 19.5 -7t3.5 -21l-18 -85q-3 -12 -13 -20t-22 -8h-669q-13 0 -20.5 7t-4.5 21l18 84q3 14 13 21.5zM445.5 316.5q41.5 -80.5 116.5 -120t170 -39.5q84 0 152 20t113 45.5t108 67.5q14 10 28 10q13 0 17 -10l50 -93q5 -10 5 -18
q0 -17 -19 -32q-117 -85 -228 -127t-239 -42q-146 0 -262 65.5t-181 179.5t-65 255q0 64 13 126q36 171 149 316.5t274 231t334 85.5q172 0 289 -65.5t174.5 -177t57.5 -250.5q0 -78 -18 -161q-9 -41 -28 -54.5t-51 -13.5h-996q-5 -118 36.5 -198.5zM751 1009.5
q-101 -45.5 -179.5 -125.5t-120.5 -181h862q1 11 1 32q0 94 -43.5 166.5t-124 113t-188.5 40.5q-106 0 -207 -45.5z" />
    <glyph glyph-name="Ebreve" unicode="&#x114;" horiz-adv-x="1233" 
d="M899 1594q-49 27 -76 73t-27 99q0 23 4 42q3 17 15.5 26.5t28.5 9.5h77q17 0 25 -10.5t5 -25.5q-3 -13 -3 -27q0 -35 21 -57.5t67 -22.5q35 0 67 16.5t53.5 41.5t26.5 49q3 16 13.5 26t27.5 10h79q16 0 24.5 -9.5t5.5 -26.5q-13 -62 -61 -117.5t-117 -89.5t-143 -34
q-64 0 -113 27zM492 1427h940q30 0 30 -24q0 -6 -1 -9l-26 -120q-6 -34 -43 -34h-787l-84 -396h609q33 0 33 -25q0 -6 -1 -9l-25 -118q-7 -33 -46 -33h-609l-100 -470h786q30 0 30 -24q0 -6 -1 -9l-26 -122q-7 -34 -43 -34h-939q-27 0 -27 23q0 7 1 11l289 1360q6 33 40 33z
" />
    <glyph glyph-name="ebreve" unicode="&#x115;" horiz-adv-x="1453" 
d="M924 1390q-49 27 -76 73t-27 99q0 23 4 42q3 17 15.5 26.5t28.5 9.5h77q17 0 25 -10.5t5 -25.5q-3 -13 -3 -27q0 -35 21 -57.5t67 -22.5q35 0 67 16.5t53.5 41.5t26.5 49q3 16 13.5 26t27.5 10h79q16 0 24.5 -9.5t5.5 -26.5q-13 -62 -61 -117.5t-117 -89.5t-143 -34
q-64 0 -113 27zM445.5 316.5q41.5 -80.5 116.5 -120t170 -39.5q84 0 152 20t113 45.5t108 67.5q14 10 28 10q13 0 17 -10l50 -93q5 -10 5 -18q0 -17 -19 -32q-117 -85 -228 -127t-239 -42q-146 0 -262 65.5t-181 179.5t-65 255q0 64 13 126q36 171 149 316.5t274 231
t334 85.5q172 0 289 -65.5t174.5 -177t57.5 -250.5q0 -78 -18 -161q-9 -41 -28 -54.5t-51 -13.5h-996q-5 -118 36.5 -198.5zM751 1009.5q-101 -45.5 -179.5 -125.5t-120.5 -181h862q1 11 1 32q0 94 -43.5 166.5t-124 113t-188.5 40.5q-106 0 -207 -45.5z" />
    <glyph glyph-name="Edotaccent" unicode="&#x116;" horiz-adv-x="1233" 
d="M1013 1770h106q30 0 30 -26q0 -5 -2 -15l-21 -102q-5 -22 -16 -30.5t-30 -8.5h-105q-34 0 -34 24q0 4 2 14l23 104q7 40 47 40zM492 1427h940q30 0 30 -24q0 -6 -1 -9l-26 -120q-6 -34 -43 -34h-787l-84 -396h609q33 0 33 -25q0 -6 -1 -9l-25 -118q-7 -33 -46 -33h-609
l-100 -470h786q30 0 30 -24q0 -6 -1 -9l-26 -122q-7 -34 -43 -34h-939q-27 0 -27 23q0 7 1 11l289 1360q6 33 40 33z" />
    <glyph glyph-name="edotaccent" unicode="&#x117;" horiz-adv-x="1453" 
d="M1043 1566h106q30 0 30 -26q0 -5 -2 -15l-21 -102q-5 -22 -16 -30.5t-30 -8.5h-105q-34 0 -34 24q0 4 2 14l23 104q7 40 47 40zM445.5 316.5q41.5 -80.5 116.5 -120t170 -39.5q84 0 152 20t113 45.5t108 67.5q14 10 28 10q13 0 17 -10l50 -93q5 -10 5 -18q0 -17 -19 -32
q-117 -85 -228 -127t-239 -42q-146 0 -262 65.5t-181 179.5t-65 255q0 64 13 126q36 171 149 316.5t274 231t334 85.5q172 0 289 -65.5t174.5 -177t57.5 -250.5q0 -78 -18 -161q-9 -41 -28 -54.5t-51 -13.5h-996q-5 -118 36.5 -198.5zM751 1009.5q-101 -45.5 -179.5 -125.5
t-120.5 -181h862q1 11 1 32q0 94 -43.5 166.5t-124 113t-188.5 40.5q-106 0 -207 -45.5z" />
    <glyph glyph-name="Eogonek" unicode="&#x118;" horiz-adv-x="1233" 
d="M1462 1403q0 -6 -1 -9l-26 -120q-6 -34 -43 -34h-787l-84 -396h609q33 0 33 -25q0 -6 -1 -9l-25 -118q-7 -33 -46 -33h-609l-100 -470h786q30 0 30 -24q0 -6 -1 -9l-26 -122q-4 -20 -20 -29l-2 -2l-191 -156q-35 -28 -53.5 -46.5t-27.5 -41.5t-9 -43q0 -29 18.5 -46.5
t53.5 -17.5q37 0 69 28.5t38 63.5q5 18 15 27t22 9h49q10 0 16.5 -6t6.5 -17q0 -6 -1 -9q-11 -52 -43 -97t-79.5 -71.5t-102.5 -26.5q-47 0 -85 20t-59.5 55t-21.5 79q0 22 4 39q10 51 41 89t88 85l98 80h-806q-27 0 -27 23q0 7 1 11l289 1360q6 33 40 33h940q30 0 30 -24z
" />
    <glyph glyph-name="eogonek" unicode="&#x119;" horiz-adv-x="1453" 
d="M1270 1171.5q117 -65.5 174.5 -177t57.5 -250.5q0 -78 -18 -161q-9 -41 -28 -54.5t-51 -13.5h-996q-5 -118 36.5 -198.5t116.5 -120t170 -39.5q84 0 152 20t113 45.5t108 67.5q14 10 28 10q13 0 17 -10l50 -93q5 -10 5 -18q0 -17 -19 -32q-78 -56 -149 -93l-147 -120
q-35 -28 -53.5 -46.5t-27.5 -41.5t-9 -43q0 -29 18.5 -46.5t53.5 -17.5q37 0 69 28.5t38 63.5q5 18 15 27t22 9h49q10 0 16.5 -6t6.5 -17q0 -6 -1 -9q-11 -52 -43 -97t-79.5 -71.5t-102.5 -26.5q-47 0 -85 20t-59.5 55t-21.5 79q0 22 4 39q9 44 33.5 78.5t66.5 70.5
q-35 -4 -81 -4q-146 0 -262 65.5t-181 179.5t-65 255q0 64 13 126q36 171 149 316.5t274 231t334 85.5q172 0 289 -65.5zM1314 735q0 94 -43.5 166.5t-124 113t-188.5 40.5q-106 0 -207 -45.5t-179.5 -125.5t-120.5 -181h862q1 11 1 32z" />
    <glyph glyph-name="Ecaron" unicode="&#x11a;" horiz-adv-x="1233" 
d="M999 1553h-1q-10 0 -21 12l-181 232q-9 13 -9 18q0 9 16 22l46 40q14 11 22 11q9 0 19 -13l128 -165l211 174q17 15 28 15q9 0 16 -9l42 -51q6 -7 6 -15q0 -13 -21 -31l-274 -228q-17 -12 -27 -12zM492 1427h940q30 0 30 -24q0 -6 -1 -9l-26 -120q-6 -34 -43 -34h-787
l-84 -396h609q33 0 33 -25q0 -6 -1 -9l-25 -118q-7 -33 -46 -33h-609l-100 -470h786q30 0 30 -24q0 -6 -1 -9l-26 -122q-7 -34 -43 -34h-939q-27 0 -27 23q0 7 1 11l289 1360q6 33 40 33z" />
    <glyph glyph-name="ecaron" unicode="&#x11b;" horiz-adv-x="1453" 
d="M1047 1360h-1q-10 0 -21 12l-181 232q-9 13 -9 18q0 9 16 22l46 40q14 11 22 11q9 0 19 -13l128 -165l211 174q17 15 28 15q9 0 16 -9l42 -51q6 -7 6 -15q0 -13 -21 -31l-274 -228q-17 -12 -27 -12zM445.5 316.5q41.5 -80.5 116.5 -120t170 -39.5q84 0 152 20t113 45.5
t108 67.5q14 10 28 10q13 0 17 -10l50 -93q5 -10 5 -18q0 -17 -19 -32q-117 -85 -228 -127t-239 -42q-146 0 -262 65.5t-181 179.5t-65 255q0 64 13 126q36 171 149 316.5t274 231t334 85.5q172 0 289 -65.5t174.5 -177t57.5 -250.5q0 -78 -18 -161q-9 -41 -28 -54.5
t-51 -13.5h-996q-5 -118 36.5 -198.5zM751 1009.5q-101 -45.5 -179.5 -125.5t-120.5 -181h862q1 11 1 32q0 94 -43.5 166.5t-124 113t-188.5 40.5q-106 0 -207 -45.5z" />
    <glyph glyph-name="Gcircumflex" unicode="&#x11c;" horiz-adv-x="1415" 
d="M1241 1904h1q10 0 21 -12l181 -232q9 -13 9 -18q0 -9 -16 -22l-46 -40q-14 -11 -22 -11q-9 0 -19 13l-128 165l-211 -174q-17 -15 -28 -15q-9 0 -16 9l-42 51q-6 8 -6 15q0 14 21 31l274 228q17 12 27 12zM1028.5 184q94.5 23 152.5 61l74 350q8 36 42 36h111
q26 0 26 -24q0 -8 -1 -12l-91 -430q-7 -26 -27 -38q-107 -68 -228.5 -106.5t-248.5 -38.5q-173 0 -309.5 75t-212.5 207t-76 296q0 72 17 154q44 200 178 367.5t322.5 265t388.5 97.5q124 0 222.5 -40.5t178.5 -115.5q12 -11 12 -24q0 -12 -11 -23l-75 -81q-9 -12 -27 -12
q-13 0 -23 9q-60 54 -130 80.5t-163 26.5q-154 0 -300 -73t-249 -199t-136 -278q-14 -68 -14 -128q0 -122 50.5 -218.5t145 -151.5t223.5 -55q84 0 178.5 23z" />
    <glyph glyph-name="gcircumflex" unicode="&#x11d;" horiz-adv-x="1515" 
d="M1166 1690h1q10 0 21 -12l181 -232q9 -13 9 -18q0 -9 -16 -22l-46 -40q-14 -11 -22 -11q-9 0 -19 13l-128 165l-211 -174q-17 -15 -28 -15q-9 0 -16 9l-42 51q-6 8 -6 15q0 14 21 31l274 228q17 12 27 12zM1283.5 -140q-115.5 -133 -270 -199t-313.5 -66
q-128 0 -217.5 28.5t-163.5 89.5q-12 11 -12 23q0 9 6 17.5t7 9.5l66 81q14 16 33 16q14 0 27 -9q47 -32 84.5 -50t87 -26.5t123.5 -8.5q98 0 208 49t189.5 125.5t95.5 154.5l15 72q-197 -188 -481 -188q-138 0 -252 63t-179.5 176t-65.5 257q0 67 15 139q35 167 146 311
t266.5 229t317.5 85q150 0 254 -45.5t169 -134.5l26 125q12 42 48 42h123q19 0 19 -23q0 -4 -2 -14l-213 -1004q-41 -192 -156.5 -325zM1361 712q0 100 -44.5 179.5t-126 125t-188.5 45.5q-119 0 -230.5 -60.5t-190 -163.5t-104.5 -226q-13 -58 -13 -114q0 -104 44.5 -181
t121.5 -118t173 -41q117 0 234 62t202 167t111 226q11 53 11 99z" />
    <glyph glyph-name="Gbreve" unicode="&#x11e;" horiz-adv-x="1415" 
d="M1054 1599q-49 27 -76 73t-27 99q0 23 4 42q3 17 15.5 26.5t28.5 9.5h77q17 0 25 -10.5t5 -25.5q-3 -13 -3 -27q0 -35 21 -57.5t67 -22.5q35 0 67 16.5t53.5 41.5t26.5 49q3 16 13.5 26t27.5 10h79q16 0 24.5 -9.5t5.5 -26.5q-13 -62 -61 -117.5t-117 -89.5t-143 -34
q-64 0 -113 27zM1028.5 184q94.5 23 152.5 61l74 350q8 36 42 36h111q26 0 26 -24q0 -8 -1 -12l-91 -430q-7 -26 -27 -38q-107 -68 -228.5 -106.5t-248.5 -38.5q-173 0 -309.5 75t-212.5 207t-76 296q0 72 17 154q44 200 178 367.5t322.5 265t388.5 97.5q124 0 222.5 -40.5
t178.5 -115.5q12 -11 12 -24q0 -12 -11 -23l-75 -81q-9 -12 -27 -12q-13 0 -23 9q-60 54 -130 80.5t-163 26.5q-154 0 -300 -73t-249 -199t-136 -278q-14 -68 -14 -128q0 -122 50.5 -218.5t145 -151.5t223.5 -55q84 0 178.5 23z" />
    <glyph glyph-name="gbreve" unicode="&#x11f;" horiz-adv-x="1515" 
d="M993 1379q-49 27 -76 73t-27 99q0 23 4 42q3 17 15.5 26.5t28.5 9.5h77q17 0 25 -10.5t5 -25.5q-3 -13 -3 -27q0 -35 21 -57.5t67 -22.5q35 0 67 16.5t53.5 41.5t26.5 49q3 16 13.5 26t27.5 10h79q16 0 24.5 -9.5t5.5 -26.5q-13 -62 -61 -117.5t-117 -89.5t-143 -34
q-64 0 -113 27zM1283.5 -140q-115.5 -133 -270 -199t-313.5 -66q-128 0 -217.5 28.5t-163.5 89.5q-12 11 -12 23q0 9 6 17.5t7 9.5l66 81q14 16 33 16q14 0 27 -9q47 -32 84.5 -50t87 -26.5t123.5 -8.5q98 0 208 49t189.5 125.5t95.5 154.5l15 72q-197 -188 -481 -188
q-138 0 -252 63t-179.5 176t-65.5 257q0 67 15 139q35 167 146 311t266.5 229t317.5 85q150 0 254 -45.5t169 -134.5l26 125q12 42 48 42h123q19 0 19 -23q0 -4 -2 -14l-213 -1004q-41 -192 -156.5 -325zM1361 712q0 100 -44.5 179.5t-126 125t-188.5 45.5
q-119 0 -230.5 -60.5t-190 -163.5t-104.5 -226q-13 -58 -13 -114q0 -104 44.5 -181t121.5 -118t173 -41q117 0 234 62t202 167t111 226q11 53 11 99z" />
    <glyph glyph-name="Gdotaccent" unicode="&#x120;" horiz-adv-x="1415" 
d="M1145 1753h106q30 0 30 -26q0 -5 -2 -15l-21 -102q-5 -22 -16 -30.5t-30 -8.5h-105q-34 0 -34 24q0 4 2 14l23 104q7 40 47 40zM1028.5 184q94.5 23 152.5 61l74 350q8 36 42 36h111q26 0 26 -24q0 -8 -1 -12l-91 -430q-7 -26 -27 -38q-107 -68 -228.5 -106.5
t-248.5 -38.5q-173 0 -309.5 75t-212.5 207t-76 296q0 72 17 154q44 200 178 367.5t322.5 265t388.5 97.5q124 0 222.5 -40.5t178.5 -115.5q12 -11 12 -24q0 -12 -11 -23l-75 -81q-9 -12 -27 -12q-13 0 -23 9q-60 54 -130 80.5t-163 26.5q-154 0 -300 -73t-249 -199
t-136 -278q-14 -68 -14 -128q0 -122 50.5 -218.5t145 -151.5t223.5 -55q84 0 178.5 23z" />
    <glyph glyph-name="gdotaccent" unicode="&#x121;" horiz-adv-x="1515" 
d="M1097 1570h106q30 0 30 -26q0 -5 -2 -15l-21 -102q-5 -22 -16 -30.5t-30 -8.5h-105q-34 0 -34 24q0 4 2 14l23 104q7 40 47 40zM1283.5 -140q-115.5 -133 -270 -199t-313.5 -66q-128 0 -217.5 28.5t-163.5 89.5q-12 11 -12 23q0 9 6 17.5t7 9.5l66 81q14 16 33 16
q14 0 27 -9q47 -32 84.5 -50t87 -26.5t123.5 -8.5q98 0 208 49t189.5 125.5t95.5 154.5l15 72q-197 -188 -481 -188q-138 0 -252 63t-179.5 176t-65.5 257q0 67 15 139q35 167 146 311t266.5 229t317.5 85q150 0 254 -45.5t169 -134.5l26 125q12 42 48 42h123q19 0 19 -23
q0 -4 -2 -14l-213 -1004q-41 -192 -156.5 -325zM1361 712q0 100 -44.5 179.5t-126 125t-188.5 45.5q-119 0 -230.5 -60.5t-190 -163.5t-104.5 -226q-13 -58 -13 -114q0 -104 44.5 -181t121.5 -118t173 -41q117 0 234 62t202 167t111 226q11 53 11 99z" />
    <glyph glyph-name="Gcommaaccent" unicode="&#x122;" horiz-adv-x="1415" 
d="M1028.5 184q94.5 23 152.5 61l74 350q8 36 42 36h111q26 0 26 -24q0 -8 -1 -12l-91 -430q-7 -26 -27 -38q-107 -68 -228.5 -106.5t-248.5 -38.5q-173 0 -309.5 75t-212.5 207t-76 296q0 72 17 154q44 200 178 367.5t322.5 265t388.5 97.5q124 0 222.5 -40.5t178.5 -115.5
q12 -11 12 -24q0 -12 -11 -23l-75 -81q-9 -12 -27 -12q-13 0 -23 9q-60 54 -130 80.5t-163 26.5q-154 0 -300 -73t-249 -199t-136 -278q-14 -68 -14 -128q0 -122 50.5 -218.5t145 -151.5t223.5 -55q84 0 178.5 23zM700.5 -130q10.5 9 26.5 9h122q26 0 26 -24q0 -6 -1 -10
l-23 -106q-30 -137 -122 -201q-12 -9 -22 -9q-9 0 -18 9l-23 24q-5 6 -5 14q0 12 14 22q23 19 39 42.5t20 39.5l2 12v2q0 8 -10 8h-39q-25 0 -25 23q0 7 1 11l23 108q4 17 14.5 26z" />
    <glyph glyph-name="gcommaaccent" unicode="&#x123;" horiz-adv-x="1515" 
d="M1171.5 1387q-10.5 -9 -26.5 -9h-122q-26 0 -26 24q0 6 1 10l23 106q30 137 122 201q12 9 22 9q9 0 18 -9l23 -24q5 -6 5 -14q0 -12 -14 -22q-23 -19 -39 -42.5t-20 -39.5l-2 -12v-2q0 -8 10 -8h39q25 0 25 -23q0 -7 -1 -11l-23 -108q-4 -17 -14.5 -26zM1283.5 -140
q-115.5 -133 -270 -199t-313.5 -66q-128 0 -217.5 28.5t-163.5 89.5q-12 11 -12 23q0 9 6 17.5t7 9.5l66 81q14 16 33 16q14 0 27 -9q47 -32 84.5 -50t87 -26.5t123.5 -8.5q98 0 208 49t189.5 125.5t95.5 154.5l15 72q-197 -188 -481 -188q-138 0 -252 63t-179.5 176
t-65.5 257q0 67 15 139q35 167 146 311t266.5 229t317.5 85q150 0 254 -45.5t169 -134.5l26 125q12 42 48 42h123q19 0 19 -23q0 -4 -2 -14l-213 -1004q-41 -192 -156.5 -325zM1361 712q0 100 -44.5 179.5t-126 125t-188.5 45.5q-119 0 -230.5 -60.5t-190 -163.5
t-104.5 -226q-13 -58 -13 -114q0 -104 44.5 -181t121.5 -118t173 -41q117 0 234 62t202 167t111 226q11 53 11 99z" />
    <glyph glyph-name="Hcircumflex" unicode="&#x124;" horiz-adv-x="1516" 
d="M1159 1898h1q10 0 21 -12l181 -232q9 -13 9 -18q0 -9 -16 -22l-46 -40q-14 -11 -22 -11q-9 0 -19 13l-128 165l-211 -174q-17 -15 -28 -15q-8 0 -16 9l-42 51q-6 8 -6 15q0 14 21 31l274 228q17 12 27 12zM479 658l-132 -622q-8 -36 -42 -36h-117q-28 0 -28 24q0 8 1 12
l288 1355q3 16 14 26t28 10h120q11 0 18.5 -6t7.5 -17l-2 -12l-116 -546h804l116 545q3 16 13.5 26t27.5 10h120q26 0 26 -22q0 -3 -2 -13l-288 -1356q-8 -36 -41 -36h-118q-27 0 -27 24q0 7 1 12l132 622h-804z" />
    <glyph glyph-name="hcircumflex" unicode="&#x125;" horiz-adv-x="1261" 
d="M1069 1704h1q10 0 21 -12l181 -232q9 -13 9 -18q0 -9 -16 -22l-46 -40q-14 -11 -22 -11q-9 0 -19 13l-128 165l-211 -174q-17 -15 -28 -15q-8 0 -16 9l-42 51q-6 8 -6 15q0 14 21 31l274 228q17 12 27 12zM1141 784q0 118 -61.5 194t-185.5 76q-86 0 -172 -41.5
t-147 -112t-78 -152.5l-150 -710q-4 -18 -14.5 -28t-27.5 -10h-116q-29 0 -29 23q0 10 2 15l320 1506q4 18 15 28t28 10h116q27 0 27 -27q0 -7 -1 -11l-96 -448q63 52 115 82t112.5 45.5t140.5 15.5q125 0 212 -52.5t131 -147t44 -218.5q0 -78 -18 -165l-130 -618
q-4 -18 -14.5 -28t-27.5 -10h-116q-29 0 -29 23q0 10 2 15l136 640q12 54 12 106z" />
    <glyph glyph-name="Hbar" unicode="&#x126;" horiz-adv-x="1484" 
d="M459 564l-112 -528q-8 -36 -42 -36h-117q-28 0 -28 24q0 8 1 12l288 1352q3 16 13.5 26t27.5 10h120q11 0 18.5 -6t7.5 -19q0 -6 -1 -10l-53 -247h804l53 246q3 16 13.5 26t26.5 10h120q26 0 26 -24q0 -7 -1 -11l-288 -1353q-8 -36 -41 -36h-118q-27 0 -27 24q0 7 1 12
l112 528h-804zM1302 747l49 227h-804l-49 -227h804z" />
    <glyph glyph-name="hbar" unicode="&#x127;" horiz-adv-x="1261" 
d="M1151 1186.5q87 -52.5 131 -147t44 -218.5q0 -78 -18 -165l-130 -618q-4 -18 -14.5 -28t-27.5 -10h-116q-29 0 -29 23q0 10 2 15l136 640q12 54 12 106q0 118 -61.5 194t-185.5 76q-86 0 -172 -41.5t-147 -112t-78 -152.5l-150 -710q-4 -18 -14.5 -28t-27.5 -10h-116
q-29 0 -29 23q0 10 2 15l271 1276h-107q-13 0 -20 6.5t-4 19.5l22 104q3 12 13 19.5t22 7.5h107l16 73q4 18 15 28t28 10h116q27 0 27 -27q0 -7 -1 -11l-16 -73h198q12 0 18 -7t4 -19l-23 -105q-2 -11 -12 -18.5t-21 -7.5h-197l-47 -218q63 52 115 82t112.5 45.5t140.5 15.5
q125 0 212 -52.5z" />
    <glyph glyph-name="Itilde" unicode="&#x128;" 
d="M337 1576q-11 0 -20 11l-32 40q-10 11 -10 20q0 6 5 13t18 20q48 48 94 71t97 23q30 0 58 -12.5t66 -36.5q31 -20 52.5 -30t41.5 -10q26 0 47 14t50 42q21 21 38 21q11 0 21 -10l28 -37q6 -7 6 -16q0 -11 -14 -27q-50 -55 -96.5 -81.5t-99.5 -26.5q-31 0 -57.5 12.5
t-61.5 36.5q-35 22 -53.5 31t-39.5 9q-31 0 -54 -15t-54 -46q-17 -16 -30 -16zM463.5 1417.5q10.5 9.5 26.5 9.5h120q27 0 27 -23q0 -3 -2 -13l-288 -1354q-7 -37 -40 -37h-120q-27 0 -27 24q0 8 1 13l288 1354q4 17 14.5 26.5z" />
    <glyph glyph-name="itilde" unicode="&#x129;" 
d="M289 1381q-11 0 -20 11l-32 40q-10 11 -10 20q0 6 5 13t18 20q48 48 94 71t97 23q30 0 58 -12.5t66 -36.5q31 -20 52.5 -30t41.5 -10q26 0 47 14t50 42q21 21 38 21q11 0 21 -10l28 -37q6 -7 6 -16q0 -11 -14 -27q-50 -55 -96.5 -81.5t-99.5 -26.5q-31 0 -57.5 12.5
t-61.5 36.5q-35 22 -53.5 31t-39.5 9q-31 0 -54 -15t-54 -46q-17 -16 -30 -16zM421 1217q11 9 27 9h118q13 0 20.5 -7t7.5 -19q0 -6 -1 -9l-246 -1155q-7 -36 -41 -36h-118q-28 0 -28 24q0 8 1 12l246 1155q3 17 14 26z" />
    <glyph glyph-name="Imacron" unicode="&#x12a;" 
d="M256 1730.5q10 7.5 25 7.5h668q13 0 19.5 -7t3.5 -21l-18 -85q-3 -12 -13 -20t-22 -8h-669q-13 0 -20.5 7t-4.5 21l18 84q3 14 13 21.5zM463.5 1417.5q10.5 9.5 26.5 9.5h120q27 0 27 -23q0 -3 -2 -13l-288 -1354q-7 -37 -40 -37h-120q-27 0 -27 24q0 8 1 13l288 1354
q4 17 14.5 26.5z" />
    <glyph glyph-name="imacron" unicode="&#x12b;" 
d="M329 1513.5q10 7.5 25 7.5h438q13 0 19.5 -7t3.5 -21l-18 -85q-3 -12 -13 -20t-22 -8h-439q-13 0 -20.5 7t-4.5 21l18 84q3 14 13 21.5zM421 1217q11 9 27 9h118q13 0 20.5 -7t7.5 -19q0 -6 -1 -9l-246 -1155q-7 -36 -41 -36h-118q-28 0 -28 24q0 8 1 12l246 1155
q3 17 14 26z" />
    <glyph glyph-name="Ibreve" unicode="&#x12c;" 
d="M462 1574q-49 27 -76 73t-27 99q0 23 4 42q3 17 15.5 26.5t28.5 9.5h77q17 0 25 -10.5t5 -25.5q-3 -13 -3 -27q0 -35 21 -57.5t67 -22.5q35 0 67 16.5t53.5 41.5t26.5 49q3 16 13.5 26t27.5 10h79q16 0 24.5 -9.5t5.5 -26.5q-13 -62 -61 -117.5t-117 -89.5t-143 -34
q-64 0 -113 27zM463.5 1417.5q10.5 9.5 26.5 9.5h120q27 0 27 -23q0 -3 -2 -13l-288 -1354q-7 -37 -40 -37h-120q-27 0 -27 24q0 8 1 13l288 1354q4 17 14.5 26.5z" />
    <glyph glyph-name="ibreve" unicode="&#x12d;" 
d="M431 1399q-49 27 -76 73t-27 99q0 23 4 42q3 17 15.5 26.5t28.5 9.5h77q17 0 25 -10.5t5 -25.5q-3 -13 -3 -27q0 -35 21 -57.5t67 -22.5q35 0 67 16.5t53.5 41.5t26.5 49q3 16 13.5 26t27.5 10h79q16 0 24.5 -9.5t5.5 -26.5q-13 -62 -61 -117.5t-117 -89.5t-143 -34
q-64 0 -113 27zM421 1217q11 9 27 9h118q13 0 20.5 -7t7.5 -19q0 -6 -1 -9l-246 -1155q-7 -36 -41 -36h-118q-28 0 -28 24q0 8 1 12l246 1155q3 17 14 26z" />
    <glyph glyph-name="Iogonek" unicode="&#x12e;" 
d="M637 1404q0 -3 -2 -13l-288 -1354l-1 -4q1 -12 -16 -28l-191 -156q-35 -28 -53.5 -46.5t-27.5 -41.5t-9 -43q0 -29 18.5 -46.5t53.5 -17.5q37 0 69 28.5t38 63.5q5 18 15 27t22 9h49q10 0 16.5 -6t6.5 -17q0 -6 -1 -9q-11 -52 -43 -97t-79.5 -71.5t-102.5 -26.5
q-47 0 -85 20t-59.5 55t-21.5 79q0 22 4 39q10 51 41 89t88 85l97 79q-15 4 -15 23q0 8 1 13l288 1354q4 17 14.5 26.5t26.5 9.5h120q27 0 27 -23z" />
    <glyph glyph-name="iogonek" unicode="&#x12f;" 
d="M669 1554q0 -3 -2 -15l-23 -106q-5 -22 -15.5 -30t-29.5 -8h-108q-35 0 -35 24q0 3 2 13l23 109q4 19 16 30t33 11h109q30 0 30 -28zM586.5 1219q7.5 -7 7.5 -19q0 -6 -1 -9l-246 -1155l-2 -9q-3 -10 -16 -22l-191 -156q-35 -28 -53.5 -46.5t-27.5 -41.5t-9 -43
q0 -29 18.5 -46.5t53.5 -17.5q37 0 69 28.5t38 63.5q5 18 15 27t22 9h49q10 0 16.5 -6t6.5 -17q0 -6 -1 -9q-11 -52 -43 -97t-79.5 -71.5t-102.5 -26.5q-47 0 -85 20t-59.5 55t-21.5 79q0 22 4 39q10 51 41 89t88 85l97 80q-14 5 -14 22q0 8 1 12l246 1155q3 17 14 26t27 9
h118q13 0 20.5 -7z" />
    <glyph glyph-name="Idotaccent" unicode="&#x130;" 
d="M570 1773h106q30 0 30 -26q0 -5 -2 -15l-21 -102q-5 -22 -16 -30.5t-30 -8.5h-105q-34 0 -34 24q0 4 2 14l23 104q7 40 47 40zM463.5 1417.5q10.5 9.5 26.5 9.5h120q27 0 27 -23q0 -3 -2 -13l-288 -1354q-7 -37 -40 -37h-120q-27 0 -27 24q0 8 1 13l288 1354
q4 17 14.5 26.5z" />
    <glyph glyph-name="dotlessi" unicode="&#x131;" 
d="M421 1217q11 9 27 9h118q13 0 20.5 -7t7.5 -19q0 -6 -1 -9l-246 -1155q-7 -36 -41 -36h-118q-28 0 -28 24q0 8 1 12l246 1155q3 17 14 26z" />
    <glyph glyph-name="IJ" unicode="&#x132;" horiz-adv-x="989" 
d="M956 1418.5q11 8.5 25 8.5h116q30 0 30 -23q0 -8 -3 -17l-271 -1276q-4 -15 -10 -45q-13 -55 -22 -91q-28 -90 -97 -166.5t-162.5 -121.5t-190.5 -45q-73 0 -144.5 33t-110.5 90q-12 14 -12 30q0 15 14 26l80 68q14 11 26 11t20 -8.5t10 -10.5q50 -63 146 -63
q58 0 111 28t89.5 73.5t47.5 95.5l292 1376q5 19 16 27.5zM476.5 1417.5q10.5 9.5 26.5 9.5h120q27 0 27 -23q0 -3 -2 -13l-288 -1354q-7 -37 -40 -37h-120q-27 0 -27 24q0 8 1 13l288 1354q4 17 14.5 26.5z" />
    <glyph glyph-name="ij" unicode="&#x133;" horiz-adv-x="912" 
d="M936 1575q12 11 33 11h109q29 0 29 -26q0 -11 -2 -17l-22 -106q-5 -22 -15.5 -30t-29.5 -8h-108q-35 0 -35 24q0 3 2 13l23 109q4 19 16 30zM499 1571q12 11 33 11h109q30 0 30 -28q0 -3 -2 -15l-23 -106q-5 -22 -15.5 -30t-29.5 -8h-108q-35 0 -35 24q0 3 2 13l23 109
q4 19 16 30zM423 1217q11 9 27 9h118q13 0 20.5 -7t7.5 -19q0 -6 -1 -9l-246 -1155q-7 -36 -41 -36h-118q-28 0 -28 24q0 8 1 12l246 1155q3 17 14 26zM893 1226h118q26 0 26 -24q0 -8 -1 -13l-252 -1186q-36 -169 -136 -275.5t-275 -106.5q-25 0 -34.5 11t-6.5 22l20 93
q0 1 3.5 11t15.5 17.5t32 7.5q149 0 198 233l249 1173q7 37 43 37z" />
    <glyph glyph-name="Jcircumflex" unicode="&#x134;" horiz-adv-x="501" 
d="M660 1894h1q10 0 21 -12l181 -232q9 -13 9 -18q0 -9 -16 -22l-46 -40q-14 -11 -22 -11q-9 0 -19 13l-128 165l-211 -174q-17 -15 -28 -15q-8 0 -16 9l-42 51q-6 8 -6 15q0 14 21 31l274 228q17 12 27 12zM474 1418.5q11 8.5 25 8.5h116q30 0 30 -23q0 -8 -3 -17
l-271 -1276q-4 -15 -10 -45q-13 -55 -22 -91q-28 -90 -97 -166.5t-162.5 -121.5t-190.5 -45q-73 0 -144.5 33t-110.5 90q-12 14 -12 30q0 15 14 26l80 68q14 11 26 11t20 -8.5t10 -10.5q50 -63 146 -63q58 0 111 28t89.5 73.5t47.5 95.5l292 1376q5 19 16 27.5z" />
    <glyph glyph-name="jcircumflex" unicode="&#x135;" 
d="M613 1691h1q10 0 21 -12l181 -232q9 -13 9 -18q0 -9 -16 -22l-46 -40q-14 -11 -22 -11q-9 0 -19 13l-128 165l-211 -174q-17 -15 -28 -15q-8 0 -16 9l-42 51q-6 8 -6 15q0 14 21 31l274 228q17 12 27 12zM460 1225h111q26 0 26 -24q0 -8 -1 -13l-252 -1185
q-22 -104 -88.5 -194.5t-171 -146.5t-234.5 -56q-25 0 -34.5 11t-6.5 22l18 84q0 1 3.5 11t15.5 17.5t32 7.5q117 0 192 72.5t98 184.5l249 1172q7 37 43 37z" />
    <glyph glyph-name="Kcommaaccent" unicode="&#x136;" horiz-adv-x="1409" 
d="M1331 43q5 -8 5 -15q0 -11 -9.5 -19.5t-22.5 -8.5h-146q-21 0 -37 28l-399 650l-291 -252l-83 -390q-7 -36 -40 -36h-120q-26 0 -26 24q0 7 1 12l288 1354q4 17 14 27t26 10h119q11 0 19 -8t8 -20q0 -6 -1 -9l-147 -692l809 704q16 15 28 20t24 5h164q11 0 16.5 -5
t5.5 -13q0 -14 -15 -28l-658 -582zM548.5 -108q10.5 9 26.5 9h122q26 0 26 -24q0 -6 -1 -10l-23 -106q-30 -137 -122 -201q-12 -9 -22 -9q-9 0 -18 9l-23 24q-5 6 -5 14q0 12 14 22q23 19 39 42.5t20 39.5l2 12v2q0 8 -10 8h-39q-25 0 -25 23q0 7 1 11l23 108q4 17 14.5 26z
" />
    <glyph glyph-name="kcommaaccent" unicode="&#x137;" horiz-adv-x="1198" 
d="M1094 57q6 -9 6 -19q0 -15 -13 -26.5t-28 -11.5h-119q-12 0 -21.5 6t-18.5 21l-319 529l-152 -128l-83 -391q-6 -37 -39 -37h-118q-27 0 -27 26q0 7 1 11l321 1510q8 35 41 35h118q25 0 25 -23q0 -8 -1 -12l-180 -846l595 506q16 13 27 16.5t26 3.5h158q15 0 23 -7t8 -17
q0 -19 -17 -33l-587 -500zM486.5 -106q10.5 9 26.5 9h122q26 0 26 -24q0 -6 -1 -10l-23 -106q-30 -137 -122 -201q-12 -9 -22 -9q-9 0 -18 9l-23 24q-5 6 -5 14q0 12 14 22q23 19 39 42.5t20 39.5l2 12v2q0 8 -10 8h-39q-25 0 -25 23q0 7 1 11l23 108q4 17 14.5 26z" />
    <glyph glyph-name="kgreenlandic" unicode="&#x138;" horiz-adv-x="1198" 
d="M1094 57q6 -9 6 -19q0 -15 -13 -26.5t-28 -11.5h-119q-12 0 -21.5 6t-18.5 21l-319 529l-152 -128l-83 -391q-6 -37 -39 -37h-118q-27 0 -27 26q0 7 1 11l287 1355q8 35 41 35h118q25 0 25 -23q0 -8 -1 -12l-146 -691l595 506q16 13 27 16.5t26 3.5h158q15 0 23 -7t8 -17
q0 -19 -17 -33l-587 -500z" />
    <glyph glyph-name="Lacute" unicode="&#x139;" horiz-adv-x="1102" 
d="M659.5 1566q-9.5 -5 -22.5 -5h-94q-10 0 -20 7.5t-10 19.5q0 11 8 22l151 218q12 17 22 23.5t23 6.5h101q10 -1 16.5 -8t6.5 -17q0 -12 -8 -23l-151 -220q-13 -19 -22.5 -24zM466 1416q11 10 26 10h120q25 0 25 -24q0 -8 -1 -13l-259 -1215h702q32 0 32 -24q0 -6 -1 -9
l-22 -107q-7 -34 -45 -34h-854q-27 0 -27 23q0 7 1 11l288 1355q4 17 15 27z" />
    <glyph glyph-name="lacute" unicode="&#x13a;" 
d="M693.5 1732q-9.5 -5 -22.5 -5h-94q-10 0 -20 7.5t-10 19.5q0 11 8 22l151 218q12 17 22 23.5t23 6.5h101q10 -1 16.5 -8t6.5 -17q0 -12 -8 -23l-151 -220q-13 -19 -22.5 -24zM500 1572q11 10 28 10h116q27 0 27 -27q0 -7 -1 -11l-320 -1506q-4 -18 -14.5 -28t-27.5 -10
h-116q-29 0 -29 23q0 10 2 15l320 1506q4 18 15 28z" />
    <glyph glyph-name="Lcommaaccent" unicode="&#x13b;" horiz-adv-x="1102" 
d="M466 1416q11 10 26 10h120q25 0 25 -24q0 -8 -1 -13l-259 -1215h702q32 0 32 -24q0 -6 -1 -9l-22 -107q-7 -34 -45 -34h-854q-27 0 -27 23q0 7 1 11l288 1355q4 17 15 27zM479.5 -155q10.5 9 26.5 9h122q26 0 26 -24q0 -6 -1 -10l-23 -106q-30 -137 -122 -201
q-12 -9 -22 -9q-9 0 -18 9l-23 24q-5 6 -5 14q0 12 14 22q23 19 39 42.5t20 39.5l2 12v2q0 8 -10 8h-39q-25 0 -25 23q0 7 1 11l23 108q4 17 14.5 26z" />
    <glyph glyph-name="lcommaaccent" unicode="&#x13c;" 
d="M497 1572q11 10 28 10h116q27 0 27 -27q0 -7 -1 -11l-320 -1506q-4 -18 -14.5 -28t-27.5 -10h-116q-29 0 -29 23q0 10 2 15l320 1506q4 18 15 28zM131.5 -139q10.5 9 26.5 9h122q26 0 26 -24q0 -6 -1 -10l-23 -106q-30 -137 -122 -201q-12 -9 -22 -9q-9 0 -18 9l-23 24
q-5 6 -5 14q0 12 14 22q23 19 39 42.5t20 39.5l2 12v2q0 8 -10 8h-39q-25 0 -25 23q0 7 1 11l23 108q4 17 14.5 26z" />
    <glyph glyph-name="Lcaron" unicode="&#x13d;" horiz-adv-x="1102" 
d="M834.5 1424q10.5 9 26.5 9h122q26 0 26 -24q0 -6 -1 -10l-23 -106q-30 -137 -122 -201q-12 -9 -22 -9q-9 0 -18 9l-23 24q-5 6 -5 14q0 12 14 22q23 19 39 42.5t20 39.5l2 12v2q0 8 -10 8h-39q-25 0 -25 23q0 7 1 11l23 108q4 17 14.5 26zM466 1416q11 10 26 10h120
q25 0 25 -24q0 -8 -1 -13l-259 -1215h702q32 0 32 -24q0 -6 -1 -9l-22 -107q-7 -34 -45 -34h-854q-27 0 -27 23q0 7 1 11l288 1355q4 17 15 27z" />
    <glyph glyph-name="lcaron" unicode="&#x13e;" 
d="M497 1572q11 10 28 10h116q27 0 27 -27q0 -7 -1 -11l-320 -1506q-4 -18 -14.5 -28t-27.5 -10h-116q-29 0 -29 23q0 10 2 15l320 1506q4 18 15 28zM765.5 1573q10.5 9 26.5 9h122q26 0 26 -24q0 -6 -1 -10l-23 -106q-30 -137 -122 -201q-12 -9 -22 -9q-9 0 -18 9l-23 24
q-5 6 -5 14q0 12 14 22q23 19 39 42.5t20 39.5l2 12v2q0 8 -10 8h-39q-25 0 -25 23q0 7 1 11l23 108q4 17 14.5 26z" />
    <glyph glyph-name="Ldot" unicode="&#x13f;" horiz-adv-x="1102" 
d="M466 1416q11 10 26 10h120q25 0 25 -24q0 -8 -1 -13l-259 -1215h702q32 0 32 -24q0 -6 -1 -9l-22 -107q-7 -34 -45 -34h-854q-27 0 -27 23q0 7 1 11l288 1355q4 17 15 27zM835 810h106q30 0 30 -26q0 -5 -2 -15l-21 -102q-5 -22 -16 -30.5t-30 -8.5h-105q-34 0 -34 24
q0 4 2 14l23 104q7 40 47 40z" />
    <glyph glyph-name="ldot" unicode="&#x140;" 
d="M497 1572q11 10 28 10h116q27 0 27 -27q0 -7 -1 -11l-320 -1506q-4 -18 -14.5 -28t-27.5 -10h-116q-29 0 -29 23q0 10 2 15l320 1506q4 18 15 28zM623 801h106q30 0 30 -26q0 -5 -2 -15l-21 -102q-5 -22 -16 -30.5t-30 -8.5h-105q-34 0 -34 24q0 4 2 14l23 104
q7 40 47 40z" />
    <glyph glyph-name="Lslash" unicode="&#x141;" horiz-adv-x="1102" 
d="M1111 151q0 -6 -1 -9l-22 -107q-7 -34 -45 -34h-854q-27 0 -27 23q0 7 1 11l121 568l-164 -55q-12 -4 -22 -4q-19 0 -15 19l18 85q3 15 8.5 22.5t18.5 12.5l186 63l137 644q4 17 15 27t26 10h120q25 0 25 -24q0 -8 -1 -13l-123 -577l239 81q7 3 15 3q9 0 14.5 -5t3.5 -13
l-17 -83q-3 -16 -8 -24t-16 -13l-261 -88l-106 -496h702q32 0 32 -24z" />
    <glyph glyph-name="lslash" unicode="&#x142;" 
d="M770 950q10 0 15.5 -4.5t4.5 -12.5l-17 -82q-2 -15 -7.5 -23.5t-16.5 -13.5l-242 -84l-147 -692q-4 -18 -14.5 -28t-27.5 -10h-116q-29 0 -29 23q0 10 2 15l132 622l-165 -57q-12 -4 -18 -4q-8 0 -13.5 4.5t-4.5 13.5l17 81q4 17 8.5 25t17.5 13l188 66l158 742
q4 18 15 28t28 10h116q27 0 27 -27q0 -7 -1 -11l-143 -672l219 76q10 2 14 2z" />
    <glyph glyph-name="Nacute" unicode="&#x143;" horiz-adv-x="1516" 
d="M1192.5 1557q-9.5 -5 -22.5 -5h-94q-10 0 -20 7.5t-10 19.5q0 11 8 22l151 218q12 17 22 23.5t23 6.5h101q10 -1 16.5 -8t6.5 -17q0 -12 -8 -23l-151 -220q-13 -19 -22.5 -24zM341 37q-7 -37 -42 -37h-111q-28 0 -28 25q0 8 1 12l288 1355q3 14 14.5 24t27.5 10h114
q22 0 39 -29l597 -1105l234 1100q3 15 14.5 24.5t28.5 9.5h111q12 0 20 -6.5t8 -18.5q0 -6 -1 -9l-288 -1355q-7 -37 -42 -37h-120q-13 0 -23 6t-18 22l-587 1122z" />
    <glyph glyph-name="nacute" unicode="&#x144;" horiz-adv-x="1261" 
d="M1060.5 1371q-9.5 -5 -22.5 -5h-94q-10 0 -20 7.5t-10 19.5q0 11 8 22l151 218q12 17 22 23.5t23 6.5h101q10 -1 16.5 -8t6.5 -17q0 -12 -8 -23l-151 -220q-13 -19 -22.5 -24zM328 10q-14 -10 -32 -10h-108q-28 0 -28 25q0 8 1 12l245 1151q8 38 42 38h122q22 0 22 -24
q0 -6 -2 -18l-27 -127q176 182 399 182q109 0 193.5 -46t131.5 -133t47 -205q0 -68 -14 -134l-146 -685q-7 -36 -40 -36h-115q-30 0 -30 24q0 8 1 12l143 674q15 72 15 124q0 222 -242 222q-79 0 -167 -40.5t-157 -118t-92 -184.5l-144 -676q-4 -17 -18 -27z" />
    <glyph glyph-name="Ncommaaccent" unicode="&#x145;" horiz-adv-x="1516" 
d="M341 37q-7 -37 -42 -37h-111q-28 0 -28 25q0 8 1 12l288 1355q3 14 14.5 24t27.5 10h114q22 0 39 -29l597 -1105l234 1100q3 15 14.5 24.5t28.5 9.5h111q12 0 20 -6.5t8 -18.5q0 -6 -1 -9l-288 -1355q-7 -37 -42 -37h-120q-13 0 -23 6t-18 22l-587 1122zM627.5 -130
q10.5 9 26.5 9h122q26 0 26 -24q0 -6 -1 -10l-23 -106q-30 -137 -122 -201q-12 -9 -22 -9q-9 0 -18 9l-23 24q-5 6 -5 14q0 12 14 22q23 19 39 42.5t20 39.5l2 12v2q0 8 -10 8h-39q-25 0 -25 23q0 7 1 11l23 108q4 17 14.5 26z" />
    <glyph glyph-name="ncommaaccent" unicode="&#x146;" horiz-adv-x="1261" 
d="M328 10q-14 -10 -32 -10h-108q-28 0 -28 25q0 8 1 12l245 1151q8 38 42 38h122q22 0 22 -24q0 -6 -2 -18l-27 -127q176 182 399 182q109 0 193.5 -46t131.5 -133t47 -205q0 -68 -14 -134l-146 -685q-7 -36 -40 -36h-115q-30 0 -30 24q0 8 1 12l143 674q15 72 15 124
q0 222 -242 222q-79 0 -167 -40.5t-157 -118t-92 -184.5l-144 -676q-4 -17 -18 -27zM545.5 -117q10.5 9 26.5 9h122q26 0 26 -24q0 -6 -1 -10l-23 -106q-30 -137 -122 -201q-12 -9 -22 -9q-9 0 -18 9l-23 24q-5 6 -5 14q0 12 14 22q23 19 39 42.5t20 39.5l2 12v2q0 8 -10 8
h-39q-25 0 -25 23q0 7 1 11l23 108q4 17 14.5 26z" />
    <glyph glyph-name="Ncaron" unicode="&#x147;" horiz-adv-x="1516" 
d="M1130 1538h-1q-10 0 -21 12l-181 232q-9 13 -9 18q0 9 16 22l46 40q14 11 22 11q9 0 19 -13l128 -165l211 174q17 15 28 15q9 0 16 -9l42 -51q6 -7 6 -15q0 -13 -21 -31l-274 -228q-17 -12 -27 -12zM341 37q-7 -37 -42 -37h-111q-28 0 -28 25q0 8 1 12l288 1355
q3 14 14.5 24t27.5 10h114q22 0 39 -29l597 -1105l234 1100q3 15 14.5 24.5t28.5 9.5h111q12 0 20 -6.5t8 -18.5q0 -6 -1 -9l-288 -1355q-7 -37 -42 -37h-120q-13 0 -23 6t-18 22l-587 1122z" />
    <glyph glyph-name="ncaron" unicode="&#x148;" horiz-adv-x="1261" 
d="M985 1351h-1q-10 0 -21 12l-181 232q-9 13 -9 18q0 9 16 22l46 40q14 11 22 11q9 0 19 -13l128 -165l211 174q17 15 28 15q9 0 16 -9l42 -51q6 -7 6 -15q0 -13 -21 -31l-274 -228q-17 -12 -27 -12zM328 10q-14 -10 -32 -10h-108q-28 0 -28 25q0 8 1 12l245 1151
q8 38 42 38h122q22 0 22 -24q0 -6 -2 -18l-27 -127q176 182 399 182q109 0 193.5 -46t131.5 -133t47 -205q0 -68 -14 -134l-146 -685q-7 -36 -40 -36h-115q-30 0 -30 24q0 8 1 12l143 674q15 72 15 124q0 222 -242 222q-79 0 -167 -40.5t-157 -118t-92 -184.5l-144 -676
q-4 -17 -18 -27z" />
    <glyph glyph-name="napostrophe" unicode="&#x149;" horiz-adv-x="1261" 
d="M328 10q-14 -10 -32 -10h-108q-28 0 -28 25q0 8 1 12l245 1151q8 38 42 38h122q22 0 22 -24q0 -6 -2 -18l-27 -127q176 182 399 182q109 0 193.5 -46t131.5 -133t47 -205q0 -68 -14 -134l-146 -685q-7 -36 -40 -36h-115q-30 0 -30 24q0 8 1 12l143 674q15 72 15 124
q0 222 -242 222q-79 0 -167 -40.5t-157 -118t-92 -184.5l-144 -676q-4 -17 -18 -27zM162.5 1218q10.5 9 26.5 9h122q26 0 26 -24q0 -6 -1 -10l-23 -106q-30 -137 -122 -201q-12 -9 -22 -9q-9 0 -18 9l-23 24q-5 6 -5 14q0 12 14 22q23 19 39 42.5t20 39.5l2 12v2q0 8 -10 8
h-39q-25 0 -25 23q0 7 1 11l23 108q4 17 14.5 26z" />
    <glyph glyph-name="Eng" unicode="&#x14a;" horiz-adv-x="1516" 
d="M490 1426h132q23 0 38 -29l576 -1106l239 1101q12 34 42 34h112q12 0 19.5 -6.5t7.5 -18.5q0 -6 -1 -9l-307 -1445q-21 -101 -89.5 -189.5t-167.5 -141t-207 -52.5q-148 0 -246 113q-18 18 -18 32q0 15 17 29l71 64q14 11 24 11q11 0 18.5 -8.5t9.5 -10.5
q23 -28 56 -45.5t86 -17.5q58 0 114 30.5t95.5 78.5t49.5 98l16 73l-595 1159l-241 -1136q-7 -34 -42 -34h-112q-27 0 -27 23q0 7 1 11l288 1358q9 34 41 34z" />
    <glyph glyph-name="eng" unicode="&#x14b;" horiz-adv-x="1261" 
d="M328 10q-14 -10 -32 -10h-108q-28 0 -28 25q0 8 1 12l245 1150q8 38 42 38h100q12 0 19 -8.5t7 -22.5q0 -7 -1 -11l-29 -139q81 99 190 146.5t223 47.5q111 0 193.5 -49.5t126 -135.5t43.5 -191q0 -56 -11 -106l-153 -720q-23 -108 -86 -191t-162 -130.5t-226 -47.5
q-25 0 -34.5 11.5t-6.5 22.5l17 85q7 37 52 37q216 0 263 208l155 724q7 31 7 70q0 63 -23.5 117t-75.5 88t-133 34t-166 -34.5t-151 -106.5t-89 -179l-151 -707q-4 -17 -18 -27z" />
    <glyph glyph-name="Omacron" unicode="&#x14c;" horiz-adv-x="1688" 
d="M853 1718.5q10 7.5 25 7.5h668q13 0 19.5 -7t3.5 -21l-18 -85q-3 -12 -13 -20t-22 -8h-669q-13 0 -20.5 7t-4.5 21l18 84q3 14 13 21.5zM436 1079.5q135 168.5 325 267t389 98.5q173 0 307 -75t208 -207t74 -296q0 -73 -17 -155q-43 -200 -175.5 -367t-320 -264.5
t-387.5 -97.5q-173 0 -308.5 74.5t-211.5 205.5t-76 295q0 72 17 154q41 199 176 367.5zM433 584q0 -122 51 -217.5t147 -149.5t226 -54q152 0 296.5 73.5t247.5 199.5t134 276q15 69 15 132q0 122 -50.5 217t-145.5 149t-223 54q-162 0 -307 -73.5t-244.5 -199.5
t-132.5 -279q-14 -68 -14 -128z" />
    <glyph glyph-name="omacron" unicode="&#x14d;" horiz-adv-x="1457" 
d="M710 1527.5q10 7.5 25 7.5h668q13 0 19.5 -7t3.5 -21l-18 -85q-3 -12 -13 -20t-22 -8h-669q-13 0 -20.5 7t-4.5 21l18 84q3 14 13 21.5zM382.5 925q114.5 144 276.5 228.5t333 84.5q150 0 265.5 -64.5t179 -178t63.5 -254.5q0 -62 -14 -132q-35 -170 -150 -315.5
t-278 -231.5t-334 -86q-148 0 -263.5 65.5t-180 179.5t-64.5 255q0 64 15 133q37 172 151.5 316zM407 506q0 -100 42 -179.5t118.5 -124.5t175.5 -45q129 0 245.5 60t198 163.5t107.5 228.5q13 65 13 117q0 99 -38.5 174.5t-113.5 118.5t-181 43q-117 0 -236 -60.5
t-206.5 -165t-113.5 -227.5q-11 -55 -11 -103z" />
    <glyph glyph-name="Obreve" unicode="&#x14e;" horiz-adv-x="1688" 
d="M1091 1590q-49 27 -76 73t-27 99q0 23 4 42q3 17 15.5 26.5t28.5 9.5h77q17 0 25 -10.5t5 -25.5q-3 -13 -3 -27q0 -35 21 -57.5t67 -22.5q35 0 67 16.5t53.5 41.5t26.5 49q3 16 13.5 26t27.5 10h79q16 0 24.5 -9.5t5.5 -26.5q-13 -62 -61 -117.5t-117 -89.5t-143 -34
q-64 0 -113 27zM436 1079.5q135 168.5 325 267t389 98.5q173 0 307 -75t208 -207t74 -296q0 -73 -17 -155q-43 -200 -175.5 -367t-320 -264.5t-387.5 -97.5q-173 0 -308.5 74.5t-211.5 205.5t-76 295q0 72 17 154q41 199 176 367.5zM433 584q0 -122 51 -217.5t147 -149.5
t226 -54q152 0 296.5 73.5t247.5 199.5t134 276q15 69 15 132q0 122 -50.5 217t-145.5 149t-223 54q-162 0 -307 -73.5t-244.5 -199.5t-132.5 -279q-14 -68 -14 -128z" />
    <glyph glyph-name="obreve" unicode="&#x14f;" horiz-adv-x="1457" 
d="M916 1379q-49 27 -76 73t-27 99q0 23 4 42q3 17 15.5 26.5t28.5 9.5h77q17 0 25 -10.5t5 -25.5q-3 -13 -3 -27q0 -35 21 -57.5t67 -22.5q35 0 67 16.5t53.5 41.5t26.5 49q3 16 13.5 26t27.5 10h79q16 0 24.5 -9.5t5.5 -26.5q-13 -62 -61 -117.5t-117 -89.5t-143 -34
q-64 0 -113 27zM382.5 925q114.5 144 276.5 228.5t333 84.5q150 0 265.5 -64.5t179 -178t63.5 -254.5q0 -62 -14 -132q-35 -170 -150 -315.5t-278 -231.5t-334 -86q-148 0 -263.5 65.5t-180 179.5t-64.5 255q0 64 15 133q37 172 151.5 316zM407 506q0 -100 42 -179.5
t118.5 -124.5t175.5 -45q129 0 245.5 60t198 163.5t107.5 228.5q13 65 13 117q0 99 -38.5 174.5t-113.5 118.5t-181 43q-117 0 -236 -60.5t-206.5 -165t-113.5 -227.5q-11 -55 -11 -103z" />
    <glyph glyph-name="Ohungarumlaut" unicode="&#x150;" horiz-adv-x="1688" 
d="M1090.5 1569.5q-9.5 -5.5 -23.5 -5.5h-101q-11 0 -18.5 5.5t-7.5 15.5q0 11 9 24l163 221q12 17 22.5 23t23.5 6h99q10 -1 16.5 -7.5t6.5 -16.5q0 -11 -9 -23l-158 -218q-13 -19 -22.5 -24.5zM1451 1569.5q-9 -5.5 -23 -5.5h-102q-10 0 -17.5 5.5t-7.5 15.5q0 11 9 24
l161 221q14 17 23.5 23t23.5 6h100q10 -1 16.5 -7.5t6.5 -16.5q0 -11 -9 -23l-159 -218q-13 -19 -22 -24.5zM436 1079.5q135 168.5 325 267t389 98.5q173 0 307 -75t208 -207t74 -296q0 -73 -17 -155q-43 -200 -175.5 -367t-320 -264.5t-387.5 -97.5q-173 0 -308.5 74.5
t-211.5 205.5t-76 295q0 72 17 154q41 199 176 367.5zM433 584q0 -122 51 -217.5t147 -149.5t226 -54q152 0 296.5 73.5t247.5 199.5t134 276q15 69 15 132q0 122 -50.5 217t-145.5 149t-223 54q-162 0 -307 -73.5t-244.5 -199.5t-132.5 -279q-14 -68 -14 -128z" />
    <glyph glyph-name="ohungarumlaut" unicode="&#x151;" horiz-adv-x="1457" 
d="M925.5 1375.5q-9.5 -5.5 -23.5 -5.5h-101q-11 0 -18.5 5.5t-7.5 15.5q0 11 9 24l163 221q12 17 22.5 23t23.5 6h99q10 -1 16.5 -7.5t6.5 -16.5q0 -11 -9 -23l-158 -218q-13 -19 -22.5 -24.5zM1286 1375.5q-9 -5.5 -23 -5.5h-102q-10 0 -17.5 5.5t-7.5 15.5q0 11 9 24
l161 221q14 17 23.5 23t23.5 6h100q10 -1 16.5 -7.5t6.5 -16.5q0 -11 -9 -23l-159 -218q-13 -19 -22 -24.5zM382.5 925q114.5 144 276.5 228.5t333 84.5q150 0 265.5 -64.5t179 -178t63.5 -254.5q0 -62 -14 -132q-35 -170 -150 -315.5t-278 -231.5t-334 -86
q-148 0 -263.5 65.5t-180 179.5t-64.5 255q0 64 15 133q37 172 151.5 316zM407 506q0 -100 42 -179.5t118.5 -124.5t175.5 -45q129 0 245.5 60t198 163.5t107.5 228.5q13 65 13 117q0 99 -38.5 174.5t-113.5 118.5t-181 43q-117 0 -236 -60.5t-206.5 -165t-113.5 -227.5
q-11 -55 -11 -103z" />
    <glyph glyph-name="OE" unicode="&#x152;" horiz-adv-x="2406" 
d="M400 1082.5q135 169.5 324.5 268.5t389.5 99q162 0 290.5 -66t208.5 -184l40 192q7 34 42 34h929q28 0 28 -23q0 -7 -1 -11l-21 -101q-7 -34 -42 -34h-777l-96 -448h628q32 0 32 -23q0 -6 -1 -9l-18 -84q-7 -34 -44 -34h-628l-104 -485h796q29 0 29 -23q0 -6 -1 -10
l-22 -107q-7 -34 -42 -34h-948q-28 0 -28 23q0 7 1 11l41 194q-129 -117 -286 -183t-319 -66q-173 0 -309 75.5t-211.5 208t-75.5 296.5q0 80 17 155q43 199 178 368.5zM395 591q0 -124 53.5 -223t152 -155t228.5 -56q152 0 296.5 75t247.5 203t134 279q14 67 14 126
q0 124 -54 222t-152.5 154t-228.5 56q-152 0 -296 -75t-246.5 -203t-135.5 -280q-13 -61 -13 -123z" />
    <glyph glyph-name="oe" unicode="&#x153;" horiz-adv-x="2475" 
d="M2302 1171.5q117 -65.5 174.5 -177t57.5 -250.5q0 -78 -18 -161q-9 -41 -28 -54.5t-51 -13.5h-996q-5 -118 36.5 -198.5t116.5 -120t170 -39.5q84 0 152 20t113 45.5t108 67.5q14 10 28 10q13 0 17 -10l50 -93q5 -10 5 -18q0 -17 -19 -32q-117 -85 -228 -127t-239 -42
q-109 0 -201.5 37t-161 103.5t-105.5 155.5q-114 -136 -272.5 -217t-324.5 -81q-148 0 -263.5 65.5t-180 179.5t-64.5 255q0 64 15 133q37 172 151.5 316t276.5 228.5t333 84.5q167 0 290.5 -79.5t178.5 -215.5q113 135 268.5 214.5t321.5 79.5q172 0 289 -65.5zM950.5 217
q116.5 60 198 163.5t107.5 228.5q13 65 13 117q0 99 -38.5 174.5t-113.5 118.5t-181 43q-117 0 -236 -60.5t-206.5 -165t-113.5 -227.5q-11 -55 -11 -103q0 -100 42 -179.5t118.5 -124.5t175.5 -45q129 0 245.5 60zM2346 735q0 94 -43.5 166.5t-124 113t-188.5 40.5
q-106 0 -207 -45.5t-179.5 -125.5t-120.5 -181h862q1 11 1 32z" />
    <glyph glyph-name="Racute" unicode="&#x154;" horiz-adv-x="1319" 
d="M1028.5 1572q-9.5 -5 -22.5 -5h-94q-10 0 -20 7.5t-10 19.5q0 11 8 22l151 218q12 17 22 23.5t23 6.5h101q10 -1 16.5 -8t6.5 -17q0 -12 -8 -23l-151 -220q-13 -19 -22.5 -24zM450 517l-102 -483q-7 -34 -40 -34h-120q-26 0 -26 23q0 7 1 11l289 1360q7 33 39 33h582
q108 0 187.5 -47.5t121.5 -129t42 -182.5q0 -48 -11 -101q-18 -83 -69 -165t-125 -148t-160 -103l139 -511q1 -3 1 -8q0 -13 -10 -22.5t-23 -9.5h-122q-12 0 -19.5 6t-12.5 22l-125 491zM487 693h380q84 0 160 35.5t129.5 98.5t70.5 143q10 48 10 84q0 94 -56 148t-170 54
h-410z" />
    <glyph glyph-name="racute" unicode="&#x155;" horiz-adv-x="993" 
d="M972.5 1364q-9.5 -5 -22.5 -5h-94q-10 0 -20 7.5t-10 19.5q0 11 8 22l151 218q12 17 22 23.5t23 6.5h101q10 -1 16.5 -8t6.5 -17q0 -12 -8 -23l-151 -220q-13 -19 -22.5 -24zM444 1227h118q15 0 22 -5t7 -18l-2 -16l-20 -93q72 79 142.5 112t164.5 33q67 0 125 -20
t98.5 -47.5t62.5 -53.5q14 -15 14 -28q0 -10 -11 -25l-72 -87q-12 -14 -27 -14q-12 0 -25 10l-28 21q-40 33 -77 49t-99 16q-73 0 -141.5 -28.5t-121.5 -94t-76 -170.5l-156 -731q-7 -37 -41 -37h-117q-28 0 -28 25q0 8 1 12l246 1154q8 36 41 36z" />
    <glyph glyph-name="Rcommaaccent" unicode="&#x156;" horiz-adv-x="1319" 
d="M450 517l-102 -483q-7 -34 -40 -34h-120q-26 0 -26 23q0 7 1 11l289 1360q7 33 39 33h582q108 0 187.5 -47.5t121.5 -129t42 -182.5q0 -48 -11 -101q-18 -83 -69 -165t-125 -148t-160 -103l139 -511q1 -3 1 -8q0 -13 -10 -22.5t-23 -9.5h-122q-12 0 -19.5 6t-12.5 22
l-125 491zM487 693h380q84 0 160 35.5t129.5 98.5t70.5 143q10 48 10 84q0 94 -56 148t-170 54h-410zM526.5 -119q10.5 9 26.5 9h122q26 0 26 -24q0 -6 -1 -10l-23 -106q-30 -137 -122 -201q-12 -9 -22 -9q-9 0 -18 9l-23 24q-5 6 -5 14q0 12 14 22q23 19 39 42.5t20 39.5
l2 12v2q0 8 -10 8h-39q-25 0 -25 23q0 7 1 11l23 108q4 17 14.5 26z" />
    <glyph glyph-name="rcommaaccent" unicode="&#x157;" horiz-adv-x="993" 
d="M444 1227h118q15 0 22 -5t7 -18l-2 -16l-20 -93q72 79 142.5 112t164.5 33q67 0 125 -20t98.5 -47.5t62.5 -53.5q14 -15 14 -28q0 -10 -11 -25l-72 -87q-12 -14 -27 -14q-12 0 -25 10l-28 21q-40 33 -77 49t-99 16q-73 0 -141.5 -28.5t-121.5 -94t-76 -170.5l-156 -731
q-7 -37 -41 -37h-117q-28 0 -28 25q0 8 1 12l246 1154q8 36 41 36zM132.5 -128q10.5 9 26.5 9h122q26 0 26 -24q0 -6 -1 -10l-23 -106q-30 -137 -122 -201q-12 -9 -22 -9q-9 0 -18 9l-23 24q-5 6 -5 14q0 12 14 22q23 19 39 42.5t20 39.5l2 12v2q0 8 -10 8h-39q-25 0 -25 23
q0 7 1 11l23 108q4 17 14.5 26z" />
    <glyph glyph-name="Rcaron" unicode="&#x158;" horiz-adv-x="1319" 
d="M984 1566h-1q-10 0 -21 12l-181 232q-9 13 -9 18q0 9 16 22l46 40q14 11 22 11q9 0 19 -13l128 -165l211 174q17 15 28 15q9 0 16 -9l42 -51q6 -7 6 -15q0 -13 -21 -31l-274 -228q-17 -12 -27 -12zM450 517l-102 -483q-7 -34 -40 -34h-120q-26 0 -26 23q0 7 1 11
l289 1360q7 33 39 33h582q108 0 187.5 -47.5t121.5 -129t42 -182.5q0 -48 -11 -101q-18 -83 -69 -165t-125 -148t-160 -103l139 -511q1 -3 1 -8q0 -13 -10 -22.5t-23 -9.5h-122q-12 0 -19.5 6t-12.5 22l-125 491zM487 693h380q84 0 160 35.5t129.5 98.5t70.5 143
q10 48 10 84q0 94 -56 148t-170 54h-410z" />
    <glyph glyph-name="rcaron" unicode="&#x159;" horiz-adv-x="993" 
d="M887 1385h-1q-10 0 -21 12l-181 232q-9 13 -9 18q0 9 16 22l46 40q14 11 22 11q9 0 19 -13l128 -165l211 174q17 15 28 15q9 0 16 -9l42 -51q6 -7 6 -15q0 -13 -21 -31l-274 -228q-17 -12 -27 -12zM444 1227h118q15 0 22 -5t7 -18l-2 -16l-20 -93q72 79 142.5 112
t164.5 33q67 0 125 -20t98.5 -47.5t62.5 -53.5q14 -15 14 -28q0 -10 -11 -25l-72 -87q-12 -14 -27 -14q-12 0 -25 10l-28 21q-40 33 -77 49t-99 16q-73 0 -141.5 -28.5t-121.5 -94t-76 -170.5l-156 -731q-7 -37 -41 -37h-117q-28 0 -28 25q0 8 1 12l246 1154q8 36 41 36z
" />
    <glyph glyph-name="Sacute" unicode="&#x15a;" horiz-adv-x="1277" 
d="M1089.5 1571q-9.5 -5 -22.5 -5h-94q-10 0 -20 7.5t-10 19.5q0 11 8 22l151 218q12 17 22 23.5t23 6.5h101q10 -1 16.5 -8t6.5 -17q0 -12 -8 -23l-151 -220q-13 -19 -22.5 -24zM167 264q0 16 18 31l93 60q11 8 22 8q15 0 32 -20q55 -82 139.5 -132t195.5 -50
q79 0 167.5 27t157.5 84t88 141q4 22 4 33q0 58 -44 98t-103 63.5t-144 48.5l-46 14q-130 39 -210.5 83t-120.5 101t-40 135q0 38 9 83q23 106 98.5 190.5t195.5 132.5t271 48q128 0 235.5 -58t170.5 -156q8 -13 8 -23q0 -19 -20 -36l-72 -56q-13 -10 -26 -10q-18 0 -35 24
q-46 64 -115 102t-164 38q-71 0 -147 -19t-135 -64t-74 -117q-4 -17 -4 -37q0 -52 37 -87.5t89.5 -57.5t146.5 -52q143 -46 226.5 -82.5t144 -101.5t60.5 -164q0 -30 -8 -72q-29 -136 -122 -234t-229 -148.5t-290 -50.5q-129 0 -251.5 69.5t-197.5 182.5q-11 18 -11 31z" />
    <glyph glyph-name="sacute" unicode="&#x15b;" horiz-adv-x="996" 
d="M859.5 1341q-9.5 -5 -22.5 -5h-94q-10 0 -20 7.5t-10 19.5q0 11 8 22l151 218q12 17 22 23.5t23 6.5h101q10 -1 16.5 -8t6.5 -17q0 -12 -8 -23l-151 -220q-13 -19 -22.5 -24zM108 270q0 14 7.5 22.5t25.5 15.5l102 32q9 4 19 4q24 0 32 -36q8 -47 44 -80.5t82 -51
t84 -17.5q64 0 129.5 20t113.5 61.5t61 102.5q4 16 4 34q0 44 -28 72.5t-69 44.5t-108 35l-34 9q-144 41 -220.5 117.5t-76.5 181.5q0 29 6 60q32 165 154 254t305 89q132 0 210.5 -53.5t134.5 -154.5q7 -13 7 -25q0 -20 -25 -35l-79 -50q-16 -10 -26 -10q-8 0 -14 5.5
t-15 19.5q-26 42 -51 68t-64.5 42.5t-98.5 16.5q-92 0 -165 -43t-90 -127q-2 -7 -2 -20q0 -54 62.5 -97t140.5 -62q160 -39 248.5 -113.5t88.5 -190.5q0 -34 -7 -68q-24 -109 -97.5 -191t-183.5 -125.5t-238 -43.5q-82 0 -158 31t-131.5 91t-76.5 143q-3 14 -3 22z" />
    <glyph glyph-name="Scircumflex" unicode="&#x15c;" horiz-adv-x="1277" 
d="M1100 1893h1q10 0 21 -12l181 -232q9 -13 9 -18q0 -9 -16 -22l-46 -40q-14 -11 -22 -11q-9 0 -19 13l-128 165l-211 -174q-17 -15 -28 -15q-9 0 -16 9l-42 51q-6 8 -6 15q0 14 21 31l274 228q17 12 27 12zM167 264q0 16 18 31l93 60q11 8 22 8q15 0 32 -20
q55 -82 139.5 -132t195.5 -50q79 0 167.5 27t157.5 84t88 141q4 22 4 33q0 58 -44 98t-103 63.5t-144 48.5l-46 14q-130 39 -210.5 83t-120.5 101t-40 135q0 38 9 83q23 106 98.5 190.5t195.5 132.5t271 48q128 0 235.5 -58t170.5 -156q8 -13 8 -23q0 -19 -20 -36l-72 -56
q-13 -10 -26 -10q-18 0 -35 24q-46 64 -115 102t-164 38q-71 0 -147 -19t-135 -64t-74 -117q-4 -17 -4 -37q0 -52 37 -87.5t89.5 -57.5t146.5 -52q143 -46 226.5 -82.5t144 -101.5t60.5 -164q0 -30 -8 -72q-29 -136 -122 -234t-229 -148.5t-290 -50.5q-129 0 -251.5 69.5
t-197.5 182.5q-11 18 -11 31z" />
    <glyph glyph-name="scircumflex" unicode="&#x15d;" horiz-adv-x="996" 
d="M867 1698h1q10 0 21 -12l181 -232q9 -13 9 -18q0 -9 -16 -22l-46 -40q-14 -11 -22 -11q-9 0 -19 13l-128 165l-211 -174q-17 -15 -28 -15q-8 0 -16 9l-42 51q-6 8 -6 15q0 14 21 31l274 228q17 12 27 12zM108 270q0 14 7.5 22.5t25.5 15.5l102 32q9 4 19 4q24 0 32 -36
q8 -47 44 -80.5t82 -51t84 -17.5q64 0 129.5 20t113.5 61.5t61 102.5q4 16 4 34q0 44 -28 72.5t-69 44.5t-108 35l-34 9q-144 41 -220.5 117.5t-76.5 181.5q0 29 6 60q32 165 154 254t305 89q132 0 210.5 -53.5t134.5 -154.5q7 -13 7 -25q0 -20 -25 -35l-79 -50
q-16 -10 -26 -10q-8 0 -14 5.5t-15 19.5q-26 42 -51 68t-64.5 42.5t-98.5 16.5q-92 0 -165 -43t-90 -127q-2 -7 -2 -20q0 -54 62.5 -97t140.5 -62q160 -39 248.5 -113.5t88.5 -190.5q0 -34 -7 -68q-24 -109 -97.5 -191t-183.5 -125.5t-238 -43.5q-82 0 -158 31t-131.5 91
t-76.5 143q-3 14 -3 22z" />
    <glyph glyph-name="Scedilla" unicode="&#x15e;" horiz-adv-x="1277" 
d="M1364 1206q0 -19 -20 -36l-72 -56q-13 -10 -26 -10q-18 0 -35 24q-46 64 -115 102t-164 38q-71 0 -147 -19t-135 -64t-74 -117q-4 -17 -4 -37q0 -52 37 -87.5t89.5 -57.5t146.5 -52q143 -46 226.5 -82.5t144 -101.5t60.5 -164q0 -30 -8 -72q-27 -128 -111 -222
t-206.5 -147t-265.5 -62q-2 -4 -4 -12q-3 -16 9.5 -29t44.5 -36q47 -33 72.5 -62.5t25.5 -74.5q0 -13 -3 -28q-31 -148 -307 -217q-8 -2 -11 -2q-13 0 -16 13l-14 82l-1 6q0 7 4.5 13.5t12.5 8.5q98 24 140.5 48t42.5 58q0 22 -17 40t-52 43q-40 28 -61 51t-21 55q0 5 2 19
q3 17 13 29q-109 19 -207 84.5t-160 160.5q-11 18 -11 31q0 16 18 31l93 60q11 8 22 8q15 0 32 -20q55 -82 139.5 -132t195.5 -50q79 0 167.5 27t157.5 84t88 141q4 22 4 33q0 58 -44 98t-103 63.5t-144 48.5l-46 14q-130 39 -210.5 83t-120.5 101t-40 135q0 38 9 83
q23 106 98.5 190.5t195.5 132.5t271 48q128 0 235.5 -58t170.5 -156q8 -13 8 -23z" />
    <glyph glyph-name="scedilla" unicode="&#x15f;" horiz-adv-x="996" 
d="M1093 1007q0 -20 -25 -35l-79 -50q-16 -10 -26 -10q-8 0 -14 5.5t-15 19.5q-26 42 -51 68t-64.5 42.5t-98.5 16.5q-92 0 -165 -43t-90 -127q-2 -7 -2 -20q0 -54 62.5 -97t140.5 -62q160 -39 248.5 -113.5t88.5 -190.5q0 -34 -7 -68q-21 -99 -83.5 -175t-155.5 -122.5
t-205 -58.5q-22 -16 -22 -34q0 -14 13.5 -27t41.5 -33q47 -33 72.5 -62.5t25.5 -74.5q0 -13 -3 -28q-31 -148 -307 -217q-8 -2 -11 -2q-13 0 -16 13l-14 82l-1 6q0 7 4.5 13.5t12.5 8.5q98 24 140.5 48t42.5 58q0 22 -17 40t-52 43q-40 28 -61 51t-21 55q0 5 2 19
q6 26 26 43q-107 17 -188.5 84.5t-108.5 174.5q-3 14 -3 22q0 14 7.5 22.5t25.5 15.5l102 32q9 4 19 4q24 0 32 -36q8 -47 44 -80.5t82 -51t84 -17.5q64 0 129.5 20t113.5 61.5t61 102.5q4 16 4 34q0 44 -28 72.5t-69 44.5t-108 35l-34 9q-144 41 -220.5 117.5t-76.5 181.5
q0 29 6 60q32 165 154 254t305 89q132 0 210.5 -53.5t134.5 -154.5q7 -13 7 -25z" />
    <glyph glyph-name="Scaron" unicode="&#x160;" horiz-adv-x="1277" 
d="M1029 1555h-1q-10 0 -21 12l-181 232q-9 13 -9 18q0 9 16 22l46 40q14 11 22 11q9 0 19 -13l128 -165l211 174q17 15 28 15q9 0 16 -9l42 -51q6 -7 6 -15q0 -13 -21 -31l-274 -228q-17 -12 -27 -12zM167 264q0 16 18 31l93 60q11 8 22 8q15 0 32 -20q55 -82 139.5 -132
t195.5 -50q79 0 167.5 27t157.5 84t88 141q4 22 4 33q0 58 -44 98t-103 63.5t-144 48.5l-46 14q-130 39 -210.5 83t-120.5 101t-40 135q0 38 9 83q23 106 98.5 190.5t195.5 132.5t271 48q128 0 235.5 -58t170.5 -156q8 -13 8 -23q0 -19 -20 -36l-72 -56q-13 -10 -26 -10
q-18 0 -35 24q-46 64 -115 102t-164 38q-71 0 -147 -19t-135 -64t-74 -117q-4 -17 -4 -37q0 -52 37 -87.5t89.5 -57.5t146.5 -52q143 -46 226.5 -82.5t144 -101.5t60.5 -164q0 -30 -8 -72q-29 -136 -122 -234t-229 -148.5t-290 -50.5q-129 0 -251.5 69.5t-197.5 182.5
q-11 18 -11 31z" />
    <glyph glyph-name="scaron" unicode="&#x161;" horiz-adv-x="996" 
d="M817 1346h-1q-10 0 -21 12l-181 232q-9 13 -9 18q0 9 16 22l46 40q14 11 22 11q9 0 19 -13l128 -165l211 174q17 15 28 15q9 0 16 -9l42 -51q6 -7 6 -15q0 -13 -21 -31l-274 -228q-17 -12 -27 -12zM108 270q0 14 7.5 22.5t25.5 15.5l102 32q9 4 19 4q24 0 32 -36
q8 -47 44 -80.5t82 -51t84 -17.5q64 0 129.5 20t113.5 61.5t61 102.5q4 16 4 34q0 44 -28 72.5t-69 44.5t-108 35l-34 9q-144 41 -220.5 117.5t-76.5 181.5q0 29 6 60q32 165 154 254t305 89q132 0 210.5 -53.5t134.5 -154.5q7 -13 7 -25q0 -20 -25 -35l-79 -50
q-16 -10 -26 -10q-8 0 -14 5.5t-15 19.5q-26 42 -51 68t-64.5 42.5t-98.5 16.5q-92 0 -165 -43t-90 -127q-2 -7 -2 -20q0 -54 62.5 -97t140.5 -62q160 -39 248.5 -113.5t88.5 -190.5q0 -34 -7 -68q-24 -109 -97.5 -191t-183.5 -125.5t-238 -43.5q-82 0 -158 31t-131.5 91
t-76.5 143q-3 14 -3 22z" />
    <glyph glyph-name="uni0162" unicode="&#x162;" horiz-adv-x="1190" 
d="M389 1427h1012q26 0 26 -24q0 -6 -1 -10l-25 -118q-7 -34 -40 -34h-413l-256 -1207q-7 -34 -40 -34h-120q-28 0 -28 23q0 7 1 11l256 1207h-412q-27 0 -27 23q0 7 1 11l25 118q6 34 41 34zM480.5 -145q10.5 9 26.5 9h122q26 0 26 -24q0 -6 -1 -10l-23 -106
q-30 -137 -122 -201q-12 -9 -22 -9q-9 0 -18 9l-23 24q-5 6 -5 14q0 12 14 22q23 19 39 42.5t20 39.5l2 12v2q0 8 -10 8h-39q-25 0 -25 23q0 7 1 11l23 108q4 17 14.5 26z" />
    <glyph glyph-name="uni0163" unicode="&#x163;" horiz-adv-x="622" 
d="M787 1226q14 0 21.5 -6.5t7.5 -18.5q0 -6 -1 -10l-22 -100q-3 -15 -15.5 -24.5t-28.5 -9.5h-137l-157 -740q-7 -33 -7 -59q0 -45 21 -73t70 -29l33 -1q39 0 39 -21q0 -7 -1 -10l-24 -110q-3 -14 -12.5 -21t-37.5 -7q-137 0 -208.5 58.5t-71.5 163.5q0 37 9 79l163 770
h-122q-13 0 -21.5 6.5t-8.5 18.5q0 6 1 9l21 98q5 18 17 27.5t27 9.5h122l41 193q4 17 13 25.5t29 13.5l119 18q3 1 9 1q19 0 19 -24q0 -9 -1 -14l-45 -213h139zM227.5 -158q10.5 9 26.5 9h122q26 0 26 -24q0 -6 -1 -10l-23 -106q-30 -137 -122 -201q-12 -9 -22 -9
q-9 0 -18 9l-23 24q-5 6 -5 14q0 12 14 22q23 19 39 42.5t20 39.5l2 12v2q0 8 -10 8h-39q-25 0 -25 23q0 7 1 11l23 108q4 17 14.5 26z" />
    <glyph glyph-name="Tcaron" unicode="&#x164;" horiz-adv-x="1190" 
d="M923 1562h-1q-10 0 -21 12l-181 232q-9 13 -9 18q0 9 16 22l46 40q14 11 22 11q9 0 19 -13l128 -165l211 174q17 15 28 15q8 0 16 -9l42 -51q6 -7 6 -15q0 -13 -21 -31l-274 -228q-17 -12 -27 -12zM389 1427h1012q26 0 26 -24q0 -6 -1 -10l-25 -118q-7 -34 -40 -34h-413
l-256 -1207q-7 -34 -40 -34h-120q-28 0 -28 23q0 7 1 11l256 1207h-412q-27 0 -27 23q0 7 1 11l25 118q6 34 41 34z" />
    <glyph glyph-name="tcaron" unicode="&#x165;" horiz-adv-x="622" 
d="M909.5 1513q10.5 9 26.5 9h122q26 0 26 -24q0 -6 -1 -10l-23 -106q-30 -137 -122 -201q-12 -9 -22 -9q-9 0 -18 9l-23 24q-5 6 -5 14q0 12 14 22q23 19 39 42.5t20 39.5l2 12v2q0 8 -10 8h-39q-25 0 -25 23q0 7 1 11l23 108q4 17 14.5 26zM787 1226q14 0 21.5 -6.5
t7.5 -18.5q0 -6 -1 -10l-22 -100q-3 -15 -15.5 -24.5t-28.5 -9.5h-137l-157 -740q-7 -33 -7 -59q0 -45 21 -73t70 -29l33 -1q39 0 39 -21q0 -7 -1 -10l-24 -110q-3 -14 -12.5 -21t-37.5 -7q-137 0 -208.5 58.5t-71.5 163.5q0 37 9 79l163 770h-122q-13 0 -21.5 6.5
t-8.5 18.5q0 6 1 9l21 98q5 18 17 27.5t27 9.5h122l41 193q4 17 13 25.5t29 13.5l119 18q3 1 9 1q19 0 19 -24q0 -9 -1 -14l-45 -213h139z" />
    <glyph glyph-name="Tbar" unicode="&#x166;" horiz-adv-x="1190" 
d="M1427 1403q0 -6 -1 -10l-25 -118q-7 -34 -40 -34h-413l-91 -428h149q27 0 27 -22q0 -7 -1 -11l-20 -95q-3 -15 -14.5 -24.5t-28.5 -9.5h-146l-131 -617q-7 -34 -40 -34h-120q-28 0 -28 23q0 7 1 11l131 617h-151q-14 0 -23.5 6.5t-9.5 19.5q0 7 1 11l18 87q5 19 18 28.5
t30 9.5h151l91 428h-412q-27 0 -27 23q0 7 1 11l25 118q6 34 41 34h1012q26 0 26 -24z" />
    <glyph glyph-name="tbar" unicode="&#x167;" horiz-adv-x="622" 
d="M808.5 1219.5q7.5 -6.5 7.5 -18.5q0 -6 -1 -10l-22 -100q-3 -15 -15.5 -24.5t-28.5 -9.5h-137l-55 -257h118q24 0 24 -22q0 -6 -1 -10l-17 -80q-3 -12 -13.5 -20.5t-23.5 -8.5h-116l-73 -342q-7 -33 -7 -59q0 -45 21 -73t70 -29l33 -1q39 0 39 -21q0 -7 -1 -10l-24 -110
q-3 -14 -12.5 -21t-37.5 -7q-137 0 -208.5 58.5t-71.5 163.5q0 37 9 79l79 372h-117q-14 0 -22 7.5t-5 22.5l17 79q3 15 14.5 23.5t25.5 8.5h117l54 257h-122q-13 0 -21.5 6.5t-8.5 18.5q0 6 1 9l21 98q5 18 17 27.5t27 9.5h122l41 193q4 17 13 25.5t29 13.5l119 18q3 1 9 1
q19 0 19 -24q0 -9 -1 -14l-45 -213h139q14 0 21.5 -6.5z" />
    <glyph glyph-name="Utilde" unicode="&#x168;" horiz-adv-x="1444" 
d="M830 1572q-11 0 -20 11l-32 40q-10 11 -10 20q0 6 5 13t18 20q48 48 94 71t97 23q30 0 58 -12.5t66 -36.5q31 -20 52.5 -30t41.5 -10q26 0 47 14t50 42q21 21 38 21q11 0 21 -10l28 -37q6 -7 6 -16q0 -11 -14 -27q-50 -55 -96.5 -81.5t-99.5 -26.5q-31 0 -57.5 12.5
t-61.5 36.5q-35 22 -53.5 31t-39.5 9q-31 0 -54 -15t-54 -46q-17 -16 -30 -16zM430 468q0 -94 39 -164.5t110.5 -108.5t165.5 -38q112 0 217.5 54t181 149t101.5 214l173 817q3 16 14 26t28 10h117q14 0 21 -7.5t7 -19.5q0 -6 -1 -9l-176 -830q-39 -181 -143 -313
t-250 -201.5t-308 -69.5q-141 0 -252 53t-174 154t-63 240q0 69 16 142l175 826q4 15 14.5 25t25.5 10h122q26 0 26 -22q0 -3 -2 -13l-173 -818q-12 -55 -12 -106z" />
    <glyph glyph-name="utilde" unicode="&#x169;" horiz-adv-x="1267" 
d="M721 1353q-11 0 -20 11l-32 40q-10 11 -10 20q0 6 5 13t18 20q48 48 94 71t97 23q30 0 58 -12.5t66 -36.5q31 -20 52.5 -30t41.5 -10q26 0 47 14t50 42q21 21 38 21q11 0 21 -10l28 -37q6 -7 6 -16q0 -11 -14 -27q-50 -55 -96.5 -81.5t-99.5 -26.5q-31 0 -57.5 12.5
t-61.5 36.5q-35 22 -53.5 31t-39.5 9q-31 0 -54 -15t-54 -46q-17 -16 -30 -16zM840.5 6q-90.5 -36 -211.5 -36q-127 0 -214 48t-130 133.5t-43 197.5q0 64 16 142l147 691q4 23 14 34t34 11h112q16 0 22 -6t6 -17q0 -5 -2 -19l-147 -694q-12 -62 -12 -109q0 -101 53 -164.5
t176 -63.5q77 0 166.5 36.5t159 105.5t90.5 161l154 728q9 42 51 42h99q36 0 38 -29q0 -3 -2 -13l-243 -1144q-4 -18 -18.5 -30t-32.5 -12h-100q-17 0 -26.5 9t-9.5 24q0 6 1 9l15 71q-72 -70 -162.5 -106z" />
    <glyph glyph-name="Umacron" unicode="&#x16a;" horiz-adv-x="1444" 
d="M738 1704.5q10 7.5 25 7.5h668q13 0 19.5 -7t3.5 -21l-18 -85q-3 -12 -13 -20t-22 -8h-669q-13 0 -20.5 7t-4.5 21l18 84q3 14 13 21.5zM430 468q0 -94 39 -164.5t110.5 -108.5t165.5 -38q112 0 217.5 54t181 149t101.5 214l173 817q3 16 14 26t28 10h117q14 0 21 -7.5
t7 -19.5q0 -6 -1 -9l-176 -830q-39 -181 -143 -313t-250 -201.5t-308 -69.5q-141 0 -252 53t-174 154t-63 240q0 69 16 142l175 826q4 15 14.5 25t25.5 10h122q26 0 26 -22q0 -3 -2 -13l-173 -818q-12 -55 -12 -106z" />
    <glyph glyph-name="umacron" unicode="&#x16b;" horiz-adv-x="1267" 
d="M654 1513.5q10 7.5 25 7.5h668q13 0 19.5 -7t3.5 -21l-18 -85q-3 -12 -13 -20t-22 -8h-669q-13 0 -20.5 7t-4.5 21l18 84q3 14 13 21.5zM840.5 6q-90.5 -36 -211.5 -36q-127 0 -214 48t-130 133.5t-43 197.5q0 64 16 142l147 691q4 23 14 34t34 11h112q16 0 22 -6t6 -17
q0 -5 -2 -19l-147 -694q-12 -62 -12 -109q0 -101 53 -164.5t176 -63.5q77 0 166.5 36.5t159 105.5t90.5 161l154 728q9 42 51 42h99q36 0 38 -29q0 -3 -2 -13l-243 -1144q-4 -18 -18.5 -30t-32.5 -12h-100q-17 0 -26.5 9t-9.5 24q0 6 1 9l15 71q-72 -70 -162.5 -106z" />
    <glyph glyph-name="Ubreve" unicode="&#x16c;" horiz-adv-x="1444" 
d="M953 1583q-49 27 -76 73t-27 99q0 23 4 42q3 17 15.5 26.5t28.5 9.5h77q17 0 25 -10.5t5 -25.5q-3 -13 -3 -27q0 -35 21 -57.5t67 -22.5q35 0 67 16.5t53.5 41.5t26.5 49q3 16 13.5 26t27.5 10h79q16 0 24.5 -9.5t5.5 -26.5q-13 -62 -61 -117.5t-117 -89.5t-143 -34
q-64 0 -113 27zM430 468q0 -94 39 -164.5t110.5 -108.5t165.5 -38q112 0 217.5 54t181 149t101.5 214l173 817q3 16 14 26t28 10h117q14 0 21 -7.5t7 -19.5q0 -6 -1 -9l-176 -830q-39 -181 -143 -313t-250 -201.5t-308 -69.5q-141 0 -252 53t-174 154t-63 240q0 69 16 142
l175 826q4 15 14.5 25t25.5 10h122q26 0 26 -22q0 -3 -2 -13l-173 -818q-12 -55 -12 -106z" />
    <glyph glyph-name="ubreve" unicode="&#x16d;" horiz-adv-x="1267" 
d="M827 1371q-49 27 -76 73t-27 99q0 23 4 42q3 17 15.5 26.5t28.5 9.5h77q17 0 25 -10.5t5 -25.5q-3 -13 -3 -27q0 -35 21 -57.5t67 -22.5q35 0 67 16.5t53.5 41.5t26.5 49q3 16 13.5 26t27.5 10h79q16 0 24.5 -9.5t5.5 -26.5q-13 -62 -61 -117.5t-117 -89.5t-143 -34
q-64 0 -113 27zM840.5 6q-90.5 -36 -211.5 -36q-127 0 -214 48t-130 133.5t-43 197.5q0 64 16 142l147 691q4 23 14 34t34 11h112q16 0 22 -6t6 -17q0 -5 -2 -19l-147 -694q-12 -62 -12 -109q0 -101 53 -164.5t176 -63.5q77 0 166.5 36.5t159 105.5t90.5 161l154 728
q9 42 51 42h99q36 0 38 -29q0 -3 -2 -13l-243 -1144q-4 -18 -18.5 -30t-32.5 -12h-100q-17 0 -26.5 9t-9.5 24q0 6 1 9l15 71q-72 -70 -162.5 -106z" />
    <glyph glyph-name="Uring" unicode="&#x16e;" horiz-adv-x="1444" 
d="M1239 1920q37 -21 58 -57t21 -81q0 -18 -5 -41q-12 -55 -48.5 -101t-88.5 -72.5t-107 -26.5q-47 0 -84 20.5t-57.5 56.5t-20.5 81q0 17 5 42q12 54 49 100t88 73t105 27q48 0 85 -21zM1058 1813.5q-35 -30.5 -43 -72.5q-3 -15 -3 -29q0 -34 19.5 -54.5t59.5 -20.5
q45 0 79 30t43 74q3 17 3 32q0 71 -82 71q-41 0 -76 -30.5zM430 468q0 -94 39 -164.5t110.5 -108.5t165.5 -38q112 0 217.5 54t181 149t101.5 214l173 817q3 16 14 26t28 10h117q14 0 21 -7.5t7 -19.5q0 -6 -1 -9l-176 -830q-39 -181 -143 -313t-250 -201.5t-308 -69.5
q-141 0 -252 53t-174 154t-63 240q0 69 16 142l175 826q4 15 14.5 25t25.5 10h122q26 0 26 -22q0 -3 -2 -13l-173 -818q-12 -55 -12 -106z" />
    <glyph glyph-name="uring" unicode="&#x16f;" horiz-adv-x="1267" 
d="M1129 1720q37 -21 58 -57t21 -81q0 -18 -5 -41q-12 -55 -48.5 -101t-88.5 -72.5t-107 -26.5q-47 0 -84 20.5t-57.5 56.5t-20.5 81q0 17 5 42q12 54 49 100t88 73t105 27q48 0 85 -21zM948 1613.5q-35 -30.5 -43 -72.5q-3 -15 -3 -29q0 -34 19.5 -54.5t59.5 -20.5
q45 0 79 30t43 74q3 17 3 32q0 71 -82 71q-41 0 -76 -30.5zM840.5 6q-90.5 -36 -211.5 -36q-127 0 -214 48t-130 133.5t-43 197.5q0 64 16 142l147 691q4 23 14 34t34 11h112q16 0 22 -6t6 -17q0 -5 -2 -19l-147 -694q-12 -62 -12 -109q0 -101 53 -164.5t176 -63.5
q77 0 166.5 36.5t159 105.5t90.5 161l154 728q9 42 51 42h99q36 0 38 -29q0 -3 -2 -13l-243 -1144q-4 -18 -18.5 -30t-32.5 -12h-100q-17 0 -26.5 9t-9.5 24q0 6 1 9l15 71q-72 -70 -162.5 -106z" />
    <glyph glyph-name="Uhungarumlaut" unicode="&#x170;" horiz-adv-x="1444" 
d="M918.5 1554.5q-9.5 -5.5 -23.5 -5.5h-101q-11 0 -18.5 5.5t-7.5 15.5q0 11 9 24l163 221q12 17 22.5 23t23.5 6h99q10 -1 16.5 -7.5t6.5 -16.5q0 -11 -9 -23l-158 -218q-13 -19 -22.5 -24.5zM1279 1554.5q-9 -5.5 -23 -5.5h-102q-10 0 -17.5 5.5t-7.5 15.5q0 11 9 24
l161 221q14 17 23.5 23t23.5 6h100q10 -1 16.5 -7.5t6.5 -16.5q0 -11 -9 -23l-159 -218q-13 -19 -22 -24.5zM430 468q0 -94 39 -164.5t110.5 -108.5t165.5 -38q112 0 217.5 54t181 149t101.5 214l173 817q3 16 14 26t28 10h117q14 0 21 -7.5t7 -19.5q0 -6 -1 -9l-176 -830
q-39 -181 -143 -313t-250 -201.5t-308 -69.5q-141 0 -252 53t-174 154t-63 240q0 69 16 142l175 826q4 15 14.5 25t25.5 10h122q26 0 26 -22q0 -3 -2 -13l-173 -818q-12 -55 -12 -106z" />
    <glyph glyph-name="uhungarumlaut" unicode="&#x171;" horiz-adv-x="1267" 
d="M854.5 1359.5q-9.5 -5.5 -23.5 -5.5h-101q-11 0 -18.5 5.5t-7.5 15.5q0 11 9 24l163 221q12 17 22.5 23t23.5 6h99q10 -1 16.5 -7.5t6.5 -16.5q0 -11 -9 -23l-158 -218q-13 -19 -22.5 -24.5zM1215 1359.5q-9 -5.5 -23 -5.5h-102q-10 0 -17.5 5.5t-7.5 15.5q0 11 9 24
l161 221q14 17 23.5 23t23.5 6h100q10 -1 16.5 -7.5t6.5 -16.5q0 -11 -9 -23l-159 -218q-13 -19 -22 -24.5zM840.5 6q-90.5 -36 -211.5 -36q-127 0 -214 48t-130 133.5t-43 197.5q0 64 16 142l147 691q4 23 14 34t34 11h112q16 0 22 -6t6 -17q0 -5 -2 -19l-147 -694
q-12 -62 -12 -109q0 -101 53 -164.5t176 -63.5q77 0 166.5 36.5t159 105.5t90.5 161l154 728q9 42 51 42h99q36 0 38 -29q0 -3 -2 -13l-243 -1144q-4 -18 -18.5 -30t-32.5 -12h-100q-17 0 -26.5 9t-9.5 24q0 6 1 9l15 71q-72 -70 -162.5 -106z" />
    <glyph glyph-name="Uogonek" unicode="&#x172;" horiz-adv-x="1444" 
d="M1598 1419.5q7 -7.5 7 -19.5q0 -6 -1 -9l-176 -830q-34 -155 -115.5 -274.5t-198.5 -195.5l-176 -144q-35 -28 -53.5 -46.5t-27.5 -41.5t-9 -43q0 -29 18.5 -46.5t53.5 -17.5q37 0 69 28.5t38 63.5q5 18 15 27t22 9h49q10 0 16.5 -6t6.5 -17q0 -6 -1 -9q-11 -52 -43 -97
t-79.5 -71.5t-102.5 -26.5q-47 0 -85 20t-59.5 55t-21.5 79q0 22 4 39q8 41 30.5 73.5t58.5 65.5q-58 -8 -110 -8q-141 0 -252 53t-174 154t-63 240q0 69 16 142l175 826q4 15 14.5 25t25.5 10h122q26 0 26 -22q0 -3 -2 -13l-173 -818q-12 -55 -12 -106q0 -94 39 -164.5
t110.5 -108.5t165.5 -38q112 0 217.5 54t181 149t101.5 214l173 817q3 16 14 26t28 10h117q14 0 21 -7.5z" />
    <glyph glyph-name="uogonek" unicode="&#x173;" horiz-adv-x="1267" 
d="M1419 1198q0 -3 -2 -13l-243 -1144q-1 -6 -7 -18q-3 -4 -12 -13l-191 -156q-35 -28 -53.5 -46.5t-27.5 -41.5t-9 -43q0 -29 18.5 -46.5t53.5 -17.5q37 0 69 28.5t38 63.5q5 18 15 27t22 9h49q10 0 16.5 -6t6.5 -17q0 -6 -1 -9q-11 -52 -43 -97t-79.5 -71.5t-102.5 -26.5
q-47 0 -85 20t-59.5 55t-21.5 79q0 22 4 39q10 51 41 89t88 85l96 79q-12 8 -12 26q0 6 1 9l15 71q-72 -70 -162.5 -106t-211.5 -36q-127 0 -214 48t-130 133.5t-43 197.5q0 64 16 142l147 691q4 23 14 34t34 11h112q16 0 22 -6t6 -17q0 -5 -2 -19l-147 -694
q-12 -62 -12 -109q0 -101 53 -164.5t176 -63.5q77 0 166.5 36.5t159 105.5t90.5 161l154 728q9 42 51 42h99q36 0 38 -29z" />
    <glyph glyph-name="Wcircumflex" unicode="&#x174;" horiz-adv-x="2045" 
d="M1463 1904h1q10 0 21 -12l181 -232q9 -13 9 -18q0 -9 -16 -22l-46 -40q-14 -11 -22 -11q-9 0 -19 13l-128 165l-211 -174q-17 -15 -28 -15q-8 0 -16 9l-42 51q-6 8 -6 15q0 14 21 31l274 228q17 12 27 12zM786 29q-21 -29 -44 -29h-75q-12 0 -21 7t-12 22l-274 1358
q-3 18 8 29t27 11h116q12 0 18.5 -6t10.5 -23l217 -1117l687 1117q11 16 21 22.5t22 6.5h137q11 0 17.5 -5.5t6.5 -14.5q0 -10 -7 -20l-347 -554l114 -552l690 1117q11 16 20.5 22.5t21.5 6.5h138q11 0 18 -5.5t7 -15.5q0 -9 -7 -19l-857 -1358q-21 -29 -45 -29h-76
q-12 0 -21.5 7t-11.5 22l-121 598z" />
    <glyph glyph-name="wcircumflex" unicode="&#x175;" horiz-adv-x="1853" 
d="M1307 1702h1q10 0 21 -12l181 -232q9 -13 9 -18q0 -9 -16 -22l-46 -40q-14 -11 -22 -11q-9 0 -19 13l-128 165l-211 -174q-17 -15 -28 -15q-8 0 -16 9l-42 51q-6 8 -6 15q0 14 21 31l274 228q17 12 27 12zM1324 -1h-81q-25 0 -31 30l-131 654l-401 -654q-20 -30 -46 -30
h-85q-26 0 -31 30l-233 1145q-1 4 -1 12q0 19 12.5 30t30.5 11h110q27 0 32 -30l179 -896l535 897q10 16 20.5 22t23.5 6h135q12 0 18.5 -5.5t6.5 -15.5q0 -12 -10 -28l-158 -263l116 -620l539 904q16 28 43 28h145q24 0 24 -20q0 -12 -10 -29l-706 -1148q-20 -30 -46 -30z
" />
    <glyph glyph-name="Ycircumflex" unicode="&#x176;" horiz-adv-x="1200" 
d="M1006 1891h1q10 0 21 -12l181 -232q9 -13 9 -18q0 -9 -16 -22l-46 -40q-14 -11 -22 -11q-9 0 -19 13l-128 165l-211 -174q-17 -15 -28 -15q-8 0 -16 9l-42 51q-6 8 -6 15q0 14 21 31l274 228q17 12 27 12zM321 1385q-3 8 -3 13q0 13 10.5 21t23.5 8h134q11 0 18 -6
t13 -21l229 -613l483 613q12 15 21 21t21 6h158q10 0 16.5 -5.5t6.5 -14.5q0 -12 -10 -23l-630 -781l-121 -566q-7 -37 -40 -37h-120q-27 0 -27 26q0 7 1 11l120 563z" />
    <glyph glyph-name="ycircumflex" unicode="&#x177;" horiz-adv-x="1142" 
d="M959 1684h1q10 0 21 -12l181 -232q9 -13 9 -18q0 -9 -16 -22l-46 -40q-14 -11 -22 -11q-9 0 -19 13l-128 165l-211 -174q-17 -15 -28 -15q-8 0 -16 9l-42 51q-6 8 -6 15q0 14 21 31l274 228q17 12 27 12zM396 -367h-109q-16 0 -26 6.5t-10 19.5q0 15 12 34l233 384
l-211 1097q-1 4 -1 11q0 20 14 31t31 11h101q27 0 32 -30l170 -920l550 920q17 30 44 30h130q30 0 30 -22q0 -13 -10 -29l-934 -1514q-19 -29 -46 -29z" />
    <glyph glyph-name="Ydieresis" unicode="&#x178;" horiz-adv-x="1200" 
d="M717 1741h106q30 0 30 -27q0 -3 -2 -15l-22 -102q-5 -22 -16 -30.5t-29 -8.5h-105q-33 0 -33 27q0 7 1 11l22 105q9 40 48 40zM1097 1741h106q30 0 30 -27q0 -3 -2 -15l-22 -102q-5 -22 -16 -30.5t-29 -8.5h-105q-33 0 -33 27q0 7 1 11l22 105q9 40 48 40zM321 1385
q-3 8 -3 13q0 13 10.5 21t23.5 8h134q11 0 18 -6t13 -21l229 -613l483 613q12 15 21 21t21 6h158q10 0 16.5 -5.5t6.5 -14.5q0 -12 -10 -23l-630 -781l-121 -566q-7 -37 -40 -37h-120q-27 0 -27 26q0 7 1 11l120 563z" />
    <glyph glyph-name="Zacute" unicode="&#x179;" horiz-adv-x="1309" 
d="M1096.5 1570q-9.5 -5 -22.5 -5h-94q-10 0 -20 7.5t-10 19.5q0 11 8 22l151 218q12 17 22 23.5t23 6.5h101q10 -1 16.5 -8t6.5 -17q0 -12 -8 -23l-151 -220q-13 -19 -22.5 -24zM1537 1407q0 -6 -1 -10l-26 -126q-7 -17 -15 -25l-1132 -1058h882q28 0 28 -22q0 -6 -1 -9
l-27 -126q-7 -31 -39 -31h-1111q-27 0 -27 21q0 6 1 10l26 123q1 2 5 13.5t11 18.5l1137 1056l-869 -1q-30 0 -30 22q0 6 1 9l26 124q7 31 43 31l1092 2q26 0 26 -22z" />
    <glyph glyph-name="zacute" unicode="&#x17a;" horiz-adv-x="1204" 
d="M969.5 1366q-9.5 -5 -22.5 -5h-94q-10 0 -20 7.5t-10 19.5q0 11 8 22l151 218q12 17 22 23.5t23 6.5h101q10 -1 16.5 -8t6.5 -17q0 -12 -8 -23l-151 -220q-13 -19 -22.5 -24zM1121 175q15 0 22.5 -8.5t4.5 -21.5l-24 -114q-3 -15 -15.5 -23t-24.5 -8h-969q-24 0 -24 25
q0 7 1 11l16 84q3 16 10.5 25.5t19.5 19.5l977 888h-773q-15 0 -22.5 9t-4.5 21l24 113q3 15 15.5 23t24.5 8h958q17 0 27.5 -8t7.5 -27l-25 -114q-1 -2 -5 -14t-17 -25l-951 -864h747z" />
    <glyph glyph-name="Zdotaccent" unicode="&#x17b;" horiz-adv-x="1309" 
d="M995 1767h106q30 0 30 -26q0 -5 -2 -15l-21 -102q-5 -22 -16 -30.5t-30 -8.5h-105q-34 0 -34 24q0 4 2 14l23 104q7 40 47 40zM1537 1407q0 -6 -1 -10l-26 -126q-7 -17 -15 -25l-1132 -1058h882q28 0 28 -22q0 -6 -1 -9l-27 -126q-7 -31 -39 -31h-1111q-27 0 -27 21
q0 6 1 10l26 123q1 2 5 13.5t11 18.5l1137 1056l-869 -1q-30 0 -30 22q0 6 1 9l26 124q7 31 43 31l1092 2q26 0 26 -22z" />
    <glyph glyph-name="zdotaccent" unicode="&#x17c;" horiz-adv-x="1204" 
d="M887 1581h106q30 0 30 -26q0 -5 -2 -15l-21 -102q-5 -22 -16 -30.5t-30 -8.5h-105q-34 0 -34 24q0 4 2 14l23 104q7 40 47 40zM1121 175q15 0 22.5 -8.5t4.5 -21.5l-24 -114q-3 -15 -15.5 -23t-24.5 -8h-969q-24 0 -24 25q0 7 1 11l16 84q3 16 10.5 25.5t19.5 19.5
l977 888h-773q-15 0 -22.5 9t-4.5 21l24 113q3 15 15.5 23t24.5 8h958q17 0 27.5 -8t7.5 -27l-25 -114q-1 -2 -5 -14t-17 -25l-951 -864h747z" />
    <glyph glyph-name="Zcaron" unicode="&#x17d;" horiz-adv-x="1309" 
d="M1012 1557h-1q-10 0 -21 12l-181 232q-9 13 -9 18q0 9 16 22l46 40q14 11 22 11q9 0 19 -13l128 -165l211 174q17 15 28 15q9 0 16 -9l42 -51q6 -7 6 -15q0 -13 -21 -31l-274 -228q-17 -12 -27 -12zM1537 1407q0 -6 -1 -10l-26 -126q-7 -17 -15 -25l-1132 -1058h882
q28 0 28 -22q0 -6 -1 -9l-27 -126q-7 -31 -39 -31h-1111q-27 0 -27 21q0 6 1 10l26 123q1 2 5 13.5t11 18.5l1137 1056l-869 -1q-30 0 -30 22q0 6 1 9l26 124q7 31 43 31l1092 2q26 0 26 -22z" />
    <glyph glyph-name="zcaron" unicode="&#x17e;" horiz-adv-x="1204" 
d="M887 1348h-1q-10 0 -21 12l-181 232q-9 13 -9 18q0 9 16 22l46 40q14 11 22 11q9 0 19 -13l128 -165l211 174q17 15 28 15q9 0 16 -9l42 -51q6 -7 6 -15q0 -13 -21 -31l-274 -228q-17 -12 -27 -12zM1121 175q15 0 22.5 -8.5t4.5 -21.5l-24 -114q-3 -15 -15.5 -23
t-24.5 -8h-969q-24 0 -24 25q0 7 1 11l16 84q3 16 10.5 25.5t19.5 19.5l977 888h-773q-15 0 -22.5 9t-4.5 21l24 113q3 15 15.5 23t24.5 8h958q17 0 27.5 -8t7.5 -27l-25 -114q-1 -2 -5 -14t-17 -25l-951 -864h747z" />
    <glyph glyph-name="florin" unicode="&#x192;" horiz-adv-x="735" 
d="M-2 -343q0 4 2 14l20 99q4 20 18.5 32t32.5 12q43 0 85.5 23.5t73 62t39.5 81.5l175 823h-123q-34 0 -34 30q0 4 2 18l18 86q9 42 52 42h123l24 116q20 88 76.5 162t136.5 122t169 63l41 6q17 2 26 -5.5t9 -22.5q0 -5 -2 -15l-20 -97q-5 -19 -20 -32.5t-32 -13.5
q-44 0 -86.5 -23.5t-72.5 -62t-39 -81.5l-24 -116h162q35 0 35 -28q0 -4 -2 -14l-18 -86q-10 -48 -53 -48h-162l-161 -758q-35 -166 -138 -277.5t-258 -134.5l-42 -6q-33 3 -33 29z" />
    <glyph glyph-name="AEacute" unicode="&#x1fc;" horiz-adv-x="2233" 
d="M1715.5 1585q-9.5 -5 -22.5 -5h-94q-10 0 -20 7.5t-10 19.5q0 11 8 22l151 218q12 17 22 23.5t23 6.5h101q10 -1 16.5 -8t6.5 -17q0 -12 -8 -23l-151 -220q-13 -19 -22.5 -24zM196 0h-135q-30 0 -30 15q0 12 13 26t13 15q852 824 1394 1357q16 13 43 13h924q35 0 35 -30
q0 -4 -2 -16l-17 -77q-3 -19 -18 -31.5t-36 -12.5h-788l-102 -480h625q16 0 25 -8.5t9 -25.5q0 -7 -1 -11l-17 -78q-4 -19 -17.5 -31.5t-33.5 -12.5h-625l-95 -445h797q35 0 35 -29q0 -4 -2 -16l-17 -80q-7 -42 -50 -42h-922q-35 0 -35 29q0 7 1 11l58 272h-682l-275 -274
q-39 -38 -72 -38zM1259 475l144 677l-692 -677h548z" />
    <glyph glyph-name="aeacute" unicode="&#x1fd;" horiz-adv-x="2456" 
d="M1503 1362.5q-10 7.5 -10 19.5q0 11 8 22l151 218q12 17 22 23.5t23 6.5h101q10 -1 16.5 -8t6.5 -17q0 -12 -8 -23l-151 -220q-13 -19 -22.5 -24t-22.5 -5h-94q-10 0 -20 7.5zM2311 1176.5q113 -62.5 173 -174.5t60 -258q0 -78 -18 -164q-7 -34 -19 -49t-37 -15h-1012
q0 -101 41.5 -183t117 -129t172.5 -47t178.5 31.5t156.5 85.5q27 21 44 21q16 0 24 -17l53 -78q5 -9 5 -19q0 -15 -12 -28.5t-35 -29.5q-103 -70 -207.5 -107.5t-220.5 -37.5q-127 0 -229.5 50.5t-168.5 140.5l-27 -127q-4 -18 -18 -30t-32 -12h-100q-17 0 -27 9.5t-10 24.5
l1 8l26 120q-103 -87 -222.5 -134t-245.5 -47q-146 0 -262.5 65.5t-182 180t-65.5 254.5q0 64 15 131q35 170 151.5 315t279.5 230t332 85q125 0 224.5 -47.5t166.5 -133.5l26 124q9 42 51 42h99q36 0 38 -29q0 -3 -2 -13l-27 -126q102 85 224 132.5t253 47.5
q155 0 268 -62.5zM978 220.5q119 63.5 205 168.5t112 223q11 55 11 101q0 98 -40.5 178t-116.5 126t-177 46q-118 0 -236.5 -62.5t-204 -166.5t-109.5 -222q-11 -53 -11 -101q0 -99 40 -179.5t114.5 -127.5t174.5 -47q119 0 238 63.5zM2369 740q0 94 -43 166t-120 111
t-175 39q-106 0 -209.5 -43.5t-188 -124t-134.5 -185.5h868q2 24 2 37z" />
    <glyph glyph-name="Oslashacute" unicode="&#x1fe;" horiz-adv-x="1688" 
d="M1304.5 1568q-9.5 -5 -22.5 -5h-94q-10 0 -20 7.5t-10 19.5q0 11 8 22l151 218q12 17 22 23.5t23 6.5h101q10 -1 16.5 -8t6.5 -17q0 -12 -8 -23l-151 -220q-13 -19 -22.5 -24zM436 1079.5q135 168.5 325 267t389 98.5q102 0 191 -27l57 91q19 31 48 31h133
q11 0 18.5 -5.5t7.5 -15.5t-8 -22l-99 -153q114 -79 177 -202.5t63 -275.5q0 -77 -16 -154q-43 -200 -175.5 -367t-320 -264.5t-387.5 -97.5q-98 0 -190 26l-64 -107q-21 -30 -49 -30h-133q-26 0 -26 18q0 11 8 23l108 167q-118 78 -184 202t-66 276q0 72 17 154
q41 199 176 367.5zM434 593q0 -123 55 -221t155.5 -153.5t232.5 -55.5q151 0 290.5 73t237.5 199t130 277q13 61 13 123q0 123 -54 220.5t-153.5 153t-229.5 55.5q-151 0 -292 -73.5t-240 -200t-132 -278.5q-13 -59 -13 -119z" />
    <glyph glyph-name="oslashacute" unicode="&#x1ff;" horiz-adv-x="1457" 
d="M1188.5 1372q-9.5 -5 -22.5 -5h-94q-10 0 -20 7.5t-10 19.5q0 11 8 22l151 218q12 17 22 23.5t23 6.5h101q10 -1 16.5 -8t6.5 -17q0 -12 -8 -23l-151 -220q-13 -19 -22.5 -24zM382.5 925q116.5 145 280 230.5t333.5 85.5q90 0 174 -26l58 92q16 25 39 25h95q24 0 24 -14
q0 -11 -13 -31l-82 -129q101 -66 155.5 -172.5t54.5 -237.5q0 -67 -15 -138q-38 -172 -151 -316.5t-273.5 -229t-333.5 -84.5q-85 0 -168 24l-64 -101q-15 -24 -37 -24h-95q-23 0 -23 16q0 9 7 20l92 144q-105 66 -164 176t-59 245q0 60 14 130q35 170 151.5 315zM407 509
q0 -99 41.5 -178.5t118.5 -125.5t179 -46q118 0 236 62.5t204 166.5t111 223q11 51 11 106q0 99 -39.5 177.5t-114.5 123.5t-177 45q-118 0 -238 -62t-208 -166.5t-113 -223.5q-11 -48 -11 -102z" />
    <glyph glyph-name="Scommaaccent" unicode="&#x218;" horiz-adv-x="1277" 
d="M167 264q0 16 18 31l93 60q11 8 22 8q15 0 32 -20q55 -82 139.5 -132t195.5 -50q79 0 167.5 27t157.5 84t88 141q4 22 4 33q0 58 -44 98t-103 63.5t-144 48.5l-46 14q-130 39 -210.5 83t-120.5 101t-40 135q0 38 9 83q23 106 98.5 190.5t195.5 132.5t271 48
q128 0 235.5 -58t170.5 -156q8 -13 8 -23q0 -19 -20 -36l-72 -56q-13 -10 -26 -10q-18 0 -35 24q-46 64 -115 102t-164 38q-71 0 -147 -19t-135 -64t-74 -117q-4 -17 -4 -37q0 -52 37 -87.5t89.5 -57.5t146.5 -52q143 -46 226.5 -82.5t144 -101.5t60.5 -164q0 -30 -8 -72
q-29 -136 -122 -234t-229 -148.5t-290 -50.5q-129 0 -251.5 69.5t-197.5 182.5q-11 18 -11 31zM506.5 -176q10.5 9 26.5 9h122q26 0 26 -24q0 -6 -1 -10l-23 -106q-30 -137 -122 -201q-12 -9 -22 -9q-9 0 -18 9l-23 24q-5 6 -5 14q0 12 14 22q23 19 39 42.5t20 39.5l2 12v2
q0 8 -10 8h-39q-25 0 -25 23q0 7 1 11l23 108q4 17 14.5 26z" />
    <glyph glyph-name="scommaaccent" unicode="&#x219;" horiz-adv-x="996" 
d="M108 270q0 14 7.5 22.5t25.5 15.5l102 32q9 4 19 4q24 0 32 -36q8 -47 44 -80.5t82 -51t84 -17.5q64 0 129.5 20t113.5 61.5t61 102.5q4 16 4 34q0 44 -28 72.5t-69 44.5t-108 35l-34 9q-144 41 -220.5 117.5t-76.5 181.5q0 29 6 60q32 165 154 254t305 89
q132 0 210.5 -53.5t134.5 -154.5q7 -13 7 -25q0 -20 -25 -35l-79 -50q-16 -10 -26 -10q-8 0 -14 5.5t-15 19.5q-26 42 -51 68t-64.5 42.5t-98.5 16.5q-92 0 -165 -43t-90 -127q-2 -7 -2 -20q0 -54 62.5 -97t140.5 -62q160 -39 248.5 -113.5t88.5 -190.5q0 -34 -7 -68
q-24 -109 -97.5 -191t-183.5 -125.5t-238 -43.5q-82 0 -158 31t-131.5 91t-76.5 143q-3 14 -3 22zM362.5 -149q10.5 9 26.5 9h122q26 0 26 -24q0 -6 -1 -10l-23 -106q-30 -137 -122 -201q-12 -9 -22 -9q-9 0 -18 9l-23 24q-5 6 -5 14q0 12 14 22q23 19 39 42.5t20 39.5l2 12
v2q0 8 -10 8h-39q-25 0 -25 23q0 7 1 11l23 108q4 17 14.5 26z" />
    <glyph glyph-name="uni021A" unicode="&#x21a;" horiz-adv-x="1215" 
d="M389 1427h1012q26 0 26 -24q0 -6 -1 -10l-25 -118q-7 -34 -40 -34h-413l-256 -1207q-7 -34 -40 -34h-120q-28 0 -28 23q0 7 1 11l256 1207h-412q-27 0 -27 23q0 7 1 11l25 118q6 34 41 34zM495.5 -141q10.5 9 26.5 9h122q26 0 26 -24q0 -6 -1 -10l-23 -106
q-30 -137 -122 -201q-12 -9 -22 -9q-9 0 -18 9l-23 24q-5 6 -5 14q0 12 14 22q23 19 39 42.5t20 39.5l2 12v2q0 8 -10 8h-39q-25 0 -25 23q0 7 1 11l23 108q4 17 14.5 26z" />
    <glyph glyph-name="uni021B" unicode="&#x21b;" horiz-adv-x="622" 
d="M787 1226q14 0 21.5 -6.5t7.5 -18.5q0 -6 -1 -10l-22 -100q-3 -15 -15.5 -24.5t-28.5 -9.5h-137l-157 -740q-7 -33 -7 -59q0 -45 21 -73t70 -29l33 -1q39 0 39 -21q0 -7 -1 -10l-24 -110q-3 -14 -12.5 -21t-37.5 -7q-137 0 -208.5 58.5t-71.5 163.5q0 37 9 79l163 770
h-122q-13 0 -21.5 6.5t-8.5 18.5q0 6 1 9l21 98q5 18 17 27.5t27 9.5h122l41 193q4 17 13 25.5t29 13.5l119 18q3 1 9 1q19 0 19 -24q0 -9 -1 -14l-45 -213h139zM237.5 -104q10.5 9 26.5 9h122q26 0 26 -24q0 -6 -1 -10l-23 -106q-30 -137 -122 -201q-12 -9 -22 -9
q-9 0 -18 9l-23 24q-5 6 -5 14q0 12 14 22q23 19 39 42.5t20 39.5l2 12v2q0 8 -10 8h-39q-25 0 -25 23q0 7 1 11l23 108q4 17 14.5 26z" />
    <glyph glyph-name="uni0237" unicode="&#x237;" horiz-adv-x="501" 
d="M446 1225h111q26 0 26 -24q0 -8 -1 -13l-252 -1185q-22 -104 -88.5 -194.5t-171 -146.5t-234.5 -56q-25 0 -34.5 11t-6.5 22l18 84q0 1 3.5 11t15.5 17.5t32 7.5q117 0 192 72.5t98 184.5l249 1172q7 37 43 37z" />
    <glyph glyph-name="circumflex" unicode="&#x2c6;" horiz-adv-x="718" 
d="M672 1553h1q10 0 21 -12l181 -232q9 -13 9 -18q0 -9 -16 -22l-46 -40q-14 -11 -22 -11q-9 0 -19 13l-128 165l-211 -174q-17 -15 -28 -15q-9 0 -16 9l-42 51q-6 8 -6 15q0 14 21 31l274 228q17 12 27 12z" />
    <glyph glyph-name="caron" unicode="&#x2c7;" horiz-adv-x="710" 
d="M590 1170h-1q-10 0 -21 12l-181 232q-9 13 -9 18q0 9 16 22l46 40q14 11 22 11q9 0 19 -13l128 -165l211 174q17 15 28 15q9 0 16 -9l42 -51q6 -7 6 -15q0 -13 -21 -31l-274 -228q-17 -12 -27 -12z" />
    <glyph glyph-name="breve" unicode="&#x2d8;" horiz-adv-x="626" 
d="M413 1283q-49 27 -76 73t-27 99q0 23 4 42q3 17 15.5 26.5t28.5 9.5h77q17 0 25 -10.5t5 -25.5q-3 -13 -3 -27q0 -35 21 -57.5t67 -22.5q35 0 67 16.5t53.5 41.5t26.5 49q3 16 13.5 26t27.5 10h79q16 0 24.5 -9.5t5.5 -26.5q-13 -62 -61 -117.5t-117 -89.5t-143 -34
q-64 0 -113 27z" />
    <glyph glyph-name="dotaccent" unicode="&#x2d9;" 
d="M498 1428h106q30 0 30 -26q0 -5 -2 -15l-21 -102q-5 -22 -16 -30.5t-30 -8.5h-105q-34 0 -34 24q0 4 2 14l23 104q7 40 47 40z" />
    <glyph glyph-name="ring" unicode="&#x2da;" horiz-adv-x="497" 
d="M669 1575q37 -21 58 -57t21 -81q0 -18 -5 -41q-12 -55 -48.5 -101t-88.5 -72.5t-107 -26.5q-47 0 -84 20.5t-57.5 56.5t-20.5 81q0 17 5 42q12 54 49 100t88 73t105 27q48 0 85 -21zM488 1468.5q-35 -30.5 -43 -72.5q-3 -15 -3 -29q0 -34 19.5 -54.5t59.5 -20.5
q45 0 79 30t43 74q3 17 3 32q0 71 -82 71q-41 0 -76 -30.5z" />
    <glyph glyph-name="ogonek" unicode="&#x2db;" horiz-adv-x="532" 
d="M344 -352q-32 -45 -79.5 -71.5t-102.5 -26.5q-47 0 -85 20t-59.5 55t-21.5 79q0 22 4 39q10 51 41 89t88 85l194 159q14 12 24 12q9 0 17 -11l27 -35q6 -7 6 -15q0 -14 -16 -27l-191 -156q-35 -28 -53.5 -46.5t-27.5 -41.5t-9 -43q0 -29 18.5 -46.5t53.5 -17.5
q37 0 69 28.5t38 63.5q5 18 15 27t22 9h49q10 0 16.5 -6t6.5 -17q0 -6 -1 -9q-11 -52 -43 -97z" />
    <glyph glyph-name="tilde" unicode="&#x2dc;" horiz-adv-x="678" 
d="M365 1255q-11 0 -20 11l-32 40q-10 11 -10 20q0 6 5 13t18 20q48 48 94 71t97 23q30 0 58 -12.5t66 -36.5q31 -20 52.5 -30t41.5 -10q26 0 47 14t50 42q21 21 38 21q11 0 21 -10l28 -37q6 -7 6 -16q0 -11 -14 -27q-50 -55 -96.5 -81.5t-99.5 -26.5q-31 0 -57.5 12.5
t-61.5 36.5q-35 22 -53.5 31t-39.5 9q-31 0 -54 -15t-54 -46q-17 -16 -30 -16z" />
    <glyph glyph-name="hungarumlaut" unicode="&#x2dd;" horiz-adv-x="910" 
d="M589.5 1230.5q-9.5 -5.5 -23.5 -5.5h-101q-11 0 -18.5 5.5t-7.5 15.5q0 11 9 24l163 221q12 17 22.5 23t23.5 6h99q10 -1 16.5 -7.5t6.5 -16.5q0 -11 -9 -23l-158 -218q-13 -19 -22.5 -24.5zM950 1230.5q-9 -5.5 -23 -5.5h-102q-10 0 -17.5 5.5t-7.5 15.5q0 11 9 24
l161 221q14 17 23.5 23t23.5 6h100q10 -1 16.5 -7.5t6.5 -16.5q0 -11 -9 -23l-159 -218q-13 -19 -22 -24.5z" />
    <glyph glyph-name="uni037E" unicode="&#x37e;" horiz-adv-x="507" 
 />
    <glyph glyph-name="tonos" unicode="&#x384;" horiz-adv-x="398" 
d="M473 1531h84q26 0 26 -20q0 -7 -3 -16l-62 -222q-9 -33 -37 -33h-58q-22 0 -22 22q0 3 2 13l31 220q5 36 39 36z" />
    <glyph glyph-name="dieresistonos" unicode="&#x385;" horiz-adv-x="826" 
d="M797 1611h83q26 0 26 -20q0 -7 -3 -16l-59 -208q-9 -33 -37 -33h-57q-22 0 -22 23q0 8 1 12l29 206q5 36 39 36zM507 1498.5q9 7.5 20 7.5h124q20 0 20 -19q0 -6 -1 -9l-25 -115q-2 -11 -10.5 -18t-17.5 -7h-128q-8 0 -14.5 5.5t-3.5 18.5l25 118q2 11 11 18.5z
M964 1498.5q9 7.5 19 7.5h124q21 0 21 -18q0 -4 -2 -10l-25 -115q-2 -11 -10.5 -18t-17.5 -7h-127q-9 0 -15 5.5t-3 18.5l25 118q2 11 11 18.5z" />
    <glyph glyph-name="Alphatonos" unicode="&#x386;" horiz-adv-x="1411" 
d="M473 1531h84q26 0 26 -20q0 -7 -3 -16l-62 -222q-9 -33 -37 -33h-58q-22 0 -22 22q0 3 2 13l31 220q5 36 39 36zM975 1426h90q27 0 32 -30l264 -1355q1 -4 1 -10q0 -15 -10 -23t-25 -8h-130q-26 0 -30 29l-51 273h-670l-166 -273q-11 -16 -21 -22.5t-22 -6.5h-140
q-25 0 -25 19q0 9 7 22l850 1355q20 30 46 30zM1082 486l-121 656l-405 -656h526z" />
    <glyph glyph-name="anoteleia" unicode="&#x387;" horiz-adv-x="436" 
d="M312.5 626.5q8.5 7.5 19.5 7.5h124q20 0 20 -19q0 -6 -1 -9l-24 -115q-3 -11 -11.5 -18t-17.5 -7h-127q-8 0 -14.5 5.5t-3.5 18.5l25 117q2 12 10.5 19.5z" />
    <glyph glyph-name="Epsilontonos" unicode="&#x388;" horiz-adv-x="1296" 
d="M293 1532h84q26 0 26 -20q0 -7 -3 -16l-62 -222q-9 -33 -37 -33h-58q-22 0 -22 22q0 3 2 13l31 220q5 36 39 36zM519 1427h940q30 0 30 -24q0 -6 -1 -9l-26 -120q-6 -34 -43 -34h-787l-84 -396h609q33 0 33 -25q0 -6 -1 -9l-25 -118q-7 -33 -46 -33h-609l-100 -470h786
q30 0 30 -24q0 -6 -1 -9l-26 -122q-7 -34 -43 -34h-939q-27 0 -27 23q0 7 1 11l289 1360q6 33 40 33z" />
    <glyph glyph-name="Etatonos" unicode="&#x389;" horiz-adv-x="1542" 
d="M307 1531h84q26 0 26 -20q0 -7 -3 -16l-62 -222q-9 -33 -37 -33h-58q-22 0 -22 22q0 3 2 13l31 220q5 36 39 36zM512 658l-132 -622q-8 -36 -42 -36h-117q-28 0 -28 24q0 8 1 12l288 1355q3 16 14 26t28 10h120q11 0 18.5 -6t7.5 -17l-2 -12l-116 -546h804l116 545
q3 16 13.5 26t27.5 10h120q26 0 26 -22q0 -3 -2 -13l-288 -1356q-8 -36 -41 -36h-118q-27 0 -27 24q0 7 1 12l132 622h-804z" />
    <glyph glyph-name="Iotatonos" unicode="&#x38a;" 
d="M263 1431h84q26 0 26 -20q0 -7 -3 -16l-62 -222q-9 -33 -37 -33h-58q-22 0 -22 22q0 3 2 13l31 220q5 36 39 36zM463.5 1417.5q10.5 9.5 26.5 9.5h120q27 0 27 -23q0 -3 -2 -13l-288 -1354q-7 -37 -40 -37h-120q-27 0 -27 24q0 8 1 13l288 1354q4 17 14.5 26.5z" />
    <glyph glyph-name="Omicrontonos" unicode="&#x38c;" horiz-adv-x="1636" 
d="M423 1079.5q135 168.5 325 267t389 98.5q173 0 307 -75t208 -207t74 -296q0 -73 -17 -155q-43 -200 -175.5 -367t-320 -264.5t-387.5 -97.5q-173 0 -308.5 74.5t-211.5 205.5t-76 295q0 72 17 154q41 199 176 367.5zM340 1430h84q26 0 26 -20q0 -7 -3 -16l-62 -222
q-9 -33 -37 -33h-58q-22 0 -22 22q0 3 2 13l31 220q5 36 39 36zM420 584q0 -122 51 -217.5t147 -149.5t226 -54q152 0 296.5 73.5t247.5 199.5t134 276q15 69 15 132q0 122 -50.5 217t-145.5 149t-223 54q-162 0 -307 -73.5t-244.5 -199.5t-132.5 -279q-14 -68 -14 -128z
" />
    <glyph glyph-name="Upsilontonos" unicode="&#x38e;" horiz-adv-x="1232" 
d="M368 1385q-3 8 -3 13q0 13 10.5 21t23.5 8h134q11 0 18 -6t13 -21l229 -613l483 613q12 15 21 21t21 6h158q10 0 16.5 -5.5t6.5 -14.5q0 -12 -10 -23l-630 -781l-121 -566q-7 -37 -40 -37h-120q-27 0 -27 26q0 7 1 11l120 563zM212 1421h84q26 0 26 -20q0 -7 -3 -16
l-62 -222q-9 -33 -37 -33h-58q-22 0 -22 22q0 3 2 13l31 220q5 36 39 36z" />
    <glyph glyph-name="Omegatonos" unicode="&#x38f;" horiz-adv-x="1426" 
d="M99 19q0 6 1 9l21 97q8 30 38 30h288l25 117q-112 59 -175.5 169t-63.5 248q0 60 14 128q36 165 151 310.5t278 232.5t335 87q149 0 265 -65t180.5 -179t64.5 -255q0 -68 -14 -131q-25 -118 -90 -224.5t-159 -189t-204 -130.5l-26 -118h284q26 0 26 -20q0 -6 -1 -9
l-21 -98q-6 -30 -37 -30h-433q-27 0 -27 21q0 6 1 9l72 338q5 22 30 26q98 20 180.5 82t137.5 152t77 192q12 54 12 105q0 99 -42.5 177t-121.5 121.5t-185 43.5q-125 0 -240.5 -59t-197 -161.5t-108.5 -226.5q-11 -49 -11 -105q0 -119 59.5 -205t167.5 -115q20 -6 20 -18
l-1 -8l-73 -339q-6 -30 -38 -30h-432q-27 0 -27 21zM329 1431h84q26 0 26 -20q0 -7 -3 -16l-62 -222q-9 -33 -37 -33h-58q-22 0 -22 22q0 3 2 13l31 220q5 36 39 36z" />
    <glyph glyph-name="iotadieresistonos" unicode="&#x390;" 
d="M555 1634h83q26 0 26 -20q0 -7 -3 -16l-59 -208q-9 -33 -37 -33h-57q-22 0 -22 23q0 8 1 12l29 206q5 36 39 36zM265 1521.5q9 7.5 20 7.5h124q20 0 20 -19q0 -6 -1 -9l-25 -115q-2 -11 -10.5 -18t-17.5 -7h-128q-8 0 -14.5 5.5t-3.5 18.5l25 118q2 11 11 18.5z
M722 1521.5q9 7.5 19 7.5h124q21 0 21 -18q0 -4 -2 -10l-25 -115q-2 -11 -10.5 -18t-17.5 -7h-127q-9 0 -15 5.5t-3 18.5l25 118q2 11 11 18.5zM421 1217q11 9 27 9h118q13 0 20.5 -7t7.5 -19q0 -6 -1 -9l-246 -1155q-7 -36 -41 -36h-118q-28 0 -28 24q0 8 1 12l246 1155
q3 17 14 26z" />
    <glyph glyph-name="Alpha" unicode="&#x391;" horiz-adv-x="1411" 
d="M975 1426h90q27 0 32 -30l264 -1355q1 -4 1 -10q0 -15 -10 -23t-25 -8h-130q-26 0 -30 29l-51 273h-670l-166 -273q-11 -16 -21 -22.5t-22 -6.5h-140q-25 0 -25 19q0 9 7 22l850 1355q20 30 46 30zM1082 486l-121 656l-405 -656h526z" />
    <glyph glyph-name="Beta" unicode="&#x392;" horiz-adv-x="1302" 
d="M492 1427h594q86 0 154.5 -38.5t107.5 -106.5t39 -155q0 -36 -10 -86q-37 -168 -194 -283q68 -36 105.5 -109t37.5 -164q0 -44 -9 -89q-23 -104 -96.5 -195.5t-175 -146t-204.5 -54.5h-652q-27 0 -27 23q0 7 1 11l289 1360q6 33 40 33zM517 827h404q62 0 119 26t98 75
t57 114q9 41 9 71q0 140 -183 140h-416zM379 175h476q67 0 126.5 34.5t98.5 87.5t49 104q6 36 6 65q0 91 -50.5 134.5t-128.5 43.5h-478z" />
    <glyph glyph-name="Gamma" unicode="&#x393;" horiz-adv-x="1077" 
d="M383 34q-4 -18 -13 -26t-26 -8h-140q-27 0 -27 22q0 8 1 12l288 1357q8 35 41 35h846q28 0 28 -21q0 -6 -1 -10l-25 -119q-8 -32 -41 -32h-674z" />
    <glyph glyph-name="Epsilon" unicode="&#x395;" horiz-adv-x="1233" 
d="M492 1427h940q30 0 30 -24q0 -6 -1 -9l-26 -120q-6 -34 -43 -34h-787l-84 -396h609q33 0 33 -25q0 -6 -1 -9l-25 -118q-7 -33 -46 -33h-609l-100 -470h786q30 0 30 -24q0 -6 -1 -9l-26 -122q-7 -34 -43 -34h-939q-27 0 -27 23q0 7 1 11l289 1360q6 33 40 33z" />
    <glyph glyph-name="Zeta" unicode="&#x396;" horiz-adv-x="1300" 
d="M1537 1407q0 -6 -1 -10l-26 -126q-7 -17 -15 -25l-1132 -1058h882q28 0 28 -22q0 -6 -1 -9l-27 -126q-7 -31 -39 -31h-1111q-27 0 -27 21q0 6 1 10l26 123q1 2 5 13.5t11 18.5l1137 1056l-869 -1q-30 0 -30 22q0 6 1 9l26 124q7 31 43 31l1092 2q26 0 26 -22z" />
    <glyph glyph-name="Eta" unicode="&#x397;" horiz-adv-x="1484" 
d="M479 658l-132 -622q-8 -36 -42 -36h-117q-28 0 -28 24q0 8 1 12l288 1355q3 16 14 26t28 10h120q11 0 18.5 -6t7.5 -17l-2 -12l-116 -546h804l116 545q3 16 13.5 26t27.5 10h120q26 0 26 -22q0 -3 -2 -13l-288 -1356q-8 -36 -41 -36h-118q-27 0 -27 24q0 7 1 12l132 622
h-804z" />
    <glyph glyph-name="Theta" unicode="&#x398;" horiz-adv-x="1688" 
d="M436 1081q135 169 325 267.5t388 98.5q173 0 308 -75.5t210.5 -207.5t75.5 -297q0 -72 -17 -154q-43 -199 -177.5 -367t-323 -266.5t-388.5 -98.5q-173 0 -308 75.5t-210 208t-75 296.5q0 76 16 152q41 199 176 368zM850 1208q-133 -61 -234 -168.5t-147 -240.5h1084
q2 32 2 48q0 124 -51 219.5t-149 149t-234 53.5q-138 0 -271 -61zM1138 220q133 61 233.5 168.5t145.5 241.5h-1085q-2 -32 -2 -46q0 -124 52 -220.5t150 -150.5t233 -54q140 0 273 61z" />
    <glyph glyph-name="Iota" unicode="&#x399;" 
d="M463.5 1417.5q10.5 9.5 26.5 9.5h120q27 0 27 -23q0 -3 -2 -13l-288 -1354q-7 -37 -40 -37h-120q-27 0 -27 24q0 8 1 13l288 1354q4 17 14.5 26.5z" />
    <glyph glyph-name="Kappa" unicode="&#x39a;" horiz-adv-x="1409" 
d="M1331 43q5 -8 5 -15q0 -11 -9.5 -19.5t-22.5 -8.5h-146q-21 0 -37 28l-399 650l-291 -252l-83 -390q-7 -36 -40 -36h-120q-26 0 -26 24q0 7 1 12l288 1354q4 17 14 27t26 10h119q11 0 19 -8t8 -20q0 -6 -1 -9l-147 -692l809 704q16 15 28 20t24 5h164q11 0 16.5 -5
t5.5 -13q0 -14 -15 -28l-658 -582z" />
    <glyph glyph-name="Lambda" unicode="&#x39b;" horiz-adv-x="1394" 
d="M1005 1427h78q13 0 20.5 -6.5t11.5 -22.5l280 -1356q1 -4 1 -11q0 -15 -10.5 -23.5t-24.5 -8.5h-125q-26 0 -30 31l-214 1102l-675 -1102q-20 -30 -44 -30h-143q-10 0 -17 5t-7 14t9 24l846 1355q16 29 44 29z" />
    <glyph glyph-name="Mu" unicode="&#x39c;" horiz-adv-x="1778" 
d="M275 34q-10 -34 -41 -34h-114q-27 0 -27 22q0 9 2 15l441 1358q12 32 43 32h153q11 0 15.5 -5.5t6.5 -20.5l207 -1034l640 1032q16 28 37 28h172q31 0 28 -32l-130 -1360q-5 -35 -38 -35h-124q-15 0 -21.5 5.5t-6.5 18.5l1 9l118 1085l-646 -1033q-11 -15 -19 -20t-19 -5
h-100q-11 0 -17.5 5t-9.5 20l-203 1032z" />
    <glyph glyph-name="Nu" unicode="&#x39d;" horiz-adv-x="1516" 
d="M341 37q-7 -37 -42 -37h-111q-28 0 -28 25q0 8 1 12l288 1355q3 14 14.5 24t27.5 10h114q22 0 39 -29l597 -1105l234 1100q3 15 14.5 24.5t28.5 9.5h111q12 0 20 -6.5t8 -18.5q0 -6 -1 -9l-288 -1355q-7 -37 -42 -37h-120q-13 0 -23 6t-18 22l-587 1122z" />
    <glyph glyph-name="Xi" unicode="&#x39e;" horiz-adv-x="1222" 
d="M449 1426h893q27 0 27 -23q0 -7 -1 -11l-21 -101q-7 -34 -41 -34h-893q-27 0 -27 22q0 8 1 12l21 101q7 34 41 34zM459 801h602q30 0 30 -25q0 -6 -1 -9l-18 -83q-7 -33 -43 -33h-602q-28 0 -28 22q0 7 1 11l18 84q6 33 41 33zM189 174h904q29 0 29 -22q0 -7 -1 -11
l-22 -107q-7 -34 -42 -34h-904q-27 0 -27 23q0 7 1 11l22 107q8 33 40 33z" />
    <glyph glyph-name="Omicron" unicode="&#x39f;" horiz-adv-x="1688" 
d="M436 1079.5q135 168.5 325 267t389 98.5q173 0 307 -75t208 -207t74 -296q0 -73 -17 -155q-43 -200 -175.5 -367t-320 -264.5t-387.5 -97.5q-173 0 -308.5 74.5t-211.5 205.5t-76 295q0 72 17 154q41 199 176 367.5zM433 584q0 -122 51 -217.5t147 -149.5t226 -54
q152 0 296.5 73.5t247.5 199.5t134 276q15 69 15 132q0 122 -50.5 217t-145.5 149t-223 54q-162 0 -307 -73.5t-244.5 -199.5t-132.5 -279q-14 -68 -14 -128z" />
    <glyph glyph-name="Pi" unicode="&#x3a0;" horiz-adv-x="1267" 
d="M614 1243l-257 -1209q-7 -34 -40 -34h-131q-26 0 -26 22q0 8 1 12l289 1358q3 15 13.5 25t26.5 10h964q12 0 18 -6.5t6 -18.5q0 -6 -1 -10l-289 -1358q-7 -34 -39 -34h-132q-26 0 -26 22q0 8 1 12l257 1209h-635z" />
    <glyph glyph-name="Rho" unicode="&#x3a1;" horiz-adv-x="1160" 
d="M465.5 1419q10.5 8 26.5 8h516q104 0 178.5 -51.5t112 -135t37.5 -177.5q0 -46 -9 -91q-23 -106 -95.5 -206t-179.5 -162.5t-228 -62.5h-369l-107 -505q-7 -36 -40 -36h-119q-27 0 -27 24q0 7 1 12l289 1358q3 17 13.5 25zM494 723h323q80 0 149.5 35t115 93.5
t60.5 126.5q8 38 8 72q0 86 -48 140.5t-144 54.5h-353z" />
    <glyph glyph-name="Sigma" unicode="&#x3a3;" horiz-adv-x="1141" 
d="M943 701l-550 -512h698q28 0 28 -24q0 -6 -1 -9l-25 -119q-5 -21 -15.5 -29t-26.5 -8h-932q-15 0 -22.5 8.5t-4.5 22.5l27 123q2 15 12 27.5t26 28.5l563 526l-341 518q-13 22 -13 40q0 8 1 12l17 89q3 15 14.5 23.5t26.5 8.5h905q32 0 32 -24q0 -6 -1 -9l-26 -123
q-7 -33 -45 -33h-680l339 -501q7 -10 5 -19q-1 -7 -11 -17z" />
    <glyph glyph-name="Tau" unicode="&#x3a4;" horiz-adv-x="1190" 
d="M389 1427h1012q26 0 26 -24q0 -6 -1 -10l-25 -118q-7 -34 -40 -34h-413l-256 -1207q-7 -34 -40 -34h-120q-28 0 -28 23q0 7 1 11l256 1207h-412q-27 0 -27 23q0 7 1 11l25 118q6 34 41 34z" />
    <glyph glyph-name="Upsilon" unicode="&#x3a5;" horiz-adv-x="1200" 
d="M321 1385q-3 8 -3 13q0 13 10.5 21t23.5 8h134q11 0 18 -6t13 -21l229 -613l483 613q12 15 21 21t21 6h158q10 0 16.5 -5.5t6.5 -14.5q0 -12 -10 -23l-630 -781l-121 -566q-7 -37 -40 -37h-120q-27 0 -27 26q0 7 1 11l120 563z" />
    <glyph glyph-name="Phi" unicode="&#x3a6;" horiz-adv-x="1501" 
d="M429 192.5q-105 67.5 -162.5 172t-57.5 229.5q0 59 13 117q31 151 135 281.5t254.5 216t316.5 106.5l16 76q8 35 41 35h120q26 0 26 -23q0 -8 -1 -12l-16 -76q138 -17 243.5 -85t163.5 -173.5t58 -231.5q0 -55 -12 -114q-33 -152 -137.5 -283t-255 -215.5t-317.5 -104.5
l-15 -74q-7 -34 -40 -34h-120q-27 0 -27 22q0 8 1 12l15 74q-137 17 -242 84.5zM394 605q0 -125 76.5 -208t237.5 -117l183 862q-106 -14 -210 -77t-178.5 -157t-96.5 -197q-12 -55 -12 -106zM1394 804q0 87 -36.5 158.5t-107.5 118.5t-173 61l-183 -863q123 22 226.5 83.5
t172.5 152t91 196.5q10 46 10 93z" />
    <glyph glyph-name="Chi" unicode="&#x3a7;" horiz-adv-x="1295" 
d="M1223 43q3 -7 3 -14q0 -13 -10.5 -21t-22.5 -8h-126q-24 0 -34 25l-245 531l-472 -530q-15 -16 -24 -21t-21 -5h-146q-10 0 -17 5t-7 14q0 12 11 24l598 671l-313 669q-3 8 -3 14q0 13 9.5 21.5t21.5 8.5h127q12 0 19.5 -6t13.5 -20l253 -544l488 546q12 14 22.5 20
t22.5 6h148q10 0 17 -6t7 -16q0 -11 -10 -22l-617 -691z" />
    <glyph glyph-name="Psi" unicode="&#x3a8;" horiz-adv-x="1497" 
d="M542.5 538q-94.5 50 -147.5 137.5t-53 206.5q0 61 15 128l82 384q3 15 12.5 24t24.5 9h115q27 0 27 -23q0 -8 -1 -12l-81 -384q-13 -65 -13 -113q0 -235 271 -253l159 750q8 35 41 35h120q26 0 26 -23q0 -8 -1 -12l-159 -749q98 16 186.5 66.5t150.5 128t81 170.5l81 384
q3 15 14 25t27 10h110q16 0 23 -10t5 -24l-83 -387q-34 -158 -122.5 -273t-218.5 -179t-289 -75l-94 -445q-7 -34 -40 -34h-120q-27 0 -27 22q0 8 1 12l94 445q-122 9 -216.5 59z" />
    <glyph glyph-name="Iotadieresis" unicode="&#x3aa;" 
d="M379 1745h106q30 0 30 -27q0 -3 -2 -15l-22 -102q-5 -22 -16 -30.5t-29 -8.5h-105q-33 0 -33 27q0 7 1 11l22 105q9 40 48 40zM759 1745h106q30 0 30 -27q0 -3 -2 -15l-22 -102q-5 -22 -16 -30.5t-29 -8.5h-105q-33 0 -33 27q0 7 1 11l22 105q9 40 48 40zM463.5 1417.5
q10.5 9.5 26.5 9.5h120q27 0 27 -23q0 -3 -2 -13l-288 -1354q-7 -37 -40 -37h-120q-27 0 -27 24q0 8 1 13l288 1354q4 17 14.5 26.5z" />
    <glyph glyph-name="Upsilondieresis" unicode="&#x3ab;" horiz-adv-x="1200" 
d="M705 1721h106q30 0 30 -27q0 -3 -2 -15l-22 -102q-5 -22 -16 -30.5t-29 -8.5h-105q-33 0 -33 27q0 7 1 11l22 105q9 40 48 40zM1085 1721h106q30 0 30 -27q0 -3 -2 -15l-22 -102q-5 -22 -16 -30.5t-29 -8.5h-105q-33 0 -33 27q0 7 1 11l22 105q9 40 48 40zM321 1385
q-3 8 -3 13q0 13 10.5 21t23.5 8h134q11 0 18 -6t13 -21l229 -613l483 613q12 15 21 21t21 6h158q10 0 16.5 -5.5t6.5 -14.5q0 -12 -10 -23l-630 -781l-121 -566q-7 -37 -40 -37h-120q-27 0 -27 26q0 7 1 11l120 563z" />
    <glyph glyph-name="alphatonos" unicode="&#x3ac;" horiz-adv-x="1478" 
d="M1036 1631h84q26 0 26 -20q0 -7 -3 -16l-62 -222q-9 -33 -37 -33h-58q-22 0 -22 22q0 3 2 13l31 220q5 36 39 36zM1313 0h-115q-32 0 -32 30q0 5 2 17l25 116q-52 -52 -130.5 -93.5t-169.5 -65.5t-176 -24q-136 0 -251.5 67.5t-183.5 186t-68 263.5q0 64 13 126
q35 169 151.5 310.5t278.5 223t328 81.5q141 0 239 -49t160 -129l27 130q9 37 41 37h121q26 0 26 -24q0 -8 -1 -13l-245 -1153q-7 -37 -40 -37zM1310 715q0 101 -41.5 180.5t-118 124.5t-176.5 45q-116 0 -237 -61t-211 -166.5t-117 -231.5q-12 -57 -12 -110
q0 -100 41 -177.5t118.5 -121t183.5 -43.5q112 0 232.5 61t210.5 165.5t115 225.5q12 57 12 109z" />
    <glyph glyph-name="epsilontonos" unicode="&#x3ad;" horiz-adv-x="1064" 
d="M856 1640h84q26 0 26 -20q0 -7 -3 -16l-62 -222q-9 -33 -37 -33h-58q-22 0 -22 22q0 3 2 13l31 220q5 36 39 36zM974 174q0 -20 -19 -34q-85 -76 -177 -113t-197 -37h-55q-98 0 -179 36t-128.5 101.5t-47.5 150.5q0 34 7 66q39 190 236 293q-44 32 -68.5 81.5
t-24.5 109.5q0 33 7 62q22 102 87.5 180t155.5 120.5t184 42.5h25q111 0 201 -33t138 -112q5 -8 8.5 -15.5t3.5 -12.5q0 -11 -17 -24l-79 -64q-8 -5 -16 -5q-9 0 -17 4.5t-12 10.5q-48 84 -183 84h-55q-55 0 -104.5 -23.5t-84 -64.5t-45.5 -93q-4 -19 -4 -40q0 -59 40 -93.5
t112 -34.5h146q16 0 27.5 -7.5t8.5 -25.5l-22 -104q-3 -16 -16 -26.5t-33 -10.5l-152 1q-63 0 -117 -23.5t-90.5 -65.5t-48.5 -96q-5 -21 -5 -48q0 -73 50 -116t133 -43h90q48 0 95 24.5t131 85.5q18 14 34 14q13 0 20 -12l52 -73q5 -10 5 -17z" />
    </font>
</defs>
</svg>
