<?xml version="1.0" standalone="no"?>
<!DOCTYPE svg PUBLIC "-//W3C//DTD SVG 20010904//EN"
 "http://www.w3.org/TR/2001/REC-SVG-20010904/DTD/svg10.dtd">
<svg version="1.0" xmlns="http://www.w3.org/2000/svg"
 width="1144.000000pt" height="1144.000000pt" viewBox="0 0 1144.000000 1144.000000"
 preserveAspectRatio="xMidYMid meet">
<metadata>
Created by potrace 1.11, written by Peter Selinger 2001-2013
</metadata>
<g transform="translate(0.000000,1144.000000) scale(0.100000,-0.100000)"
fill="#000000" stroke="none">
<path d="M5655 11153 c-1026 -41 -1762 -617 -2060 -1614 -61 -204 -96 -403
-123 -694 l-7 -80 -480 -5 c-478 -5 -480 -5 -540 -29 -180 -72 -301 -218 -329
-397 -8 -51 -22 -261 -41 -609 -9 -154 -26 -451 -40 -660 -13 -209 -26 -432
-30 -495 -3 -63 -19 -326 -35 -585 -16 -258 -32 -517 -35 -575 -3 -58 -19
-314 -35 -570 -16 -256 -31 -517 -35 -580 -3 -63 -19 -326 -35 -585 -46 -730
-60 -986 -60 -1066 0 -204 108 -371 297 -462 l88 -42 572 -3 572 -3 3 -642 c3
-632 4 -643 26 -708 58 -172 189 -296 359 -339 75 -20 128 -20 2892 -20 3102
0 2879 -4 3003 62 118 63 200 160 246 292 23 67 24 80 19 231 -3 88 -19 354
-36 590 -46 640 -89 1249 -101 1430 -6 88 -19 279 -30 425 -11 146 -27 369
-35 495 -13 214 -28 421 -105 1510 -16 231 -34 492 -40 580 -6 88 -19 279 -30
425 -11 146 -27 369 -35 495 -8 127 -28 421 -44 655 -17 234 -35 496 -41 583
-16 220 -35 287 -113 394 -58 78 -151 144 -249 177 l-77 26 -435 0 -435 0 -5
53 c-2 28 -10 106 -16 172 -14 151 -61 395 -107 548 -229 776 -738 1314 -1438
1521 -235 69 -566 109 -820 99z m365 -1049 c103 -15 247 -57 325 -96 147 -74
304 -214 398 -355 141 -212 246 -549 259 -833 l3 -55 -1254 -3 -1254 -2 7 77
c23 276 112 574 229 767 252 415 687 584 1287 500z m2334 -2441 c4 -38 13
-174 21 -303 8 -129 24 -354 35 -500 11 -146 27 -368 35 -495 13 -214 28 -421
105 -1510 16 -231 34 -492 40 -580 6 -88 19 -279 30 -425 11 -146 27 -368 35
-495 15 -241 55 -804 105 -1505 17 -228 30 -418 30 -422 0 -5 -1004 -8 -2230
-8 l-2230 0 2 2103 3 2102 42 118 c23 65 52 134 65 153 26 38 87 74 168 99 82
26 370 32 470 11 156 -33 293 -125 356 -238 l29 -53 5 -530 c6 -593 4 -576 80
-692 49 -75 109 -129 188 -171 114 -61 128 -62 659 -62 462 0 485 -1 537 -21
112 -41 198 -152 227 -288 18 -87 6 -367 -20 -465 -32 -122 -66 -175 -136
-211 l-59 -30 -1283 -3 -1283 -3 0 -515 0 -515 1313 4 c1200 3 1320 4 1406 20
281 53 510 168 685 345 216 218 346 507 398 882 20 146 17 541 -5 660 -98 532
-434 931 -925 1099 -157 54 -224 63 -502 70 l-255 6 -6 295 c-5 294 -6 295
-37 402 -164 555 -664 962 -1280 1042 -69 9 -195 16 -286 16 -512 0 -894 -135
-1157 -407 -172 -178 -248 -320 -363 -678 l-61 -190 -3 -1322 -3 -1323 -236 0
-236 0 7 108 c3 59 13 226 21 372 8 146 26 441 40 655 13 215 29 478 35 585 6
107 20 328 30 490 11 162 26 421 35 575 9 154 24 415 35 580 11 165 29 458 40
650 11 193 22 397 26 455 3 58 7 111 10 118 3 9 536 12 2623 12 l2619 0 6 -67z"/>
</g>
</svg>
