<svg width="112" height="143" viewBox="0 0 112 143" fill="none" xmlns="http://www.w3.org/2000/svg">
<rect width="112" height="143" fill="white"/>
<path d="M32.2173 71.9224V131.71L45.7406 108.934H67.0932C70.6519 108.934 80.6165 110.357 80.6165 95.4103C80.6165 86.2998 73.9735 83.5477 70.6519 83.3105H59.2639V71.9224C59.2639 67.6519 54.9934 61.2462 45.7406 61.2462C33.6408 61.2462 33.6408 68.3637 32.2173 71.9224Z" fill="#FF4747"/>
<path d="M20.8293 116.857H27.3293V103.857H20.8293V116.857ZM13 110.357L6.5119 109.964C6.40349 111.753 7.03849 113.507 8.26682 114.812C9.49516 116.117 11.2078 116.857 13 116.857V110.357ZM17.2705 39.8936V33.3936C13.8334 33.3936 10.9903 36.0695 10.7824 39.5004L17.2705 39.8936ZM94.8515 39.8936L101.336 39.4412C101.098 36.0352 98.2658 33.3936 94.8515 33.3936V39.8936ZM101.257 131.71V138.21C103.06 138.21 104.781 137.461 106.011 136.143C107.24 134.825 107.867 133.055 107.742 131.257L101.257 131.71ZM32.2173 131.71H25.7173C25.7173 135.3 28.6275 138.21 32.2173 138.21V131.71ZM32.2173 71.9225L26.1822 69.5084C25.8751 70.2762 25.7173 71.0955 25.7173 71.9225H32.2173ZM59.2639 83.3105H52.7639C52.7639 86.9004 55.6741 89.8105 59.2639 89.8105V83.3105ZM70.652 83.3105L71.1151 76.827C70.9609 76.816 70.8065 76.8105 70.652 76.8105V83.3105ZM67.0932 108.934V102.434V108.934ZM45.7406 102.434H39.2406V115.434H45.7406V102.434ZM20.8293 103.857H13V116.857H20.8293V103.857ZM19.4881 110.75L23.7586 40.2868L10.7824 39.5004L6.5119 109.964L19.4881 110.75ZM17.2705 46.3936H94.8515V33.3936H17.2705V46.3936ZM88.3673 40.346L94.7731 132.162L107.742 131.257L101.336 39.4412L88.3673 40.346ZM101.257 125.21H32.2173V138.21H101.257V125.21ZM38.7173 131.71V71.9225H25.7173V131.71H38.7173ZM38.2524 74.3365C38.5507 73.5907 38.7791 72.8373 38.9389 72.3023C39.1229 71.6863 39.2434 71.2655 39.3958 70.8084C39.6849 69.941 39.924 69.4807 40.1504 69.1828C40.2646 69.0326 41.0701 67.7462 45.7406 67.7462V54.7462C38.3113 54.7462 33.0669 57.0185 29.8003 61.3167C28.3363 63.2431 27.5522 65.2294 27.0629 66.6975C26.826 67.4081 26.6185 68.1272 26.4827 68.5816C26.3228 69.117 26.2398 69.3646 26.1822 69.5084L38.2524 74.3365ZM45.7406 67.7462C48.7718 67.7462 50.5153 68.7548 51.4706 69.6719C51.9849 70.1656 52.3276 70.686 52.5328 71.1383C52.6347 71.3628 52.6954 71.5545 52.7291 71.7003C52.7633 71.8487 52.7639 71.9244 52.7639 71.9225H65.7639C65.7639 63.8146 58.3306 54.7462 45.7406 54.7462V67.7462ZM52.7639 71.9225C52.7639 71.9291 52.7639 71.9358 52.7639 71.9425C52.7639 71.9492 52.7639 71.9559 52.7639 71.9626C52.7639 71.9693 52.7639 71.976 52.7639 71.9827C52.7639 71.9895 52.7639 71.9962 52.7639 72.0029C52.7639 72.0097 52.7639 72.0164 52.7639 72.0232C52.7639 72.0299 52.7639 72.0367 52.7639 72.0435C52.7639 72.0502 52.7639 72.057 52.7639 72.0638C52.7639 72.0706 52.7639 72.0774 52.7639 72.0842C52.7639 72.091 52.7639 72.0978 52.7639 72.1046C52.7639 72.1114 52.7639 72.1183 52.7639 72.1251C52.7639 72.1319 52.7639 72.1388 52.7639 72.1456C52.7639 72.1525 52.7639 72.1593 52.7639 72.1662C52.7639 72.1731 52.7639 72.18 52.7639 72.1868C52.7639 72.1937 52.7639 72.2006 52.7639 72.2075C52.7639 72.2144 52.7639 72.2213 52.7639 72.2282C52.7639 72.2351 52.7639 72.2421 52.7639 72.249C52.7639 72.2559 52.7639 72.2628 52.7639 72.2698C52.7639 72.2767 52.7639 72.2837 52.7639 72.2906C52.7639 72.2976 52.7639 72.3046 52.7639 72.3115C52.7639 72.3185 52.7639 72.3255 52.7639 72.3325C52.7639 72.3395 52.7639 72.3465 52.7639 72.3535C52.7639 72.3605 52.7639 72.3675 52.7639 72.3745C52.7639 72.3815 52.7639 72.3886 52.7639 72.3956C52.7639 72.4026 52.7639 72.4097 52.7639 72.4167C52.7639 72.4238 52.7639 72.4308 52.7639 72.4379C52.7639 72.445 52.7639 72.452 52.7639 72.4591C52.7639 72.4662 52.7639 72.4733 52.7639 72.4804C52.7639 72.4875 52.7639 72.4946 52.7639 72.5017C52.7639 72.5088 52.7639 72.5159 52.7639 72.523C52.7639 72.5301 52.7639 72.5373 52.7639 72.5444C52.7639 72.5515 52.7639 72.5587 52.7639 72.5658C52.7639 72.573 52.7639 72.5801 52.7639 72.5873C52.7639 72.5945 52.7639 72.6016 52.7639 72.6088C52.7639 72.616 52.7639 72.6232 52.7639 72.6304C52.7639 72.6376 52.7639 72.6448 52.7639 72.652C52.7639 72.6592 52.7639 72.6664 52.7639 72.6736C52.7639 72.6808 52.7639 72.6881 52.7639 72.6953C52.7639 72.7025 52.7639 72.7098 52.7639 72.717C52.7639 72.7243 52.7639 72.7315 52.7639 72.7388C52.7639 72.746 52.7639 72.7533 52.7639 72.7606C52.7639 72.7678 52.7639 72.7751 52.7639 72.7824C52.7639 72.7897 52.7639 72.797 52.7639 72.8043C52.7639 72.8116 52.7639 72.8189 52.7639 72.8262C52.7639 72.8335 52.7639 72.8409 52.7639 72.8482C52.7639 72.8555 52.7639 72.8628 52.7639 72.8702C52.7639 72.8775 52.7639 72.8849 52.7639 72.8922C52.7639 72.8996 52.7639 72.9069 52.7639 72.9143C52.7639 72.9217 52.7639 72.929 52.7639 72.9364C52.7639 72.9438 52.7639 72.9512 52.7639 72.9586C52.7639 72.966 52.7639 72.9734 52.7639 72.9808C52.7639 72.9882 52.7639 72.9956 52.7639 73.003C52.7639 73.0104 52.7639 73.0179 52.7639 73.0253C52.7639 73.0327 52.7639 73.0401 52.7639 73.0476C52.7639 73.055 52.7639 73.0625 52.7639 73.0699C52.7639 73.0774 52.7639 73.0848 52.7639 73.0923C52.7639 73.0998 52.7639 73.1073 52.7639 73.1147C52.7639 73.1222 52.7639 73.1297 52.7639 73.1372C52.7639 73.1447 52.7639 73.1522 52.7639 73.1597C52.7639 73.1672 52.7639 73.1747 52.7639 73.1822C52.7639 73.1897 52.7639 73.1972 52.7639 73.2048C52.7639 73.2123 52.7639 73.2198 52.7639 73.2274C52.7639 73.2349 52.7639 73.2424 52.7639 73.25C52.7639 73.2575 52.7639 73.2651 52.7639 73.2727C52.7639 73.2802 52.7639 73.2878 52.7639 73.2954C52.7639 73.3029 52.7639 73.3105 52.7639 73.3181C52.7639 73.3257 52.7639 73.3333 52.7639 73.3409C52.7639 73.3485 52.7639 73.3561 52.7639 73.3637C52.7639 73.3713 52.7639 73.3789 52.7639 73.3865C52.7639 73.3941 52.7639 73.4018 52.7639 73.4094C52.7639 73.417 52.7639 73.4247 52.7639 73.4323C52.7639 73.4399 52.7639 73.4476 52.7639 73.4552C52.7639 73.4629 52.7639 73.4706 52.7639 73.4782C52.7639 73.4859 52.7639 73.4935 52.7639 73.5012C52.7639 73.5089 52.7639 73.5166 52.7639 73.5243C52.7639 73.5319 52.7639 73.5396 52.7639 73.5473C52.7639 73.555 52.7639 73.5627 52.7639 73.5704C52.7639 73.5781 52.7639 73.5858 52.7639 73.5936C52.7639 73.6013 52.7639 73.609 52.7639 73.6167C52.7639 73.6244 52.7639 73.6322 52.7639 73.6399C52.7639 73.6477 52.7639 73.6554 52.7639 73.6631C52.7639 73.6709 52.7639 73.6786 52.7639 73.6864C52.7639 73.6942 52.7639 73.7019 52.7639 73.7097C52.7639 73.7174 52.7639 73.7252 52.7639 73.733C52.7639 73.7408 52.7639 73.7486 52.7639 73.7563C52.7639 73.7641 52.7639 73.7719 52.7639 73.7797C52.7639 73.7875 52.7639 73.7953 52.7639 73.8031C52.7639 73.8109 52.7639 73.8187 52.7639 73.8266C52.7639 73.8344 52.7639 73.8422 52.7639 73.85C52.7639 73.8579 52.7639 73.8657 52.7639 73.8735C52.7639 73.8814 52.7639 73.8892 52.7639 73.897C52.7639 73.9049 52.7639 73.9127 52.7639 73.9206C52.7639 73.9284 52.7639 73.9363 52.7639 73.9442C52.7639 73.952 52.7639 73.9599 52.7639 73.9678C52.7639 73.9756 52.7639 73.9835 52.7639 73.9914C52.7639 73.9993 52.7639 74.0072 52.7639 74.0151C52.7639 74.023 52.7639 74.0308 52.7639 74.0387C52.7639 74.0466 52.7639 74.0546 52.7639 74.0625C52.7639 74.0704 52.7639 74.0783 52.7639 74.0862C52.7639 74.0941 52.7639 74.102 52.7639 74.11C52.7639 74.1179 52.7639 74.1258 52.7639 74.1338C52.7639 74.1417 52.7639 74.1496 52.7639 74.1576C52.7639 74.1655 52.7639 74.1735 52.7639 74.1814C52.7639 74.1894 52.7639 74.1973 52.7639 74.2053C52.7639 74.2132 52.7639 74.2212 52.7639 74.2292C52.7639 74.2371 52.7639 74.2451 52.7639 74.2531C52.7639 74.2611 52.7639 74.2691 52.7639 74.277C52.7639 74.285 52.7639 74.293 52.7639 74.301C52.7639 74.309 52.7639 74.317 52.7639 74.325C52.7639 74.333 52.7639 74.341 52.7639 74.349C52.7639 74.357 52.7639 74.365 52.7639 74.3731C52.7639 74.3811 52.7639 74.3891 52.7639 74.3971C52.7639 74.4051 52.7639 74.4132 52.7639 74.4212C52.7639 74.4292 52.7639 74.4373 52.7639 74.4453C52.7639 74.4533 52.7639 74.4614 52.7639 74.4694C52.7639 74.4775 52.7639 74.4855 52.7639 74.4936C52.7639 74.5016 52.7639 74.5097 52.7639 74.5178C52.7639 74.5258 52.7639 74.5339 52.7639 74.542C52.7639 74.55 52.7639 74.5581 52.7639 74.5662C52.7639 74.5743 52.7639 74.5823 52.7639 74.5904C52.7639 74.5985 52.7639 74.6066 52.7639 74.6147C52.7639 74.6228 52.7639 74.6309 52.7639 74.639C52.7639 74.6471 52.7639 74.6552 52.7639 74.6633C52.7639 74.6714 52.7639 74.6795 52.7639 74.6876C52.7639 74.6957 52.7639 74.7038 52.7639 74.7119C52.7639 74.7201 52.7639 74.7282 52.7639 74.7363C52.7639 74.7444 52.7639 74.7526 52.7639 74.7607C52.7639 74.7688 52.7639 74.777 52.7639 74.7851C52.7639 74.7932 52.7639 74.8014 52.7639 74.8095C52.7639 74.8177 52.7639 74.8258 52.7639 74.834C52.7639 74.8421 52.7639 74.8503 52.7639 74.8584C52.7639 74.8666 52.7639 74.8747 52.7639 74.8829C52.7639 74.8911 52.7639 74.8992 52.7639 74.9074C52.7639 74.9156 52.7639 74.9237 52.7639 74.9319C52.7639 74.9401 52.7639 74.9483 52.7639 74.9564C52.7639 74.9646 52.7639 74.9728 52.7639 74.981C52.7639 74.9892 52.7639 74.9974 52.7639 75.0056C52.7639 75.0137 52.7639 75.0219 52.7639 75.0301C52.7639 75.0383 52.7639 75.0465 52.7639 75.0547C52.7639 75.0629 52.7639 75.0711 52.7639 75.0794C52.7639 75.0876 52.7639 75.0958 52.7639 75.104C52.7639 75.1122 52.7639 75.1204 52.7639 75.1286C52.7639 75.1369 52.7639 75.1451 52.7639 75.1533C52.7639 75.1615 52.7639 75.1698 52.7639 75.178C52.7639 75.1862 52.7639 75.1945 52.7639 75.2027C52.7639 75.2109 52.7639 75.2192 52.7639 75.2274C52.7639 75.2356 52.7639 75.2439 52.7639 75.2521C52.7639 75.2604 52.7639 75.2686 52.7639 75.2769C52.7639 75.2851 52.7639 75.2934 52.7639 75.3016C52.7639 75.3099 52.7639 75.3181 52.7639 75.3264C52.7639 75.3347 52.7639 75.3429 52.7639 75.3512C52.7639 75.3594 52.7639 75.3677 52.7639 75.376C52.7639 75.3842 52.7639 75.3925 52.7639 75.4008C52.7639 75.4091 52.7639 75.4173 52.7639 75.4256C52.7639 75.4339 52.7639 75.4422 52.7639 75.4505C52.7639 75.4587 52.7639 75.467 52.7639 75.4753C52.7639 75.4836 52.7639 75.4919 52.7639 75.5002C52.7639 75.5085 52.7639 75.5167 52.7639 75.525C52.7639 75.5333 52.7639 75.5416 52.7639 75.5499C52.7639 75.5582 52.7639 75.5665 52.7639 75.5748C52.7639 75.5831 52.7639 75.5914 52.7639 75.5997C52.7639 75.608 52.7639 75.6163 52.7639 75.6247C52.7639 75.633 52.7639 75.6413 52.7639 75.6496C52.7639 75.6579 52.7639 75.6662 52.7639 75.6745C52.7639 75.6829 52.7639 75.6912 52.7639 75.6995C52.7639 75.7078 52.7639 75.7161 52.7639 75.7245C52.7639 75.7328 52.7639 75.7411 52.7639 75.7494C52.7639 75.7578 52.7639 75.7661 52.7639 75.7744C52.7639 75.7827 52.7639 75.7911 52.7639 75.7994C52.7639 75.8077 52.7639 75.8161 52.7639 75.8244C52.7639 75.8327 52.7639 75.8411 52.7639 75.8494C52.7639 75.8578 52.7639 75.8661 52.7639 75.8744C52.7639 75.8828 52.7639 75.8911 52.7639 75.8995C52.7639 75.9078 52.7639 75.9162 52.7639 75.9245C52.7639 75.9329 52.7639 75.9412 52.7639 75.9496C52.7639 75.9579 52.7639 75.9663 52.7639 75.9746C52.7639 75.983 52.7639 75.9913 52.7639 75.9997C52.7639 76.008 52.7639 76.0164 52.7639 76.0247C52.7639 76.0331 52.7639 76.0415 52.7639 76.0498C52.7639 76.0582 52.7639 76.0665 52.7639 76.0749C52.7639 76.0833 52.7639 76.0916 52.7639 76.1C52.7639 76.1084 52.7639 76.1167 52.7639 76.1251C52.7639 76.1335 52.7639 76.1418 52.7639 76.1502C52.7639 76.1586 52.7639 76.1669 52.7639 76.1753C52.7639 76.1837 52.7639 76.192 52.7639 76.2004C52.7639 76.2088 52.7639 76.2172 52.7639 76.2255C52.7639 76.2339 52.7639 76.2423 52.7639 76.2507C52.7639 76.259 52.7639 76.2674 52.7639 76.2758C52.7639 76.2842 52.7639 76.2925 52.7639 76.3009C52.7639 76.3093 52.7639 76.3177 52.7639 76.3261C52.7639 76.3344 52.7639 76.3428 52.7639 76.3512C52.7639 76.3596 52.7639 76.368 52.7639 76.3764C52.7639 76.3847 52.7639 76.3931 52.7639 76.4015C52.7639 76.4099 52.7639 76.4183 52.7639 76.4267C52.7639 76.435 52.7639 76.4434 52.7639 76.4518C52.7639 76.4602 52.7639 76.4686 52.7639 76.477C52.7639 76.4854 52.7639 76.4938 52.7639 76.5021C52.7639 76.5105 52.7639 76.5189 52.7639 76.5273C52.7639 76.5357 52.7639 76.5441 52.7639 76.5525C52.7639 76.5609 52.7639 76.5693 52.7639 76.5776C52.7639 76.586 52.7639 76.5944 52.7639 76.6028C52.7639 76.6112 52.7639 76.6196 52.7639 76.628C52.7639 76.6364 52.7639 76.6448 52.7639 76.6532C52.7639 76.6616 52.7639 76.67 52.7639 76.6783C52.7639 76.6867 52.7639 76.6951 52.7639 76.7035C52.7639 76.7119 52.7639 76.7203 52.7639 76.7287C52.7639 76.7371 52.7639 76.7455 52.7639 76.7539C52.7639 76.7623 52.7639 76.7707 52.7639 76.7791C52.7639 76.7874 52.7639 76.7958 52.7639 76.8042C52.7639 76.8126 52.7639 76.821 52.7639 76.8294C52.7639 76.8378 52.7639 76.8462 52.7639 76.8546C52.7639 76.863 52.7639 76.8714 52.7639 76.8798C52.7639 76.8882 52.7639 76.8966 52.7639 76.9049C52.7639 76.9133 52.7639 76.9217 52.7639 76.9301C52.7639 76.9385 52.7639 76.9469 52.7639 76.9553C52.7639 76.9637 52.7639 76.9721 52.7639 76.9805C52.7639 76.9889 52.7639 76.9972 52.7639 77.0056C52.7639 77.014 52.7639 77.0224 52.7639 77.0308C52.7639 77.0392 52.7639 77.0476 52.7639 77.056C52.7639 77.0643 52.7639 77.0727 52.7639 77.0811C52.7639 77.0895 52.7639 77.0979 52.7639 77.1063C52.7639 77.1147 52.7639 77.1231 52.7639 77.1314C52.7639 77.1398 52.7639 77.1482 52.7639 77.1566C52.7639 77.165 52.7639 77.1734 52.7639 77.1817C52.7639 77.1901 52.7639 77.1985 52.7639 77.2069C52.7639 77.2153 52.7639 77.2236 52.7639 77.232C52.7639 77.2404 52.7639 77.2488 52.7639 77.2572C52.7639 77.2655 52.7639 77.2739 52.7639 77.2823C52.7639 77.2907 52.7639 77.299 52.7639 77.3074C52.7639 77.3158 52.7639 77.3242 52.7639 77.3325C52.7639 77.3409 52.7639 77.3493 52.7639 77.3576C52.7639 77.366 52.7639 77.3744 52.7639 77.3828C52.7639 77.3911 52.7639 77.3995 52.7639 77.4079C52.7639 77.4162 52.7639 77.4246 52.7639 77.433C52.7639 77.4413 52.7639 77.4497 52.7639 77.458C52.7639 77.4664 52.7639 77.4748 52.7639 77.4831C52.7639 77.4915 52.7639 77.4999 52.7639 77.5082C52.7639 77.5166 52.7639 77.5249 52.7639 77.5333C52.7639 77.5416 52.7639 77.55 52.7639 77.5583C52.7639 77.5667 52.7639 77.5751 52.7639 77.5834C52.7639 77.5918 52.7639 77.6001 52.7639 77.6084C52.7639 77.6168 52.7639 77.6251 52.7639 77.6335C52.7639 77.6418 52.7639 77.6502 52.7639 77.6585C52.7639 77.6669 52.7639 77.6752 52.7639 77.6835C52.7639 77.6919 52.7639 77.7002 52.7639 77.7086C52.7639 77.7169 52.7639 77.7252 52.7639 77.7336C52.7639 77.7419 52.7639 77.7502 52.7639 77.7586C52.7639 77.7669 52.7639 77.7752 52.7639 77.7835C52.7639 77.7919 52.7639 77.8002 52.7639 77.8085C52.7639 77.8168 52.7639 77.8252 52.7639 77.8335C52.7639 77.8418 52.7639 77.8501 52.7639 77.8584C52.7639 77.8668 52.7639 77.8751 52.7639 77.8834C52.7639 77.8917 52.7639 77.9 52.7639 77.9083C52.7639 77.9166 52.7639 77.9249 52.7639 77.9332C52.7639 77.9416 52.7639 77.9499 52.7639 77.9582C52.7639 77.9665 52.7639 77.9748 52.7639 77.9831C52.7639 77.9914 52.7639 77.9997 52.7639 78.0079C52.7639 78.0162 52.7639 78.0245 52.7639 78.0328C52.7639 78.0411 52.7639 78.0494 52.7639 78.0577C52.7639 78.066 52.7639 78.0743 52.7639 78.0825C52.7639 78.0908 52.7639 78.0991 52.7639 78.1074C52.7639 78.1157 52.7639 78.1239 52.7639 78.1322C52.7639 78.1405 52.7639 78.1488 52.7639 78.157C52.7639 78.1653 52.7639 78.1736 52.7639 78.1818C52.7639 78.1901 52.7639 78.1984 52.7639 78.2066C52.7639 78.2149 52.7639 78.2231 52.7639 78.2314C52.7639 78.2396 52.7639 78.2479 52.7639 78.2561C52.7639 78.2644 52.7639 78.2726 52.7639 78.2809C52.7639 78.2891 52.7639 78.2974 52.7639 78.3056C52.7639 78.3139 52.7639 78.3221 52.7639 78.3303C52.7639 78.3386 52.7639 78.3468 52.7639 78.355C52.7639 78.3633 52.7639 78.3715 52.7639 78.3797C52.7639 78.3879 52.7639 78.3962 52.7639 78.4044C52.7639 78.4126 52.7639 78.4208 52.7639 78.429C52.7639 78.4373 52.7639 78.4455 52.7639 78.4537C52.7639 78.4619 52.7639 78.4701 52.7639 78.4783C52.7639 78.4865 52.7639 78.4947 52.7639 78.5029C52.7639 78.5111 52.7639 78.5193 52.7639 78.5275C52.7639 78.5357 52.7639 78.5439 52.7639 78.5521C52.7639 78.5603 52.7639 78.5684 52.7639 78.5766C52.7639 78.5848 52.7639 78.593 52.7639 78.6012C52.7639 78.6093 52.7639 78.6175 52.7639 78.6257C52.7639 78.6338 52.7639 78.642 52.7639 78.6502C52.7639 78.6583 52.7639 78.6665 52.7639 78.6747C52.7639 78.6828 52.7639 78.691 52.7639 78.6991C52.7639 78.7073 52.7639 78.7154 52.7639 78.7236C52.7639 78.7317 52.7639 78.7399 52.7639 78.748C52.7639 78.7561 52.7639 78.7643 52.7639 78.7724C52.7639 78.7805 52.7639 78.7887 52.7639 78.7968C52.7639 78.8049 52.7639 78.813 52.7639 78.8212C52.7639 78.8293 52.7639 78.8374 52.7639 78.8455C52.7639 78.8536 52.7639 78.8617 52.7639 78.8698C52.7639 78.8779 52.7639 78.886 52.7639 78.8941C52.7639 78.9022 52.7639 78.9103 52.7639 78.9184C52.7639 78.9265 52.7639 78.9346 52.7639 78.9427C52.7639 78.9508 52.7639 78.9589 52.7639 78.9669C52.7639 78.975 52.7639 78.9831 52.7639 78.9912C52.7639 78.9992 52.7639 79.0073 52.7639 79.0154C52.7639 79.0234 52.7639 79.0315 52.7639 79.0395C52.7639 79.0476 52.7639 79.0556 52.7639 79.0637C52.7639 79.0717 52.7639 79.0798 52.7639 79.0878C52.7639 79.0959 52.7639 79.1039 52.7639 79.1119C52.7639 79.12 52.7639 79.128 52.7639 79.136C52.7639 79.1441 52.7639 79.1521 52.7639 79.1601C52.7639 79.1681 52.7639 79.1761 52.7639 79.1841C52.7639 79.1921 52.7639 79.2002 52.7639 79.2082C52.7639 79.2162 52.7639 79.2242 52.7639 79.2322C52.7639 79.2401 52.7639 79.2481 52.7639 79.2561C52.7639 79.2641 52.7639 79.2721 52.7639 79.2801C52.7639 79.2881 52.7639 79.296 52.7639 79.304C52.7639 79.312 52.7639 79.3199 52.7639 79.3279C52.7639 79.3359 52.7639 79.3438 52.7639 79.3518C52.7639 79.3597 52.7639 79.3677 52.7639 79.3756C52.7639 79.3836 52.7639 79.3915 52.7639 79.3994C52.7639 79.4074 52.7639 79.4153 52.7639 79.4232C52.7639 79.4312 52.7639 79.4391 52.7639 79.447C52.7639 79.4549 52.7639 79.4628 52.7639 79.4708C52.7639 79.4787 52.7639 79.4866 52.7639 79.4945C52.7639 79.5024 52.7639 79.5103 52.7639 79.5182C52.7639 79.5261 52.7639 79.5339 52.7639 79.5418C52.7639 79.5497 52.7639 79.5576 52.7639 79.5655C52.7639 79.5733 52.7639 79.5812 52.7639 79.5891C52.7639 79.5969 52.7639 79.6048 52.7639 79.6127C52.7639 79.6205 52.7639 79.6284 52.7639 79.6362C52.7639 79.6441 52.7639 79.6519 52.7639 79.6597C52.7639 79.6676 52.7639 79.6754 52.7639 79.6832C52.7639 79.6911 52.7639 79.6989 52.7639 79.7067C52.7639 79.7145 52.7639 79.7223 52.7639 79.7301C52.7639 79.738 52.7639 79.7458 52.7639 79.7536C52.7639 79.7614 52.7639 79.7691 52.7639 79.7769C52.7639 79.7847 52.7639 79.7925 52.7639 79.8003C52.7639 79.8081 52.7639 79.8158 52.7639 79.8236C52.7639 79.8314 52.7639 79.8391 52.7639 79.8469C52.7639 79.8547 52.7639 79.8624 52.7639 79.8702C52.7639 79.8779 52.7639 79.8857 52.7639 79.8934C52.7639 79.9011 52.7639 79.9089 52.7639 79.9166C52.7639 79.9243 52.7639 79.932 52.7639 79.9398C52.7639 79.9475 52.7639 79.9552 52.7639 79.9629C52.7639 79.9706 52.7639 79.9783 52.7639 79.986C52.7639 79.9937 52.7639 80.0014 52.7639 80.0091C52.7639 80.0168 52.7639 80.0245 52.7639 80.0321C52.7639 80.0398 52.7639 80.0475 52.7639 80.0551C52.7639 80.0628 52.7639 80.0705 52.7639 80.0781C52.7639 80.0858 52.7639 80.0934 52.7639 80.1011C52.7639 80.1087 52.7639 80.1163 52.7639 80.124C52.7639 80.1316 52.7639 80.1392 52.7639 80.1469C52.7639 80.1545 52.7639 80.1621 52.7639 80.1697C52.7639 80.1773 52.7639 80.1849 52.7639 80.1925C52.7639 80.2001 52.7639 80.2077 52.7639 80.2153C52.7639 80.2229 52.7639 80.2305 52.7639 80.238C52.7639 80.2456 52.7639 80.2532 52.7639 80.2607C52.7639 80.2683 52.7639 80.2759 52.7639 80.2834C52.7639 80.291 52.7639 80.2985 52.7639 80.3061C52.7639 80.3136 52.7639 80.3211 52.7639 80.3287C52.7639 80.3362 52.7639 80.3437 52.7639 80.3512C52.7639 80.3588 52.7639 80.3663 52.7639 80.3738C52.7639 80.3813 52.7639 80.3888 52.7639 80.3963C52.7639 80.4038 52.7639 80.4112 52.7639 80.4187C52.7639 80.4262 52.7639 80.4337 52.7639 80.4412C52.7639 80.4486 52.7639 80.4561 52.7639 80.4635C52.7639 80.471 52.7639 80.4785 52.7639 80.4859C52.7639 80.4933 52.7639 80.5008 52.7639 80.5082C52.7639 80.5156 52.7639 80.5231 52.7639 80.5305C52.7639 80.5379 52.7639 80.5453 52.7639 80.5527C52.7639 80.5601 52.7639 80.5675 52.7639 80.5749C52.7639 80.5823 52.7639 80.5897 52.7639 80.5971C52.7639 80.6045 52.7639 80.6118 52.7639 80.6192C52.7639 80.6266 52.7639 80.6339 52.7639 80.6413C52.7639 80.6487 52.7639 80.656 52.7639 80.6634C52.7639 80.6707 52.7639 80.678 52.7639 80.6854C52.7639 80.6927 52.7639 80.7 52.7639 80.7073C52.7639 80.7147 52.7639 80.722 52.7639 80.7293C52.7639 80.7366 52.7639 80.7439 52.7639 80.7512C52.7639 80.7584 52.7639 80.7657 52.7639 80.773C52.7639 80.7803 52.7639 80.7876 52.7639 80.7948C52.7639 80.8021 52.7639 80.8093 52.7639 80.8166C52.7639 80.8238 52.7639 80.8311 52.7639 80.8383C52.7639 80.8456 52.7639 80.8528 52.7639 80.86C52.7639 80.8672 52.7639 80.8744 52.7639 80.8817C52.7639 80.8889 52.7639 80.8961 52.7639 80.9033C52.7639 80.9105 52.7639 80.9176 52.7639 80.9248C52.7639 80.932 52.7639 80.9392 52.7639 80.9463C52.7639 80.9535 52.7639 80.9607 52.7639 80.9678C52.7639 80.975 52.7639 80.9821 52.7639 80.9893C52.7639 80.9964 52.7639 81.0035 52.7639 81.0107C52.7639 81.0178 52.7639 81.0249 52.7639 81.032C52.7639 81.0391 52.7639 81.0462 52.7639 81.0533C52.7639 81.0604 52.7639 81.0675 52.7639 81.0746C52.7639 81.0817 52.7639 81.0887 52.7639 81.0958C52.7639 81.1029 52.7639 81.1099 52.7639 81.117C52.7639 81.124 52.7639 81.1311 52.7639 81.1381C52.7639 81.1452 52.7639 81.1522 52.7639 81.1592C52.7639 81.1662 52.7639 81.1732 52.7639 81.1802C52.7639 81.1873 52.7639 81.1943 52.7639 81.2012C52.7639 81.2082 52.7639 81.2152 52.7639 81.2222C52.7639 81.2292 52.7639 81.2362 52.7639 81.2431C52.7639 81.2501 52.7639 81.257 52.7639 81.264C52.7639 81.2709 52.7639 81.2779 52.7639 81.2848C52.7639 81.2917 52.7639 81.2987 52.7639 81.3056C52.7639 81.3125 52.7639 81.3194 52.7639 81.3263C52.7639 81.3332 52.7639 81.3401 52.7639 81.347C52.7639 81.3539 52.7639 81.3607 52.7639 81.3676C52.7639 81.3745 52.7639 81.3813 52.7639 81.3882C52.7639 81.395 52.7639 81.4019 52.7639 81.4087C52.7639 81.4156 52.7639 81.4224 52.7639 81.4292C52.7639 81.436 52.7639 81.4429 52.7639 81.4497C52.7639 81.4565 52.7639 81.4633 52.7639 81.4701C52.7639 81.4768 52.7639 81.4836 52.7639 81.4904C52.7639 81.4972 52.7639 81.5039 52.7639 81.5107C52.7639 81.5175 52.7639 81.5242 52.7639 81.531C52.7639 81.5377 52.7639 81.5444 52.7639 81.5512C52.7639 81.5579 52.7639 81.5646 52.7639 81.5713C52.7639 81.578 52.7639 81.5847 52.7639 81.5914C52.7639 81.5981 52.7639 81.6048 52.7639 81.6115C52.7639 81.6181 52.7639 81.6248 52.7639 81.6315C52.7639 81.6381 52.7639 81.6448 52.7639 81.6514C52.7639 81.6581 52.7639 81.6647 52.7639 81.6713C52.7639 81.6779 52.7639 81.6846 52.7639 81.6912C52.7639 81.6978 52.7639 81.7044 52.7639 81.711C52.7639 81.7176 52.7639 81.7241 52.7639 81.7307C52.7639 81.7373 52.7639 81.7439 52.7639 81.7504C52.7639 81.757 52.7639 81.7635 52.7639 81.7701C52.7639 81.7766 52.7639 81.7831 52.7639 81.7897C52.7639 81.7962 52.7639 81.8027 52.7639 81.8092C52.7639 81.8157 52.7639 81.8222 52.7639 81.8287C52.7639 81.8352 52.7639 81.8417 52.7639 81.8481C52.7639 81.8546 52.7639 81.8611 52.7639 81.8675C52.7639 81.874 52.7639 81.8804 52.7639 81.8868C52.7639 81.8933 52.7639 81.8997 52.7639 81.9061C52.7639 81.9125 52.7639 81.919 52.7639 81.9254C52.7639 81.9318 52.7639 81.9381 52.7639 81.9445C52.7639 81.9509 52.7639 81.9573 52.7639 81.9636C52.7639 81.97 52.7639 81.9764 52.7639 81.9827C52.7639 81.989 52.7639 81.9954 52.7639 82.0017C52.7639 82.008 52.7639 82.0144 52.7639 82.0207C52.7639 82.027 52.7639 82.0333 52.7639 82.0396C52.7639 82.0459 52.7639 82.0521 52.7639 82.0584C52.7639 82.0647 52.7639 82.0709 52.7639 82.0772C52.7639 82.0834 52.7639 82.0897 52.7639 82.0959C52.7639 82.1022 52.7639 82.1084 52.7639 82.1146C52.7639 82.1208 52.7639 82.127 52.7639 82.1332C52.7639 82.1394 52.7639 82.1456 52.7639 82.1518C52.7639 82.158 52.7639 82.1641 52.7639 82.1703C52.7639 82.1765 52.7639 82.1826 52.7639 82.1887C52.7639 82.1949 52.7639 82.201 52.7639 82.2071C52.7639 82.2133 52.7639 82.2194 52.7639 82.2255C52.7639 82.2316 52.7639 82.2377 52.7639 82.2438C52.7639 82.2498 52.7639 82.2559 52.7639 82.262C52.7639 82.268 52.7639 82.2741 52.7639 82.2801C52.7639 82.2862 52.7639 82.2922 52.7639 82.2982C52.7639 82.3043 52.7639 82.3103 52.7639 82.3163C52.7639 82.3223 52.7639 82.3283 52.7639 82.3343C52.7639 82.3403 52.7639 82.3462 52.7639 82.3522C52.7639 82.3582 52.7639 82.3641 52.7639 82.3701C52.7639 82.376 52.7639 82.3819 52.7639 82.3879C52.7639 82.3938 52.7639 82.3997 52.7639 82.4056C52.7639 82.4115 52.7639 82.4174 52.7639 82.4233C52.7639 82.4292 52.7639 82.4351 52.7639 82.4409C52.7639 82.4468 52.7639 82.4527 52.7639 82.4585C52.7639 82.4643 52.7639 82.4702 52.7639 82.476C52.7639 82.4818 52.7639 82.4876 52.7639 82.4935C52.7639 82.4993 52.7639 82.5051 52.7639 82.5108C52.7639 82.5166 52.7639 82.5224 52.7639 82.5282C52.7639 82.5339 52.7639 82.5397 52.7639 82.5454C52.7639 82.5512 52.7639 82.5569 52.7639 82.5626C52.7639 82.5683 52.7639 82.5741 52.7639 82.5798C52.7639 82.5855 52.7639 82.5911 52.7639 82.5968C52.7639 82.6025 52.7639 82.6082 52.7639 82.6138C52.7639 82.6195 52.7639 82.6251 52.7639 82.6308C52.7639 82.6364 52.7639 82.6421 52.7639 82.6477C52.7639 82.6533 52.7639 82.6589 52.7639 82.6645C52.7639 82.6701 52.7639 82.6757 52.7639 82.6813C52.7639 82.6868 52.7639 82.6924 52.7639 82.6979C52.7639 82.7035 52.7639 82.709 52.7639 82.7146C52.7639 82.7201 52.7639 82.7256 52.7639 82.7311C52.7639 82.7367 52.7639 82.7422 52.7639 82.7476C52.7639 82.7531 52.7639 82.7586 52.7639 82.7641C52.7639 82.7695 52.7639 82.775 52.7639 82.7804C52.7639 82.7859 52.7639 82.7913 52.7639 82.7968C52.7639 82.8022 52.7639 82.8076 52.7639 82.813C52.7639 82.8184 52.7639 82.8238 52.7639 82.8292C52.7639 82.8345 52.7639 82.8399 52.7639 82.8453C52.7639 82.8506 52.7639 82.856 52.7639 82.8613C52.7639 82.8667 52.7639 82.872 52.7639 82.8773C52.7639 82.8826 52.7639 82.8879 52.7639 82.8932C52.7639 82.8985 52.7639 82.9038 52.7639 82.909C52.7639 82.9143 52.7639 82.9196 52.7639 82.9248C52.7639 82.9301 52.7639 82.9353 52.7639 82.9405C52.7639 82.9457 52.7639 82.951 52.7639 82.9562C52.7639 82.9614 52.7639 82.9666 52.7639 82.9717C52.7639 82.9769 52.7639 82.9821 52.7639 82.9872C52.7639 82.9924 52.7639 82.9975 52.7639 83.0027C52.7639 83.0078 52.7639 83.0129 52.7639 83.018C52.7639 83.0231 52.7639 83.0282 52.7639 83.0333C52.7639 83.0384 52.7639 83.0435 52.7639 83.0486C52.7639 83.0536 52.7639 83.0587 52.7639 83.0637C52.7639 83.0687 52.7639 83.0738 52.7639 83.0788C52.7639 83.0838 52.7639 83.0888 52.7639 83.0938C52.7639 83.0988 52.7639 83.1038 52.7639 83.1088C52.7639 83.1137 52.7639 83.1187 52.7639 83.1236C52.7639 83.1286 52.7639 83.1335 52.7639 83.1384C52.7639 83.1434 52.7639 83.1483 52.7639 83.1532C52.7639 83.1581 52.7639 83.163 52.7639 83.1678C52.7639 83.1727 52.7639 83.1776 52.7639 83.1824C52.7639 83.1873 52.7639 83.1921 52.7639 83.197C52.7639 83.2018 52.7639 83.2066 52.7639 83.2114C52.7639 83.2162 52.7639 83.221 52.7639 83.2258C52.7639 83.2306 52.7639 83.2353 52.7639 83.2401C52.7639 83.2448 52.7639 83.2496 52.7639 83.2543C52.7639 83.259 52.7639 83.2638 52.7639 83.2685C52.7639 83.2732 52.7639 83.2779 52.7639 83.2826C52.7639 83.2872 52.7639 83.2919 52.7639 83.2966C52.7639 83.3012 52.7639 83.3059 52.7639 83.3105H65.7639C65.7639 83.3059 65.7639 83.3012 65.7639 83.2966C65.7639 83.2919 65.7639 83.2872 65.7639 83.2826C65.7639 83.2779 65.7639 83.2732 65.7639 83.2685C65.7639 83.2638 65.7639 83.259 65.7639 83.2543C65.7639 83.2496 65.7639 83.2448 65.7639 83.2401C65.7639 83.2353 65.7639 83.2306 65.7639 83.2258C65.7639 83.221 65.7639 83.2162 65.7639 83.2114C65.7639 83.2066 65.7639 83.2018 65.7639 83.197C65.7639 83.1921 65.7639 83.1873 65.7639 83.1824C65.7639 83.1776 65.7639 83.1727 65.7639 83.1678C65.7639 83.163 65.7639 83.1581 65.7639 83.1532C65.7639 83.1483 65.7639 83.1434 65.7639 83.1384C65.7639 83.1335 65.7639 83.1286 65.7639 83.1236C65.7639 83.1187 65.7639 83.1137 65.7639 83.1088C65.7639 83.1038 65.7639 83.0988 65.7639 83.0938C65.7639 83.0888 65.7639 83.0838 65.7639 83.0788C65.7639 83.0738 65.7639 83.0687 65.7639 83.0637C65.7639 83.0587 65.7639 83.0536 65.7639 83.0486C65.7639 83.0435 65.7639 83.0384 65.7639 83.0333C65.7639 83.0282 65.7639 83.0231 65.7639 83.018C65.7639 83.0129 65.7639 83.0078 65.7639 83.0027C65.7639 82.9975 65.7639 82.9924 65.7639 82.9872C65.7639 82.9821 65.7639 82.9769 65.7639 82.9717C65.7639 82.9666 65.7639 82.9614 65.7639 82.9562C65.7639 82.951 65.7639 82.9457 65.7639 82.9405C65.7639 82.9353 65.7639 82.9301 65.7639 82.9248C65.7639 82.9196 65.7639 82.9143 65.7639 82.909C65.7639 82.9038 65.7639 82.8985 65.7639 82.8932C65.7639 82.8879 65.7639 82.8826 65.7639 82.8773C65.7639 82.872 65.7639 82.8667 65.7639 82.8613C65.7639 82.856 65.7639 82.8506 65.7639 82.8453C65.7639 82.8399 65.7639 82.8345 65.7639 82.8292C65.7639 82.8238 65.7639 82.8184 65.7639 82.813C65.7639 82.8076 65.7639 82.8022 65.7639 82.7968C65.7639 82.7913 65.7639 82.7859 65.7639 82.7804C65.7639 82.775 65.7639 82.7695 65.7639 82.7641C65.7639 82.7586 65.7639 82.7531 65.7639 82.7476C65.7639 82.7422 65.7639 82.7367 65.7639 82.7311C65.7639 82.7256 65.7639 82.7201 65.7639 82.7146C65.7639 82.709 65.7639 82.7035 65.7639 82.6979C65.7639 82.6924 65.7639 82.6868 65.7639 82.6813C65.7639 82.6757 65.7639 82.6701 65.7639 82.6645C65.7639 82.6589 65.7639 82.6533 65.7639 82.6477C65.7639 82.6421 65.7639 82.6364 65.7639 82.6308C65.7639 82.6251 65.7639 82.6195 65.7639 82.6138C65.7639 82.6082 65.7639 82.6025 65.7639 82.5968C65.7639 82.5911 65.7639 82.5855 65.7639 82.5798C65.7639 82.5741 65.7639 82.5683 65.7639 82.5626C65.7639 82.5569 65.7639 82.5512 65.7639 82.5454C65.7639 82.5397 65.7639 82.5339 65.7639 82.5282C65.7639 82.5224 65.7639 82.5166 65.7639 82.5108C65.7639 82.5051 65.7639 82.4993 65.7639 82.4935C65.7639 82.4876 65.7639 82.4818 65.7639 82.476C65.7639 82.4702 65.7639 82.4643 65.7639 82.4585C65.7639 82.4527 65.7639 82.4468 65.7639 82.4409C65.7639 82.4351 65.7639 82.4292 65.7639 82.4233C65.7639 82.4174 65.7639 82.4115 65.7639 82.4056C65.7639 82.3997 65.7639 82.3938 65.7639 82.3879C65.7639 82.3819 65.7639 82.376 65.7639 82.3701C65.7639 82.3641 65.7639 82.3582 65.7639 82.3522C65.7639 82.3462 65.7639 82.3403 65.7639 82.3343C65.7639 82.3283 65.7639 82.3223 65.7639 82.3163C65.7639 82.3103 65.7639 82.3043 65.7639 82.2982C65.7639 82.2922 65.7639 82.2862 65.7639 82.2801C65.7639 82.2741 65.7639 82.268 65.7639 82.262C65.7639 82.2559 65.7639 82.2498 65.7639 82.2438C65.7639 82.2377 65.7639 82.2316 65.7639 82.2255C65.7639 82.2194 65.7639 82.2133 65.7639 82.2071C65.7639 82.201 65.7639 82.1949 65.7639 82.1887C65.7639 82.1826 65.7639 82.1765 65.7639 82.1703C65.7639 82.1641 65.7639 82.158 65.7639 82.1518C65.7639 82.1456 65.7639 82.1394 65.7639 82.1332C65.7639 82.127 65.7639 82.1208 65.7639 82.1146C65.7639 82.1084 65.7639 82.1022 65.7639 82.0959C65.7639 82.0897 65.7639 82.0834 65.7639 82.0772C65.7639 82.0709 65.7639 82.0647 65.7639 82.0584C65.7639 82.0521 65.7639 82.0459 65.7639 82.0396C65.7639 82.0333 65.7639 82.027 65.7639 82.0207C65.7639 82.0144 65.7639 82.008 65.7639 82.0017C65.7639 81.9954 65.7639 81.989 65.7639 81.9827C65.7639 81.9764 65.7639 81.97 65.7639 81.9636C65.7639 81.9573 65.7639 81.9509 65.7639 81.9445C65.7639 81.9381 65.7639 81.9318 65.7639 81.9254C65.7639 81.919 65.7639 81.9125 65.7639 81.9061C65.7639 81.8997 65.7639 81.8933 65.7639 81.8868C65.7639 81.8804 65.7639 81.874 65.7639 81.8675C65.7639 81.8611 65.7639 81.8546 65.7639 81.8481C65.7639 81.8417 65.7639 81.8352 65.7639 81.8287C65.7639 81.8222 65.7639 81.8157 65.7639 81.8092C65.7639 81.8027 65.7639 81.7962 65.7639 81.7897C65.7639 81.7831 65.7639 81.7766 65.7639 81.7701C65.7639 81.7635 65.7639 81.757 65.7639 81.7504C65.7639 81.7439 65.7639 81.7373 65.7639 81.7307C65.7639 81.7241 65.7639 81.7176 65.7639 81.711C65.7639 81.7044 65.7639 81.6978 65.7639 81.6912C65.7639 81.6846 65.7639 81.6779 65.7639 81.6713C65.7639 81.6647 65.7639 81.6581 65.7639 81.6514C65.7639 81.6448 65.7639 81.6381 65.7639 81.6315C65.7639 81.6248 65.7639 81.6181 65.7639 81.6115C65.7639 81.6048 65.7639 81.5981 65.7639 81.5914C65.7639 81.5847 65.7639 81.578 65.7639 81.5713C65.7639 81.5646 65.7639 81.5579 65.7639 81.5512C65.7639 81.5444 65.7639 81.5377 65.7639 81.531C65.7639 81.5242 65.7639 81.5175 65.7639 81.5107C65.7639 81.5039 65.7639 81.4972 65.7639 81.4904C65.7639 81.4836 65.7639 81.4768 65.7639 81.4701C65.7639 81.4633 65.7639 81.4565 65.7639 81.4497C65.7639 81.4429 65.7639 81.436 65.7639 81.4292C65.7639 81.4224 65.7639 81.4156 65.7639 81.4087C65.7639 81.4019 65.7639 81.395 65.7639 81.3882C65.7639 81.3813 65.7639 81.3745 65.7639 81.3676C65.7639 81.3607 65.7639 81.3539 65.7639 81.347C65.7639 81.3401 65.7639 81.3332 65.7639 81.3263C65.7639 81.3194 65.7639 81.3125 65.7639 81.3056C65.7639 81.2987 65.7639 81.2917 65.7639 81.2848C65.7639 81.2779 65.7639 81.2709 65.7639 81.264C65.7639 81.257 65.7639 81.2501 65.7639 81.2431C65.7639 81.2362 65.7639 81.2292 65.7639 81.2222C65.7639 81.2152 65.7639 81.2082 65.7639 81.2012C65.7639 81.1943 65.7639 81.1873 65.7639 81.1802C65.7639 81.1732 65.7639 81.1662 65.7639 81.1592C65.7639 81.1522 65.7639 81.1452 65.7639 81.1381C65.7639 81.1311 65.7639 81.124 65.7639 81.117C65.7639 81.1099 65.7639 81.1029 65.7639 81.0958C65.7639 81.0887 65.7639 81.0817 65.7639 81.0746C65.7639 81.0675 65.7639 81.0604 65.7639 81.0533C65.7639 81.0462 65.7639 81.0391 65.7639 81.032C65.7639 81.0249 65.7639 81.0178 65.7639 81.0107C65.7639 81.0035 65.7639 80.9964 65.7639 80.9893C65.7639 80.9821 65.7639 80.975 65.7639 80.9678C65.7639 80.9607 65.7639 80.9535 65.7639 80.9463C65.7639 80.9392 65.7639 80.932 65.7639 80.9248C65.7639 80.9176 65.7639 80.9105 65.7639 80.9033C65.7639 80.8961 65.7639 80.8889 65.7639 80.8817C65.7639 80.8744 65.7639 80.8672 65.7639 80.86C65.7639 80.8528 65.7639 80.8456 65.7639 80.8383C65.7639 80.8311 65.7639 80.8238 65.7639 80.8166C65.7639 80.8093 65.7639 80.8021 65.7639 80.7948C65.7639 80.7876 65.7639 80.7803 65.7639 80.773C65.7639 80.7657 65.7639 80.7584 65.7639 80.7512C65.7639 80.7439 65.7639 80.7366 65.7639 80.7293C65.7639 80.722 65.7639 80.7147 65.7639 80.7073C65.7639 80.7 65.7639 80.6927 65.7639 80.6854C65.7639 80.678 65.7639 80.6707 65.7639 80.6634C65.7639 80.656 65.7639 80.6487 65.7639 80.6413C65.7639 80.6339 65.7639 80.6266 65.7639 80.6192C65.7639 80.6118 65.7639 80.6045 65.7639 80.5971C65.7639 80.5897 65.7639 80.5823 65.7639 80.5749C65.7639 80.5675 65.7639 80.5601 65.7639 80.5527C65.7639 80.5453 65.7639 80.5379 65.7639 80.5305C65.7639 80.5231 65.7639 80.5156 65.7639 80.5082C65.7639 80.5008 65.7639 80.4933 65.7639 80.4859C65.7639 80.4785 65.7639 80.471 65.7639 80.4635C65.7639 80.4561 65.7639 80.4486 65.7639 80.4412C65.7639 80.4337 65.7639 80.4262 65.7639 80.4187C65.7639 80.4112 65.7639 80.4038 65.7639 80.3963C65.7639 80.3888 65.7639 80.3813 65.7639 80.3738C65.7639 80.3663 65.7639 80.3588 65.7639 80.3512C65.7639 80.3437 65.7639 80.3362 65.7639 80.3287C65.7639 80.3211 65.7639 80.3136 65.7639 80.3061C65.7639 80.2985 65.7639 80.291 65.7639 80.2834C65.7639 80.2759 65.7639 80.2683 65.7639 80.2607C65.7639 80.2532 65.7639 80.2456 65.7639 80.238C65.7639 80.2305 65.7639 80.2229 65.7639 80.2153C65.7639 80.2077 65.7639 80.2001 65.7639 80.1925C65.7639 80.1849 65.7639 80.1773 65.7639 80.1697C65.7639 80.1621 65.7639 80.1545 65.7639 80.1469C65.7639 80.1392 65.7639 80.1316 65.7639 80.124C65.7639 80.1163 65.7639 80.1087 65.7639 80.1011C65.7639 80.0934 65.7639 80.0858 65.7639 80.0781C65.7639 80.0705 65.7639 80.0628 65.7639 80.0551C65.7639 80.0475 65.7639 80.0398 65.7639 80.0321C65.7639 80.0245 65.7639 80.0168 65.7639 80.0091C65.7639 80.0014 65.7639 79.9937 65.7639 79.986C65.7639 79.9783 65.7639 79.9706 65.7639 79.9629C65.7639 79.9552 65.7639 79.9475 65.7639 79.9398C65.7639 79.932 65.7639 79.9243 65.7639 79.9166C65.7639 79.9089 65.7639 79.9011 65.7639 79.8934C65.7639 79.8857 65.7639 79.8779 65.7639 79.8702C65.7639 79.8624 65.7639 79.8547 65.7639 79.8469C65.7639 79.8391 65.7639 79.8314 65.7639 79.8236C65.7639 79.8158 65.7639 79.8081 65.7639 79.8003C65.7639 79.7925 65.7639 79.7847 65.7639 79.7769C65.7639 79.7691 65.7639 79.7614 65.7639 79.7536C65.7639 79.7458 65.7639 79.738 65.7639 79.7301C65.7639 79.7223 65.7639 79.7145 65.7639 79.7067C65.7639 79.6989 65.7639 79.6911 65.7639 79.6832C65.7639 79.6754 65.7639 79.6676 65.7639 79.6597C65.7639 79.6519 65.7639 79.6441 65.7639 79.6362C65.7639 79.6284 65.7639 79.6205 65.7639 79.6127C65.7639 79.6048 65.7639 79.5969 65.7639 79.5891C65.7639 79.5812 65.7639 79.5733 65.7639 79.5655C65.7639 79.5576 65.7639 79.5497 65.7639 79.5418C65.7639 79.5339 65.7639 79.5261 65.7639 79.5182C65.7639 79.5103 65.7639 79.5024 65.7639 79.4945C65.7639 79.4866 65.7639 79.4787 65.7639 79.4708C65.7639 79.4628 65.7639 79.4549 65.7639 79.447C65.7639 79.4391 65.7639 79.4312 65.7639 79.4232C65.7639 79.4153 65.7639 79.4074 65.7639 79.3994C65.7639 79.3915 65.7639 79.3836 65.7639 79.3756C65.7639 79.3677 65.7639 79.3597 65.7639 79.3518C65.7639 79.3438 65.7639 79.3359 65.7639 79.3279C65.7639 79.3199 65.7639 79.312 65.7639 79.304C65.7639 79.296 65.7639 79.2881 65.7639 79.2801C65.7639 79.2721 65.7639 79.2641 65.7639 79.2561C65.7639 79.2481 65.7639 79.2401 65.7639 79.2322C65.7639 79.2242 65.7639 79.2162 65.7639 79.2082C65.7639 79.2002 65.7639 79.1921 65.7639 79.1841C65.7639 79.1761 65.7639 79.1681 65.7639 79.1601C65.7639 79.1521 65.7639 79.1441 65.7639 79.136C65.7639 79.128 65.7639 79.12 65.7639 79.1119C65.7639 79.1039 65.7639 79.0959 65.7639 79.0878C65.7639 79.0798 65.7639 79.0717 65.7639 79.0637C65.7639 79.0556 65.7639 79.0476 65.7639 79.0395C65.7639 79.0315 65.7639 79.0234 65.7639 79.0154C65.7639 79.0073 65.7639 78.9992 65.7639 78.9912C65.7639 78.9831 65.7639 78.975 65.7639 78.9669C65.7639 78.9589 65.7639 78.9508 65.7639 78.9427C65.7639 78.9346 65.7639 78.9265 65.7639 78.9184C65.7639 78.9103 65.7639 78.9022 65.7639 78.8941C65.7639 78.886 65.7639 78.8779 65.7639 78.8698C65.7639 78.8617 65.7639 78.8536 65.7639 78.8455C65.7639 78.8374 65.7639 78.8293 65.7639 78.8212C65.7639 78.813 65.7639 78.8049 65.7639 78.7968C65.7639 78.7887 65.7639 78.7805 65.7639 78.7724C65.7639 78.7643 65.7639 78.7561 65.7639 78.748C65.7639 78.7399 65.7639 78.7317 65.7639 78.7236C65.7639 78.7154 65.7639 78.7073 65.7639 78.6991C65.7639 78.691 65.7639 78.6828 65.7639 78.6747C65.7639 78.6665 65.7639 78.6583 65.7639 78.6502C65.7639 78.642 65.7639 78.6338 65.7639 78.6257C65.7639 78.6175 65.7639 78.6093 65.7639 78.6012C65.7639 78.593 65.7639 78.5848 65.7639 78.5766C65.7639 78.5684 65.7639 78.5603 65.7639 78.5521C65.7639 78.5439 65.7639 78.5357 65.7639 78.5275C65.7639 78.5193 65.7639 78.5111 65.7639 78.5029C65.7639 78.4947 65.7639 78.4865 65.7639 78.4783C65.7639 78.4701 65.7639 78.4619 65.7639 78.4537C65.7639 78.4455 65.7639 78.4373 65.7639 78.429C65.7639 78.4208 65.7639 78.4126 65.7639 78.4044C65.7639 78.3962 65.7639 78.3879 65.7639 78.3797C65.7639 78.3715 65.7639 78.3633 65.7639 78.355C65.7639 78.3468 65.7639 78.3386 65.7639 78.3303C65.7639 78.3221 65.7639 78.3139 65.7639 78.3056C65.7639 78.2974 65.7639 78.2891 65.7639 78.2809C65.7639 78.2726 65.7639 78.2644 65.7639 78.2561C65.7639 78.2479 65.7639 78.2396 65.7639 78.2314C65.7639 78.2231 65.7639 78.2149 65.7639 78.2066C65.7639 78.1984 65.7639 78.1901 65.7639 78.1818C65.7639 78.1736 65.7639 78.1653 65.7639 78.157C65.7639 78.1488 65.7639 78.1405 65.7639 78.1322C65.7639 78.1239 65.7639 78.1157 65.7639 78.1074C65.7639 78.0991 65.7639 78.0908 65.7639 78.0825C65.7639 78.0743 65.7639 78.066 65.7639 78.0577C65.7639 78.0494 65.7639 78.0411 65.7639 78.0328C65.7639 78.0245 65.7639 78.0162 65.7639 78.0079C65.7639 77.9997 65.7639 77.9914 65.7639 77.9831C65.7639 77.9748 65.7639 77.9665 65.7639 77.9582C65.7639 77.9499 65.7639 77.9416 65.7639 77.9332C65.7639 77.9249 65.7639 77.9166 65.7639 77.9083C65.7639 77.9 65.7639 77.8917 65.7639 77.8834C65.7639 77.8751 65.7639 77.8668 65.7639 77.8584C65.7639 77.8501 65.7639 77.8418 65.7639 77.8335C65.7639 77.8252 65.7639 77.8168 65.7639 77.8085C65.7639 77.8002 65.7639 77.7919 65.7639 77.7835C65.7639 77.7752 65.7639 77.7669 65.7639 77.7586C65.7639 77.7502 65.7639 77.7419 65.7639 77.7336C65.7639 77.7252 65.7639 77.7169 65.7639 77.7086C65.7639 77.7002 65.7639 77.6919 65.7639 77.6835C65.7639 77.6752 65.7639 77.6669 65.7639 77.6585C65.7639 77.6502 65.7639 77.6418 65.7639 77.6335C65.7639 77.6251 65.7639 77.6168 65.7639 77.6084C65.7639 77.6001 65.7639 77.5918 65.7639 77.5834C65.7639 77.5751 65.7639 77.5667 65.7639 77.5583C65.7639 77.55 65.7639 77.5416 65.7639 77.5333C65.7639 77.5249 65.7639 77.5166 65.7639 77.5082C65.7639 77.4999 65.7639 77.4915 65.7639 77.4831C65.7639 77.4748 65.7639 77.4664 65.7639 77.458C65.7639 77.4497 65.7639 77.4413 65.7639 77.433C65.7639 77.4246 65.7639 77.4162 65.7639 77.4079C65.7639 77.3995 65.7639 77.3911 65.7639 77.3828C65.7639 77.3744 65.7639 77.366 65.7639 77.3576C65.7639 77.3493 65.7639 77.3409 65.7639 77.3325C65.7639 77.3242 65.7639 77.3158 65.7639 77.3074C65.7639 77.299 65.7639 77.2907 65.7639 77.2823C65.7639 77.2739 65.7639 77.2655 65.7639 77.2572C65.7639 77.2488 65.7639 77.2404 65.7639 77.232C65.7639 77.2236 65.7639 77.2153 65.7639 77.2069C65.7639 77.1985 65.7639 77.1901 65.7639 77.1817C65.7639 77.1734 65.7639 77.165 65.7639 77.1566C65.7639 77.1482 65.7639 77.1398 65.7639 77.1314C65.7639 77.1231 65.7639 77.1147 65.7639 77.1063C65.7639 77.0979 65.7639 77.0895 65.7639 77.0811C65.7639 77.0727 65.7639 77.0643 65.7639 77.056C65.7639 77.0476 65.7639 77.0392 65.7639 77.0308C65.7639 77.0224 65.7639 77.014 65.7639 77.0056C65.7639 76.9972 65.7639 76.9889 65.7639 76.9805C65.7639 76.9721 65.7639 76.9637 65.7639 76.9553C65.7639 76.9469 65.7639 76.9385 65.7639 76.9301C65.7639 76.9217 65.7639 76.9133 65.7639 76.9049C65.7639 76.8966 65.7639 76.8882 65.7639 76.8798C65.7639 76.8714 65.7639 76.863 65.7639 76.8546C65.7639 76.8462 65.7639 76.8378 65.7639 76.8294C65.7639 76.821 65.7639 76.8126 65.7639 76.8042C65.7639 76.7958 65.7639 76.7874 65.7639 76.7791C65.7639 76.7707 65.7639 76.7623 65.7639 76.7539C65.7639 76.7455 65.7639 76.7371 65.7639 76.7287C65.7639 76.7203 65.7639 76.7119 65.7639 76.7035C65.7639 76.6951 65.7639 76.6867 65.7639 76.6783C65.7639 76.67 65.7639 76.6616 65.7639 76.6532C65.7639 76.6448 65.7639 76.6364 65.7639 76.628C65.7639 76.6196 65.7639 76.6112 65.7639 76.6028C65.7639 76.5944 65.7639 76.586 65.7639 76.5776C65.7639 76.5693 65.7639 76.5609 65.7639 76.5525C65.7639 76.5441 65.7639 76.5357 65.7639 76.5273C65.7639 76.5189 65.7639 76.5105 65.7639 76.5021C65.7639 76.4938 65.7639 76.4854 65.7639 76.477C65.7639 76.4686 65.7639 76.4602 65.7639 76.4518C65.7639 76.4434 65.7639 76.435 65.7639 76.4267C65.7639 76.4183 65.7639 76.4099 65.7639 76.4015C65.7639 76.3931 65.7639 76.3847 65.7639 76.3764C65.7639 76.368 65.7639 76.3596 65.7639 76.3512C65.7639 76.3428 65.7639 76.3344 65.7639 76.3261C65.7639 76.3177 65.7639 76.3093 65.7639 76.3009C65.7639 76.2925 65.7639 76.2842 65.7639 76.2758C65.7639 76.2674 65.7639 76.259 65.7639 76.2507C65.7639 76.2423 65.7639 76.2339 65.7639 76.2255C65.7639 76.2172 65.7639 76.2088 65.7639 76.2004C65.7639 76.192 65.7639 76.1837 65.7639 76.1753C65.7639 76.1669 65.7639 76.1586 65.7639 76.1502C65.7639 76.1418 65.7639 76.1335 65.7639 76.1251C65.7639 76.1167 65.7639 76.1084 65.7639 76.1C65.7639 76.0916 65.7639 76.0833 65.7639 76.0749C65.7639 76.0665 65.7639 76.0582 65.7639 76.0498C65.7639 76.0415 65.7639 76.0331 65.7639 76.0247C65.7639 76.0164 65.7639 76.008 65.7639 75.9997C65.7639 75.9913 65.7639 75.983 65.7639 75.9746C65.7639 75.9663 65.7639 75.9579 65.7639 75.9496C65.7639 75.9412 65.7639 75.9329 65.7639 75.9245C65.7639 75.9162 65.7639 75.9078 65.7639 75.8995C65.7639 75.8911 65.7639 75.8828 65.7639 75.8744C65.7639 75.8661 65.7639 75.8578 65.7639 75.8494C65.7639 75.8411 65.7639 75.8327 65.7639 75.8244C65.7639 75.8161 65.7639 75.8077 65.7639 75.7994C65.7639 75.7911 65.7639 75.7827 65.7639 75.7744C65.7639 75.7661 65.7639 75.7578 65.7639 75.7494C65.7639 75.7411 65.7639 75.7328 65.7639 75.7245C65.7639 75.7161 65.7639 75.7078 65.7639 75.6995C65.7639 75.6912 65.7639 75.6829 65.7639 75.6745C65.7639 75.6662 65.7639 75.6579 65.7639 75.6496C65.7639 75.6413 65.7639 75.633 65.7639 75.6247C65.7639 75.6163 65.7639 75.608 65.7639 75.5997C65.7639 75.5914 65.7639 75.5831 65.7639 75.5748C65.7639 75.5665 65.7639 75.5582 65.7639 75.5499C65.7639 75.5416 65.7639 75.5333 65.7639 75.525C65.7639 75.5167 65.7639 75.5085 65.7639 75.5002C65.7639 75.4919 65.7639 75.4836 65.7639 75.4753C65.7639 75.467 65.7639 75.4587 65.7639 75.4505C65.7639 75.4422 65.7639 75.4339 65.7639 75.4256C65.7639 75.4173 65.7639 75.4091 65.7639 75.4008C65.7639 75.3925 65.7639 75.3842 65.7639 75.376C65.7639 75.3677 65.7639 75.3594 65.7639 75.3512C65.7639 75.3429 65.7639 75.3347 65.7639 75.3264C65.7639 75.3181 65.7639 75.3099 65.7639 75.3016C65.7639 75.2934 65.7639 75.2851 65.7639 75.2769C65.7639 75.2686 65.7639 75.2604 65.7639 75.2521C65.7639 75.2439 65.7639 75.2356 65.7639 75.2274C65.7639 75.2192 65.7639 75.2109 65.7639 75.2027C65.7639 75.1945 65.7639 75.1862 65.7639 75.178C65.7639 75.1698 65.7639 75.1615 65.7639 75.1533C65.7639 75.1451 65.7639 75.1369 65.7639 75.1286C65.7639 75.1204 65.7639 75.1122 65.7639 75.104C65.7639 75.0958 65.7639 75.0876 65.7639 75.0794C65.7639 75.0711 65.7639 75.0629 65.7639 75.0547C65.7639 75.0465 65.7639 75.0383 65.7639 75.0301C65.7639 75.0219 65.7639 75.0137 65.7639 75.0056C65.7639 74.9974 65.7639 74.9892 65.7639 74.981C65.7639 74.9728 65.7639 74.9646 65.7639 74.9564C65.7639 74.9483 65.7639 74.9401 65.7639 74.9319C65.7639 74.9237 65.7639 74.9156 65.7639 74.9074C65.7639 74.8992 65.7639 74.8911 65.7639 74.8829C65.7639 74.8747 65.7639 74.8666 65.7639 74.8584C65.7639 74.8503 65.7639 74.8421 65.7639 74.834C65.7639 74.8258 65.7639 74.8177 65.7639 74.8095C65.7639 74.8014 65.7639 74.7932 65.7639 74.7851C65.7639 74.777 65.7639 74.7688 65.7639 74.7607C65.7639 74.7526 65.7639 74.7444 65.7639 74.7363C65.7639 74.7282 65.7639 74.7201 65.7639 74.7119C65.7639 74.7038 65.7639 74.6957 65.7639 74.6876C65.7639 74.6795 65.7639 74.6714 65.7639 74.6633C65.7639 74.6552 65.7639 74.6471 65.7639 74.639C65.7639 74.6309 65.7639 74.6228 65.7639 74.6147C65.7639 74.6066 65.7639 74.5985 65.7639 74.5904C65.7639 74.5823 65.7639 74.5743 65.7639 74.5662C65.7639 74.5581 65.7639 74.55 65.7639 74.542C65.7639 74.5339 65.7639 74.5258 65.7639 74.5178C65.7639 74.5097 65.7639 74.5016 65.7639 74.4936C65.7639 74.4855 65.7639 74.4775 65.7639 74.4694C65.7639 74.4614 65.7639 74.4533 65.7639 74.4453C65.7639 74.4373 65.7639 74.4292 65.7639 74.4212C65.7639 74.4132 65.7639 74.4051 65.7639 74.3971C65.7639 74.3891 65.7639 74.3811 65.7639 74.3731C65.7639 74.365 65.7639 74.357 65.7639 74.349C65.7639 74.341 65.7639 74.333 65.7639 74.325C65.7639 74.317 65.7639 74.309 65.7639 74.301C65.7639 74.293 65.7639 74.285 65.7639 74.277C65.7639 74.2691 65.7639 74.2611 65.7639 74.2531C65.7639 74.2451 65.7639 74.2371 65.7639 74.2292C65.7639 74.2212 65.7639 74.2132 65.7639 74.2053C65.7639 74.1973 65.7639 74.1894 65.7639 74.1814C65.7639 74.1735 65.7639 74.1655 65.7639 74.1576C65.7639 74.1496 65.7639 74.1417 65.7639 74.1338C65.7639 74.1258 65.7639 74.1179 65.7639 74.11C65.7639 74.102 65.7639 74.0941 65.7639 74.0862C65.7639 74.0783 65.7639 74.0704 65.7639 74.0625C65.7639 74.0546 65.7639 74.0466 65.7639 74.0387C65.7639 74.0308 65.7639 74.023 65.7639 74.0151C65.7639 74.0072 65.7639 73.9993 65.7639 73.9914C65.7639 73.9835 65.7639 73.9756 65.7639 73.9678C65.7639 73.9599 65.7639 73.952 65.7639 73.9442C65.7639 73.9363 65.7639 73.9284 65.7639 73.9206C65.7639 73.9127 65.7639 73.9049 65.7639 73.897C65.7639 73.8892 65.7639 73.8814 65.7639 73.8735C65.7639 73.8657 65.7639 73.8579 65.7639 73.85C65.7639 73.8422 65.7639 73.8344 65.7639 73.8266C65.7639 73.8187 65.7639 73.8109 65.7639 73.8031C65.7639 73.7953 65.7639 73.7875 65.7639 73.7797C65.7639 73.7719 65.7639 73.7641 65.7639 73.7563C65.7639 73.7486 65.7639 73.7408 65.7639 73.733C65.7639 73.7252 65.7639 73.7174 65.7639 73.7097C65.7639 73.7019 65.7639 73.6942 65.7639 73.6864C65.7639 73.6786 65.7639 73.6709 65.7639 73.6631C65.7639 73.6554 65.7639 73.6477 65.7639 73.6399C65.7639 73.6322 65.7639 73.6244 65.7639 73.6167C65.7639 73.609 65.7639 73.6013 65.7639 73.5936C65.7639 73.5858 65.7639 73.5781 65.7639 73.5704C65.7639 73.5627 65.7639 73.555 65.7639 73.5473C65.7639 73.5396 65.7639 73.5319 65.7639 73.5243C65.7639 73.5166 65.7639 73.5089 65.7639 73.5012C65.7639 73.4935 65.7639 73.4859 65.7639 73.4782C65.7639 73.4706 65.7639 73.4629 65.7639 73.4552C65.7639 73.4476 65.7639 73.4399 65.7639 73.4323C65.7639 73.4247 65.7639 73.417 65.7639 73.4094C65.7639 73.4018 65.7639 73.3941 65.7639 73.3865C65.7639 73.3789 65.7639 73.3713 65.7639 73.3637C65.7639 73.3561 65.7639 73.3485 65.7639 73.3409C65.7639 73.3333 65.7639 73.3257 65.7639 73.3181C65.7639 73.3105 65.7639 73.3029 65.7639 73.2954C65.7639 73.2878 65.7639 73.2802 65.7639 73.2727C65.7639 73.2651 65.7639 73.2575 65.7639 73.25C65.7639 73.2424 65.7639 73.2349 65.7639 73.2274C65.7639 73.2198 65.7639 73.2123 65.7639 73.2048C65.7639 73.1972 65.7639 73.1897 65.7639 73.1822C65.7639 73.1747 65.7639 73.1672 65.7639 73.1597C65.7639 73.1522 65.7639 73.1447 65.7639 73.1372C65.7639 73.1297 65.7639 73.1222 65.7639 73.1147C65.7639 73.1073 65.7639 73.0998 65.7639 73.0923C65.7639 73.0848 65.7639 73.0774 65.7639 73.0699C65.7639 73.0625 65.7639 73.055 65.7639 73.0476C65.7639 73.0401 65.7639 73.0327 65.7639 73.0253C65.7639 73.0179 65.7639 73.0104 65.7639 73.003C65.7639 72.9956 65.7639 72.9882 65.7639 72.9808C65.7639 72.9734 65.7639 72.966 65.7639 72.9586C65.7639 72.9512 65.7639 72.9438 65.7639 72.9364C65.7639 72.929 65.7639 72.9217 65.7639 72.9143C65.7639 72.9069 65.7639 72.8996 65.7639 72.8922C65.7639 72.8849 65.7639 72.8775 65.7639 72.8702C65.7639 72.8628 65.7639 72.8555 65.7639 72.8482C65.7639 72.8409 65.7639 72.8335 65.7639 72.8262C65.7639 72.8189 65.7639 72.8116 65.7639 72.8043C65.7639 72.797 65.7639 72.7897 65.7639 72.7824C65.7639 72.7751 65.7639 72.7678 65.7639 72.7606C65.7639 72.7533 65.7639 72.746 65.7639 72.7388C65.7639 72.7315 65.7639 72.7243 65.7639 72.717C65.7639 72.7098 65.7639 72.7025 65.7639 72.6953C65.7639 72.6881 65.7639 72.6808 65.7639 72.6736C65.7639 72.6664 65.7639 72.6592 65.7639 72.652C65.7639 72.6448 65.7639 72.6376 65.7639 72.6304C65.7639 72.6232 65.7639 72.616 65.7639 72.6088C65.7639 72.6016 65.7639 72.5945 65.7639 72.5873C65.7639 72.5801 65.7639 72.573 65.7639 72.5658C65.7639 72.5587 65.7639 72.5515 65.7639 72.5444C65.7639 72.5373 65.7639 72.5301 65.7639 72.523C65.7639 72.5159 65.7639 72.5088 65.7639 72.5017C65.7639 72.4946 65.7639 72.4875 65.7639 72.4804C65.7639 72.4733 65.7639 72.4662 65.7639 72.4591C65.7639 72.452 65.7639 72.445 65.7639 72.4379C65.7639 72.4308 65.7639 72.4238 65.7639 72.4167C65.7639 72.4097 65.7639 72.4026 65.7639 72.3956C65.7639 72.3886 65.7639 72.3815 65.7639 72.3745C65.7639 72.3675 65.7639 72.3605 65.7639 72.3535C65.7639 72.3465 65.7639 72.3395 65.7639 72.3325C65.7639 72.3255 65.7639 72.3185 65.7639 72.3115C65.7639 72.3046 65.7639 72.2976 65.7639 72.2906C65.7639 72.2837 65.7639 72.2767 65.7639 72.2698C65.7639 72.2628 65.7639 72.2559 65.7639 72.249C65.7639 72.2421 65.7639 72.2351 65.7639 72.2282C65.7639 72.2213 65.7639 72.2144 65.7639 72.2075C65.7639 72.2006 65.7639 72.1937 65.7639 72.1868C65.7639 72.18 65.7639 72.1731 65.7639 72.1662C65.7639 72.1593 65.7639 72.1525 65.7639 72.1456C65.7639 72.1388 65.7639 72.1319 65.7639 72.1251C65.7639 72.1183 65.7639 72.1114 65.7639 72.1046C65.7639 72.0978 65.7639 72.091 65.7639 72.0842C65.7639 72.0774 65.7639 72.0706 65.7639 72.0638C65.7639 72.057 65.7639 72.0502 65.7639 72.0435C65.7639 72.0367 65.7639 72.0299 65.7639 72.0232C65.7639 72.0164 65.7639 72.0097 65.7639 72.0029C65.7639 71.9962 65.7639 71.9895 65.7639 71.9827C65.7639 71.976 65.7639 71.9693 65.7639 71.9626C65.7639 71.9559 65.7639 71.9492 65.7639 71.9425C65.7639 71.9358 65.7639 71.9291 65.7639 71.9225H52.7639ZM59.2639 89.8105H70.652V76.8105H59.2639V89.8105ZM70.1888 89.794C70.6187 89.8247 71.6875 90.1096 72.5468 90.8781C73.1854 91.4492 74.1165 92.625 74.1165 95.4103L87.1165 95.4103C87.1165 89.0852 84.726 84.3297 81.2127 81.1878C77.9202 78.2433 74.0068 77.0336 71.1151 76.827L70.1888 89.794ZM74.1165 95.4103C74.1165 98.4655 73.602 100.103 73.1967 100.909C72.8444 101.61 72.4986 101.851 72.2127 101.999C71.815 102.203 71.1991 102.372 70.2552 102.438C69.0905 102.519 68.5912 102.434 67.0932 102.434L67.0932 115.434C67.8962 115.434 73.4439 115.988 78.1661 113.555C83.9523 110.575 87.1165 104.434 87.1165 95.4103L74.1165 95.4103ZM67.0932 102.434H45.7406V115.434H67.0932V102.434ZM40.8324 36.535C40.5457 32.9029 41.1467 27.5334 43.5165 23.341C45.6247 19.6115 49.2314 16.5 56.4169 16.5V3.5C44.2427 3.5 36.4614 9.40405 32.1994 16.9439C28.199 24.0209 27.4477 32.1748 27.8727 37.5582L40.8324 36.535ZM56.4169 16.5C63.6024 16.5 67.2091 19.6115 69.3173 23.341C71.6871 27.5334 72.2881 32.9029 72.0014 36.535L84.9611 37.5582C85.3861 32.1748 84.6348 24.0209 80.6344 16.9439C76.3724 9.40405 68.5911 3.5 56.4169 3.5V16.5Z" fill="black"/>
</svg>
