<?xml version="1.0" standalone="no"?>
<!DOCTYPE svg PUBLIC "-//W3C//DTD SVG 20010904//EN"
 "http://www.w3.org/TR/2001/REC-SVG-20010904/DTD/svg10.dtd">
<svg version="1.0" xmlns="http://www.w3.org/2000/svg"
 width="800.000000pt" height="800.000000pt" viewBox="0 0 800.000000 800.000000"
 preserveAspectRatio="xMidYMid meet">
<metadata>
Created by potrace 1.11, written by Peter Selinger 2001-2013
</metadata>
<g transform="translate(0.000000,800.000000) scale(0.100000,-0.100000)"
fill="#000000" stroke="none">
<path d="M2699 7996 c-2 -2 -42 -7 -89 -10 -47 -3 -96 -8 -110 -11 -14 -2 -43
-6 -65 -9 -342 -42 -710 -175 -967 -352 -128 -87 -148 -104 -258 -214 -214
-213 -364 -469 -449 -765 -17 -60 -33 -137 -67 -320 -5 -22 -9 -1259 -11
-2750 -2 -2623 -2 -2713 16 -2790 25 -104 47 -165 89 -245 110 -209 293 -364
518 -439 114 -38 170 -46 319 -45 113 1 223 20 300 53 100 42 194 96 254 146
37 31 117 112 351 355 232 241 223 231 510 530 107 112 215 224 240 248 l45
45 895 -2 c492 -1 938 -2 990 -3 93 -1 280 8 330 16 23 4 74 11 154 22 117 16
366 94 501 158 85 40 260 143 287 169 7 7 31 25 53 41 51 38 219 205 272 271
200 250 371 645 419 970 3 17 7 41 10 54 3 13 7 46 10 75 3 28 7 53 9 56 10
16 20 228 20 410 0 208 -7 321 -25 420 -5 30 -12 71 -15 90 -3 19 -17 79 -31
133 -22 88 -31 117 -60 192 -4 11 -8 22 -9 25 -15 63 -137 308 -181 367 -13
17 -24 35 -24 39 0 4 -32 49 -71 100 -98 130 -237 272 -354 362 -55 42 -155
112 -159 112 -3 0 -22 12 -43 26 -139 95 -427 207 -638 248 -44 9 -93 18 -110
21 -16 4 -106 8 -199 11 -93 2 -171 5 -172 7 -1 1 -4 99 -7 217 -5 186 -13
265 -41 405 -49 246 -175 518 -345 745 -62 84 -230 257 -306 316 -27 21 -56
44 -63 51 -19 18 -169 116 -227 148 -55 31 -147 78 -155 80 -3 0 -27 11 -55
23 -166 76 -450 151 -667 178 -24 3 -56 7 -73 10 -34 6 -541 15 -546 10z"/>
</g>
</svg>
